<?xml version="1.0" encoding="UTF-8"?>
<svg width="77px" height="55px" viewBox="0 0 77 55" version="1.1" xmlns="http://www.w3.org/2000/svg" xmlns:xlink="http://www.w3.org/1999/xlink">
    <!-- Generator: Sketch 56.3 (81716) - https://sketch.com -->
    <title>icon-car-loan</title>
    <desc>Created with Sketch.</desc>
    <defs>
        <polygon id="path-1" points="0 0.9382 61.1297151 0.9382 61.1297151 23.4482 0 23.4482"></polygon>
        <polygon id="path-3" points="0.100104999 0.716 50.065895 0.716 50.065895 20.9346 0.100104999 20.9346"></polygon>
        <path d="M2.226,0.85 L0.74,6.998 L9.939,6.998 C9.7,6.998 9.45,6.969 9.21,6.918 L9.21,6.918 C8.41,6.719 7.74,6.229 7.311,5.529 L7.311,5.529 C6.88,4.829 6.75,3.998 6.951,3.199 L6.951,3.199 C7.14,2.408 7.63,1.729 8.33,1.299 L8.33,1.299 C9.04,0.868 9.859,0.748 10.66,0.939 L10.66,0.939 C11.46,1.128 12.13,1.618 12.56,2.318 L12.56,2.318 C12.99,3.029 13.12,3.848 12.92,4.648 L12.92,4.648 C12.73,5.449 12.24,6.118 11.54,6.548 L11.54,6.548 C11.05,6.849 10.5,6.998 9.939,6.998 L9.939,6.998 L17.294,6.998 L18.43,2.299 C18.447,2.231 18.456,2.164 18.458,2.097 L18.458,2.097 L18.458,2.033 C18.444,1.599 18.14,1.207 17.689,1.099 L17.689,1.099 L16.665,0.85 L2.226,0.85 Z" id="path-5"></path>
        <path d="M6.79,1.519 L0.21,28.738 C0.189,28.808 0.179,28.889 0.179,28.969 L0.179,28.969 C0.179,29.149 0.231,29.328 0.331,29.488 L0.331,29.488 C0.47,29.719 0.69,29.878 0.951,29.939 L0.951,29.939 L14.641,33.259 C14.71,33.275 14.781,33.284 14.851,33.285 L14.851,33.285 L14.894,33.285 C15.071,33.281 15.244,33.23 15.4,33.128 L15.4,33.128 C15.63,32.988 15.79,32.778 15.849,32.518 L15.849,32.518 L22.43,5.299 C22.447,5.231 22.456,5.164 22.458,5.097 L22.458,5.097 L22.458,5.033 C22.444,4.599 22.14,4.207 21.689,4.099 L21.689,4.099 L8,0.778 C7.92,0.769 7.85,0.759 7.77,0.759 L7.77,0.759 C7.32,0.759 6.91,1.059 6.79,1.519 M13.21,9.918 C12.41,9.719 11.74,9.229 11.311,8.529 L11.311,8.529 C10.88,7.829 10.75,6.998 10.951,6.199 L10.951,6.199 C11.14,5.408 11.63,4.729 12.33,4.299 L12.33,4.299 C13.04,3.868 13.859,3.748 14.66,3.939 L14.66,3.939 C15.46,4.128 16.13,4.618 16.56,5.318 L16.56,5.318 C16.99,6.029 17.12,6.848 16.92,7.648 L16.92,7.648 C16.73,8.449 16.24,9.118 15.54,9.548 L15.54,9.548 C15.05,9.849 14.5,9.998 13.939,9.998 L13.939,9.998 C13.7,9.998 13.45,9.969 13.21,9.918" id="path-7"></path>
        <linearGradient x1="39.9415404%" y1="21.4865761%" x2="57.8943605%" y2="100%" id="linearGradient-9">
            <stop stop-color="#F16370" offset="0%"></stop>
            <stop stop-color="#EE629A" offset="100%"></stop>
        </linearGradient>
        <path d="M6.79,1.519 L0.21,28.738 C0.189,28.808 0.179,28.889 0.179,28.969 L0.179,28.969 C0.179,29.149 0.231,29.328 0.331,29.488 L0.331,29.488 C0.47,29.719 0.69,29.878 0.951,29.939 L0.951,29.939 L14.641,33.259 C14.71,33.275 14.781,33.284 14.851,33.285 L14.851,33.285 L14.894,33.285 C15.071,33.281 15.244,33.23 15.4,33.128 L15.4,33.128 C15.63,32.988 15.79,32.778 15.849,32.518 L15.849,32.518 L22.43,5.299 C22.447,5.231 22.456,5.164 22.458,5.097 L22.458,5.097 L22.458,5.033 C22.444,4.599 22.14,4.207 21.689,4.099 L21.689,4.099 L8,0.778 C7.92,0.769 7.85,0.759 7.77,0.759 L7.77,0.759 C7.32,0.759 6.91,1.059 6.79,1.519 M13.21,9.918 C12.41,9.719 11.74,9.229 11.311,8.529 L11.311,8.529 C10.88,7.829 10.75,6.998 10.951,6.199 L10.951,6.199 C11.14,5.408 11.63,4.729 12.33,4.299 L12.33,4.299 C13.04,3.868 13.859,3.748 14.66,3.939 L14.66,3.939 C15.46,4.128 16.13,4.618 16.56,5.318 L16.56,5.318 C16.99,6.029 17.12,6.848 16.92,7.648 L16.92,7.648 C16.73,8.449 16.24,9.118 15.54,9.548 L15.54,9.548 C15.05,9.849 14.5,9.998 13.939,9.998 L13.939,9.998 C13.7,9.998 13.45,9.969 13.21,9.918" id="path-10"></path>
        <filter x="-145.9%" y="-124.5%" width="481.5%" height="361.3%" filterUnits="objectBoundingBox" id="filter-11">
            <feOffset dx="10" dy="2" in="SourceAlpha" result="shadowOffsetOuter1"></feOffset>
            <feGaussianBlur stdDeviation="12.5" in="shadowOffsetOuter1" result="shadowBlurOuter1"></feGaussianBlur>
            <feColorMatrix values="0 0 0 0 0   0 0 0 0 0   0 0 0 0 0  0 0 0 0.147372159 0" type="matrix" in="shadowBlurOuter1"></feColorMatrix>
        </filter>
    </defs>
    <g id="Page-1" stroke="none" stroke-width="1" fill="none" fill-rule="evenodd">
        <g id="Assets-Playground" transform="translate(-1254.000000, -2291.000000)">
            <g id="icon-car-loan" transform="translate(1254.000000, 2290.000000)">
                <g id="Group-21" transform="translate(0.000000, 0.284200)">
                    <g id="Group-3" transform="translate(0.000000, 18.000000)">
                        <mask id="mask-2" fill="white">
                            <use xlink:href="#path-1"></use>
                        </mask>
                        <g id="Clip-2"></g>
                        <path d="M58.1699,23.4482 L3.9999,23.4482 C1.7939,23.4482 -0.0001,21.6542 -0.0001,19.4482 L-0.0001,4.9382 C-0.0001,2.7322 1.7939,0.9382 3.9999,0.9382 L54.9999,0.9382 C55.5529,0.9382 56.0349,1.3862 56.0349,1.9382 C56.0349,2.4912 55.6229,2.9382 55.0699,2.9382 L3.9999,2.9382 C2.8979,2.9382 1.9999,3.8362 1.9999,4.9382 L1.9999,19.4482 C1.9999,20.5512 2.8979,21.4482 3.9999,21.4482 L58.1699,21.4482 C58.7759,21.4482 59.2139,21.1782 59.4749,20.9522 C59.8929,20.5912 60.5229,20.6352 60.8859,21.0522 C61.2469,21.4692 61.2019,22.1012 60.7849,22.4642 C60.0529,23.0982 59.1239,23.4482 58.1699,23.4482" id="Fill-1" fill="#201820" mask="url(#mask-2)"></path>
                    </g>
                    <g id="Group-6" transform="translate(6.000000, 0.000000)">
                        <mask id="mask-4" fill="white">
                            <use xlink:href="#path-3"></use>
                        </mask>
                        <g id="Clip-5"></g>
                        <path d="M2.168,18.9346 L47.998,18.9346 C47.403,10.5766 45.864,3.1236 44.609,2.7126 L5.536,2.7156 C4.301,3.1236 2.763,10.5766 2.168,18.9346 M49.066,20.9346 L1.1,20.9346 C0.824,20.9346 0.561,20.8206 0.371,20.6206 C0.183,20.4186 0.085,20.1496 0.102,19.8736 C0.537,12.7186 1.822,0.7156 5.536,0.7156 L44.631,0.7156 C48.345,0.7156 49.629,12.7186 50.064,19.8736 C50.081,20.1496 49.983,20.4186 49.795,20.6206 C49.606,20.8206 49.342,20.9346 49.066,20.9346" id="Fill-4" fill="#201820" mask="url(#mask-4)"></path>
                    </g>
                    <path d="M59.7682,7.755 C59.3172,7.755 58.9062,8.063 58.7952,8.521 L52.2132,35.735 C52.1502,35.993 52.1932,36.261 52.3332,36.49 C52.4732,36.719 52.6922,36.88 52.9502,36.942 L66.6432,40.254 C66.9042,40.317 67.1702,40.274 67.3972,40.133 C67.6272,39.993 67.7882,39.774 67.8502,39.517 L74.4322,12.302 C74.5612,11.766 74.2302,11.224 73.6942,11.094 L60.0022,7.782 C59.9242,7.764 59.8452,7.755 59.7682,7.755 L59.7682,7.755 Z M66.8802,42.282 C66.6442,42.282 66.4072,42.254 66.1732,42.197 L52.4792,38.886 C51.7032,38.698 51.0452,38.217 50.6272,37.532 C50.2082,36.847 50.0812,36.042 50.2692,35.265 L56.8512,8.05 C57.2412,6.443 58.8632,5.444 60.4712,5.839 L74.1652,9.15 C75.7722,9.539 76.7632,11.164 76.3762,12.771 L69.7942,39.987 C69.6062,40.764 69.1252,41.422 68.4392,41.841 C67.9612,42.133 67.4252,42.282 66.8802,42.282 L66.8802,42.282 Z" id="Fill-7" fill="#201820"></path>
                    <path d="M65.9326,12.8496 C65.7376,12.8496 65.5456,12.9036 65.3746,13.0076 C65.1296,13.1576 64.9566,13.3936 64.8896,13.6726 C64.8226,13.9526 64.8676,14.2406 65.0176,14.4856 C65.1666,14.7306 65.4036,14.9036 65.6826,14.9706 C65.9596,15.0376 66.2496,14.9936 66.4946,14.8426 C66.7406,14.6936 66.9126,14.4566 66.9806,14.1776 C67.0476,13.8986 67.0026,13.6106 66.8526,13.3656 C66.7036,13.1206 66.4666,12.9476 66.1876,12.8796 C66.1036,12.8596 66.0176,12.8496 65.9326,12.8496 M65.9416,17.0016 C65.6986,17.0016 65.4536,16.9726 65.2116,16.9136 C64.4136,16.7216 63.7386,16.2286 63.3106,15.5276 C62.8816,14.8276 62.7526,14.0006 62.9466,13.2026 C63.1386,12.4046 63.6316,11.7286 64.3326,11.3006 C65.0346,10.8716 65.8616,10.7456 66.6586,10.9366 C67.4556,11.1286 68.1316,11.6216 68.5596,12.3236 C68.9886,13.0236 69.1176,13.8496 68.9236,14.6486 C68.7316,15.4466 68.2386,16.1216 67.5366,16.5496 C67.0486,16.8486 66.4986,17.0016 65.9416,17.0016" id="Fill-9" fill="#201820"></path>
                    <path d="M12.0908,55 L10.4268,55 C8.0408,55 6.0998,53.059 6.0998,50.673 L6.0998,40.447 C6.0998,39.895 6.5468,39.447 7.0998,39.447 C7.6528,39.447 8.0998,39.895 8.0998,40.447 L8.0998,50.673 C8.0998,51.956 9.1438,53 10.4268,53 L12.0908,53 C13.3738,53 14.4178,51.956 14.4178,50.673 L14.4178,40.447 C14.4178,39.895 14.8648,39.447 15.4178,39.447 C15.9708,39.447 16.4178,39.895 16.4178,40.447 L16.4178,50.673 C16.4178,53.059 14.4768,55 12.0908,55" id="Fill-11" fill="#201820"></path>
                    <path d="M52.0166,55 L50.3536,55 C47.9676,55 46.0266,53.059 46.0266,50.673 L46.0266,40.447 C46.0266,39.895 46.4736,39.447 47.0266,39.447 C47.5796,39.447 48.0266,39.895 48.0266,40.447 L48.0266,50.673 C48.0266,51.956 49.0706,53 50.3536,53 L52.0166,53 C53.2996,53 54.3436,51.956 54.3436,50.673 L54.3436,40.447 C54.3436,39.895 54.7906,39.447 55.3436,39.447 C55.8966,39.447 56.3436,39.895 56.3436,40.447 L56.3436,50.673 C56.3436,53.059 54.4026,55 52.0166,55" id="Fill-13" fill="#201820"></path>
                    <path d="M11.3428,27.3623 C9.5548,27.3623 8.0998,28.8163 8.0998,30.6043 C8.0998,32.3923 9.5548,33.8473 11.3428,33.8473 C13.1308,33.8473 14.5848,32.3923 14.5848,30.6043 C14.5848,28.8163 13.1308,27.3623 11.3428,27.3623 M11.3428,35.8473 C8.4518,35.8473 6.0998,33.4953 6.0998,30.6043 C6.0998,27.7143 8.4518,25.3623 11.3428,25.3623 C14.2338,25.3623 16.5848,27.7143 16.5848,30.6043 C16.5848,33.4953 14.2338,35.8473 11.3428,35.8473" id="Fill-15" fill="#201820"></path>
                    <path d="M51.269,35.8482 C48.381,35.8482 46.03,33.4982 46.03,30.6082 C46.03,27.7142 48.381,25.3582 51.269,25.3582 C52.158,25.3582 53.035,25.5852 53.807,26.0142 C54.289,26.2832 54.463,26.8922 54.194,27.3752 C53.925,27.8582 53.317,28.0312 52.834,27.7632 C52.359,27.4982 51.818,27.3582 51.269,27.3582 C49.483,27.3582 48.03,28.8162 48.03,30.6082 C48.03,32.3912 49.478,33.8442 51.261,33.8482 C51.756,33.7712 52.249,34.0962 52.372,34.6012 C52.503,35.1382 52.174,35.6792 51.638,35.8102 C51.48,35.8482 51.344,35.8482 51.269,35.8482 L51.269,35.8482 Z" id="Fill-17" fill="#201820"></path>
                    <path d="M41.4805,29.5391 L21.2405,29.5391 C20.6875,29.5391 20.2405,29.0921 20.2405,28.5391 C20.2405,27.9861 20.6875,27.5391 21.2405,27.5391 L41.4805,27.5391 C42.0335,27.5391 42.4805,27.9861 42.4805,28.5391 C42.4805,29.0921 42.0335,29.5391 41.4805,29.5391" id="Fill-19" fill="#201820"></path>
                </g>
                <g id="Group-24" transform="translate(56.000000, 10.284200)">
                    <mask id="mask-6" fill="white">
                        <use xlink:href="#path-5"></use>
                    </mask>
                    <g id="Clip-23"></g>
                    <path d="M2.226,0.85 L0.74,6.998 L9.939,6.998 C9.7,6.998 9.45,6.969 9.21,6.918 L9.21,6.918 C8.41,6.719 7.74,6.229 7.311,5.529 L7.311,5.529 C6.88,4.829 6.75,3.998 6.951,3.199 L6.951,3.199 C7.14,2.408 7.63,1.729 8.33,1.299 L8.33,1.299 C9.04,0.868 9.859,0.748 10.66,0.939 L10.66,0.939 C11.46,1.128 12.13,1.618 12.56,2.318 L12.56,2.318 C12.99,3.029 13.12,3.848 12.92,4.648 L12.92,4.648 C12.73,5.449 12.24,6.118 11.54,6.548 L11.54,6.548 C11.05,6.849 10.5,6.998 9.939,6.998 L9.939,6.998 L17.294,6.998 L18.43,2.299 C18.447,2.231 18.456,2.164 18.458,2.097 L18.458,2.097 L18.458,2.033 C18.444,1.599 18.14,1.207 17.689,1.099 L17.689,1.099 L16.665,0.85 L2.226,0.85 Z" id="Fill-22" mask="url(#mask-6)"></path>
                </g>
                <g id="Group-27" transform="translate(52.000000, 7.284200)">
                    <mask id="mask-8" fill="white">
                        <use xlink:href="#path-7"></use>
                    </mask>
                    <g id="Clip-26"></g>
                    <g id="Fill-25" mask="url(#mask-8)">
                        <use fill="black" fill-opacity="1" filter="url(#filter-11)" xlink:href="#path-10"></use>
                        <use fill="url(#linearGradient-9)" fill-rule="evenodd" xlink:href="#path-10"></use>
                    </g>
                </g>
                <g id="Group-32" transform="translate(23.000000, 5.284200)" fill="#201820">
                    <path d="M15.708,29.1836 L1.013,29.1836 C0.46,29.1836 0.013,28.7366 0.013,28.1836 C0.013,27.6306 0.46,27.1836 1.013,27.1836 L15.708,27.1836 C16.261,27.1836 16.708,27.6306 16.708,28.1836 C16.708,28.7366 16.261,29.1836 15.708,29.1836" id="Fill-28"></path>
                    <path d="M42.25,8.4385 C41.854,8.4385 41.479,8.2025 41.322,7.8125 C41.24,7.6165 39.124,2.8425 30.302,2.6885 C29.75,2.6785 29.31,2.2225 29.3188644,1.6705 C29.329,1.1195 29.762,0.7155 30.337,0.6885 C40.563,0.8685 43.075,6.8115 43.178,7.0645 C43.384,7.5775 43.136,8.1595 42.624,8.3665 C42.501,8.4155 42.375,8.4385 42.25,8.4385" id="Fill-30"></path>
                </g>
            </g>
        </g>
    </g>
</svg>