<?xml version="1.0" encoding="UTF-8"?>
<svg width="49px" height="61px" viewBox="0 0 49 61" version="1.1" xmlns="http://www.w3.org/2000/svg" xmlns:xlink="http://www.w3.org/1999/xlink">
    <!-- Generator: Sketch 56.3 (81716) - https://sketch.com -->
    <title>icon-pay-bills</title>
    <desc>Created with Sketch.</desc>
    <defs>
        <polygon id="path-1" points="0 0.24 44.3369 0.24 44.3369 61 0 61"></polygon>
        <polygon id="path-3" points="0.3359 0.243 6.896 0.243 6.896 11.363 0.3359 11.363"></polygon>
        <polygon id="path-5" points="33.965 0.723 0.228 0.723 0.228 7.389 33.965 7.389 34.108 7.389 34.108 0.723"></polygon>
        <linearGradient x1="28.561154%" y1="48.8961929%" x2="66.8262325%" y2="51.935592%" id="linearGradient-7">
            <stop stop-color="#F16370" offset="0%"></stop>
            <stop stop-color="#EE629A" offset="100%"></stop>
        </linearGradient>
        <polygon id="path-8" points="33.965 0.723 0.228 0.723 0.228 7.389 33.965 7.389 34.108 7.389 34.108 0.723"></polygon>
        <filter x="-95.9%" y="-607.6%" width="350.9%" height="1375.1%" filterUnits="objectBoundingBox" id="filter-9">
            <feOffset dx="10" dy="2" in="SourceAlpha" result="shadowOffsetOuter1"></feOffset>
            <feGaussianBlur stdDeviation="12.5" in="shadowOffsetOuter1" result="shadowBlurOuter1"></feGaussianBlur>
            <feColorMatrix values="0 0 0 0 0   0 0 0 0 0   0 0 0 0 0  0 0 0 0.147372159 0" type="matrix" in="shadowBlurOuter1"></feColorMatrix>
        </filter>
    </defs>
    <g id="Page-1" stroke="none" stroke-width="1" fill="none" fill-rule="evenodd">
        <g id="Assets-Playground" transform="translate(-587.000000, -2286.000000)">
            <g id="icon-pay-bills" transform="translate(587.000000, 2285.000000)">
                <g id="Group-9" transform="translate(0.000000, 0.760100)">
                    <g id="Group-3">
                        <mask id="mask-2" fill="white">
                            <use xlink:href="#path-1"></use>
                        </mask>
                        <g id="Clip-2"></g>
                        <path d="M33.2319,55.9997 C33.4129,55.9997 33.5949,56.0497 33.7559,56.1477 L38.1239,58.8367 L42.3369,56.4207 L42.3369,2.2397 L1.9999,2.2397 L1.9999,58.1817 L5.1959,56.1547 C5.5289,55.9427 5.9569,55.9477 6.2859,56.1677 L10.2149,58.7867 L13.9039,56.1827 C14.2299,55.9537 14.6549,55.9377 14.9959,56.1427 L19.4189,58.7967 L22.8819,56.1997 C23.2119,55.9507 23.6629,55.9317 24.0159,56.1537 L28.2449,58.8257 L32.7169,56.1427 C32.8749,56.0477 33.0539,55.9997 33.2319,55.9997 L33.2319,55.9997 Z M19.4819,61.0001445 C19.3039,61.0001445 19.1259,60.9527 18.9669,60.8567 L14.5249,58.1917 L10.8089,60.8167 C10.4699,61.0537 10.0199,61.0607 9.6769,60.8317 L5.7179,58.1917 L1.5349,60.8447 C1.2269,61.0407 0.8369,61.0517 0.5179,60.8757 C0.1979,60.6997 -0.0001,60.3637 -0.0001,59.9997 L-0.0001,1.2397 C-0.0001,0.6867 0.4469,0.2397 0.9999,0.2397 L43.3369,0.2397 C43.8899,0.2397 44.3369,0.6867 44.3369,1.2397 L44.3369,56.9997 C44.3369,57.3577 44.1459,57.6887 43.8339,57.8667 L38.6039,60.8667 C38.2879,61.0497 37.8959,61.0437 37.5819,60.8517 L33.2249,58.1697 L28.7459,60.8567 C28.4229,61.0517 28.0169,61.0467 27.6969,60.8457 L23.5299,58.2137 L20.0809,60.7997 C19.9039,60.9327 19.6929,61.0001445 19.4819,61.0001445 L19.4819,61.0001445 Z" id="Fill-1" fill="#201820" mask="url(#mask-2)"></path>
                    </g>
                    <g id="Group-6" transform="translate(42.000000, 0.000000)">
                        <mask id="mask-4" fill="white">
                            <use xlink:href="#path-3"></use>
                        </mask>
                        <g id="Clip-5"></g>
                        <path d="M1.3359,11.363 C0.7829,11.363 0.3359,10.916 0.3359,10.363 C0.3359,9.81 0.7829,9.363 1.3359,9.363 C3.2989,9.363 4.8969,7.765 4.8969,5.802 C4.8969,3.84 3.2989,2.243 1.3359,2.243 C0.7829,2.243 0.3359,1.796 0.3359,1.243 C0.3359,0.69 0.7829,0.243 1.3359,0.243 C4.4019,0.243 6.8969,2.737 6.8969,5.802 C6.8969,8.869 4.4019,11.363 1.3359,11.363" id="Fill-4" fill="#201820" mask="url(#mask-4)"></path>
                    </g>
                    <path d="M27.1611,48.8923 L27.1611,47.2813 C28.2161,46.8423 29.3901,45.7083 29.3901,44.3553 C29.3901,44.0773 29.3701,43.8383 29.3301,43.5603 L27.3801,43.5603 L27.3801,41.5103 L28.9721,41.5103 C28.8721,41.0133 28.8121,40.4363 28.8121,39.8983 C28.8121,37.3913 30.6431,35.7403 33.3091,35.7403 C34.4041,35.7403 35.2201,35.9793 35.6571,36.2173 L35.1601,38.5053 C34.7821,38.2873 34.2241,38.1483 33.4881,38.1483 C32.0761,38.1483 31.6391,39.0633 31.6391,40.0183 C31.6391,40.5353 31.6981,41.0133 31.8171,41.5103 L34.5431,41.5103 L34.5431,43.5603 L32.0761,43.5603 C32.0961,44.0573 32.0561,44.5153 31.8961,44.9723 C31.7181,45.4703 31.3991,45.9673 30.9221,46.3853 L30.9221,46.4253 L36.2341,46.4253 L36.2341,48.8923 L27.1611,48.8923 Z" id="Fill-7" fill="#231F20"></path>
                </g>
                <g id="Group-12" transform="translate(5.000000, 4.760100)">
                    <mask id="mask-6" fill="white">
                        <use xlink:href="#path-5"></use>
                    </mask>
                    <g id="Clip-11"></g>
                    <g id="Fill-10" mask="url(#mask-6)">
                        <use fill="black" fill-opacity="1" filter="url(#filter-9)" xlink:href="#path-8"></use>
                        <use fill="url(#linearGradient-7)" fill-rule="evenodd" xlink:href="#path-8"></use>
                    </g>
                </g>
                <g id="Group-21" transform="translate(4.000000, 3.760100)" fill="#201820">
                    <path d="M2.229,7.389 L34.108,7.389 L34.108,2.722 L2.229,2.722 L2.229,7.389 Z M0.228,9.389 L36.107,9.389 L36.107,0.722 L0.228,0.722 L0.228,9.389 Z" id="Fill-13"></path>
                    <path d="M24.5225,15.5563 L1.2285,15.5563 C0.6755,15.5563 0.2285,15.1093 0.2285,14.5563 C0.2285,14.0033 0.6755,13.5563 1.2285,13.5563 L24.5225,13.5563 C25.0755,13.5563 25.5225,14.0033 25.5225,14.5563 C25.5225,15.1093 25.0755,15.5563 24.5225,15.5563" id="Fill-15"></path>
                    <path d="M35.1074,15.5563 L31.6894,15.5563 C31.1364,15.5563 30.6894,15.1093 30.6894,14.5563 C30.6894,14.0033 31.1364,13.5563 31.6894,13.5563 L35.1074,13.5563 C35.6604,13.5563 36.1074,14.0033 36.1074,14.5563 C36.1074,15.1093 35.6604,15.5563 35.1074,15.5563" id="Fill-16"></path>
                    <path d="M24.5225,19.5563 L1.2285,19.5563 C0.6755,19.5563 0.2285,19.1093 0.2285,18.5563 C0.2285,18.0033 0.6755,17.5563 1.2285,17.5563 L24.5225,17.5563 C25.0755,17.5563 25.5225,18.0033 25.5225,18.5563 C25.5225,19.1093 25.0755,19.5563 24.5225,19.5563" id="Fill-17"></path>
                    <path d="M35.1074,19.5563 L31.6894,19.5563 C31.1364,19.5563 30.6894,19.1093 30.6894,18.5563 C30.6894,18.0033 31.1364,17.5563 31.6894,17.5563 L35.1074,17.5563 C35.6604,17.5563 36.1074,18.0033 36.1074,18.5563 C36.1074,19.1093 35.6604,19.5563 35.1074,19.5563" id="Fill-18"></path>
                    <path d="M24.5225,23.5563 L1.2285,23.5563 C0.6755,23.5563 0.2285,23.1093 0.2285,22.5563 C0.2285,22.0033 0.6755,21.5563 1.2285,21.5563 L24.5225,21.5563 C25.0755,21.5563 25.5225,22.0033 25.5225,22.5563 C25.5225,23.1093 25.0755,23.5563 24.5225,23.5563" id="Fill-19"></path>
                    <path d="M35.1074,23.5563 L31.6894,23.5563 C31.1364,23.5563 30.6894,23.1093 30.6894,22.5563 C30.6894,22.0033 31.1364,21.5563 31.6894,21.5563 L35.1074,21.5563 C35.6604,21.5563 36.1074,22.0033 36.1074,22.5563 C36.1074,23.1093 35.6604,23.5563 35.1074,23.5563" id="Fill-20"></path>
                </g>
            </g>
        </g>
    </g>
</svg>