<svg viewBox="0 0 1238 993" xmlns="http://www.w3.org/2000/svg" xmlns:xlink="http://www.w3.org/1999/xlink"><defs><linearGradient x1="75.302%" y1="48.177%" x2="121.903%" y2="61.935%" id="b"><stop stop-color="#58CAEA" offset="0%"/><stop stop-color="#71CED4" offset="34.313%"/><stop stop-color="#A7D6A4" offset="100%"/></linearGradient><path d="M1237.736.884v993H390.903c-40.64 0-73.903-33.367-73.903-74.139 0-20.395 8.308-38.935 21.72-52.37 13.393-13.455 31.873-21.788 52.183-21.788h15.8c42.638 0 77.196-34.647 77.196-77.424 0-42.776-34.558-77.423-77.196-77.423H151.937c-35.666 0-68.076-14.643-91.57-38.211-23.493-23.587-38.09-56.12-38.09-91.88 0-71.56 58.347-130.092 129.66-130.092h4.03c77.457 0 140.24-62.986 140.24-140.688 0-77.721-62.783-140.707-140.24-140.707H74.463C33.822 149.162.56 115.795.56 75.023c0-20.395 8.304-38.916 21.716-52.352C35.672 9.235 54.15.884 74.462.884h1163.274z" id="a"/><linearGradient x1="8.415%" y1="60.388%" x2="105.358%" y2="60.388%" id="f"><stop stop-color="#5CB0E2" offset="0%"/><stop stop-color="#6F4FA0" offset="100%"/></linearGradient><path d="M570.564-42.116h467c-74.508 143.004-116.631 243.905-126.37 302.703-28.97 174.89 124.567 244.742 121.733 477.008-1.55 127.036-.004 221.466 4.637 283.289h-467v-1063z" id="e"/><filter x="-11.1%" y="-4.7%" width="122.3%" height="109.8%" filterUnits="objectBoundingBox" id="d"><feOffset dy="2" in="SourceAlpha" result="shadowOffsetOuter1"/><feGaussianBlur stdDeviation="17" in="shadowOffsetOuter1" result="shadowBlurOuter1"/><feColorMatrix values="0 0 0 0 0 0 0 0 0 0 0 0 0 0 0 0 0 0 0.4 0" in="shadowBlurOuter1"/></filter><linearGradient x1="14.888%" y1="39.992%" x2="89.819%" y2="39.992%" id="i"><stop stop-color="#6B4C9F" offset="0%"/><stop stop-color="#B03594" offset="100%"/></linearGradient><path d="M388.564-40.307l43.62 1107.675 365.683-8.812C701.465 849.629 656.26 690.15 662.253 580.122c8.989-165.043 139.189-529.918 75.504-643.726-42.456-75.873-158.854-68.107-349.193 23.297z" id="h"/><filter x="-9.4%" y="-3.1%" width="118.8%" height="106.5%" filterUnits="objectBoundingBox" id="g"><feOffset dy="2" in="SourceAlpha" result="shadowOffsetOuter1"/><feGaussianBlur stdDeviation="12.5" in="shadowOffsetOuter1" result="shadowBlurOuter1"/><feColorMatrix values="0 0 0 0 0 0 0 0 0 0 0 0 0 0 0 0 0 0 0.5 0" in="shadowBlurOuter1"/></filter><linearGradient x1="9.656%" y1="61.048%" x2="87.54%" y2="61.048%" id="l"><stop stop-color="#E61978" offset="0%"/><stop stop-color="#993894" offset="100%"/></linearGradient><path d="M202.57-33.404c-.446 22.666 22.394 387.183 68.522 1093.55h275.644C524.617 449.394 473.689 80.322 393.951-47.069 274.344-238.154 203.24-67.404 202.57-33.404z" id="k"/><filter x="-11.2%" y="-3.1%" width="122.4%" height="106.4%" filterUnits="objectBoundingBox" id="j"><feOffset dy="2" in="SourceAlpha" result="shadowOffsetOuter1"/><feGaussianBlur stdDeviation="12.5" in="shadowOffsetOuter1" result="shadowBlurOuter1"/><feColorMatrix values="0 0 0 0 0 0 0 0 0 0 0 0 0 0 0 0 0 0 0.25 0" in="shadowBlurOuter1"/></filter><linearGradient x1="37.617%" y1="39.558%" x2="63.193%" y2="67.387%" id="o"><stop stop-color="#EB198F" offset="0%"/><stop stop-color="#BD4C9C" offset="100%"/></linearGradient><path d="M63.037-45.703L6.543 718.113l469 43.91c-16.913-30.223-31.855-65.363-44.824-105.421-19.455-60.087-220.35-571.984-159.257-690.452 40.729-78.98-28.747-82.93-208.425-11.853z" id="n"/><filter x="-8.2%" y="-4.3%" width="116.4%" height="109%" filterUnits="objectBoundingBox" id="m"><feOffset dy="2" in="SourceAlpha" result="shadowOffsetOuter1"/><feGaussianBlur stdDeviation="12.5" in="shadowOffsetOuter1" result="shadowBlurOuter1"/><feColorMatrix values="0 0 0 0 0 0 0 0 0 0 0 0 0 0 0 0 0 0 0.2 0" in="shadowBlurOuter1"/></filter><linearGradient x1="45.351%" y1="21.487%" x2="53.648%" y2="100%" id="r"><stop stop-color="#F16370" offset="0%"/><stop stop-color="#EE629A" offset="100%"/></linearGradient><path d="M-48.854-45.514L11.353 707C257 611.135 354.648 508.41 304.3 398.822 228.78 234.44-8.748 89.923 116.236-17.271c83.322-71.462 28.292-80.877-165.09-28.243z" id="q"/><filter x="-8.9%" y="-5.2%" width="123.2%" height="110.8%" filterUnits="objectBoundingBox" id="p"><feOffset dx="10" dy="2" in="SourceAlpha" result="shadowOffsetOuter1"/><feGaussianBlur stdDeviation="12.5" in="shadowOffsetOuter1" result="shadowBlurOuter1"/><feColorMatrix values="0 0 0 0 0 0 0 0 0 0 0 0 0 0 0 0 0 0 0.147372159 0" in="shadowBlurOuter1"/></filter></defs><g transform="translate(-.564 -.884)" fill="none" fill-rule="evenodd"><mask id="c" fill="#fff"><use xlink:href="#a"/></mask><use fill="url(#b)" xlink:href="#a"/><g mask="url(#c)"><use fill="#000" filter="url(#d)" xlink:href="#e"/><use fill="url(#f)" xlink:href="#e"/></g><g mask="url(#c)"><use fill="#000" filter="url(#g)" xlink:href="#h"/><use fill="url(#i)" xlink:href="#h"/></g><g mask="url(#c)"><use fill="#000" filter="url(#j)" xlink:href="#k"/><use fill="url(#l)" xlink:href="#k"/></g><g mask="url(#c)"><use fill="#000" filter="url(#m)" xlink:href="#n"/><use fill="url(#o)" xlink:href="#n"/></g><g mask="url(#c)"><use fill="#000" filter="url(#p)" xlink:href="#q"/><use fill="url(#r)" xlink:href="#q"/></g></g></svg>