<?xml version="1.0" encoding="UTF-8"?>
<svg width="85px" height="73px" viewBox="0 0 85 73" version="1.1" xmlns="http://www.w3.org/2000/svg" xmlns:xlink="http://www.w3.org/1999/xlink">
    <!-- Generator: Sketch 56.3 (81716) - https://sketch.com -->
    <title>icon-banners</title>
    <desc>Created with Sketch.</desc>
    <defs>
        <polygon id="path-1" points="11.24992 4.30019048 4.92928 4.81336264 4.42112 11.1803077 0.31104 16.0438388 4.42112 20.90737 4.92928 27.274315 11.24992 27.7861978 16.07808 31.9263883 20.90624 27.7861978 27.22816 27.274315 27.73504 20.90737 31.84512 16.0438388 27.73504 11.1803077 27.22816 4.81336264 20.90624 4.30019048 16.07808 0.161289377"></polygon>
        <linearGradient x1="9.65606812%" y1="61.0481185%" x2="87.5404108%" y2="61.0481185%" id="linearGradient-3">
            <stop stop-color="#E61978" offset="0%"></stop>
            <stop stop-color="#993894" offset="100%"></stop>
        </linearGradient>
        <polygon id="path-4" points="11.24992 4.30019048 4.92928 4.81336264 4.42112 11.1803077 0.31104 16.0438388 4.42112 20.90737 4.92928 27.274315 11.24992 27.7861978 16.07808 31.9263883 20.90624 27.7861978 27.22816 27.274315 27.73504 20.90737 31.84512 16.0438388 27.73504 11.1803077 27.22816 4.81336264 20.90624 4.30019048 16.07808 0.161289377"></polygon>
        <filter x="-122.1%" y="-114.9%" width="344.2%" height="342.4%" filterUnits="objectBoundingBox" id="filter-5">
            <feOffset dx="0" dy="2" in="SourceAlpha" result="shadowOffsetOuter1"></feOffset>
            <feGaussianBlur stdDeviation="12.5" in="shadowOffsetOuter1" result="shadowBlurOuter1"></feGaussianBlur>
            <feColorMatrix values="0 0 0 0 0   0 0 0 0 0   0 0 0 0 0  0 0 0 0.25 0" type="matrix" in="shadowBlurOuter1"></feColorMatrix>
        </filter>
        <polygon id="path-6" points="0 73 84.5645385 73 84.5645385 0.17633241 0 0.17633241"></polygon>
    </defs>
    <g id="Page-1" stroke="none" stroke-width="1" fill="none" fill-rule="evenodd">
        <g id="Assets-Playground" transform="translate(-1586.000000, -1951.000000)">
            <g id="icon-banners" transform="translate(1586.000000, 1951.000000)">
                <g id="Group-5" fill="#201820">
                    <path d="M2.61538462,44.9654116 L81.9491538,44.9654116 L81.9491538,2.76599224 L2.61538462,2.76599224 L2.61538462,44.9654116 Z M83.2568462,47.5537773 L1.30769231,47.5537773 C0.584538462,47.5537773 0,46.9752776 0,46.2595945 L0,1.47051524 C0,0.756126316 0.584538462,0.17633241 1.30769231,0.17633241 L83.2568462,0.17633241 C83.98,0.17633241 84.5645385,0.756126316 84.5645385,1.47051524 L84.5645385,46.2595945 C84.5645385,46.9752776 83.98,47.5537773 83.2568462,47.5537773 L83.2568462,47.5537773 Z" id="Fill-1"></path>
                    <path d="M2.61538462,70.4116343 L48.4853077,70.4116343 L48.4853077,54.9202659 L2.61538462,54.9202659 L2.61538462,70.4116343 Z M49.793,73 L1.30769231,73 C0.584538462,73 0,72.4215003 0,71.7058172 L0,53.6260831 C0,52.9116942 0.584538462,52.3319003 1.30769231,52.3319003 L49.793,52.3319003 C50.5161538,52.3319003 51.1006923,52.9116942 51.1006923,53.6260831 L51.1006923,71.7058172 C51.1006923,72.4215003 50.5161538,73 49.793,73 L49.793,73 Z" id="Fill-3"></path>
                    <path d="M59.9433077,70.4116343 L81.9491538,70.4116343 L81.9491538,54.9202659 L59.9433077,54.9202659 L59.9433077,70.4116343 Z M83.2568462,73 L58.6356154,73 C57.9124615,73 57.3279231,72.4215003 57.3279231,71.7058172 L57.3279231,53.6260831 C57.3279231,52.9116942 57.9124615,52.3319003 58.6356154,52.3319003 L83.2568462,52.3319003 C83.98,52.3319003 84.5645385,52.9116942 84.5645385,53.6260831 L84.5645385,71.7058172 C84.5645385,72.4215003 83.98,73 83.2568462,73 L83.2568462,73 Z" id="Fill-4"></path>
                </g>
                <g id="Group-8" transform="translate(7.000000, 8.000000)">
                    <mask id="mask-2" fill="white">
                        <use xlink:href="#path-1"></use>
                    </mask>
                    <g id="Clip-7"></g>
                    <g id="Fill-6" mask="url(#mask-2)">
                        <use fill="black" fill-opacity="1" filter="url(#filter-5)" xlink:href="#path-4"></use>
                        <use fill="url(#linearGradient-3)" fill-rule="evenodd" xlink:href="#path-4"></use>
                    </g>
                </g>
                <g id="Group-19">
                    <path d="M12.7880538,33.9361268 L18.1365154,34.3606187 C18.4098231,34.3826198 18.6700538,34.4887428 18.8792846,34.6647517 L22.9632077,38.1059838 L27.0497462,34.6647517 C27.2589769,34.4887428 27.5192077,34.3813257 27.7925154,34.3606187 L33.1409769,33.9361268 L33.5699,28.6442132 C33.5921308,28.373729 33.6993615,28.1161866 33.8772077,27.9078232 L37.3543615,23.864796 L33.8772077,19.8217689 C33.6993615,19.6146996 33.5921308,19.3571572 33.5699,19.086673 L33.1409769,13.7947594 L27.7925154,13.3689733 C27.5192077,13.345678 27.2589769,13.239555 27.0497462,13.0648403 L22.9632077,9.6236082 L18.8792846,13.0648403 C18.6700538,13.239555 18.4111308,13.345678 18.1365154,13.3689733 L12.7880538,13.7947594 L12.3591308,19.086673 C12.3382077,19.3571572 12.2296692,19.6146996 12.0518231,19.8217689 L8.57466923,23.864796 L12.0518231,27.9078232 C12.2296692,28.1161866 12.3382077,28.373729 12.3591308,28.6442132 L12.7880538,33.9361268 Z M22.9632077,41.1007229 C22.6624385,41.1007229 22.3603615,40.9984824 22.1158231,40.7927074 L17.5062077,36.9075705 L11.4685923,36.4274287 C10.8291308,36.3756614 10.3217462,35.8748126 10.2694385,35.240663 L9.78559231,29.2680093 L5.8599,24.7047207 C5.44536154,24.2206963 5.44536154,23.5101899 5.8599,23.0261655 L9.78559231,18.4628769 L10.2694385,12.488929 C10.3217462,11.8560736 10.8291308,11.3539306 11.4685923,11.3021633 L17.5062077,10.8220215 L22.1158231,6.93688465 C22.6035923,6.52533452 23.3215154,6.52533452 23.8119,6.93688465 L28.4228231,10.8220215 L34.4604385,11.3021633 C35.0999,11.3539306 35.6059769,11.8560736 35.6582846,12.488929 L36.1434385,18.4628769 L40.0691308,23.0261655 C40.4836692,23.5101899 40.4836692,24.2206963 40.0691308,24.7047207 L36.1434385,29.2680093 L35.6582846,35.240663 C35.6059769,35.8748126 35.0999,36.3756614 34.4604385,36.4274287 L28.4228231,36.9075705 L23.8119,40.7927074 C23.5660538,40.9984824 23.2652846,41.1007229 22.9632077,41.1007229 L22.9632077,41.1007229 Z" id="Fill-9" fill="#201820"></path>
                    <path d="M8.14391538,66.2315532 L9.76414615,66.3609715 C10.0374538,66.3842668 10.2976846,66.4903898 10.5069154,66.6651045 L11.7466077,67.70951 L12.9849923,66.6651045 C13.1942231,66.4903898 13.4544538,66.3842668 13.7277615,66.3609715 L15.3506077,66.2315532 L15.4800692,64.6267665 C15.5036077,64.3562823 15.6108385,64.0987399 15.7886846,63.8916707 L16.8413769,62.6673737 L15.7886846,61.4391942 C15.6108385,61.2334192 15.5036077,60.9758768 15.4800692,60.7053926 L15.3506077,59.1006059 L13.7277615,58.9711876 C13.4544538,58.9478923 13.1942231,58.8417693 12.9849923,58.6670546 L11.7466077,57.6226491 L10.5069154,58.6670546 C10.2976846,58.8417693 10.0374538,58.9478923 9.76414615,58.9711876 L8.14391538,59.1006059 L8.01314615,60.7053926 C7.99091538,60.9758768 7.88368462,61.2334192 7.70583846,61.4404884 L6.65053077,62.6673737 L7.70583846,63.8916707 C7.88368462,64.0987399 7.99091538,64.3549881 8.01314615,64.6267665 L8.14391538,66.2315532 Z M11.7466077,70.7042491 C11.4445308,70.7042491 11.1437615,70.6007145 10.8979154,70.3949394 L9.13383846,68.9079233 L6.82445385,68.7241494 C6.18499231,68.672382 5.67760769,68.1702391 5.6253,67.5373837 L5.43960769,65.2518568 L3.93706923,63.5060042 C3.52253077,63.0219798 3.52253077,62.3114735 3.93706923,61.8274491 L5.43960769,60.0803023 L5.6253,57.7947754 C5.67760769,57.16192 6.18499231,56.6597771 6.82445385,56.6080098 L9.13383846,56.4242358 L10.8979154,54.9372197 C11.3883,54.5256696 12.1036077,54.5256696 12.5939923,54.9372197 L14.3593769,56.4242358 L16.6687615,56.6080098 C17.3095308,56.6597771 17.8156077,57.16192 17.8679154,57.7947754 L18.0536077,60.0803023 L19.5548385,61.8287433 C19.9706846,62.3114735 19.9706846,63.0219798 19.5548385,63.5060042 L18.0536077,65.2518568 L17.8679154,67.5373837 C17.8156077,68.1702391 17.3095308,68.672382 16.6687615,68.7241494 L14.3593769,68.9079233 L12.5939923,70.3949394 C12.3494538,70.6007145 12.0473769,70.7042491 11.7466077,70.7042491 L11.7466077,70.7042491 Z" id="Fill-11" fill="#201820"></path>
                    <path d="M67.3424923,66.2315532 L68.9640308,66.3609715 C69.2373385,66.3842668 69.4975692,66.4903898 69.7068,66.6651045 L70.9464923,67.70951 L72.1835692,66.6651045 C72.3928,66.4903898 72.6517231,66.3842668 72.9263385,66.3609715 L74.5491846,66.2315532 L74.6786462,64.6267665 C74.7021846,64.3549881 74.8094154,64.0987399 74.9872615,63.8916707 L76.0412615,62.6673737 L74.9872615,61.4404884 C74.8094154,61.2334192 74.7021846,60.9758768 74.6786462,60.7053926 L74.5491846,59.1006059 L72.9263385,58.9711876 C72.6517231,58.9478923 72.3928,58.8417693 72.1835692,58.6670546 L70.9464923,57.6226491 L69.7068,58.6670546 C69.4975692,58.8417693 69.2373385,58.9478923 68.9640308,58.9711876 L67.3424923,59.1006059 L67.2117231,60.7053926 C67.1894923,60.9758768 67.0822615,61.2334192 66.9044154,61.4404884 L65.8491077,62.6673737 L66.9044154,63.8916707 C67.0822615,64.0987399 67.1894923,64.3549881 67.2117231,64.6267665 L67.3424923,66.2315532 Z M70.9464923,70.7042491 C70.6444154,70.7042491 70.3436462,70.6007145 70.0978,70.3949394 L68.3337231,68.9079233 L66.0230308,68.7241494 C65.3835692,68.672382 64.8761846,68.1702391 64.8238769,67.5373837 L64.6381846,65.2518568 L63.1356462,63.5060042 C62.7211077,63.0219798 62.7198,62.3114735 63.1356462,61.8274491 L64.6381846,60.0803023 L64.8238769,57.7947754 C64.8761846,57.16192 65.3835692,56.6597771 66.0230308,56.6080098 L68.3337231,56.4242358 L70.0978,54.9372197 C70.5881846,54.5256696 71.3061077,54.5256696 71.7938769,54.9372197 L73.5579538,56.4242358 L75.8673385,56.6080098 C76.5081077,56.6597771 77.0141846,57.16192 77.0664923,57.7947754 L77.2521846,60.0803023 L78.7547231,61.8274491 C79.1705692,62.3114735 79.1705692,63.0219798 78.7547231,63.5060042 L77.2521846,65.2518568 L77.0664923,67.5373837 C77.0141846,68.1702391 76.5081077,68.672382 75.8673385,68.7241494 L73.5579538,68.9079233 L71.7938769,70.3949394 C71.5506462,70.5994203 71.2472615,70.7042491 70.9464923,70.7042491 L70.9464923,70.7042491 Z" id="Fill-13" fill="#201820"></path>
                    <mask id="mask-7" fill="white">
                        <use xlink:href="#path-6"></use>
                    </mask>
                    <g id="Clip-16"></g>
                    <polygon id="Fill-15" fill="#201820" mask="url(#mask-7)" points="49.3889231 18.4670183 74.664 18.4670183 74.664 15.8786526 49.3889231 15.8786526"></polygon>
                    <polygon id="Fill-17" fill="#201820" mask="url(#mask-7)" points="49.3889231 24.9379324 74.664 24.9379324 74.664 22.3495668 49.3889231 22.3495668"></polygon>
                    <polygon id="Fill-18" fill="#201820" mask="url(#mask-7)" points="49.3889231 31.4088465 65.3296923 31.4088465 65.3296923 28.8204809 49.3889231 28.8204809"></polygon>
                </g>
            </g>
        </g>
    </g>
</svg>