<?xml version="1.0" encoding="UTF-8"?>
<svg width="72px" height="54px" viewBox="0 0 72 54" version="1.1" xmlns="http://www.w3.org/2000/svg" xmlns:xlink="http://www.w3.org/1999/xlink">
    <!-- Generator: Sketch 56.3 (81716) - https://sketch.com -->
    <title>icon-subsistence</title>
    <desc>Created with Sketch.</desc>
    <defs>
        <polygon id="path-1" points="0.620498534 0.2598 27.721 0.2598 27.721 18.2998 0.620498534 18.2998"></polygon>
        <polygon id="path-3" points="0.8301 0.7295 24.721 0.7295 24.721 2.7295 0.8301 2.7295"></polygon>
        <polygon id="path-5" points="0.3511 0.7695 24.721 0.7695 24.721 2.7695 0.3511 2.7695"></polygon>
        <polygon id="path-7" points="0 0.39 52.7509712 0.39 52.7509712 32 0 32"></polygon>
    </defs>
    <g id="Page-1" stroke="none" stroke-width="1" fill="none" fill-rule="evenodd">
        <g id="Assets-Playground" transform="translate(-426.000000, -2293.000000)">
            <g id="icon-subsistence" transform="translate(426.000000, 2293.000000)">
                <path d="M70.7201,32.4776 L70.7201,37.4166 C69.1011,37.6076 67.8301,38.9876 67.8301,40.6576 C67.8301,42.3276 69.1011,43.7066 70.7201,43.8976 L70.7201,48.5176 L45.6201,48.5176 L48.3511,36.9876 L48.8301,34.9476 L49.4201,32.4776 L70.7201,32.4776 Z" id="Fill-1" fill="#9ED3AC"></path>
                <g id="Group-5" transform="translate(44.000000, 31.217800)">
                    <mask id="mask-2" fill="white">
                        <use xlink:href="#path-1"></use>
                    </mask>
                    <g id="Clip-4"></g>
                    <path d="M26.7211,18.2998 L1.6201,18.2998 C1.3151,18.2998 1.0261,18.1598 0.8361,17.9198 C0.6471,17.6808 0.5761,17.3668 0.6481,17.0698 L3.8571,3.5008 C3.9841,2.9628 4.5281,2.6308 5.0591,2.7558 C5.5971,2.8828 5.9301,3.4208 5.8041,3.9578 L2.8851,16.2998 L25.7211,16.2998 L25.7211,13.4738 C24.0241,12.8948 22.8301,11.2918 22.8301,9.4398 C22.8301,7.5868 24.0241,5.9848 25.7211,5.4048 L25.7211,2.2598 L5.4201,2.2598 C4.8671,2.2598 4.4201,1.8128 4.4201,1.2598 C4.4201,0.7068 4.8671,0.2598 5.4201,0.2598 L26.7211,0.2598 C27.2741,0.2598 27.7211,0.7068 27.7211,1.2598 L27.7211,6.1988 C27.7211,6.7058 27.3411,7.1328 26.8381,7.1928 C25.6941,7.3268 24.8301,8.2928 24.8301,9.4398 C24.8301,10.5858 25.6941,11.5518 26.8381,11.6868 C27.3411,11.7458 27.7211,12.1728 27.7211,12.6798 L27.7211,17.2998 C27.7211,17.8528 27.2741,18.2998 26.7211,18.2998" id="Fill-3" fill="#201820" mask="url(#mask-2)"></path>
                </g>
                <path d="M55.767,46.5176 C55.214,46.5176 54.767,46.0706 54.767,45.5176 L54.767,42.3756 C54.767,41.8236 55.214,41.3756 55.767,41.3756 C56.32,41.3756 56.767,41.8236 56.767,42.3756 L56.767,45.5176 C56.767,46.0706 56.32,46.5176 55.767,46.5176" id="Fill-6" fill="#201820"></path>
                <path d="M58.8041,46.5176 C58.2511,46.5176 57.8041,46.0706 57.8041,45.5176 L57.8041,42.3756 C57.8041,41.8236 58.2511,41.3756 58.8041,41.3756 C59.3571,41.3756 59.8041,41.8236 59.8041,42.3756 L59.8041,45.5176 C59.8041,46.0706 59.3571,46.5176 58.8041,46.5176" id="Fill-8" fill="#201820"></path>
                <path d="M61.8421,46.5176 C61.2891,46.5176 60.8421,46.0706 60.8421,45.5176 L60.8421,42.3756 C60.8421,41.8236 61.2891,41.3756 61.8421,41.3756 C62.3951,41.3756 62.8421,41.8236 62.8421,42.3756 L62.8421,45.5176 C62.8421,46.0706 62.3951,46.5176 61.8421,46.5176" id="Fill-10" fill="#201820"></path>
                <path d="M64.8802,46.5176 C64.3272,46.5176 63.8802,46.0706 63.8802,45.5176 L63.8802,42.3756 C63.8802,41.8236 64.3272,41.3756 64.8802,41.3756 C65.4332,41.3756 65.8802,41.8236 65.8802,42.3756 L65.8802,45.5176 C65.8802,46.0706 65.4332,46.5176 64.8802,46.5176" id="Fill-12" fill="#201820"></path>
                <g id="Group-16" transform="translate(47.000000, 33.217800)">
                    <mask id="mask-4" fill="white">
                        <use xlink:href="#path-3"></use>
                    </mask>
                    <g id="Clip-15"></g>
                    <path d="M23.7211,2.7295 L1.8301,2.7295 C1.2781,2.7295 0.8301,2.2825 0.8301,1.7295 C0.8301,1.1765 1.2781,0.7295 1.8301,0.7295 L23.7211,0.7295 C24.2741,0.7295 24.7211,1.1765 24.7211,1.7295 C24.7211,2.2825 24.2741,2.7295 23.7211,2.7295" id="Fill-14" fill="#201820" mask="url(#mask-4)"></path>
                </g>
                <g id="Group-19" transform="translate(47.000000, 35.217800)">
                    <mask id="mask-6" fill="white">
                        <use xlink:href="#path-5"></use>
                    </mask>
                    <g id="Clip-18"></g>
                    <path d="M23.7211,2.7695 L1.3511,2.7695 C0.7981,2.7695 0.3511,2.3225 0.3511,1.7695 C0.3511,1.2165 0.7981,0.7695 1.3511,0.7695 L23.7211,0.7695 C24.2741,0.7695 24.7211,1.2165 24.7211,1.7695 C24.7211,2.3225 24.2741,2.7695 23.7211,2.7695" id="Fill-17" fill="#201820" mask="url(#mask-6)"></path>
                </g>
                <g id="Group-22" transform="translate(0.000000, 21.217800)">
                    <mask id="mask-8" fill="white">
                        <use xlink:href="#path-7"></use>
                    </mask>
                    <g id="Clip-21"></g>
                    <path d="M44.7504,32 L8.0004,32 C7.5364,32 7.1344,31.682 7.0264,31.23 L0.0264,1.62 C-0.0436,1.322 0.0264,1.009 0.2164,0.77 C0.4054,0.529 0.6944,0.39 1.0004,0.39 L51.7504,0.39 C52.0564,0.39 52.3454,0.529 52.5344,0.77 C52.7244,1.009 52.7944,1.322 52.7244,1.619 L49.8034,13.962 C49.6754,14.5 49.1354,14.833 48.5984,14.702 C48.0614,14.574 47.7294,14.034 47.8574,13.497 L50.4864,2.39 L2.2644,2.39 L8.7914,30 L43.9584,30 L44.6464,27.071 C44.7734,26.532 45.3174,26.203 45.8494,26.326 C46.3874,26.453 46.7204,26.991 46.5944,27.528 L45.7244,31.229 C45.6174,31.681 45.2144,32 44.7504,32" id="Fill-20" fill="#201820" mask="url(#mask-8)"></path>
                </g>
                <path d="M4.5101,23.6074209 C4.3771,23.6074209 4.2421,23.5814 4.1131,23.5244 C3.6061,23.3044 3.3731,22.7144 3.5941,22.2094 C3.6431,22.0964 3.7031,21.9844 3.7651,21.8734 L14.7241,2.8974 C15.7221,1.1694 17.9431,0.5744 19.6691,1.5714 C20.7851,2.2074 21.4811,3.4144 21.4811,4.7174 C21.4811,5.3604 21.3121,5.9884 20.9931,6.5334 L11.4271,23.1074 C11.1501,23.5854 10.5371,23.7494 10.0611,23.4734 C9.5821,23.1974 9.4181,22.5864 9.6951,22.1074 L19.2641,5.5274 C19.4081,5.2804 19.4811,5.0094 19.4811,4.7174 C19.4811,4.1304 19.1721,3.5894 18.6751,3.3064 C17.8971,2.8564 16.9021,3.1244 16.4561,3.8964 L5.5171,22.8374 C5.4841,22.8984 5.4511,22.9524 5.4281,23.0054 C5.2641,23.3824 4.8971,23.6074209 4.5101,23.6074209" id="Fill-23" fill="#201820"></path>
                <path d="M41.9095,23.6074 C41.4685,23.6074 41.0645,23.3134 40.9445,22.8664 L36.0345,4.5564 C35.7855,3.6204 35.9175,2.6414 36.4055,1.8004 C36.8925,0.9624 37.6745,0.3664 38.6055,0.1214 C40.5675,-0.3966 42.5345,0.7974 43.0365,2.6794 L48.3055,22.3484 C48.4485,22.8814 48.1325,23.4304 47.5985,23.5734 C47.0665,23.7184 46.5165,23.4014 46.3745,22.8664 L41.1045,3.1964 C40.8845,2.3664 40.0325,1.8164 39.1155,2.0544 C38.7015,2.1644 38.3525,2.4304 38.1355,2.8054 C37.9155,3.1834 37.8555,3.6224 37.9675,4.0414 L42.8765,22.3484 C43.0195,22.8814 42.7025,23.4304 42.1695,23.5734 C42.0825,23.5964 41.9955,23.6074 41.9095,23.6074" id="Fill-25" fill="#201820"></path>
                <path d="M11.0296,48.8477 C10.5666,48.8477 10.1506,48.5247 10.0516,48.0527 L6.5516,31.3607 C6.4386,30.8207 6.7846,30.2897 7.3256,30.1767 C7.8636,30.0647 8.3956,30.4097 8.5086,30.9507 L12.0086,47.6427 C12.1226,48.1827 11.7766,48.7127 11.2356,48.8267 C11.1666,48.8407 11.0976,48.8477 11.0296,48.8477" id="Fill-27" fill="#201820"></path>
            </g>
        </g>
    </g>
</svg>