<?xml version="1.0" encoding="UTF-8"?>
<svg width="98px" height="66px" viewBox="0 0 98 66" version="1.1" xmlns="http://www.w3.org/2000/svg" xmlns:xlink="http://www.w3.org/1999/xlink">
    <!-- Generator: Sketch 56.3 (81716) - https://sketch.com -->
    <title>icon-financial-companies</title>
    <desc>Created with Sketch.</desc>
    <defs>
        <polygon id="path-1" points="0.498615385 0.529406557 83.2310769 0.529406557 83.2310769 66 0.498615385 66"></polygon>
        <path d="M2.84618182,0.60775 L1.20872727,1.3865625 C1.08109091,1.447125 0.953454545,1.5076875 0.826909091,1.56825 L0.826909091,1.56825 C0.547636364,1.7116875 0.344727273,1.9645625 0.270545455,2.2641875 L0.270545455,2.2641875 C-1.34290909,8.884625 6.084,15.561375 6.40145455,15.841875 L6.40145455,15.841875 C6.60218182,16.0193125 6.86509091,16.1170625 7.13563636,16.1170625 L7.13563636,16.1170625 C7.15963636,16.1170625 7.18254545,16.116 7.20654545,16.1149375 L7.20654545,16.1149375 C7.5,16.0958125 7.78909091,16.0214375 8.05854545,15.8918125 L8.05854545,15.8918125 L8.22763636,15.812125 C8.84836364,15.5156875 9.47018182,15.21925 10.0909091,14.9228125 L10.0909091,14.9228125 C10.632,14.6550625 11.0367273,14.1981875 11.2352727,13.636125 L11.2352727,13.636125 C11.436,13.0613125 11.3967273,12.446125 11.124,11.9031875 L11.124,11.9031875 L10.1476364,9.962 C9.76145455,9.1895625 8.93781818,8.689125 8.05090909,8.689125 L8.05090909,8.689125 C7.69963636,8.689125 7.34727273,8.769875 7.02981818,8.9196875 L7.02981818,8.9196875 L5.80690909,9.503 C5.41527273,8.9855625 4.88618182,8.16425 4.62327273,7.2218125 L4.62327273,7.2218125 L5.87345455,6.62575 C7.02654545,6.075375 7.50545455,4.7121875 6.94036364,3.5901875 L6.94036364,3.5901875 L5.964,1.649 C5.57672727,0.877625 4.75418182,0.3771875 3.86727273,0.3771875 L3.86727273,0.3771875 C3.516,0.3771875 3.16363636,0.456875 2.84618182,0.60775" id="path-3"></path>
        <linearGradient x1="28.5520024%" y1="39.5575283%" x2="72.8516937%" y2="67.3870101%" id="linearGradient-5">
            <stop stop-color="#EB198F" offset="0%"></stop>
            <stop stop-color="#BD4C9C" offset="100%"></stop>
        </linearGradient>
        <path d="M2.84618182,0.60775 L1.20872727,1.3865625 C1.08109091,1.447125 0.953454545,1.5076875 0.826909091,1.56825 L0.826909091,1.56825 C0.547636364,1.7116875 0.344727273,1.9645625 0.270545455,2.2641875 L0.270545455,2.2641875 C-1.34290909,8.884625 6.084,15.561375 6.40145455,15.841875 L6.40145455,15.841875 C6.60218182,16.0193125 6.86509091,16.1170625 7.13563636,16.1170625 L7.13563636,16.1170625 C7.15963636,16.1170625 7.18254545,16.116 7.20654545,16.1149375 L7.20654545,16.1149375 C7.5,16.0958125 7.78909091,16.0214375 8.05854545,15.8918125 L8.05854545,15.8918125 L8.22763636,15.812125 C8.84836364,15.5156875 9.47018182,15.21925 10.0909091,14.9228125 L10.0909091,14.9228125 C10.632,14.6550625 11.0367273,14.1981875 11.2352727,13.636125 L11.2352727,13.636125 C11.436,13.0613125 11.3967273,12.446125 11.124,11.9031875 L11.124,11.9031875 L10.1476364,9.962 C9.76145455,9.1895625 8.93781818,8.689125 8.05090909,8.689125 L8.05090909,8.689125 C7.69963636,8.689125 7.34727273,8.769875 7.02981818,8.9196875 L7.02981818,8.9196875 L5.80690909,9.503 C5.41527273,8.9855625 4.88618182,8.16425 4.62327273,7.2218125 L4.62327273,7.2218125 L5.87345455,6.62575 C7.02654545,6.075375 7.50545455,4.7121875 6.94036364,3.5901875 L6.94036364,3.5901875 L5.964,1.649 C5.57672727,0.877625 4.75418182,0.3771875 3.86727273,0.3771875 L3.86727273,0.3771875 C3.516,0.3771875 3.16363636,0.456875 2.84618182,0.60775" id="path-6"></path>
        <filter x="-340.1%" y="-231.9%" width="780.2%" height="589.2%" filterUnits="objectBoundingBox" id="filter-7">
            <feOffset dx="0" dy="2" in="SourceAlpha" result="shadowOffsetOuter1"></feOffset>
            <feGaussianBlur stdDeviation="12.5" in="shadowOffsetOuter1" result="shadowBlurOuter1"></feGaussianBlur>
            <feColorMatrix values="0 0 0 0 0   0 0 0 0 0   0 0 0 0 0  0 0 0 0.2 0" type="matrix" in="shadowBlurOuter1"></feColorMatrix>
        </filter>
        <polygon id="path-8" points="0 66 97.2310769 66 97.2310769 0.529081967 0 0.529081967"></polygon>
    </defs>
    <g id="Page-1" stroke="none" stroke-width="1" fill="none" fill-rule="evenodd">
        <g id="Assets-Playground" transform="translate(-1103.000000, -1947.000000)">
            <g id="icon-financial-companies" transform="translate(1103.000000, 1947.000000)">
                <polygon id="Fill-1" fill="#FEFEFE" points="16 65 47 65 47 6 16 6"></polygon>
                <g id="Group-8" transform="translate(14.000000, 0.000000)">
                    <mask id="mask-2" fill="white">
                        <use xlink:href="#path-1"></use>
                    </mask>
                    <g id="Clip-3"></g>
                    <path d="M2.65246154,63.8360656 L31.3707692,63.8360656 L31.3707692,7.28596721 L2.65246154,7.28596721 L2.65246154,63.8360656 Z M32.4476923,66 L1.57553846,66 C0.98,66 0.498615385,65.5163607 0.498615385,64.9180328 L0.498615385,6.204 C0.498615385,5.6067541 0.98,5.12203279 1.57553846,5.12203279 L32.4476923,5.12203279 C33.0432308,5.12203279 33.5246154,5.6067541 33.5246154,6.204 L33.5246154,64.9180328 C33.5246154,65.5163607 33.0432308,66 32.4476923,66 L32.4476923,66 Z" id="Fill-2" fill="#201820" mask="url(#mask-2)"></path>
                    <polygon id="Fill-4" fill="#FEFEFE" mask="url(#mask-2)" points="36.0370769 64.9180328 59.9210769 64.9180328 59.9210769 27.5328197 36.0370769 27.5328197"></polygon>
                    <path d="M37.114,63.8360656 L58.8441538,63.8360656 L58.8441538,28.6147869 L37.114,28.6147869 L37.114,63.8360656 Z M59.9210769,66 L36.0370769,66 C35.4415385,66 34.9601538,65.5163607 34.9601538,64.9180328 L34.9601538,27.5328197 C34.9601538,26.9355738 35.4415385,26.4508525 36.0370769,26.4508525 L59.9210769,26.4508525 C60.5155385,26.4508525 60.998,26.9355738 60.998,27.5328197 L60.998,64.9180328 C60.998,65.5163607 60.5155385,66 59.9210769,66 L59.9210769,66 Z" id="Fill-5" fill="#201820" mask="url(#mask-2)"></path>
                    <path d="M82.1542615,13.6587541 C82.1542615,20.3128525 76.7847231,25.707541 70.1616462,25.707541 C69.0513385,25.707541 67.3239538,29.2163607 63.3759538,29.201262 C63.3759538,29.201262 65.9670308,24.9609836 65.4931846,24.7608197 C61.1898,22.9312131 58.1701077,18.6487869 58.1701077,13.6587541 C58.1701077,7.0057377 63.5385692,1.61104918 70.1616462,1.61104918 C76.7847231,1.61104918 82.1542615,7.0057377 82.1542615,13.6587541" id="Fill-6" fill="#FEFEFE" mask="url(#mask-2)"></path>
                    <path d="M70.1619692,2.69334098 C64.1430462,2.69334098 59.2462769,7.6130459 59.2462769,13.6590787 C59.2462769,18.0767508 61.8632,22.0432426 65.9135077,23.7646525 C66.2021231,23.8869148 66.4713538,24.1877016 66.5672,24.4884885 C66.6727385,24.8163246 66.8192,25.2804885 65.5150462,27.672718 C66.5305846,27.2204557 67.3135077,26.5020295 67.9941231,25.8777344 C68.7565846,25.1777016 69.3596615,24.6258984 70.1619692,24.6258984 C76.1808923,24.6258984 81.0776615,19.7061934 81.0776615,13.6590787 C81.0776615,7.6130459 76.1808923,2.69334098 70.1619692,2.69334098 M63.3999692,30.2835049 C63.0187385,30.2651115 62.6288923,30.0790131 62.4339692,29.7273738 C62.2444308,29.3865541 62.2541231,28.9689148 62.4576615,28.6356689 C63.1393538,27.5201607 63.8921231,26.1698656 64.2593538,25.3778656 C59.8773538,23.151177 57.0924308,18.6447836 57.0924308,13.6590787 C57.0924308,6.4185541 62.9562769,0.529406557 70.1619692,0.529406557 C77.3676615,0.529406557 83.2315077,6.4185541 83.2315077,13.6590787 C83.2315077,20.8660623 77.4215077,26.7368164 70.2599692,26.7898328 C70.0855077,26.8904557 69.7193538,27.2258656 69.4468923,27.4758 C68.2999692,28.5263902 66.3852,30.2835049 63.3999692,30.2835049" id="Fill-7" fill="#201820" mask="url(#mask-2)"></path>
                </g>
                <g id="Group-11" transform="translate(79.000000, 5.000000)">
                    <mask id="mask-4" fill="white">
                        <use xlink:href="#path-3"></use>
                    </mask>
                    <g id="Clip-10"></g>
                    <g id="Fill-9" mask="url(#mask-4)">
                        <use fill="black" fill-opacity="1" filter="url(#filter-7)" xlink:href="#path-6"></use>
                        <use fill="url(#linearGradient-5)" fill-rule="evenodd" xlink:href="#path-6"></use>
                    </g>
                </g>
                <g id="Group-35">
                    <path d="M82.4340462,4.71142623 L82.4329692,4.71142623 C81.9225077,4.71142623 81.4109692,4.83044262 80.9511231,5.05657377 L79.0503538,5.99247541 C78.4505077,6.26188525 77.9917385,6.80070492 77.8345077,7.46611475 C76.0952769,14.8213279 83.8771231,22.0380492 84.2088154,22.342082 C84.6115846,22.7099508 85.1306615,22.9047049 85.6594308,22.9047049 C85.7294308,22.9047049 85.7983538,22.901459 85.8672769,22.8949672 C86.2743538,22.8592623 86.6706615,22.7489016 87.0443538,22.5649672 L89.0162,21.5944426 C89.8249692,21.1962787 90.4323538,20.5049016 90.7242,19.6469016 C91.0182,18.7889016 90.9611231,17.8670656 90.5648154,17.0545082 L89.6009692,15.0777541 C89.0388154,13.9232951 87.8455846,13.1767377 86.5640462,13.1767377 C86.0525077,13.1767377 85.5409692,13.2968361 85.0822,13.5229672 L84.7289692,13.696082 C84.6589692,13.5705738 84.5922,13.4396557 84.5275846,13.3054918 L84.8851231,13.1291311 C85.6949692,12.7309672 86.3023538,12.0395902 86.5942,11.1805082 C86.8871231,10.3235902 86.8300462,9.4017541 86.4348154,8.58919672 L85.4709692,6.61244262 C84.9077385,5.45690164 83.7155846,4.71142623 82.4340462,4.71142623 M82.4329692,6.87536066 C82.8863538,6.87536066 83.3246615,7.12854098 83.5357385,7.56457377 L84.4995846,9.54132787 C84.7957385,10.1483115 84.5437385,10.888377 83.9385077,11.185918 L81.9709692,12.1542787 C82.2251231,14.5389344 84.0569692,16.433459 84.0569692,16.433459 L84.0580462,16.435623 L86.0288154,15.4650984 C86.2011231,15.3807049 86.3831231,15.3406721 86.5640462,15.3406721 C87.0174308,15.3406721 87.4546615,15.5949344 87.6657385,16.0298852 L88.6295846,18.0066393 C88.9257385,18.6147049 88.6737385,19.3536885 88.0685077,19.6523115 L86.0977385,20.6217541 C85.9577385,20.689918 85.8102,20.7310328 85.6605077,20.7396885 L85.6594308,20.7407705 C85.6594308,20.7407705 78.4645077,14.1634918 79.9302,7.96706557 L79.9312769,7.96814754 L81.8988154,6.99978689 C82.0700462,6.91539344 82.2531231,6.87536066 82.4329692,6.87536066" id="Fill-12" fill="#201820"></path>
                    <mask id="mask-9" fill="white">
                        <use xlink:href="#path-8"></use>
                    </mask>
                    <g id="Clip-15"></g>
                    <polygon id="Fill-14" fill="#FEFEFE" mask="url(#mask-9)" points="1.07692308 64.9180328 15.5755385 64.9180328 15.5755385 18.8078361 1.07692308 18.8078361"></polygon>
                    <path d="M2.15384615,63.8360656 L14.4986154,63.8360656 L14.4986154,19.8898033 L2.15384615,19.8898033 L2.15384615,63.8360656 Z M15.5755385,66 L1.07692308,66 C0.481384615,66 0,65.5163607 0,64.9180328 L0,18.8078361 C0,18.2095082 0.481384615,17.7258689 1.07692308,17.7258689 L15.5755385,17.7258689 C16.1710769,17.7258689 16.6524615,18.2095082 16.6524615,18.8078361 L16.6524615,64.9180328 C16.6524615,65.5163607 16.1710769,66 15.5755385,66 L15.5755385,66 Z" id="Fill-16" fill="#201820" mask="url(#mask-9)"></path>
                    <path d="M29.0370769,63.8360656 L33.3447692,63.8360656 L33.3447692,55.9560984 L29.0370769,55.9560984 L29.0370769,63.8360656 Z M34.4216923,66 L27.9601538,66 C27.3646154,66 26.8832308,65.5163607 26.8832308,64.9180328 L26.8832308,54.8741311 C26.8832308,54.2758033 27.3646154,53.7921639 27.9601538,53.7921639 L34.4216923,53.7921639 C35.0172308,53.7921639 35.4986154,54.2758033 35.4986154,54.8741311 L35.4986154,64.9180328 C35.4986154,65.5163607 35.0172308,66 34.4216923,66 L34.4216923,66 Z" id="Fill-17" fill="#201820" mask="url(#mask-9)"></path>
                    <path d="M23.2938462,15.8995082 L25.9635385,15.8995082 L25.9635385,13.2173115 L23.2938462,13.2173115 L23.2938462,15.8995082 Z M27.0393846,18.0634426 L22.2169231,18.0634426 C21.6213846,18.0634426 21.14,17.5798033 21.14,16.9814754 L21.14,12.1364262 C21.14,11.5380984 21.6213846,11.054459 22.2169231,11.054459 L27.0393846,11.054459 C27.6349231,11.054459 28.1163077,11.5380984 28.1163077,12.1364262 L28.1163077,16.9814754 C28.1163077,17.5798033 27.6349231,18.0634426 27.0393846,18.0634426 L27.0393846,18.0634426 Z" id="Fill-18" fill="#201820" mask="url(#mask-9)"></path>
                    <path d="M36.2169231,15.8995082 L38.8866154,15.8995082 L38.8866154,13.2173115 L36.2169231,13.2173115 L36.2169231,15.8995082 Z M39.9624615,18.0634426 L35.14,18.0634426 C34.5444615,18.0634426 34.0630769,17.5798033 34.0630769,16.9814754 L34.0630769,12.1364262 C34.0630769,11.5380984 34.5444615,11.054459 35.14,11.054459 L39.9624615,11.054459 C40.558,11.054459 41.0393846,11.5380984 41.0393846,12.1364262 L41.0393846,16.9814754 C41.0393846,17.5798033 40.558,18.0634426 39.9624615,18.0634426 L39.9624615,18.0634426 Z" id="Fill-19" fill="#201820" mask="url(#mask-9)"></path>
                    <path d="M23.2938462,26.7191803 L25.9635385,26.7191803 L25.9635385,24.0369836 L23.2938462,24.0369836 L23.2938462,26.7191803 Z M27.0393846,28.8831148 L22.2169231,28.8831148 C21.6213846,28.8831148 21.14,28.3994754 21.14,27.8011475 L21.14,22.9560984 C21.14,22.3577705 21.6213846,21.8741311 22.2169231,21.8741311 L27.0393846,21.8741311 C27.6349231,21.8741311 28.1163077,22.3577705 28.1163077,22.9560984 L28.1163077,27.8011475 C28.1163077,28.3994754 27.6349231,28.8831148 27.0393846,28.8831148 L27.0393846,28.8831148 Z" id="Fill-20" fill="#201820" mask="url(#mask-9)"></path>
                    <path d="M36.2169231,26.7191803 L38.8866154,26.7191803 L38.8866154,24.0369836 L36.2169231,24.0369836 L36.2169231,26.7191803 Z M39.9624615,28.8831148 L35.14,28.8831148 C34.5444615,28.8831148 34.0630769,28.3994754 34.0630769,27.8011475 L34.0630769,22.9560984 C34.0630769,22.3577705 34.5444615,21.8741311 35.14,21.8741311 L39.9624615,21.8741311 C40.558,21.8741311 41.0393846,22.3577705 41.0393846,22.9560984 L41.0393846,27.8011475 C41.0393846,28.3994754 40.558,28.8831148 39.9624615,28.8831148 L39.9624615,28.8831148 Z" id="Fill-21" fill="#201820" mask="url(#mask-9)"></path>
                    <path d="M23.2938462,37.5388525 L25.9635385,37.5388525 L25.9635385,34.8566557 L23.2938462,34.8566557 L23.2938462,37.5388525 Z M27.0393846,39.7027869 L22.2169231,39.7027869 C21.6213846,39.7027869 21.14,39.2191475 21.14,38.6208197 L21.14,33.7757705 C21.14,33.1774426 21.6213846,32.6938033 22.2169231,32.6938033 L27.0393846,32.6938033 C27.6349231,32.6938033 28.1163077,33.1774426 28.1163077,33.7757705 L28.1163077,38.6208197 C28.1163077,39.2191475 27.6349231,39.7027869 27.0393846,39.7027869 L27.0393846,39.7027869 Z" id="Fill-22" fill="#201820" mask="url(#mask-9)"></path>
                    <path d="M36.2169231,37.5388525 L38.8866154,37.5388525 L38.8866154,34.8566557 L36.2169231,34.8566557 L36.2169231,37.5388525 Z M39.9624615,39.7027869 L35.14,39.7027869 C34.5444615,39.7027869 34.0630769,39.2191475 34.0630769,38.6208197 L34.0630769,33.7757705 C34.0630769,33.1774426 34.5444615,32.6938033 35.14,32.6938033 L39.9624615,32.6938033 C40.558,32.6938033 41.0393846,33.1774426 41.0393846,33.7757705 L41.0393846,38.6208197 C41.0393846,39.2191475 40.558,39.7027869 39.9624615,39.7027869 L39.9624615,39.7027869 Z" id="Fill-23" fill="#201820" mask="url(#mask-9)"></path>
                    <path d="M23.2938462,48.3585246 L25.9635385,48.3585246 L25.9635385,45.6763279 L23.2938462,45.6763279 L23.2938462,48.3585246 Z M27.0393846,50.522459 L22.2169231,50.522459 C21.6213846,50.522459 21.14,50.0388197 21.14,49.4404918 L21.14,44.5954426 C21.14,43.9971148 21.6213846,43.5134754 22.2169231,43.5134754 L27.0393846,43.5134754 C27.6349231,43.5134754 28.1163077,43.9971148 28.1163077,44.5954426 L28.1163077,49.4404918 C28.1163077,50.0388197 27.6349231,50.522459 27.0393846,50.522459 L27.0393846,50.522459 Z" id="Fill-24" fill="#201820" mask="url(#mask-9)"></path>
                    <path d="M36.2169231,48.3585246 L38.8866154,48.3585246 L38.8866154,45.6763279 L36.2169231,45.6763279 L36.2169231,48.3585246 Z M39.9624615,50.522459 L35.14,50.522459 C34.5444615,50.522459 34.0630769,50.0388197 34.0630769,49.4404918 L34.0630769,44.5954426 C34.0630769,43.9971148 34.5444615,43.5134754 35.14,43.5134754 L39.9624615,43.5134754 C40.558,43.5134754 41.0393846,43.9971148 41.0393846,44.5954426 L41.0393846,49.4404918 C41.0393846,50.0388197 40.558,50.522459 39.9624615,50.522459 L39.9624615,50.522459 Z" id="Fill-25" fill="#201820" mask="url(#mask-9)"></path>
                    <path d="M7.14,28.8831148 L9.80969231,28.8831148 L9.80969231,26.200918 L7.14,26.200918 L7.14,28.8831148 Z M10.8855385,31.0470492 L6.06307692,31.0470492 C5.46753846,31.0470492 4.98615385,30.5634098 4.98615385,29.965082 L4.98615385,25.1200328 C4.98615385,24.5217049 5.46753846,24.0380656 6.06307692,24.0380656 L10.8855385,24.0380656 C11.4810769,24.0380656 11.9624615,24.5217049 11.9624615,25.1200328 L11.9624615,29.965082 C11.9624615,30.5634098 11.4810769,31.0470492 10.8855385,31.0470492 L10.8855385,31.0470492 Z" id="Fill-26" fill="#201820" mask="url(#mask-9)"></path>
                    <path d="M7.14,39.7027869 L9.80969231,39.7027869 L9.80969231,37.0205902 L7.14,37.0205902 L7.14,39.7027869 Z M10.8855385,41.8667213 L6.06307692,41.8667213 C5.46753846,41.8667213 4.98615385,41.383082 4.98615385,40.7847541 L4.98615385,35.9397049 C4.98615385,35.341377 5.46753846,34.8577377 6.06307692,34.8577377 L10.8855385,34.8577377 C11.4810769,34.8577377 11.9624615,35.341377 11.9624615,35.9397049 L11.9624615,40.7847541 C11.9624615,41.383082 11.4810769,41.8667213 10.8855385,41.8667213 L10.8855385,41.8667213 Z" id="Fill-27" fill="#201820" mask="url(#mask-9)"></path>
                    <path d="M7.14,50.522459 L9.80969231,50.522459 L9.80969231,47.8402623 L7.14,47.8402623 L7.14,50.522459 Z M10.8855385,52.6863934 L6.06307692,52.6863934 C5.46753846,52.6863934 4.98615385,52.2027541 4.98615385,51.6044262 L4.98615385,46.759377 C4.98615385,46.1610492 5.46753846,45.6774098 6.06307692,45.6774098 L10.8855385,45.6774098 C11.4810769,45.6774098 11.9624615,46.1610492 11.9624615,46.759377 L11.9624615,51.6044262 C11.9624615,52.2027541 11.4810769,52.6863934 10.8855385,52.6863934 L10.8855385,52.6863934 Z" id="Fill-28" fill="#201820" mask="url(#mask-9)"></path>
                    <path d="M56.5212308,36.7468525 L59.1909231,36.7468525 L59.1909231,34.0646557 L56.5212308,34.0646557 L56.5212308,36.7468525 Z M60.2678462,38.9107869 L55.4443077,38.9107869 C54.8498462,38.9107869 54.3673846,38.4271475 54.3673846,37.8288197 L54.3673846,32.9826885 C54.3673846,32.3854426 54.8498462,31.9007213 55.4443077,31.9007213 L60.2678462,31.9007213 C60.8633846,31.9007213 61.3447692,32.3854426 61.3447692,32.9826885 L61.3447692,37.8288197 C61.3447692,38.4271475 60.8633846,38.9107869 60.2678462,38.9107869 L60.2678462,38.9107869 Z" id="Fill-29" fill="#201820" mask="url(#mask-9)"></path>
                    <path d="M56.5212308,47.5665246 L59.1909231,47.5665246 L59.1909231,44.8843279 L56.5212308,44.8843279 L56.5212308,47.5665246 Z M60.2678462,49.730459 L55.4443077,49.730459 C54.8498462,49.730459 54.3673846,49.2468197 54.3673846,48.6484918 L54.3673846,43.8023607 C54.3673846,43.2051148 54.8498462,42.7203934 55.4443077,42.7203934 L60.2678462,42.7203934 C60.8633846,42.7203934 61.3447692,43.2051148 61.3447692,43.8023607 L61.3447692,48.6484918 C61.3447692,49.2468197 60.8633846,49.730459 60.2678462,49.730459 L60.2678462,49.730459 Z" id="Fill-30" fill="#201820" mask="url(#mask-9)"></path>
                    <path d="M63.7010769,63.8360656 L66.3707692,63.8360656 L66.3707692,55.704 L63.7010769,55.704 L63.7010769,63.8360656 Z M67.4476923,66 L62.6241538,66 C62.0296923,66 61.5472308,65.5163607 61.5472308,64.9180328 L61.5472308,54.6220328 C61.5472308,54.0247869 62.0296923,53.5400656 62.6241538,53.5400656 L67.4476923,53.5400656 C68.0432308,53.5400656 68.5246154,54.0247869 68.5246154,54.6220328 L68.5246154,64.9180328 C68.5246154,65.5163607 68.0432308,66 67.4476923,66 L67.4476923,66 Z" id="Fill-31" fill="#201820" mask="url(#mask-9)"></path>
                    <path d="M58.8786154,63.8360656 L61.5483077,63.8360656 L61.5483077,55.704 L58.8786154,55.704 L58.8786154,63.8360656 Z M62.6241538,66 L57.8016923,66 C57.2061538,66 56.7247692,65.5163607 56.7247692,64.9180328 L56.7247692,54.6220328 C56.7247692,54.0247869 57.2061538,53.5400656 57.8016923,53.5400656 L62.6241538,53.5400656 C63.2196923,53.5400656 63.7010769,54.0247869 63.7010769,54.6220328 L63.7010769,64.9180328 C63.7010769,65.5163607 63.2196923,66 62.6241538,66 L62.6241538,66 Z" id="Fill-32" fill="#201820" mask="url(#mask-9)"></path>
                    <path d="M65.1366154,36.7468525 L67.8063077,36.7468525 L67.8063077,34.0646557 L65.1366154,34.0646557 L65.1366154,36.7468525 Z M68.8832308,38.9107869 L64.0596923,38.9107869 C63.4652308,38.9107869 62.9827692,38.4271475 62.9827692,37.8288197 L62.9827692,32.9826885 C62.9827692,32.3854426 63.4652308,31.9007213 64.0596923,31.9007213 L68.8832308,31.9007213 C69.4787692,31.9007213 69.9601538,32.3854426 69.9601538,32.9826885 L69.9601538,37.8288197 C69.9601538,38.4271475 69.4787692,38.9107869 68.8832308,38.9107869 L68.8832308,38.9107869 Z" id="Fill-33" fill="#201820" mask="url(#mask-9)"></path>
                    <path d="M65.1366154,47.5665246 L67.8063077,47.5665246 L67.8063077,44.8843279 L65.1366154,44.8843279 L65.1366154,47.5665246 Z M68.8832308,49.730459 L64.0596923,49.730459 C63.4652308,49.730459 62.9827692,49.2468197 62.9827692,48.6484918 L62.9827692,43.8023607 C62.9827692,43.2051148 63.4652308,42.7203934 64.0596923,42.7203934 L68.8832308,42.7203934 C69.4787692,42.7203934 69.9601538,43.2051148 69.9601538,43.8023607 L69.9601538,48.6484918 C69.9601538,49.2468197 69.4787692,49.730459 68.8832308,49.730459 L68.8832308,49.730459 Z" id="Fill-34" fill="#201820" mask="url(#mask-9)"></path>
                </g>
            </g>
        </g>
    </g>
</svg>