<?xml version="1.0" encoding="UTF-8"?>
<svg width="55px" height="55px" viewBox="0 0 55 55" version="1.1" xmlns="http://www.w3.org/2000/svg" xmlns:xlink="http://www.w3.org/1999/xlink">
    <!-- Generator: Sketch 56.3 (81716) - https://sketch.com -->
    <title>icon-debt-consolidation</title>
    <desc>Created with Sketch.</desc>
    <defs>
        <path d="M2,0.91 C0.901,0.91 0,1.811 0,2.91 L0,2.91 L0,24.07 L6.311,24.07 C5.88,23.24 5.65,22.31 5.65,21.351 L5.65,21.351 C5.65,18.031 8.35,15.33 11.67,15.33 L11.67,15.33 C15,15.33 17.7,18.031 17.7,21.351 L17.7,21.351 C17.7,22.31 17.47,23.24 17.04,24.07 L17.04,24.07 L24.04,24.07 L24.04,15.29 C24.04,15.089 24.1,14.9 24.21,14.73 L24.21,14.73 C24.25,14.68 24.29,14.62 24.339,14.58 L24.339,14.58 C24.6,14.32 24.969,14.24 25.29,14.33 L25.29,14.33 C25.34,14.33 25.391,14.35 25.429,14.37 L25.429,14.37 C25.49,14.391 25.54,14.42 25.599,14.46 L25.599,14.46 C25.651,14.5 25.71,14.54 25.75,14.59 L25.75,14.59 C25.76,14.601 25.77,14.611 25.78,14.62 L25.78,14.62 C26.54,15.37 27.54,15.79 28.62,15.79 L28.62,15.79 C30.84,15.79 32.65,13.98 32.65,11.759 L32.65,11.759 C32.65,9.54 30.84,7.74 28.62,7.74 L28.62,7.74 C27.54,7.74 26.54,8.16 25.78,8.91 L25.78,8.91 C25.77,8.92 25.76,8.93 25.75,8.941 L25.75,8.941 C25.71,8.99 25.651,9.031 25.599,9.07 L25.599,9.07 C25.21,9.33 24.689,9.29 24.339,8.95 L24.339,8.95 C24.29,8.91 24.25,8.85 24.21,8.8 L24.21,8.8 C24.1,8.63 24.04,8.44 24.04,8.24 L24.04,8.24 L24.04,0.91 L2,0.91 Z" id="path-1"></path>
        <linearGradient x1="15.089614%" y1="50%" x2="85.9857537%" y2="50%" id="linearGradient-3">
            <stop stop-color="#F47D52" offset="0%"></stop>
            <stop stop-color="#F2AB1F" offset="100%"></stop>
        </linearGradient>
    </defs>
    <g id="Page-1" stroke="none" stroke-width="1" fill="none" fill-rule="evenodd">
        <g id="Assets-Playground" transform="translate(-1141.000000, -2289.000000)">
            <g id="icon-debt-consolidation" transform="translate(1142.000000, 2289.000000)">
                <g id="Group-15" transform="translate(0.000000, 0.090000)" fill="#201820" fill-rule="nonzero">
                    <path d="M49.0859,53.9959 L2.9999,53.9959 C0.797908536,53.9959 -1.0001,52.1974781 -1.0001,49.9959 L-1.0001,3.9099 C-1.0001,1.70832187 0.797908536,-0.0901 2.9999,-0.0901 L49.0859,-0.0901 C51.2871847,-0.0901 53.0859,1.70861525 53.0859,3.9099 L53.0859,49.9959 C53.0859,52.1971847 51.2871847,53.9959 49.0859,53.9959 Z M49.0859,51.9959 C50.1826153,51.9959 51.0859,51.0926153 51.0859,49.9959 L51.0859,3.9099 C51.0859,2.81318475 50.1826153,1.9099 49.0859,1.9099 L2.9999,1.9099 C1.90258096,1.9099 0.9999,2.81278847 0.9999,3.9099 L0.9999,49.9959 C0.9999,51.0930115 1.90258096,51.9959 2.9999,51.9959 L49.0859,51.9959 Z" id="Stroke-1"></path>
                    <path d="M16.04,27.0702 L36.24,27.0702 C36.7922847,27.0702 37.24,26.6224847 37.24,26.0702 C37.24,25.5179153 36.7922847,25.0702 36.24,25.0702 L16.04,25.0702 C15.4877153,25.0702 15.04,25.5179153 15.04,26.0702 C15.04,26.6224847 15.4877153,27.0702 16.04,27.0702 Z" id="Stroke-3"></path>
                    <path d="M52.0898,25.0702 L43.0998,25.0702 C42.5475153,25.0702 42.0998,25.5179153 42.0998,26.0702 C42.0998,26.6224847 42.5475153,27.0702 43.0998,27.0702 L52.0898,27.0702 C52.6420847,27.0702 53.0898,26.6224847 53.0898,26.0702 C53.0898,25.5179153 52.6420847,25.0702 52.0898,25.0702 Z" id="Stroke-5"></path>
                    <path d="M9.3096,25.0702 L-0.0004,25.0702 C-0.55268475,25.0702 -1.0004,25.5179153 -1.0004,26.0702 C-1.0004,26.6224847 -0.55268475,27.0702 -0.0004,27.0702 L9.3096,27.0702 C9.86188475,27.0702 10.3096,26.6224847 10.3096,26.0702 C10.3096,25.5179153 9.86188475,25.0702 9.3096,25.0702 Z" id="Stroke-7"></path>
                    <path d="M25.04,16.2899 L25.04,35.6899 C25.04,36.2421847 25.4877153,36.6899 26.04,36.6899 C26.5922847,36.6899 27.04,36.2421847 27.04,35.6899 L27.04,16.2899 C27.04,15.7376153 26.5922847,15.2899 26.04,15.2899 C25.4877153,15.2899 25.04,15.7376153 25.04,16.2899 Z" id="Stroke-9"></path>
                    <path d="M27.04,52.9998 L27.04,43.1998 C27.04,42.6475153 26.5922847,42.1998 26.04,42.1998 C25.4877153,42.1998 25.04,42.6475153 25.04,43.1998 L25.04,52.9998 C25.04,53.5520847 25.4877153,53.9998 26.04,53.9998 C26.5922847,53.9998 27.04,53.5520847 27.04,52.9998 Z" id="Stroke-11"></path>
                    <path d="M27.04,9.2401 L27.04,0.9101 C27.04,0.35781525 26.5922847,-0.0899 26.04,-0.0899 C25.4877153,-0.0899 25.04,0.35781525 25.04,0.9101 L25.04,9.2401 C25.04,9.79238475 25.4877153,10.2401 26.04,10.2401 C26.5922847,10.2401 27.04,9.79238475 27.04,9.2401 Z" id="Stroke-13"></path>
                </g>
                <g id="Group-18" transform="translate(1.000000, 1.090000)">
                    <mask id="mask-2" fill="white">
                        <use xlink:href="#path-1"></use>
                    </mask>
                    <g id="Clip-17"></g>
                    <path d="M2,0.91 C0.901,0.91 0,1.811 0,2.91 L0,2.91 L0,24.07 L6.311,24.07 C5.88,23.24 5.65,22.31 5.65,21.351 L5.65,21.351 C5.65,18.031 8.35,15.33 11.67,15.33 L11.67,15.33 C15,15.33 17.7,18.031 17.7,21.351 L17.7,21.351 C17.7,22.31 17.47,23.24 17.04,24.07 L17.04,24.07 L24.04,24.07 L24.04,15.29 C24.04,15.089 24.1,14.9 24.21,14.73 L24.21,14.73 C24.25,14.68 24.29,14.62 24.339,14.58 L24.339,14.58 C24.6,14.32 24.969,14.24 25.29,14.33 L25.29,14.33 C25.34,14.33 25.391,14.35 25.429,14.37 L25.429,14.37 C25.49,14.391 25.54,14.42 25.599,14.46 L25.599,14.46 C25.651,14.5 25.71,14.54 25.75,14.59 L25.75,14.59 C25.76,14.601 25.77,14.611 25.78,14.62 L25.78,14.62 C26.54,15.37 27.54,15.79 28.62,15.79 L28.62,15.79 C30.84,15.79 32.65,13.98 32.65,11.759 L32.65,11.759 C32.65,9.54 30.84,7.74 28.62,7.74 L28.62,7.74 C27.54,7.74 26.54,8.16 25.78,8.91 L25.78,8.91 C25.77,8.92 25.76,8.93 25.75,8.941 L25.75,8.941 C25.71,8.99 25.651,9.031 25.599,9.07 L25.599,9.07 C25.21,9.33 24.689,9.29 24.339,8.95 L24.339,8.95 C24.29,8.91 24.25,8.85 24.21,8.8 L24.21,8.8 C24.1,8.63 24.04,8.44 24.04,8.24 L24.04,8.24 L24.04,0.91 L2,0.91 Z" id="Fill-16" fill="url(#linearGradient-3)" mask="url(#mask-2)"></path>
                </g>
                <g id="Group-27" transform="translate(7.000000, 7.090000)" fill="#201820" fill-rule="nonzero">
                    <path d="M9.70572496,19.8163972 C10.9655839,18.6924054 11.7,17.0798832 11.7,15.3502 C11.7,12.026062 9.00042982,9.3302 5.67,9.3302 C2.34771525,9.3302 -0.35,12.0279153 -0.35,15.3502 C-0.35,17.0798832 0.38441606,18.6924054 1.64427504,19.8163972 C2.05638838,20.184067 2.68852747,20.1480383 3.05619721,19.735925 C3.42386695,19.3238116 3.3878383,18.6916725 2.97572496,18.3240028 C2.13787956,17.5765133 1.65,16.5052995 1.65,15.3502 C1.65,13.1324847 3.45228475,11.3302 5.67,11.3302 C7.89647527,11.3302 9.7,13.1312474 9.7,15.3502 C9.7,16.5052995 9.21212044,17.5765133 8.37427504,18.3240028 C7.9621617,18.6916725 7.92613305,19.3238116 8.29380279,19.735925 C8.66147253,20.1480383 9.29361162,20.184067 9.70572496,19.8163972 Z" id="Stroke-19"></path>
                    <path d="M18.3252495,9.98927952 C19.4455498,11.1342018 20.9818475,11.7899 22.62,11.7899 C25.9522847,11.7899 28.65,9.09218475 28.65,5.7599 C28.65,2.43576198 25.9504298,-0.2601 22.62,-0.2601 C20.9827189,-0.2601 19.4464625,0.395897302 18.3256257,1.54013618 C17.9391568,1.9346742 17.9456982,2.56780539 18.3402362,2.95427427 C18.7347742,3.34074316 19.3679054,3.33420183 19.7543743,2.93966382 C20.5018594,2.17657181 21.5244854,1.7399 22.62,1.7399 C24.8464753,1.7399 26.65,3.54094736 26.65,5.7599 C26.65,7.98761525 24.8477153,9.7899 22.62,9.7899 C21.5236597,9.7899 20.501426,9.35360645 19.7547505,8.59052048 C19.3684939,8.19577467 18.7353663,8.18889285 18.3406205,8.5751495 C17.9458747,8.96140614 17.9389929,9.59453372 18.3252495,9.98927952 Z" id="Stroke-21"></path>
                    <path d="M35.4191489,19.8029935 C36.2259149,20.5521333 36.6906,21.5988355 36.6906,22.7302 C36.6906,24.9480392 34.8881913,26.7502 32.6696,26.7502 C30.4458979,26.7502 28.6506,24.9519338 28.6506,22.7302 C28.6506,21.5974128 29.1144119,20.5512522 29.9206784,19.8033394 C30.3255801,19.4277425 30.3493363,18.7950234 29.9737394,18.3901216 C29.5981425,17.9852199 28.9654234,17.9614637 28.5605216,18.3370606 C27.3493321,19.4605901 26.6506,21.0366297 26.6506,22.7302 C26.6506,26.0557644 29.3405882,28.7502 32.6696,28.7502 C35.9926992,28.7502 38.6906,26.0526703 38.6906,22.7302 C38.6906,21.0378406 37.9908987,19.461765 36.7800511,18.3374065 C36.3753404,17.9616037 35.7426093,17.9850382 35.3668065,18.3897489 C34.9910037,18.7944596 35.0144382,19.4271907 35.4191489,19.8029935 Z" id="Stroke-23"></path>
                    <path d="M18.3714971,35.4562905 C17.6448581,36.1094491 16.7165432,36.47 15.72,36.47 C13.4948109,36.47 11.7,34.6702448 11.7,32.44 C11.7,30.2185196 13.4960457,28.42 15.72,28.42 C16.7165432,28.42 17.6448581,28.7805509 18.3714971,29.4337095 C18.7822365,29.8029135 19.4145055,29.7692423 19.7837095,29.3585029 C20.1529135,28.9477635 20.1192423,28.3154945 19.7085029,27.9462905 C18.6170128,26.9651758 17.2133419,26.42 15.72,26.42 C12.3908594,26.42 9.7,29.1145658 9.7,32.44 C9.7,35.7735844 12.3890078,38.47 15.72,38.47 C17.2133419,38.47 18.6170128,37.9248242 19.7085029,36.9437095 C20.1192423,36.5745055 20.1529135,35.9422365 19.7837095,35.5314971 C19.4145055,35.1207577 18.7822365,35.0870865 18.3714971,35.4562905 Z" id="Stroke-25"></path>
                </g>
            </g>
        </g>
    </g>
</svg>