<?xml version="1.0" encoding="UTF-8"?>
<svg width="54px" height="71px" viewBox="0 0 54 71" version="1.1" xmlns="http://www.w3.org/2000/svg" xmlns:xlink="http://www.w3.org/1999/xlink">
    <!-- Generator: Sketch 56.3 (81716) - https://sketch.com -->
    <title>icon-improvements</title>
    <desc>Created with Sketch.</desc>
    <defs>
        <path d="M3.557,0.83 C1.908,0.83 0.557,2.18 0.557,3.83 L0.557,3.83 L0.557,4.83 C0.557,6.479 1.908,7.83 3.557,7.83 L3.557,7.83 L23.433,7.83 C25.082,7.83 26.432,6.479 26.432,4.83 L26.432,4.83 L26.432,3.83 C26.432,2.18 25.082,0.83 23.433,0.83 L23.433,0.83 L3.557,0.83 Z" id="path-1"></path>
        <linearGradient x1="9.65606812%" y1="61.0481185%" x2="87.5404108%" y2="61.0481185%" id="linearGradient-3">
            <stop stop-color="#E61978" offset="0%"></stop>
            <stop stop-color="#993894" offset="100%"></stop>
        </linearGradient>
        <path d="M3.557,0.83 C1.908,0.83 0.557,2.18 0.557,3.83 L0.557,3.83 L0.557,4.83 C0.557,6.479 1.908,7.83 3.557,7.83 L3.557,7.83 L23.433,7.83 C25.082,7.83 26.432,6.479 26.432,4.83 L26.432,4.83 L26.432,3.83 C26.432,2.18 25.082,0.83 23.433,0.83 L23.433,0.83 L3.557,0.83 Z" id="path-4"></path>
        <filter x="-148.8%" y="-521.4%" width="397.6%" height="1200.0%" filterUnits="objectBoundingBox" id="filter-5">
            <feOffset dx="0" dy="2" in="SourceAlpha" result="shadowOffsetOuter1"></feOffset>
            <feGaussianBlur stdDeviation="12.5" in="shadowOffsetOuter1" result="shadowBlurOuter1"></feGaussianBlur>
            <feColorMatrix values="0 0 0 0 0   0 0 0 0 0   0 0 0 0 0  0 0 0 0.25 0" type="matrix" in="shadowBlurOuter1"></feColorMatrix>
        </filter>
    </defs>
    <g id="Page-1" stroke="none" stroke-width="1" fill="none" fill-rule="evenodd">
        <g id="Assets-Playground" transform="translate(-741.000000, -2273.000000)">
            <g id="icon-improvements" transform="translate(741.000000, 2272.000000)">
                <g id="Group-5" transform="translate(0.000000, 0.336900)" fill="#201820">
                    <path d="M2,55.33 L24.9,55.33 L24.9,51.83 L2,51.83 L2,55.33 Z M25.9,57.33 L1,57.33 C0.447,57.33 0,56.883 0,56.33 L0,50.83 C0,50.277 0.447,49.83 1,49.83 L25.9,49.83 C26.453,49.83 26.9,50.277 26.9,50.83 L26.9,56.33 C26.9,56.883 26.453,57.33 25.9,57.33 L25.9,57.33 Z" id="Fill-1"></path>
                    <path d="M3.75,49.8301 L21.686,49.8301 L21.448,47.8911 L18.524,45.6921 C18.302,45.5251 18.159,45.2731 18.131,44.9971 C18.102,44.7211 18.188,44.4441 18.371,44.2351 L20.341,41.9771 L17.313,39.1201 C16.955,38.7811 16.896,38.2311 17.177,37.8251 L19.515,34.4351 L16.592,31.3981 C16.271,31.0641 16.221,30.5541 16.471,30.1641 L18.602,26.8491 L16.034,24.2161 C15.718,23.8921 15.659,23.3951 15.891,23.0061 L17.792,19.8131 L15.427,17.0421 C15.18,16.7521 15.118,16.3461 15.27,15.9961 L16.936,12.1401 L15.063,9.5391 C14.873,9.2751 14.823,8.9351 14.93,8.6281 L16.114,5.2051 L14.301,2.6631 L3.75,2.6631 L3.75,49.8301 Z M22.815,51.8301 L2.75,51.8301 C2.197,51.8301 1.75,51.3831 1.75,50.8301 L1.75,1.6631 C1.75,1.1101 2.197,0.6631 2.75,0.6631 L14.815,0.6631 C15.139,0.6631 15.441,0.8191 15.63,1.0821 L18.042,4.4631 C18.229,4.7261 18.278,5.0641 18.173,5.3711 L16.989,8.7921 L18.89,11.4321 C19.095,11.7171 19.136,12.0891 18.996,12.4121 L17.353,16.2181 L19.778,19.0601 C20.057,19.3871 20.096,19.8531 19.877,20.2221 L18.002,23.3691 L20.589,26.0211 C20.914,26.3541 20.966,26.8681 20.715,27.2611 L18.581,30.5811 L21.522,33.6381 C21.852,33.9801 21.895,34.5081 21.625,34.8981 L19.311,38.2541 L22.413,41.1831 C22.804,41.5521 22.833,42.1631 22.48,42.5671 L20.586,44.7391 L22.99,46.5471 C23.208,46.7111 23.35,46.9551 23.382,47.2261 L23.808,50.7091 C23.843,50.9931 23.754,51.2781 23.564,51.4931 C23.374,51.7071 23.102,51.8301 22.815,51.8301 L22.815,51.8301 Z" id="Fill-3"></path>
                    <path d="M21.0801,71 L5.7501,71 C3.5441,71 1.7501,69.206 1.7501,67 L1.7501,56.33 C1.7501,55.777 2.1971,55.33 2.7501,55.33 C3.3031,55.33 3.7501,55.777 3.7501,56.33 L3.7501,67 C3.7501,68.103 4.6471,69 5.7501,69 L21.0801,69 C22.1831,69 23.0801,68.103 23.0801,67 L23.0801,56.33 C23.0801,55.777 23.5271,55.33 24.0801,55.33 C24.6331,55.33 25.0801,55.777 25.0801,56.33 L25.0801,67 C25.0801,69.206 23.2861,71 21.0801,71" id="Fill-4"></path>
                </g>
                <g id="Group-8" transform="translate(23.000000, 26.336900)">
                    <mask id="mask-2" fill="white">
                        <use xlink:href="#path-1"></use>
                    </mask>
                    <g id="Clip-7"></g>
                    <g id="Fill-6" mask="url(#mask-2)">
                        <use fill="black" fill-opacity="1" filter="url(#filter-5)" xlink:href="#path-4"></use>
                        <use fill="url(#linearGradient-3)" fill-rule="evenodd" xlink:href="#path-4"></use>
                    </g>
                </g>
                <g id="Group-17" transform="translate(4.000000, 25.336900)" fill="#201820">
                    <path d="M4.3945,36.3477 C3.4095,36.3477 2.6085,37.1487 2.6085,38.1337 C2.6085,39.1187 3.4095,39.9187 4.3945,39.9187 L14.1425,39.9187 C15.1275,39.9187 15.9285,39.1187 15.9285,38.1337 C15.9285,37.1487 15.1275,36.3477 14.1425,36.3477 L4.3945,36.3477 Z M14.1425,41.9187 L4.3945,41.9187 C2.3065,41.9187 0.6085,40.2207 0.6085,38.1337 C0.6085,36.0457 2.3065,34.3477 4.3945,34.3477 L14.1425,34.3477 C16.2305,34.3477 17.9285,36.0457 17.9285,38.1337 C17.9285,40.2207 16.2305,41.9187 14.1425,41.9187 L14.1425,41.9187 Z" id="Fill-9"></path>
                    <path d="M22.5576,2.8301 C21.4546,2.8301 20.5576,3.7271 20.5576,4.8301 L20.5576,5.8301 C20.5576,6.9331 21.4546,7.8301 22.5576,7.8301 L42.4326,7.8301 C43.5356,7.8301 44.4326,6.9331 44.4326,5.8301 L44.4326,4.8301 C44.4326,3.7271 43.5356,2.8301 42.4326,2.8301 L22.5576,2.8301 Z M42.4326,9.8301 L22.5576,9.8301 C20.3516,9.8301 18.5576,8.0361 18.5576,5.8301 L18.5576,4.8301 C18.5576,2.6241 20.3516,0.8301 22.5576,0.8301 L42.4326,0.8301 C44.6386,0.8301 46.4326,2.6241 46.4326,4.8301 L46.4326,5.8301 C46.4326,8.0361 44.6386,9.8301 42.4326,9.8301 L42.4326,9.8301 Z" id="Fill-11"></path>
                    <path d="M38.0576,16.4551 C37.2646,16.4551 36.6206,17.1001 36.6206,17.8921 L36.6206,30.5181 C36.6206,31.3101 37.2646,31.9551 38.0576,31.9551 C38.8506,31.9551 39.4946,31.3101 39.4946,30.5181 L39.4946,17.8921 C39.4946,17.1001 38.8506,16.4551 38.0576,16.4551 M38.0576,33.9551 C36.1616,33.9551 34.6196,32.4131 34.6196,30.5181 L34.6196,17.8921 C34.6196,15.9971 36.1616,14.4551 38.0576,14.4551 C39.9536,14.4551 41.4956,15.9971 41.4956,17.8921 L41.4956,30.5181 C41.4956,32.4131 39.9536,33.9551 38.0576,33.9551" id="Fill-13"></path>
                    <path d="M38.0625,16.4551 C37.5095,16.4551 37.0625,16.0081 37.0625,15.4551 L37.0625,11.3351 C37.0625,10.7821 37.5095,10.3351 38.0625,10.3351 L47.0625,10.3351 L47.0625,6.5851 L45.4325,6.5851 C44.8795,6.5851 44.4325,6.1381 44.4325,5.5851 C44.4325,5.0321 44.8795,4.5851 45.4325,4.5851 L48.0625,4.5851 C48.6155,4.5851 49.0625,5.0321 49.0625,5.5851 L49.0625,11.3351 C49.0625,11.8881 48.6155,12.3351 48.0625,12.3351 L39.0625,12.3351 L39.0625,15.4551 C39.0625,16.0081 38.6155,16.4551 38.0625,16.4551" id="Fill-15"></path>
                </g>
            </g>
        </g>
    </g>
</svg>