<?xml version="1.0" encoding="UTF-8"?>
<svg width="81px" height="81px" viewBox="0 0 81 81" version="1.1" xmlns="http://www.w3.org/2000/svg" xmlns:xlink="http://www.w3.org/1999/xlink">
    <!-- Generator: Sketch 56.3 (81716) - https://sketch.com -->
    <title>icon-affiliate-networks</title>
    <desc>Created with Sketch.</desc>
    <defs>
        <path d="M0.3839,11.5033333 C0.3839,17.4873333 5.093,16.6532 10.9021,16.6532 L10.9021,16.6532 C16.7101,16.6532 21.4192,17.4873333 21.4192,11.5033333 L21.4192,11.5033333 C21.4192,5.5182 16.7101,0.667533333 10.9021,0.667533333 L10.9021,0.667533333 C5.093,0.667533333 0.3839,5.5182 0.3839,11.5033333" id="path-1"></path>
        <linearGradient x1="8.53510248%" y1="43.939355%" x2="94.1786292%" y2="60.0911449%" id="linearGradient-3">
            <stop stop-color="#EB198F" offset="0%"></stop>
            <stop stop-color="#BD4C9C" offset="100%"></stop>
        </linearGradient>
        <path d="M0.3839,11.5033333 C0.3839,17.4873333 5.093,16.6532 10.9021,16.6532 L10.9021,16.6532 C16.7101,16.6532 21.4192,17.4873333 21.4192,11.5033333 L21.4192,11.5033333 C21.4192,5.5182 16.7101,0.667533333 10.9021,0.667533333 L10.9021,0.667533333 C5.093,0.667533333 0.3839,5.5182 0.3839,11.5033333" id="path-4"></path>
        <filter x="-183.0%" y="-227.8%" width="466.1%" height="580.5%" filterUnits="objectBoundingBox" id="filter-5">
            <feOffset dx="0" dy="2" in="SourceAlpha" result="shadowOffsetOuter1"></feOffset>
            <feGaussianBlur stdDeviation="12.5" in="shadowOffsetOuter1" result="shadowBlurOuter1"></feGaussianBlur>
            <feColorMatrix values="0 0 0 0 0   0 0 0 0 0   0 0 0 0 0  0 0 0 0.2 0" type="matrix" in="shadowBlurOuter1"></feColorMatrix>
        </filter>
        <path d="M0.541666667,6.01783333 C0.541666667,9.32091667 3.21966667,12 6.52491667,12 L6.52491667,12 C9.83016667,12 12.50925,9.32091667 12.50925,6.01783333 L12.50925,6.01783333 C12.50925,2.71258333 9.83016667,0.0335 6.52491667,0.0335 L6.52491667,0.0335 C3.21966667,0.0335 0.541666667,2.71258333 0.541666667,6.01783333" id="path-6"></path>
        <linearGradient x1="8.53510248%" y1="39.5594188%" x2="94.1786292%" y2="67.3838624%" id="linearGradient-8">
            <stop stop-color="#EB198F" offset="0%"></stop>
            <stop stop-color="#BD4C9C" offset="100%"></stop>
        </linearGradient>
        <path d="M0.541666667,6.01783333 C0.541666667,9.32091667 3.21966667,12 6.52491667,12 L6.52491667,12 C9.83016667,12 12.50925,9.32091667 12.50925,6.01783333 L12.50925,6.01783333 C12.50925,2.71258333 9.83016667,0.0335 6.52491667,0.0335 L6.52491667,0.0335 C3.21966667,0.0335 0.541666667,2.71258333 0.541666667,6.01783333" id="path-9"></path>
        <filter x="-321.7%" y="-305.0%" width="743.4%" height="743.5%" filterUnits="objectBoundingBox" id="filter-10">
            <feOffset dx="0" dy="2" in="SourceAlpha" result="shadowOffsetOuter1"></feOffset>
            <feGaussianBlur stdDeviation="12.5" in="shadowOffsetOuter1" result="shadowBlurOuter1"></feGaussianBlur>
            <feColorMatrix values="0 0 0 0 0   0 0 0 0 0   0 0 0 0 0  0 0 0 0.2 0" type="matrix" in="shadowBlurOuter1"></feColorMatrix>
        </filter>
        <polygon id="path-11" points="0.227576712 0.0976438356 11.2258233 0.0976438356 11.2258233 11.0957795 0.227576712 11.0957795"></polygon>
        <polygon id="path-13" points="0.000110958904 0.654435616 10.9982466 0.654435616 10.9982466 11.6526822 0.000110958904 11.6526822"></polygon>
    </defs>
    <g id="Page-1" stroke="none" stroke-width="1" fill="none" fill-rule="evenodd">
        <g id="Assets-Playground" transform="translate(-1605.000000, -1795.000000)">
            <g id="icon-affiliate-networks" transform="translate(1605.000000, 1795.000000)">
                <g id="Group-5" transform="translate(16.000000, 16.000000)">
                    <path d="M45.6995349,23.8538791 C45.6995349,36.137414 35.7423256,46.0957395 23.4587907,46.0957395 C11.1741395,46.0957395 1.21693023,36.137414 1.21693023,23.8538791 C1.21693023,11.5703442 11.1741395,1.6120186 23.4587907,1.6120186 C35.7423256,1.6120186 45.6995349,11.5703442 45.6995349,23.8538791" id="Fill-1" fill="#FEFEFE"></path>
                    <path d="M23.4583442,2.72852093 C11.8099721,2.72852093 2.33276279,12.204614 2.33276279,23.8541023 C2.33276279,35.5024744 11.8099721,44.9796837 23.4583442,44.9796837 C35.1067163,44.9796837 44.5828093,35.5024744 44.5828093,23.8541023 C44.5828093,12.204614 35.1067163,2.72852093 23.4583442,2.72852093 M23.4583442,47.2122419 C10.5787163,47.2122419 0.100204651,36.7337302 0.100204651,23.8541023 C0.100204651,10.9744744 10.5787163,0.495962791 23.4583442,0.495962791 C36.3379721,0.495962791 46.8153674,10.9744744 46.8153674,23.8541023 C46.8153674,36.7337302 36.3379721,47.2122419 23.4583442,47.2122419" id="Fill-3" fill="#201820"></path>
                </g>
                <g id="Group-8" transform="translate(29.000000, 37.000000)">
                    <mask id="mask-2" fill="white">
                        <use xlink:href="#path-1"></use>
                    </mask>
                    <g id="Clip-7"></g>
                    <g id="Fill-6" mask="url(#mask-2)">
                        <use fill="black" fill-opacity="1" filter="url(#filter-5)" xlink:href="#path-4"></use>
                        <use fill="url(#linearGradient-3)" fill-rule="evenodd" xlink:href="#path-4"></use>
                    </g>
                </g>
                <path d="M39.5,52.7303426 C40.1511694,52.7303426 40.7892718,52.7414958 41.4077739,52.7515336 C44.3173468,52.796146 46.8294669,52.8396431 47.9630243,51.6964496 C48.5412366,51.1142574 48.8221759,50.1595514 48.8221759,48.7776814 C48.8221759,43.5122994 44.6396648,39.2306215 39.5,39.2306215 C34.3592463,39.2306215 30.1778241,43.5122994 30.1778241,48.7776814 C30.1778241,50.1595514 30.4587634,51.1142574 31.0358868,51.6964496 C32.1705331,52.8407584 34.6837421,52.7983766 37.5922261,52.7515336 C38.2107282,52.7414958 38.8488306,52.7303426 39.5,52.7303426 M43.0618313,55 C42.5151974,55 41.9500521,54.9899622 41.3729287,54.982155 C40.1577029,54.9598488 38.8412082,54.9598488 37.6270713,54.982155 C34.226399,55.032344 31.29287,55.0847636 29.5081432,53.2857674 C28.4932772,52.2630274 28,50.7885867 28,48.7776814 C28,42.283227 33.1592652,37 39.5,37 C45.8407348,37 51,42.283227 51,48.7776814 C51,50.7885867 50.5056339,52.2630274 49.4907679,53.2857674 C48.0098476,54.7791685 45.7361992,55 43.0618313,55" id="Fill-9" fill="#201820"></path>
                <g id="Group-13" transform="translate(33.000000, 26.000000)">
                    <mask id="mask-7" fill="white">
                        <use xlink:href="#path-6"></use>
                    </mask>
                    <g id="Clip-12"></g>
                    <g id="Fill-11" mask="url(#mask-7)">
                        <use fill="black" fill-opacity="1" filter="url(#filter-10)" xlink:href="#path-9"></use>
                        <use fill="url(#linearGradient-8)" fill-rule="evenodd" xlink:href="#path-9"></use>
                    </g>
                </g>
                <g id="Group-42">
                    <path d="M39.9706151,26.5792068 C37.2033,26.5792068 34.9519438,28.830563 34.9519438,31.5978781 C34.9519438,34.3663027 37.2033,36.6165493 39.9706151,36.6165493 C42.7379301,36.6165493 44.9892863,34.3663027 44.9892863,31.5978781 C44.9892863,28.830563 42.7379301,26.5792068 39.9706151,26.5792068 M39.9706151,38.8357274 C35.9794233,38.8357274 32.7327658,35.5890699 32.7327658,31.5978781 C32.7327658,27.6077959 35.9794233,24.3600288 39.9706151,24.3600288 C43.9618068,24.3600288 47.2084644,27.6077959 47.2084644,31.5978781 C47.2084644,35.5890699 43.9618068,38.8357274 39.9706151,38.8357274" id="Fill-14" fill="#201820"></path>
                    <path d="M6.16176986,33.4241507 C6.07522192,33.4241507 5.98756438,33.4141644 5.89990685,33.3930822 C5.30516712,33.2499452 4.93789315,32.6496575 5.08213973,32.0549178 C8.21894795,19.0638493 18.6402082,8.64147945 31.6312767,5.50578082 C32.2304548,5.35820548 32.8263041,5.72769863 32.9705507,6.32354795 C33.1147973,6.91828767 32.7475233,7.51857534 32.1527836,7.66171233 C19.9617288,10.6065616 10.1829205,20.3842603 7.23918082,32.5742055 C7.11601644,33.0823973 6.66219452,33.4241507 6.16176986,33.4241507" id="Fill-16" fill="#201820"></path>
                    <path d="M48.357111,75.6221548 C47.8566863,75.6221548 47.4028644,75.2804014 47.2797,74.7722096 C47.1354534,74.1774699 47.5016178,73.5771822 48.0974671,73.4340452 C60.282974,70.4925247 70.0573438,60.7170452 72.999974,48.5326479 C73.1442205,47.9367986 73.7456178,47.5695247 74.3392479,47.7148808 C74.9350973,47.8580178 75.3012616,48.4583055 75.1570151,49.0530452 C71.9724945,62.2382918 61.8042205,72.4076753 48.618974,75.5910863 C48.5313164,75.6121685 48.4436589,75.6221548 48.357111,75.6221548" id="Fill-18" fill="#201820"></path>
                    <path d="M31.8931397,75.6221548 C31.8065918,75.6221548 31.7189342,75.6121685 31.6312767,75.5910863 C18.4460301,72.4076753 8.27664658,62.2382918 5.09323562,49.0530452 C4.94898904,48.4583055 5.31515342,47.8580178 5.91100274,47.7148808 C6.50907123,47.5684151 7.10603014,47.9367986 7.25027671,48.5326479 C10.1917973,60.7170452 19.9672767,70.4914151 32.1527836,73.4340452 C32.7486329,73.5771822 33.1147973,74.1774699 32.9705507,74.7722096 C32.8473863,75.2804014 32.3935644,75.6221548 31.8931397,75.6221548" id="Fill-20" fill="#201820"></path>
                    <path d="M74.0883699,33.4241507 C73.5879452,33.4241507 73.1341233,33.0823973 73.0109589,32.5742055 C70.0672192,20.3842603 60.288411,10.6065616 48.0973562,7.66171233 C47.5026164,7.51857534 47.1353425,6.91828767 47.279589,6.32354795 C47.4238356,5.72769863 48.0252329,5.36042466 48.618863,5.50578082 C61.6099315,8.64147945 72.0311918,19.0638493 75.168,32.0549178 C75.3122466,32.6496575 74.9449726,33.2499452 74.3502329,33.3930822 C74.2625753,33.4141644 74.1749178,33.4241507 74.0883699,33.4241507" id="Fill-22" fill="#201820"></path>
                    <path d="M44.5136055,5.59665616 C44.5136055,3.17220411 42.5485233,1.20712192 40.1240712,1.20712192 C37.6996192,1.20712192 35.734537,3.17220411 35.734537,5.59665616 C35.734537,8.02221781 37.6996192,9.98619041 40.1240712,9.98619041 C42.5485233,9.98619041 44.5136055,8.02221781 44.5136055,5.59665616" id="Fill-24" fill="#FEFEFE"></path>
                    <g id="Group-28" transform="translate(34.397260, 0.000000)">
                        <mask id="mask-12" fill="white">
                            <use xlink:href="#path-11"></use>
                        </mask>
                        <g id="Clip-27"></g>
                        <path d="M5.7267,2.31671096 C3.91806986,2.31671096 2.44675479,3.78802603 2.44675479,5.59665616 C2.44675479,7.4052863 3.91806986,8.87660137 5.7267,8.87660137 C7.53533014,8.87660137 9.00664521,7.4052863 9.00664521,5.59665616 C9.00664521,3.78802603 7.53533014,2.31671096 5.7267,2.31671096 M5.7267,11.0957795 C2.69419315,11.0957795 0.227576712,8.62805342 0.227576712,5.59665616 C0.227576712,2.5652589 2.69419315,0.0975328767 5.7267,0.0975328767 C8.75920685,0.0975328767 11.2258233,2.5652589 11.2258233,5.59665616 C11.2258233,8.62805342 8.75920685,11.0957795 5.7267,11.0957795" id="Fill-26" fill="#201820" mask="url(#mask-12)"></path>
                    </g>
                    <path d="M44.5136055,75.5007658 C44.5136055,73.0763137 42.5485233,71.1112315 40.1240712,71.1112315 C37.6996192,71.1112315 35.734537,73.0763137 35.734537,75.5007658 C35.734537,77.9263274 37.6996192,79.8903 40.1240712,79.8903 C42.5485233,79.8903 44.5136055,77.9263274 44.5136055,75.5007658" id="Fill-29" fill="#FEFEFE"></path>
                    <path d="M40.1239603,72.2208205 C38.3153301,72.2208205 36.8440151,73.6921356 36.8440151,75.5007658 C36.8440151,77.3093959 38.3153301,78.780711 40.1239603,78.780711 C41.9325904,78.780711 43.4039055,77.3093959 43.4039055,75.5007658 C43.4039055,73.6921356 41.9325904,72.2208205 40.1239603,72.2208205 M40.1239603,80.999889 C37.0914534,80.999889 34.624837,78.532163 34.624837,75.5007658 C34.624837,72.4693685 37.0914534,70.0016425 40.1239603,70.0016425 C43.1564671,70.0016425 45.6230836,72.4693685 45.6230836,75.5007658 C45.6230836,78.532163 43.1564671,80.999889 40.1239603,80.999889" id="Fill-31" fill="#201820"></path>
                    <path d="M75.4033438,44.9405753 C77.8277959,44.9405753 79.7928781,42.9754932 79.7928781,40.5510411 C79.7928781,38.126589 77.8277959,36.1615068 75.4033438,36.1615068 C72.9788918,36.1615068 71.0138096,38.126589 71.0138096,40.5510411 C71.0138096,42.9754932 72.9788918,44.9405753 75.4033438,44.9405753" id="Fill-33" fill="#FEFEFE"></path>
                    <g id="Group-37" transform="translate(69.904110, 34.397260)">
                        <mask id="mask-14" fill="white">
                            <use xlink:href="#path-13"></use>
                        </mask>
                        <g id="Clip-36"></g>
                        <path d="M5.49923425,2.8736137 C3.69060411,2.8736137 2.21928904,4.34492877 2.21928904,6.1535589 C2.21928904,7.96218904 3.69060411,9.43350411 5.49923425,9.43350411 C7.30786438,9.43350411 8.77917945,7.96218904 8.77917945,6.1535589 C8.77917945,4.34492877 7.30786438,2.8736137 5.49923425,2.8736137 M5.49923425,11.6526822 C2.4667274,11.6526822 0.000110958904,9.18495616 0.000110958904,6.1535589 C0.000110958904,3.12216164 2.4667274,0.654435616 5.49923425,0.654435616 C8.5317411,0.654435616 10.9983575,3.12216164 10.9983575,6.1535589 C10.9983575,9.18495616 8.5317411,11.6526822 5.49923425,11.6526822" id="Fill-35" fill="#201820" mask="url(#mask-14)"></path>
                    </g>
                    <path d="M5.49923425,44.9405753 C7.9236863,44.9405753 9.88876849,42.9754932 9.88876849,40.5510411 C9.88876849,38.126589 7.9236863,36.1615068 5.49923425,36.1615068 C3.07478219,36.1615068 1.1097,38.126589 1.1097,40.5510411 C1.1097,42.9754932 3.07478219,44.9405753 5.49923425,44.9405753" id="Fill-38" fill="#FEFEFE"></path>
                    <path d="M5.49923425,37.270874 C3.69060411,37.270874 2.21928904,38.742189 2.21928904,40.5508192 C2.21928904,42.3594493 3.69060411,43.8307644 5.49923425,43.8307644 C7.30786438,43.8307644 8.77917945,42.3594493 8.77917945,40.5508192 C8.77917945,38.742189 7.30786438,37.270874 5.49923425,37.270874 M5.49923425,46.0499425 C2.4667274,46.0499425 0.000110958904,43.5822164 0.000110958904,40.5508192 C0.000110958904,37.5194219 2.4667274,35.0516959 5.49923425,35.0516959 C8.5317411,35.0516959 10.9983575,37.5194219 10.9983575,40.5508192 C10.9983575,43.5822164 8.5317411,46.0499425 5.49923425,46.0499425" id="Fill-40" fill="#201820"></path>
                </g>
            </g>
        </g>
    </g>
</svg>