<?xml version="1.0" encoding="UTF-8"?>
<svg width="62px" height="64px" viewBox="0 0 62 64" version="1.1" xmlns="http://www.w3.org/2000/svg" xmlns:xlink="http://www.w3.org/1999/xlink">
    <!-- Generator: Sketch 56.3 (81716) - https://sketch.com -->
    <title>icon-one-off</title>
    <desc>Created with Sketch.</desc>
    <defs>
        <polygon id="path-1" points="0.166 10.119 19.254 10.119 19.255 10.119 9.71 0.574"></polygon>
        <linearGradient x1="14.887825%" y1="39.9920577%" x2="89.8191238%" y2="39.9920577%" id="linearGradient-3">
            <stop stop-color="#6B4C9F" offset="0%"></stop>
            <stop stop-color="#B03594" offset="100%"></stop>
        </linearGradient>
        <polygon id="path-4" points="0.166 10.119 19.254 10.119 19.255 10.119 9.71 0.574"></polygon>
        <filter x="-201.7%" y="-382.4%" width="503.4%" height="906.7%" filterUnits="objectBoundingBox" id="filter-5">
            <feOffset dx="0" dy="2" in="SourceAlpha" result="shadowOffsetOuter1"></feOffset>
            <feGaussianBlur stdDeviation="12.5" in="shadowOffsetOuter1" result="shadowBlurOuter1"></feGaussianBlur>
            <feColorMatrix values="0 0 0 0 0   0 0 0 0 0   0 0 0 0 0  0 0 0 0.5 0" type="matrix" in="shadowBlurOuter1"></feColorMatrix>
        </filter>
        <polygon id="path-6" points="0 0.119 44.2599727 0.119 44.2599727 49.709 0 49.709"></polygon>
    </defs>
    <g id="Page-1" stroke="none" stroke-width="1" fill="none" fill-rule="evenodd">
        <g id="Assets-Playground" transform="translate(-1007.000000, -2288.000000)">
            <g id="icon-one-off" transform="translate(1007.000000, 2287.000000)">
                <g id="Group-3" transform="translate(17.000000, 1.501000)">
                    <mask id="mask-2" fill="white">
                        <use xlink:href="#path-1"></use>
                    </mask>
                    <g id="Clip-2"></g>
                    <g id="Fill-1" mask="url(#mask-2)">
                        <use fill="black" fill-opacity="1" filter="url(#filter-5)" xlink:href="#path-4"></use>
                        <use fill="url(#linearGradient-3)" fill-rule="evenodd" xlink:href="#path-4"></use>
                    </g>
                </g>
                <g id="Group-43" transform="translate(0.000000, 0.501000)">
                    <g id="Group-6" transform="translate(0.000000, 10.000000)">
                        <mask id="mask-7" fill="white">
                            <use xlink:href="#path-6"></use>
                        </mask>
                        <g id="Clip-5"></g>
                        <path d="M34.7998,49.709 L3.9998,49.709 C1.7938,49.709 -0.0002,47.915 -0.0002,45.709 C-0.0002,45.653 0.0048,45.598 0.0138,45.543 L7.0008,4.029 C7.0488,1.865 8.8238,0.119 10.9998,0.119 L36.3208,0.119 C38.5098,0.119 40.2878,1.872 40.3288,4.042 L44.2498,31.206 C44.3278,31.752 43.9488,32.26 43.4028,32.339 C42.8568,32.414 42.3478,32.037 42.2708,31.491 L38.3408,4.262 C38.3338,4.215 38.3298,4.167 38.3298,4.119 C38.3298,3.017 37.4328,2.119 36.3298,2.119 L10.9998,2.119 C9.8978,2.119 8.9998,3.017 8.9998,4.119 C8.9998,4.175 8.9948,4.23 8.9868,4.285 L2.0008,45.784 C2.0408,46.853 2.9228,47.709 3.9998,47.709 L34.7998,47.709 C35.3528,47.709 35.7998,48.156 35.7998,48.709 C35.7998,49.262 35.3528,49.709 34.7998,49.709" id="Fill-4" fill="#201820" mask="url(#mask-7)"></path>
                    </g>
                    <path d="M23.4414,28.9883 C18.6984,28.9883 14.2674,25.1343 11.2504,18.3623 C11.0244,17.8573 11.2524,17.2663 11.7554,17.0423 C12.2634,16.8143 12.8514,17.0433 13.0764,17.5483 C15.7564,23.5623 19.5254,26.9883 23.4424,26.9883 C23.5124,26.9883 23.5824,26.9873 23.6514,26.9843 C27.5004,26.8653 31.0804,23.3593 33.2274,17.6053 C33.4204,17.0883 33.9984,16.8263 34.5134,17.0183 C35.0314,17.2113 35.2944,17.7873 35.1004,18.3043 C32.6234,24.9433 28.4724,28.8363 23.7134,28.9833 C23.6234,28.9863 23.5314,28.9883 23.4414,28.9883" id="Fill-7" fill="#201820"></path>
                    <path d="M60.8037,50.6533 C60.2507,50.6533 59.8037,50.2063 59.8037,49.6533 L59.8037,18.5943 L58.8617,18.9913 C58.6097,19.0963 58.3257,19.0963 58.0747,18.9863 L56.2157,18.1763 L53.8597,19.1633 C53.6227,19.2623 53.3557,19.2643 53.1157,19.1743 L50.4357,18.1463 L48.0937,18.8563 C47.9127,18.9113 47.7237,18.9123 47.5427,18.8653 L45.8037,18.3953 L45.8037,41.3493 C45.8037,41.9023 45.3567,42.3493 44.8037,42.3493 C44.2507,42.3493 43.8037,41.9023 43.8037,41.3493 L43.8037,17.0903 C43.8037,16.7783 43.9487,16.4853 44.1957,16.2963 C44.4427,16.1073 44.7637,16.0453 45.0647,16.1243 L47.7877,16.8593 L50.1837,16.1323 C50.3957,16.0683 50.6237,16.0773 50.8317,16.1563 L53.4567,17.1633 L55.8377,16.1673 C56.0887,16.0623 56.3717,16.0643 56.6227,16.1733 L58.4807,16.9813 L60.4157,16.1683 C60.7277,16.0373 61.0777,16.0713 61.3577,16.2573 C61.6357,16.4423 61.8037,16.7553 61.8037,17.0903 L61.8037,49.6533 C61.8037,50.2063 61.3567,50.6533 60.8037,50.6533" id="Fill-9" fill="#201820"></path>
                    <path d="M50.8037,64 L33.8907,64 C33.4357,64 33.0377,63.693 32.9227,63.254 C32.8077,62.813 33.0037,62.352 33.4007,62.129 C33.4187,62.115 33.8037,61.843 33.8037,61.153 L33.8037,45.28 C33.8037,44.728 34.2507,44.28 34.8037,44.28 L34.9237,44.28 C35.4767,44.28 35.9237,44.728 35.9237,45.28 C35.9237,45.452 35.8797,45.614 35.8037,45.756 L35.8037,61.153 C35.8037,61.461 35.7667,61.743 35.7037,62 L49.8037,62 L49.8037,46.35 C49.8037,45.797 50.2507,45.35 50.8037,45.35 C51.3567,45.35 51.8037,45.797 51.8037,46.35 L51.8037,63 C51.8037,63.553 51.3567,64 50.8037,64" id="Fill-11" fill="#201820"></path>
                    <path d="M60.8037,47.3496 C60.2507,47.3496 59.8037,46.9026 59.8037,46.3496 C59.8037,44.1436 58.0097,42.3496 55.8037,42.3496 C53.5977,42.3496 51.8037,44.1436 51.8037,46.3496 C51.8037,46.9026 51.3567,47.3496 50.8037,47.3496 C50.2507,47.3496 49.8037,46.9026 49.8037,46.3496 C49.8037,43.0406 52.4947,40.3496 55.8037,40.3496 C59.1127,40.3496 61.8037,43.0406 61.8037,46.3496 C61.8037,46.9026 61.3567,47.3496 60.8037,47.3496" id="Fill-13" fill="#201820"></path>
                    <path d="M34.8037,47.3496 C34.2507,47.3496 33.8037,46.9026 33.8037,46.3496 C33.8037,45.9076 33.8517,45.4846 33.9497,45.0566 C34.5297,42.3356 36.9917,40.3496 39.8037,40.3496 C40.3567,40.3496 40.8037,40.7966 40.8037,41.3496 C40.8037,41.9026 40.3567,42.3496 39.8037,42.3496 C37.9307,42.3496 36.2887,43.6696 35.9027,45.4886 C35.8347,45.7826 35.8037,46.0586 35.8037,46.3496 C35.8037,46.9026 35.3567,47.3496 34.8037,47.3496" id="Fill-15" fill="#201820"></path>
                    <path d="M55.8066,42.3486 L39.8066,42.3486 C39.2536,42.3486 38.8066,41.9016 38.8066,41.3486 C38.8066,40.7956 39.2536,40.3486 39.8066,40.3486 L55.8066,40.3486 C56.3596,40.3486 56.8066,40.7956 56.8066,41.3486 C56.8066,41.9016 56.3596,42.3486 55.8066,42.3486" id="Fill-17" fill="#201820"></path>
                    <path d="M60.8037,50.6533 L50.8037,50.6533 C50.2507,50.6533 49.8037,50.2063 49.8037,49.6533 C49.8037,49.1003 50.2507,48.6533 50.8037,48.6533 L60.8037,48.6533 C61.3567,48.6533 61.8037,49.1003 61.8037,49.6533 C61.8037,50.2063 61.3567,50.6533 60.8037,50.6533" id="Fill-19" fill="#201820"></path>
                    <path d="M54.9736,23.8193 L47.8066,23.8193 C47.2536,23.8193 46.8066,23.3723 46.8066,22.8193 C46.8066,22.2663 47.2536,21.8193 47.8066,21.8193 L54.9736,21.8193 C55.5266,21.8193 55.9736,22.2663 55.9736,22.8193 C55.9736,23.3723 55.5266,23.8193 54.9736,23.8193" id="Fill-21" fill="#201820"></path>
                    <path d="M51.3906,27.2363 L47.8066,27.2363 C47.2536,27.2363 46.8066,26.7893 46.8066,26.2363 C46.8066,25.6833 47.2536,25.2363 47.8066,25.2363 L51.3906,25.2363 C51.9436,25.2363 52.3906,25.6833 52.3906,26.2363 C52.3906,26.7893 51.9436,27.2363 51.3906,27.2363" id="Fill-23" fill="#201820"></path>
                    <path d="M57.0566,27.2363 L54.3066,27.2363 C53.7536,27.2363 53.3066,26.7893 53.3066,26.2363 C53.3066,25.6833 53.7536,25.2363 54.3066,25.2363 L57.0566,25.2363 C57.6096,25.2363 58.0566,25.6833 58.0566,26.2363 C58.0566,26.7893 57.6096,27.2363 57.0566,27.2363" id="Fill-25" fill="#201820"></path>
                    <path d="M53.3066,30.4033 L47.8066,30.4033 C47.2536,30.4033 46.8066,29.9563 46.8066,29.4033 C46.8066,28.8503 47.2536,28.4033 47.8066,28.4033 L53.3066,28.4033 C53.8596,28.4033 54.3066,28.8503 54.3066,29.4033 C54.3066,29.9563 53.8596,30.4033 53.3066,30.4033" id="Fill-27" fill="#201820"></path>
                    <path d="M51.3906,34.3711 L47.8066,34.3711 C47.2536,34.3711 46.8066,33.9241 46.8066,33.3711 C46.8066,32.8181 47.2536,32.3711 47.8066,32.3711 L51.3906,32.3711 C51.9436,32.3711 52.3906,32.8181 52.3906,33.3711 C52.3906,33.9241 51.9436,34.3711 51.3906,34.3711" id="Fill-29" fill="#201820"></path>
                    <path d="M46.5566,56.9033 L38.2236,56.9033 C37.6706,56.9033 37.2236,56.4563 37.2236,55.9033 C37.2236,55.3503 37.6706,54.9033 38.2236,54.9033 L46.5566,54.9033 C47.1096,54.9033 47.5566,55.3503 47.5566,55.9033 C47.5566,56.4563 47.1096,56.9033 46.5566,56.9033" id="Fill-31" fill="#201820"></path>
                    <path d="M43.1406,53.0693 L38.2236,53.0693 C37.6706,53.0693 37.2236,52.6223 37.2236,52.0693 C37.2236,51.5163 37.6706,51.0693 38.2236,51.0693 L43.1406,51.0693 C43.6936,51.0693 44.1406,51.5163 44.1406,52.0693 C44.1406,52.6223 43.6936,53.0693 43.1406,53.0693" id="Fill-33" fill="#201820"></path>
                    <path d="M47.1406,53.0693 L45.9736,53.0693 C45.4206,53.0693 44.9736,52.6223 44.9736,52.0693 C44.9736,51.5163 45.4206,51.0693 45.9736,51.0693 L47.1406,51.0693 C47.6936,51.0693 48.1406,51.5163 48.1406,52.0693 C48.1406,52.6223 47.6936,53.0693 47.1406,53.0693" id="Fill-35" fill="#201820"></path>
                    <path d="M46.5566,48.9033 L38.2236,48.9033 C37.6706,48.9033 37.2236,48.4563 37.2236,47.9033 C37.2236,47.3503 37.6706,46.9033 38.2236,46.9033 L46.5566,46.9033 C47.1096,46.9033 47.5566,47.3503 47.5566,47.9033 C47.5566,48.4563 47.1096,48.9033 46.5566,48.9033" id="Fill-37" fill="#201820"></path>
                    <path d="M11.3301,12.1191 C11.0741,12.1191 10.8181,12.0211 10.6231,11.8261 C10.2321,11.4351 10.2321,10.8031 10.6231,10.4121 L17.3031,3.7321 C17.6931,3.3421 18.3261,3.3421 18.7171,3.7321 L21.5971,6.6121 C21.9871,7.0031 21.9871,7.6361 21.5971,8.0261 C21.2061,8.4171 20.5731,8.4171 20.1831,8.0261 L18.0101,5.8531 L12.0371,11.8261 C11.8421,12.0211 11.5861,12.1191 11.3301,12.1191" id="Fill-39" fill="#201820"></path>
                    <path d="M36.3301,12.1191 C36.0641,12.1191 35.7991,12.0141 35.6101,11.8261 L26.7101,2.9141 L17.7981,11.8261 C17.4071,12.2171 16.7741,12.2171 16.3841,11.8261 C15.9931,11.4351 15.9931,10.8031 16.3841,10.4121 L26.0031,0.7921 C26.1901,0.6041 26.4441,0.4991 26.7101,0.4991 C26.9761,0.4991 27.2301,0.6041 27.4181,0.7921 L36.9841,10.3711 C37.1921,10.5541 37.3241,10.8211 37.3241,11.1191 C37.3241,11.6721 36.8831,12.1191 36.3301,12.1191" id="Fill-41" fill="#201820"></path>
                </g>
            </g>
        </g>
    </g>
</svg>