<?xml version="1.0" encoding="UTF-8"?>
<svg width="92px" height="75px" viewBox="0 0 92 75" version="1.1" xmlns="http://www.w3.org/2000/svg" xmlns:xlink="http://www.w3.org/1999/xlink">
    <!-- Generator: Sketch 56.3 (81716) - https://sketch.com -->
    <title>icon-sms-marketing</title>
    <desc>Created with Sketch.</desc>
    <defs>
        <path d="M4.01431127,0.0867692308 C1.80644007,0.0867692308 0,1.91446154 0,4.14966154 L0,4.14966154 L0,11.0339692 C0,13.2664615 1.80644007,15.0941538 4.01431127,15.0941538 L4.01431127,15.0941538 L28.1001789,15.0941538 C29.2696816,15.0941538 33.6747191,15.6099692 33.6747191,15.6099692 L33.6747191,15.6099692 C33.6747191,15.6099692 32.1144902,12.0832 32.1144902,11.0339692 L32.1144902,11.0339692 L32.1144902,4.14966154 C32.1144902,1.91446154 30.306712,0.0867692308 28.1001789,0.0867692308 L28.1001789,0.0867692308 L4.01431127,0.0867692308 Z" id="path-1"></path>
        <linearGradient x1="8.53510248%" y1="47.7809972%" x2="94.1786292%" y2="53.6947023%" id="linearGradient-3">
            <stop stop-color="#EB198F" offset="0%"></stop>
            <stop stop-color="#BD4C9C" offset="100%"></stop>
        </linearGradient>
        <path d="M4.01431127,0.0867692308 C1.80644007,0.0867692308 0,1.91446154 0,4.14966154 L0,4.14966154 L0,11.0339692 C0,13.2664615 1.80644007,15.0941538 4.01431127,15.0941538 L4.01431127,15.0941538 L28.1001789,15.0941538 C29.2696816,15.0941538 33.6747191,15.6099692 33.6747191,15.6099692 L33.6747191,15.6099692 C33.6747191,15.6099692 32.1144902,12.0832 32.1144902,11.0339692 L32.1144902,11.0339692 L32.1144902,4.14966154 C32.1144902,1.91446154 30.306712,0.0867692308 28.1001789,0.0867692308 L28.1001789,0.0867692308 L4.01431127,0.0867692308 Z" id="path-4"></path>
        <filter x="-114.3%" y="-235.1%" width="328.7%" height="596.0%" filterUnits="objectBoundingBox" id="filter-5">
            <feOffset dx="0" dy="2" in="SourceAlpha" result="shadowOffsetOuter1"></feOffset>
            <feGaussianBlur stdDeviation="12.5" in="shadowOffsetOuter1" result="shadowBlurOuter1"></feGaussianBlur>
            <feColorMatrix values="0 0 0 0 0   0 0 0 0 0   0 0 0 0 0  0 0 0 0.2 0" type="matrix" in="shadowBlurOuter1"></feColorMatrix>
        </filter>
    </defs>
    <g id="Page-1" stroke="none" stroke-width="1" fill="none" fill-rule="evenodd">
        <g id="Assets-Playground" transform="translate(-1405.000000, -1948.000000)">
            <g id="icon-sms-marketing" transform="translate(1405.000000, 1948.000000)">
                <polyline id="Fill-1" fill="#FEFEFE" points="65 31.4536576 65 74 27 74 27 1 65 1 65 11.155703"></polyline>
                <g id="Group-12" transform="translate(25.000000, 0.000000)">
                    <path d="M39.5922798,75 L1.48981053,75 C0.754872777,75 0.160809166,74.4057155 0.160809166,73.6705044 L0.160809166,1.51877741 C0.160809166,0.784895833 0.754872777,0.189281798 1.48981053,0.189281798 L39.5922798,0.189281798 C40.3272175,0.189281798 40.9212811,0.784895833 40.9212811,1.51877741 L40.9212811,11.5564693 C40.9212811,12.2916804 40.3272175,12.8859649 39.5922798,12.8859649 C38.857342,12.8859649 38.2632784,12.2916804 38.2632784,11.5564693 L38.2632784,2.84827303 L2.8188119,2.84827303 L2.8188119,72.3410088 L38.2632784,72.3410088 L38.2632784,31.6185581 C38.2632784,30.883347 38.857342,30.2890625 39.5922798,30.2890625 C40.3272175,30.2890625 40.9212811,30.883347 40.9212811,31.6185581 L40.9212811,73.6705044 C40.9212811,74.4057155 40.3272175,75 39.5922798,75" id="Fill-2" fill="#201820"></path>
                    <path d="M24.7526505,66.3764926 C24.7526505,68.7017804 22.8681265,70.5870052 20.5437031,70.5870052 C18.2192798,70.5870052 16.3347558,68.7017804 16.3347558,66.3764926 C16.3347558,64.0512048 18.2192798,62.1673095 20.5437031,62.1673095 C22.8681265,62.1673095 24.7526505,64.0512048 24.7526505,66.3764926" id="Fill-4" fill="#FEFEFE"></path>
                    <path d="M20.5437031,63.4968051 C18.9555465,63.4968051 17.6637572,64.7890748 17.6637572,66.3764926 C17.6637572,67.9652399 18.9555465,69.2575096 20.5437031,69.2575096 C22.1318598,69.2575096 23.4236491,67.9652399 23.4236491,66.3764926 C23.4236491,64.7890748 22.1318598,63.4968051 20.5437031,63.4968051 M20.5437031,71.9165008 C17.489658,71.9165008 15.0057544,69.4316735 15.0057544,66.3764926 C15.0057544,63.3226412 17.489658,60.8378139 20.5437031,60.8378139 C23.5977483,60.8378139 26.0816518,63.3226412 26.0816518,66.3764926 C26.0816518,69.4316735 23.5977483,71.9165008 20.5437031,71.9165008" id="Fill-6" fill="#201820"></path>
                    <path d="M24.7526505,8.34347725 L16.3347558,8.34347725 C15.5998181,8.34347725 15.0057544,7.74919271 15.0057544,7.01398163 C15.0057544,6.27877056 15.5998181,5.68448602 16.3347558,5.68448602 L24.7526505,5.68448602 C25.4875882,5.68448602 26.0816518,6.27877056 26.0816518,7.01398163 C26.0816518,7.74919271 25.4875882,8.34347725 24.7526505,8.34347725" id="Fill-8" fill="#201820"></path>
                    <path d="M37.5987777,12.8863638 C36.1328892,12.8863638 34.940775,14.0789213 34.940775,15.545355 L34.940775,27.6238226 C34.940775,28.2965474 34.5673256,29.4638446 34.1513482,30.5527015 C35.4511115,30.4197519 36.94358,30.2828139 37.5987777,30.2828139 L61.5208023,30.2828139 C62.9866908,30.2828139 64.1788051,29.0902563 64.1788051,27.6238226 L64.1788051,15.545355 C64.1788051,14.0789213 62.9866908,12.8863638 61.5208023,12.8863638 L37.5987777,12.8863638 Z M32.062158,33.4483429 C31.6421936,33.4483429 31.2421642,33.2475891 30.9896539,32.9045792 C30.7079056,32.520355 30.6534166,32.0124877 30.8487798,31.5764131 C31.5239124,30.0687651 32.2601792,28.1170655 32.2827722,27.6158457 L32.2827722,15.545355 C32.2827722,12.6124877 34.6670007,10.2273725 37.5987777,10.2273725 L61.5208023,10.2273725 C64.4525793,10.2273725 66.8368078,12.6124877 66.8368078,15.545355 L66.8368078,27.6238226 C66.8368078,30.55669 64.4525793,32.9418051 61.5208023,32.9418051 L37.5987777,32.9418051 C36.7083468,32.9418051 33.4110944,33.3007689 32.2149932,33.4390365 C32.1631621,33.4456839 32.1126601,33.4483429 32.062158,33.4483429 L32.062158,33.4483429 Z" id="Fill-10" fill="#201820"></path>
                </g>
                <g id="Group-15" transform="translate(1.000000, 30.000000)">
                    <mask id="mask-2" fill="white">
                        <use xlink:href="#path-1"></use>
                    </mask>
                    <g id="Clip-14"></g>
                    <g id="Fill-13" mask="url(#mask-2)">
                        <use fill="black" fill-opacity="1" filter="url(#filter-5)" xlink:href="#path-4"></use>
                        <use fill="url(#linearGradient-3)" fill-rule="evenodd" xlink:href="#path-4"></use>
                    </g>
                </g>
                <path d="M5.30069481,31.6733997 C3.83902822,31.6733997 2.65034741,32.8724194 2.65034741,34.3467993 L2.65034741,41.143918 C2.65034741,42.6182979 3.83902822,43.8173177 5.30069481,43.8173177 L29.1538215,43.8173177 C29.8071321,43.8173177 31.2953022,43.9549978 32.5913221,44.0886678 C32.1765427,42.9939106 31.8041689,41.8202881 31.8041689,41.143918 L31.8041689,34.3467993 C31.8041689,32.8724194 30.6154881,31.6733997 29.1538215,31.6733997 L5.30069481,31.6733997 Z M34.6744951,47 C34.6241385,47 34.5737819,46.9973266 34.5221001,46.9906431 C33.3294438,46.8516263 30.0416879,46.4907174 29.1538215,46.4907174 L5.30069481,46.4907174 C2.37736162,46.4907174 0,44.0926779 0,41.143918 L0,34.3467993 C0,31.3980395 2.37736162,29 5.30069481,29 L29.1538215,29 C32.0771547,29 34.4545163,31.3980395 34.4545163,34.3467993 L34.4545163,41.143918 C34.4770442,41.6398337 35.2111905,43.602109 35.8843787,45.1179266 C36.0791792,45.5563642 36.0248471,46.0669835 35.7439103,46.4532898 C35.4921273,46.7981583 35.09325,47 34.6744951,47 L34.6744951,47 Z" id="Fill-16" fill="#201820"></path>
            </g>
        </g>
    </g>
</svg>