<?xml version="1.0" encoding="UTF-8"?>
<svg width="58px" height="49px" viewBox="0 0 58 49" version="1.1" xmlns="http://www.w3.org/2000/svg" xmlns:xlink="http://www.w3.org/1999/xlink">
    <!-- Generator: Sketch 56.3 (81716) - https://sketch.com -->
    <title>Loading-wallet</title>
    <desc>Created with Sketch.</desc>
    <defs>
        <path d="M3.652,0.173333333 C1.91333333,0.173333333 0.489333333,1.59733333 0.489333333,3.34 L0.489333333,3.34 L0.489333333,3.62933333 C0.489333333,5.37066667 1.91333333,6.796 3.652,6.796 L3.652,6.796 L8.548,6.796 C10.2906667,6.796 11.7146667,5.37066667 11.7146667,3.62933333 L11.7146667,3.62933333 L11.7146667,3.34 C11.7146667,1.59733333 10.2906667,0.173333333 8.548,0.173333333 L8.548,0.173333333 L3.652,0.173333333 Z" id="path-1"></path>
        <linearGradient x1="28.561154%" y1="40.0753164%" x2="94.4161431%" y2="50%" id="linearGradient-3">
            <stop stop-color="#F16370" offset="0%"></stop>
            <stop stop-color="#FBAC1E" offset="100%"></stop>
        </linearGradient>
        <linearGradient x1="12.7963208%" y1="70.9149755%" x2="88.0480663%" y2="70.9149755%" id="linearGradient-4">
            <stop stop-color="#58CAEA" offset="0%"></stop>
            <stop stop-color="#A7D6A4" offset="100%"></stop>
        </linearGradient>
        <path d="M19.0515714,40.56775 C13.7193571,41.808 8.55271429,43.046875 3.268,42.925875 L3.268,42.925875 C2.30035714,42.897 1.37207143,42.846125 0.483142857,42.76775 L0.483142857,42.76775 C1.58785714,45.827125 4.50028571,48.024375 7.89585714,48.024375 L7.89585714,48.024375 L47.8596429,48.024375 C51.8279286,48.024375 55.1325714,45.0255 55.6767857,41.146625 L55.6767857,41.146625 C51.8957857,40.72725 47.6533571,40.065875 43.1720714,39.075875 L43.1720714,39.075875 C40.3573571,38.451625 37.6566429,38.2 35.0400714,38.2 L35.0400714,38.2 C29.3889286,38.2 24.1435714,39.383875 19.0515714,40.56775" id="path-5"></path>
        <linearGradient x1="12.0924169%" y1="50%" x2="86.2828275%" y2="50.6509504%" id="linearGradient-7">
            <stop stop-color="#5CB0E2" offset="0%"></stop>
            <stop stop-color="#6F4FA0" offset="100%"></stop>
        </linearGradient>
        <path d="M0,29.144 L0,40.1386667 C0,41.0693333 0.168285714,41.9706667 0.483142857,42.796 L0.483142857,42.796 C1.37207143,42.872 2.30035714,42.9213333 3.268,42.9493333 L3.268,42.9493333 C8.55271429,43.0666667 13.7193571,41.8653333 19.0515714,40.6626667 L19.0515714,40.6626667 C26.4995714,38.984 34.2773571,37.3026667 43.1720714,39.216 L43.1720714,39.216 C47.6533571,40.176 51.8957857,40.8173333 55.6767857,41.224 L55.6767857,41.224 C55.7242857,40.876 55.7555,40.5066667 55.7555,40.1386667 L55.7555,40.1386667 L55.7555,33.7306667 C55.2425,33.7773333 54.7186429,33.8266667 54.1852857,33.8666667 L54.1852857,33.8666667 C50.0500714,34.2053333 45.5687857,34.292 41.1892857,33.8666667 L41.1892857,33.8666667 C39.9556429,33.76 38.7328571,33.584 37.5290714,33.3813333 L37.5290714,33.3813333 C22.2720714,30.7333333 17.1800714,29.2306667 4.51114286,29.0093333 L4.51114286,29.0093333 C4.19357143,29.0026667 3.88414286,29 3.58014286,29 L3.58014286,29 C2.28271429,29 1.09521429,29.0493333 0,29.144" id="path-8"></path>
        <linearGradient x1="14.887825%" y1="39.9920577%" x2="89.8191238%" y2="39.9920577%" id="linearGradient-10">
            <stop stop-color="#6B4C9F" offset="0%"></stop>
            <stop stop-color="#B03594" offset="100%"></stop>
        </linearGradient>
        <path d="M0,29.3733333 C1.35307143,29.256 2.8405,29.208 4.51114286,29.2386667 C17.1800714,29.46 22.2720714,30.9626667 37.5290714,33.6106667 C38.7328571,33.8133333 39.9556429,33.9893333 41.1892857,34.096 C45.5687857,34.5213333 50.0500714,34.4346667 54.1852857,34.096 C54.7186429,34.056 55.2425,34.0066667 55.7555,33.96 L55.7555,29.712 C55.3605714,29.8093333 54.9452857,29.8586667 54.5218571,29.8586667 L49.8234286,29.8586667 C47.0317857,29.8586667 44.6938794,27.9595448 44.4862366,25.2542114 L44.3525085,24.9779968 C40.6434371,22.8633302 39.1467857,20 29.1894286,20 C15.0385,20 11.9618571,22.9453333 0,24.7413333 L0,29.3733333 Z" id="path-11"></path>
        <linearGradient x1="9.65606812%" y1="61.0481185%" x2="87.5404108%" y2="61.0481185%" id="linearGradient-13">
            <stop stop-color="#E61978" offset="0%"></stop>
            <stop stop-color="#993894" offset="100%"></stop>
        </linearGradient>
        <path d="M3.268,15.8881818 C2.13207143,15.8581818 1.03414286,15.7995455 0,15.6904545 L0,25.2690909 C11.9618571,23.4322727 15.0385,20.42 29.1894286,20.42 C39.1467857,20.42 40.7957143,23.3818182 44.5047857,25.5445455 C44.4925714,25.4054545 44.4844286,25.2690909 44.4844286,25.1272727 C44.4844286,23.6504545 45.087,22.3127273 46.0532857,21.3404545 C47.0209286,20.3681818 48.3631429,19.7640909 49.8234286,19.7640909 L54.5218571,19.7640909 C54.9452857,19.7640909 55.3605714,19.8145455 55.7555,19.9127273 L55.7555,14.1440909 C51.9541429,13.7159091 47.6723571,13.0640909 43.1720714,12.07 C40.3614286,11.455 37.6634286,11.2027273 35.0509286,11.2027273 C29.3970714,11.2027273 24.149,12.3768182 19.057,13.5522727 C13.7220714,14.7795455 8.55407143,16.0095455 3.268,15.8881818 Z" id="path-14"></path>
        <linearGradient x1="8.53510248%" y1="49.1613258%" x2="94.1786292%" y2="51.3964163%" id="linearGradient-16">
            <stop stop-color="#EB198F" offset="0%"></stop>
            <stop stop-color="#BD4C9C" offset="100%"></stop>
        </linearGradient>
        <path d="M0,16.8549231 C1.03414286,16.9656923 2.13207143,17.0252308 3.268,17.0556923 C8.55407143,17.1789231 13.7220714,15.93 19.057,14.6838462 C26.5022857,12.9392308 34.2787143,11.1973846 43.1720714,13.1787692 C47.6723571,14.1881538 51.9541429,14.85 55.7555,15.2847692 L55.7555,8.64 C55.7555,8.21769231 55.5770268,6.96200511 55.5078125,6.55908203 L55.6005859,6.59863281 C49.9453717,7.2909405 44.8068061,7.2129396 38.8190918,5.88232422 L38.0720215,6.29589844 C37.6960929,6.20589844 37.4881398,5.54034195 37.1325684,5.46972656 L37.5341797,5.99804687 C23.2054654,2.75666226 36.2333789,1.82837725 24.0258789,1.52514648 C15.8875456,1.32299264 9.45456213,1.23784125 4.72692857,1.26969231 C1.95157143,2.51723077 0,5.35707692 0,8.64 L0,16.8549231 Z" id="path-17"></path>
        <linearGradient x1="28.561154%" y1="49.4010862%" x2="94.4161431%" y2="50%" id="linearGradient-19">
            <stop stop-color="#F16370" offset="0%"></stop>
            <stop stop-color="#FBAC1E" offset="100%"></stop>
        </linearGradient>
        <path d="M7.82959013,0.65 C6.70028244,0.65 5.63348756,0.882 4.656385,1.30866667 C16.8803594,1.60066667 26.6055908,4.56677246 29.7054443,5.30322266 C31.7720133,5.79418945 34.4180094,6.42606608 37.6434326,7.19885254 C43.6392275,8.48018587 49.9810747,8.08585612 55.6439209,7.41918945 L55.6532568,7.20466667 C55.060744,3.49933333 51.7801799,0.65 47.8473081,0.65 L7.82959013,0.65 Z" id="path-20"></path>
    </defs>
    <g id="Page-1" stroke="none" stroke-width="1" fill="none" fill-rule="evenodd">
        <g id="Assets-Playground" transform="translate(-427.000000, -2462.000000)">
            <g id="Loading-wallet" transform="translate(427.000000, 2462.000000)">
                <g id="Group-17" transform="translate(0.000000, 39.000000)"></g>
                <g id="Group-35" transform="translate(46.000000, 21.500000)">
                    <mask id="mask-2" fill="white">
                        <use xlink:href="#path-1"></use>
                    </mask>
                    <g id="Clip-34"></g>
                    <path d="M3.652,0.173333333 C1.91333333,0.173333333 0.489333333,1.59733333 0.489333333,3.34 L0.489333333,3.34 L0.489333333,3.62933333 C0.489333333,5.37066667 1.91333333,6.796 3.652,6.796 L3.652,6.796 L8.548,6.796 C10.2906667,6.796 11.7146667,5.37066667 11.7146667,3.62933333 L11.7146667,3.62933333 L11.7146667,3.34 C11.7146667,1.59733333 10.2906667,0.173333333 8.548,0.173333333 L8.548,0.173333333 L3.652,0.173333333 Z" id="Fill-33" fill="url(#linearGradient-3)" mask="url(#mask-2)"></path>
                </g>
                <mask id="mask-6" fill="white">
                    <use xlink:href="#path-5"></use>
                </mask>
                <use id="Clip-16" fill="url(#linearGradient-4)" xlink:href="#path-5"></use>
                <mask id="mask-9" fill="white">
                    <use xlink:href="#path-8"></use>
                </mask>
                <use id="Clip-19" fill="url(#linearGradient-7)" xlink:href="#path-8"></use>
                <mask id="mask-12" fill="white">
                    <use xlink:href="#path-11"></use>
                </mask>
                <use id="Clip-22" fill="url(#linearGradient-10)" xlink:href="#path-11"></use>
                <mask id="mask-15" fill="white">
                    <use xlink:href="#path-14"></use>
                </mask>
                <use id="Clip-25" fill="url(#linearGradient-13)" xlink:href="#path-14"></use>
                <mask id="mask-18" fill="white">
                    <use xlink:href="#path-17"></use>
                </mask>
                <use id="Clip-28" fill="url(#linearGradient-16)" xlink:href="#path-17"></use>
                <mask id="mask-21" fill="white">
                    <use xlink:href="#path-20"></use>
                </mask>
                <use id="Clip-31" fill="url(#linearGradient-19)" xlink:href="#path-20"></use>
                <path d="M52,25 C52,26.1028868 51.1055165,27 49.9992595,27 C48.8944835,27 48,26.1028868 48,25 C48,23.8956329 48.8944835,23 49.9992595,23 C51.1055165,23 52,23.8956329 52,25" id="Fill-36" fill="#FEFEFE"></path>
            </g>
        </g>
    </g>
</svg>