<?xml version="1.0" encoding="UTF-8"?>
<svg width="47px" height="68px" viewBox="0 0 47 68" version="1.1" xmlns="http://www.w3.org/2000/svg" xmlns:xlink="http://www.w3.org/1999/xlink">
    <!-- Generator: Sketch 57.1 (83088) - https://sketch.com -->
    <title>icon-employed</title>
    <desc>Created with Sketch.</desc>
    <defs>
        <polygon id="path-1" points="0.0002 0.79 46.33 0.79 46.33 62 0.0002 62"></polygon>
        <path d="M0.69,9.527 C0.69,13.535 3.178,14.047 6.693,14.066 L6.693,14.066 L7.152,14.066 C8.1,14.062 9.114,14.032 10.17,14.032 L10.17,14.032 C11.224,14.032 12.239,14.062 13.187,14.066 L13.187,14.066 L13.645,14.066 C17.161,14.047 19.649,13.536 19.649,9.527 L19.649,9.527 C19.649,4.291 15.405,0.047 10.17,0.047 L10.17,0.047 C4.933,0.047 0.69,4.291 0.69,9.527" id="path-3"></path>
        <linearGradient x1="85.1885169%" y1="36.1561454%" x2="100%" y2="72.5236874%" id="linearGradient-5">
            <stop stop-color="#58CAEA" offset="0%"></stop>
            <stop stop-color="#A7D6A4" offset="100%"></stop>
        </linearGradient>
        <path d="M0.805,5.986 C0.805,9.011 3.257,11.463 6.281,11.463 L6.281,11.463 C9.306,11.463 11.758,9.011 11.758,5.986 L11.758,5.986 C11.758,2.962 9.306,0.511 6.281,0.511 L6.281,0.511 C3.257,0.511 0.805,2.962 0.805,5.986" id="path-6"></path>
        <linearGradient x1="85.1885169%" y1="24.6851996%" x2="100%" y2="91.1866973%" id="linearGradient-8">
            <stop stop-color="#58CAEA" offset="0%"></stop>
            <stop stop-color="#A7D6A4" offset="100%"></stop>
        </linearGradient>
    </defs>
    <g id="Page-1" stroke="none" stroke-width="1" fill="none" fill-rule="evenodd">
        <g id="Assets-Playground" transform="translate(-2289.000000, -1659.000000)">
            <g id="icon-employed" transform="translate(2289.000000, 1658.000000)">
                <g id="Group-12" transform="translate(0.000000, 0.179700)">
                    <g id="Group-3" transform="translate(0.000000, 6.000000)">
                        <mask id="mask-2" fill="white">
                            <use xlink:href="#path-1"></use>
                        </mask>
                        <g id="Clip-2"></g>
                        <path d="M44.1592,62 L2.1702,62 C0.9732,62 0.0002,61.026 0.0002,59.83 L0.0002,2.96 C0.0002,1.764 0.9732,0.79 2.1702,0.79 L19.7902,0.79 C20.3432,0.79 20.7902,1.237 20.7902,1.79 C20.7902,2.343 20.3432,2.79 19.7902,2.79 L2.1702,2.79 C2.0832,2.79 2.0002,2.873 2.0002,2.96 L2.0002,59.83 C2.0002,59.917 2.0832,60 2.1702,60 L44.1592,60 C44.2522,60 44.3302,59.922 44.3302,59.83 L44.3302,2.96 C44.3302,2.868 44.2522,2.79 44.1592,2.79 L26.5402,2.79 C25.9872,2.79 25.5402,2.343 25.5402,1.79 C25.5402,1.237 25.9872,0.79 26.5402,0.79 L44.1592,0.79 C45.3562,0.79 46.3302,1.764 46.3302,2.96 L46.3302,59.83 C46.3302,61.026 45.3562,62 44.1592,62" id="Fill-1" fill="#201820" mask="url(#mask-2)"></path>
                    </g>
                    <path d="M23.166,2.8203 C21.856,2.8203 20.791,3.8853 20.791,5.1953 L20.791,11.8943 C20.791,13.2043 21.856,14.2693 23.166,14.2693 C24.476,14.2693 25.541,13.2043 25.541,11.8943 L25.541,5.1953 C25.541,3.8853 24.476,2.8203 23.166,2.8203 M23.166,16.2693 C20.754,16.2693 18.791,14.3063 18.791,11.8943 L18.791,5.1953 C18.791,2.7833 20.754,0.8203 23.166,0.8203 C25.578,0.8203 27.541,2.7833 27.541,5.1953 L27.541,11.8943 C27.541,14.3063 25.578,16.2693 23.166,16.2693" id="Fill-4" fill="#201820"></path>
                    <path d="M38.0693,48.5 L8.2593,48.5 C7.0683,48.5 6.0993,47.526 6.0993,46.33 L6.0993,13.229 C6.0993,12.033 7.0683,11.06 8.2593,11.06 L19.7993,11.06 C20.3523,11.06 20.7993,11.507 20.7993,12.06 C20.7993,12.612 20.3523,13.06 19.7993,13.06 L8.2593,13.06 C8.1743,13.06 8.0993,13.139 8.0993,13.229 L8.0993,46.33 C8.0993,46.421 8.1743,46.5 8.2593,46.5 L38.0693,46.5 C38.1563,46.5 38.2393,46.417 38.2393,46.33 L38.2393,13.229 C38.2393,13.143 38.1563,13.06 38.0693,13.06 L26.5293,13.06 C25.9763,13.06 25.5293,12.612 25.5293,12.06 C25.5293,11.507 25.9763,11.06 26.5293,11.06 L38.0693,11.06 C39.2653,11.06 40.2393,12.033 40.2393,13.229 L40.2393,46.33 C40.2393,47.526 39.2653,48.5 38.0693,48.5" id="Fill-6" fill="#201820"></path>
                    <path d="M34.6494,54.3203 L8.1494,54.3203 C7.5964,54.3203 7.1494,53.8733 7.1494,53.3203 C7.1494,52.7673 7.5964,52.3203 8.1494,52.3203 L34.6494,52.3203 C35.2024,52.3203 35.6494,52.7673 35.6494,53.3203 C35.6494,53.8733 35.2024,54.3203 34.6494,54.3203" id="Fill-8" fill="#201820"></path>
                    <path d="M24.3994,60.3203 L8.1494,60.3203 C7.5964,60.3203 7.1494,59.8733 7.1494,59.3203 C7.1494,58.7673 7.5964,58.3203 8.1494,58.3203 L24.3994,58.3203 C24.9524,58.3203 25.3994,58.7673 25.3994,59.3203 C25.3994,59.8733 24.9524,60.3203 24.3994,60.3203" id="Fill-10" fill="#201820"></path>
                </g>
                <g id="Group-15" transform="translate(13.000000, 30.179700)">
                    <mask id="mask-4" fill="white">
                        <use xlink:href="#path-3"></use>
                    </mask>
                    <g id="Clip-14"></g>
                    <path d="M0.69,9.527 C0.69,13.535 3.178,14.047 6.693,14.066 L6.693,14.066 L7.152,14.066 C8.1,14.062 9.114,14.032 10.17,14.032 L10.17,14.032 C11.224,14.032 12.239,14.062 13.187,14.066 L13.187,14.066 L13.645,14.066 C17.161,14.047 19.649,13.536 19.649,9.527 L19.649,9.527 C19.649,4.291 15.405,0.047 10.17,0.047 L10.17,0.047 C4.933,0.047 0.69,4.291 0.69,9.527" id="Fill-13" fill="url(#linearGradient-5)" mask="url(#mask-4)"></path>
                </g>
                <path d="M23.1699,43.2119 C23.7639,43.2119 24.3439,43.2209 24.9079,43.2309 C27.5519,43.2709 29.8399,43.3089 30.8699,42.2949 C31.3949,41.7789 31.6489,40.9329 31.6489,39.7059 C31.6489,35.0299 27.8459,31.2269 23.1699,31.2269 C18.4939,31.2269 14.6899,35.0299 14.6899,39.7059 C14.6899,40.9329 14.9439,41.7789 15.4689,42.2949 C16.4989,43.3089 18.7839,43.2689 21.4319,43.2309 C21.9949,43.2209 22.5759,43.2119 23.1699,43.2119 M26.4139,45.2470255 C25.9159,45.2470255 25.4019,45.2379 24.8759,45.2299 C23.7689,45.2119 22.5689,45.2119 21.4639,45.2299 C18.3679,45.2809 15.6929,45.3219 14.0659,43.7209 C13.1399,42.8099 12.6899,41.4959 12.6899,39.7059 C12.6899,33.9279 17.3909,29.2269 23.1699,29.2269 C28.9479,29.2269 33.6489,33.9279 33.6489,39.7059 C33.6489,41.4959 33.1989,42.8099 32.2739,43.7209 C30.9219,45.0499 28.8509,45.2470255 26.4139,45.2470255" id="Fill-16" fill="#201820"></path>
                <g id="Group-20" transform="translate(17.000000, 18.179700)">
                    <mask id="mask-7" fill="white">
                        <use xlink:href="#path-6"></use>
                    </mask>
                    <g id="Clip-19"></g>
                    <path d="M0.805,5.986 C0.805,9.011 3.257,11.463 6.281,11.463 L6.281,11.463 C9.306,11.463 11.758,9.011 11.758,5.986 L11.758,5.986 C11.758,2.962 9.306,0.511 6.281,0.511 L6.281,0.511 C3.257,0.511 0.805,2.962 0.805,5.986" id="Fill-18" fill="url(#linearGradient-8)" mask="url(#mask-7)"></path>
                </g>
                <path d="M23.2813,19.6904 C20.8123,19.6904 18.8043,21.6984 18.8043,24.1664 C18.8043,26.6344 20.8123,28.6424 23.2813,28.6424 C25.7503,28.6424 27.7583,26.6344 27.7583,24.1664 C27.7583,21.6984 25.7503,19.6904 23.2813,19.6904 M23.2813,30.6424 C19.7103,30.6424 16.8043,27.7374 16.8043,24.1664 C16.8043,20.5954 19.7103,17.6904 23.2813,17.6904 C26.8523,17.6904 29.7583,20.5954 29.7583,24.1664 C29.7583,27.7374 26.8523,30.6424 23.2813,30.6424" id="Fill-21" fill="#201820"></path>
            </g>
        </g>
    </g>
</svg>