<?xml version="1.0" encoding="UTF-8"?>
<svg width="70px" height="67px" viewBox="0 0 70 67" version="1.1" xmlns="http://www.w3.org/2000/svg" xmlns:xlink="http://www.w3.org/1999/xlink">
    <!-- Generator: Sketch 57.1 (83088) - https://sketch.com -->
    <title>icon-bank-account</title>
    <desc>Created with Sketch.</desc>
    <defs>
        <polygon id="path-1" points="0 67 69.751 67 69.751 0.183 0 0.183"></polygon>
        <path d="M0.827,10.548 C0.827,15.928 5.189,20.289 10.57,20.289 L10.57,20.289 C15.95,20.289 20.311,15.928 20.311,10.548 L20.311,10.548 C20.311,5.167 15.95,0.805 10.57,0.805 L10.57,0.805 C5.189,0.805 0.827,5.167 0.827,10.548" id="path-3"></path>
        <linearGradient x1="28.561154%" y1="21.4865761%" x2="66.8262325%" y2="100%" id="linearGradient-5">
            <stop stop-color="#F16370" offset="0%"></stop>
            <stop stop-color="#EE629A" offset="100%"></stop>
        </linearGradient>
    </defs>
    <g id="Page-1" stroke="none" stroke-width="1" fill="none" fill-rule="evenodd">
        <g id="Assets-Playground" transform="translate(-2133.000000, -1658.000000)">
            <g id="icon-bank-account" transform="translate(2133.000000, 1657.000000)">
                <g id="Group-20" transform="translate(0.000000, 0.816900)">
                    <path d="M6.555,12.7891 L63.196,12.7891 L34.875,2.2511 L6.555,12.7891 Z M68.75,14.7891 L1,14.7891 C0.516,14.7891 0.102,14.4421 0.016,13.9661 C-0.07,13.4901 0.198,13.0201 0.652,12.8511 L34.527,0.2461 C34.751,0.1621 34.999,0.1621 35.224,0.2461 L69.099,12.8511 C69.553,13.0201 69.821,13.4901 69.735,13.9661 C69.649,14.4421 69.235,14.7891 68.75,14.7891 L68.75,14.7891 Z" id="Fill-1" fill="#201820"></path>
                    <mask id="mask-2" fill="white">
                        <use xlink:href="#path-1"></use>
                    </mask>
                    <g id="Clip-4"></g>
                    <path d="M8.42,51.199 L11.211,51.199 L11.211,19.283 L8.42,19.283 L8.42,51.199 Z M12.211,53.199 L7.42,53.199 C6.868,53.199 6.42,52.752 6.42,52.199 L6.42,18.283 C6.42,17.73 6.868,17.283 7.42,17.283 L12.211,17.283 C12.764,17.283 13.211,17.73 13.211,18.283 L13.211,52.199 C13.211,52.752 12.764,53.199 12.211,53.199 L12.211,53.199 Z" id="Fill-3" fill="#201820" mask="url(#mask-2)"></path>
                    <path d="M7.065,17.283 L12.567,17.283 L12.567,14.789 L7.065,14.789 L7.065,17.283 Z M13.567,19.283 L6.065,19.283 C5.512,19.283 5.065,18.836 5.065,18.283 L5.065,13.789 C5.065,13.236 5.512,12.789 6.065,12.789 L13.567,12.789 C14.119,12.789 14.567,13.236 14.567,13.789 L14.567,18.283 C14.567,18.836 14.119,19.283 13.567,19.283 L13.567,19.283 Z" id="Fill-5" fill="#201820" mask="url(#mask-2)"></path>
                    <path d="M7.065,55.693 L12.567,55.693 L12.567,53.199 L7.065,53.199 L7.065,55.693 Z M13.567,57.693 L6.065,57.693 C5.512,57.693 5.065,57.246 5.065,56.693 L5.065,52.199 C5.065,51.646 5.512,51.199 6.065,51.199 L13.567,51.199 C14.119,51.199 14.567,51.646 14.567,52.199 L14.567,56.693 C14.567,57.246 14.119,57.693 13.567,57.693 L13.567,57.693 Z" id="Fill-6" fill="#201820" mask="url(#mask-2)"></path>
                    <path d="M18.42,51.199 L21.211,51.199 L21.211,19.283 L18.42,19.283 L18.42,51.199 Z M22.211,53.199 L17.42,53.199 C16.868,53.199 16.42,52.752 16.42,52.199 L16.42,18.283 C16.42,17.73 16.868,17.283 17.42,17.283 L22.211,17.283 C22.764,17.283 23.211,17.73 23.211,18.283 L23.211,52.199 C23.211,52.752 22.764,53.199 22.211,53.199 L22.211,53.199 Z" id="Fill-7" fill="#201820" mask="url(#mask-2)"></path>
                    <path d="M17.065,17.283 L22.567,17.283 L22.567,14.789 L17.065,14.789 L17.065,17.283 Z M23.567,19.283 L16.065,19.283 C15.512,19.283 15.065,18.836 15.065,18.283 L15.065,13.789 C15.065,13.236 15.512,12.789 16.065,12.789 L23.567,12.789 C24.119,12.789 24.567,13.236 24.567,13.789 L24.567,18.283 C24.567,18.836 24.119,19.283 23.567,19.283 L23.567,19.283 Z" id="Fill-8" fill="#201820" mask="url(#mask-2)"></path>
                    <path d="M17.065,55.693 L22.567,55.693 L22.567,53.199 L17.065,53.199 L17.065,55.693 Z M23.567,57.693 L16.065,57.693 C15.512,57.693 15.065,57.246 15.065,56.693 L15.065,52.199 C15.065,51.646 15.512,51.199 16.065,51.199 L23.567,51.199 C24.119,51.199 24.567,51.646 24.567,52.199 L24.567,56.693 C24.567,57.246 24.119,57.693 23.567,57.693 L23.567,57.693 Z" id="Fill-9" fill="#201820" mask="url(#mask-2)"></path>
                    <path d="M49.669,51.199 L52.46,51.199 L52.46,19.283 L49.669,19.283 L49.669,51.199 Z M53.46,53.199 L48.669,53.199 C48.117,53.199 47.669,52.752 47.669,52.199 L47.669,18.283 C47.669,17.73 48.117,17.283 48.669,17.283 L53.46,17.283 C54.013,17.283 54.46,17.73 54.46,18.283 L54.46,52.199 C54.46,52.752 54.013,53.199 53.46,53.199 L53.46,53.199 Z" id="Fill-10" fill="#201820" mask="url(#mask-2)"></path>
                    <path d="M48.314,17.283 L53.816,17.283 L53.816,14.789 L48.314,14.789 L48.314,17.283 Z M54.816,19.283 L47.314,19.283 C46.761,19.283 46.314,18.836 46.314,18.283 L46.314,13.789 C46.314,13.236 46.761,12.789 47.314,12.789 L54.816,12.789 C55.369,12.789 55.816,13.236 55.816,13.789 L55.816,18.283 C55.816,18.836 55.369,19.283 54.816,19.283 L54.816,19.283 Z" id="Fill-11" fill="#201820" mask="url(#mask-2)"></path>
                    <path d="M48.314,55.693 L53.816,55.693 L53.816,53.199 L48.314,53.199 L48.314,55.693 Z M54.816,57.693 L47.314,57.693 C46.761,57.693 46.314,57.246 46.314,56.693 L46.314,52.199 C46.314,51.646 46.761,51.199 47.314,51.199 L54.816,51.199 C55.369,51.199 55.816,51.646 55.816,52.199 L55.816,56.693 C55.816,57.246 55.369,57.693 54.816,57.693 L54.816,57.693 Z" id="Fill-12" fill="#201820" mask="url(#mask-2)"></path>
                    <path d="M59.669,51.199 L62.46,51.199 L62.46,19.283 L59.669,19.283 L59.669,51.199 Z M63.46,53.199 L58.669,53.199 C58.117,53.199 57.669,52.752 57.669,52.199 L57.669,18.283 C57.669,17.73 58.117,17.283 58.669,17.283 L63.46,17.283 C64.013,17.283 64.46,17.73 64.46,18.283 L64.46,52.199 C64.46,52.752 64.013,53.199 63.46,53.199 L63.46,53.199 Z" id="Fill-13" fill="#201820" mask="url(#mask-2)"></path>
                    <path d="M58.314,17.283 L63.816,17.283 L63.816,14.789 L58.314,14.789 L58.314,17.283 Z M64.816,19.283 L57.314,19.283 C56.761,19.283 56.314,18.836 56.314,18.283 L56.314,13.789 C56.314,13.236 56.761,12.789 57.314,12.789 L64.816,12.789 C65.369,12.789 65.816,13.236 65.816,13.789 L65.816,18.283 C65.816,18.836 65.369,19.283 64.816,19.283 L64.816,19.283 Z" id="Fill-14" fill="#201820" mask="url(#mask-2)"></path>
                    <path d="M58.314,55.693 L63.816,55.693 L63.816,53.199 L58.314,53.199 L58.314,55.693 Z M64.816,57.693 L57.314,57.693 C56.761,57.693 56.314,57.246 56.314,56.693 L56.314,52.199 C56.314,51.646 56.761,51.199 57.314,51.199 L64.816,51.199 C65.369,51.199 65.816,51.646 65.816,52.199 L65.816,56.693 C65.816,57.246 65.369,57.693 64.816,57.693 L64.816,57.693 Z" id="Fill-15" fill="#201820" mask="url(#mask-2)"></path>
                    <path d="M2,65 L67.75,65 L67.75,57.69 L2,57.69 L2,65 Z M68.75,67 L1,67 C0.448,67 0,66.553 0,66 L0,56.69 C0,56.138 0.448,55.69 1,55.69 L68.75,55.69 C69.303,55.69 69.75,56.138 69.75,56.69 L69.75,66 C69.75,66.553 69.303,67 68.75,67 L68.75,67 Z" id="Fill-16" fill="#201820" mask="url(#mask-2)"></path>
                    <path d="M24.4173,67 C23.8643,67 23.4173,66.553 23.4173,66 L23.4173,56.693 C23.4173,56.141 23.8643,55.693 24.4173,55.693 C24.9703,55.693 25.4173,56.141 25.4173,56.693 L25.4173,66 C25.4173,66.553 24.9703,67 24.4173,67" id="Fill-17" fill="#201820" mask="url(#mask-2)"></path>
                    <path d="M46.4174,67 C45.8644,67 45.4174,66.553 45.4174,66 L45.4174,56.693 C45.4174,56.141 45.8644,55.693 46.4174,55.693 C46.9704,55.693 47.4174,56.141 47.4174,56.693 L47.4174,66 C47.4174,66.553 46.9704,67 46.4174,67" id="Fill-18" fill="#201820" mask="url(#mask-2)"></path>
                    <path d="M46.4174,62.3457 L24.4174,62.3457 C23.8644,62.3457 23.4174,61.8987 23.4174,61.3457 C23.4174,60.7927 23.8644,60.3457 24.4174,60.3457 L46.4174,60.3457 C46.9704,60.3457 47.4174,60.7927 47.4174,61.3457 C47.4174,61.8987 46.9704,62.3457 46.4174,62.3457" id="Fill-19" fill="#201820" mask="url(#mask-2)"></path>
                </g>
                <g id="Group-23" transform="translate(25.000000, 24.816900)">
                    <mask id="mask-4" fill="white">
                        <use xlink:href="#path-3"></use>
                    </mask>
                    <g id="Clip-22"></g>
                    <path d="M0.827,10.548 C0.827,15.928 5.189,20.289 10.57,20.289 L10.57,20.289 C15.95,20.289 20.311,15.928 20.311,10.548 L20.311,10.548 C20.311,5.167 15.95,0.805 10.57,0.805 L10.57,0.805 C5.189,0.805 0.827,5.167 0.827,10.548" id="Fill-21" fill="url(#linearGradient-5)" mask="url(#mask-4)"></path>
                </g>
                <g id="Group-28" transform="translate(24.000000, 23.816900)">
                    <path d="M11.5697,2.8057 C6.7497,2.8057 2.8277,6.7277 2.8277,11.5477 C2.8277,16.3687 6.7497,20.2887 11.5697,20.2887 C16.3897,20.2887 20.3107,16.3687 20.3107,11.5477 C20.3107,6.7277 16.3897,2.8057 11.5697,2.8057 M11.5697,22.2887 C5.6467,22.2887 0.8277,17.4707 0.8277,11.5477 C0.8277,5.6247 5.6467,0.8057 11.5697,0.8057 C17.4927,0.8057 22.3107,5.6247 22.3107,11.5477 C22.3107,17.4707 17.4927,22.2887 11.5697,22.2887" id="Fill-24" fill="#201820"></path>
                    <path d="M8.2308,15.8633 L8.2308,14.7663 C8.9478,14.4683 9.7468,13.6983 9.7468,12.7773 C9.7468,12.5883 9.7328,12.4253 9.7058,12.2363 L8.3788,12.2363 L8.3788,10.8423 L9.4618,10.8423 C9.3948,10.5043 9.3538,10.1113 9.3538,9.7463 C9.3538,8.0403 10.5988,6.9173 12.4128,6.9173 C13.1578,6.9173 13.7118,7.0793 14.0098,7.2423 L13.6708,8.7983 C13.4148,8.6493 13.0358,8.5543 12.5348,8.5543 C11.5738,8.5543 11.2758,9.1763 11.2758,9.8273 C11.2758,10.1783 11.3168,10.5043 11.3978,10.8423 L13.2518,10.8423 L13.2518,12.2363 L11.5738,12.2363 C11.5868,12.5743 11.5598,12.8853 11.4518,13.1973 C11.3308,13.5353 11.1138,13.8743 10.7888,14.1583 L10.7888,14.1843 L14.4028,14.1843 L14.4028,15.8633 L8.2308,15.8633 Z" id="Fill-26" fill="#231F20"></path>
                </g>
            </g>
        </g>
    </g>
</svg>