<?xml version="1.0" encoding="UTF-8"?>
<svg width="35px" height="35px" viewBox="0 0 35 35" version="1.1" xmlns="http://www.w3.org/2000/svg" xmlns:xlink="http://www.w3.org/1999/xlink">
    <!-- Generator: sketchtool 57.1 (101010) - https://sketch.com -->
    <title>CAB55347-2C5B-48E1-A3E2-5D09665C09B1</title>
    <desc>Created with sketchtool.</desc>
    <defs>
        <polygon id="path-1" points="0 0.889 34.111 0.889 34.111 35 0 35"></polygon>
    </defs>
    <g id="Page-1" stroke="none" stroke-width="1" fill="none" fill-rule="evenodd">
        <g id="Homepage" transform="translate(-319.000000, -646.000000)">
            <g id="Group-6" transform="translate(306.000000, 403.000000)">
                <g id="icon-time" transform="translate(13.000000, 242.000000)">
                    <g id="Group-3" transform="translate(0.000000, 0.111300)">
                        <mask id="mask-2" fill="white">
                            <use xlink:href="#path-1"></use>
                        </mask>
                        <g id="Clip-2"></g>
                        <path d="M17.0605,35 C7.6535,35 -0.0005,27.351 -0.0005,17.948 C-0.0005,8.542 7.6535,0.889 17.0605,0.889 C21.9205,0.889 26.5645,2.974 29.7995,6.608 C30.1665,7.021 30.1295,7.653 29.7175,8.021 C29.3055,8.387 28.6715,8.352 28.3055,7.938 C25.4495,4.729 21.3505,2.889 17.0605,2.889 C8.7555,2.889 1.9995,9.645 1.9995,17.948 C1.9995,26.248 8.7555,33 17.0605,33 C25.3595,33 32.1115,26.248 32.1115,17.948 C32.1115,16.038 31.7615,14.184 31.0715,12.437 C30.8685,11.923 31.1205,11.343 31.6335,11.14 C32.1465,10.935 32.7275,11.188 32.9305,11.702 C33.7135,13.684 34.1115,15.785 34.1115,17.948 C34.1115,27.351 26.4615,35 17.0605,35" id="Fill-1" fill="#FFFFFE" mask="url(#mask-2)"></path>
                    </g>
                    <path d="M17.0576,6.7724 L17.0576,18.0564" id="Fill-4" fill="#FFFFFE"></path>
                    <path d="M17.0576,19.0566 C16.5046,19.0566 16.0576,18.6096 16.0576,18.0566 L16.0576,6.7726 C16.0576,6.2196 16.5046,5.7726 17.0576,5.7726 C17.6106,5.7726 18.0576,6.2196 18.0576,6.7726 L18.0576,18.0566 C18.0576,18.6096 17.6106,19.0566 17.0576,19.0566" id="Fill-6" fill="#FFFFFE"></path>
                    <path d="M17.0576,19.0566 C16.7976,19.0566 16.5376,18.9556 16.3416,18.7546 C15.9556,18.3596 15.9636,17.7266 16.3596,17.3406 L22.1456,11.6996 C22.5406,11.3146 23.1736,11.3216 23.5596,11.7166 C23.9456,12.1126 23.9376,12.7446 23.5416,13.1306 L17.7556,18.7726 C17.5616,18.9616 17.3096,19.0566 17.0576,19.0566" id="Fill-8" fill="#FFFFFE"></path>
                </g>
            </g>
        </g>
    </g>
</svg>