<?xml version="1.0" encoding="UTF-8"?>
<svg width="46px" height="37px" viewBox="0 0 46 37" version="1.1" xmlns="http://www.w3.org/2000/svg" xmlns:xlink="http://www.w3.org/1999/xlink">
    <!-- Generator: Sketch 57.1 (83088) - https://sketch.com -->
    <title>icon-no-hidden-costs</title>
    <desc>Created with Sketch.</desc>
    <defs>
        <polygon id="path-1" points="0.473663294 0.841 27.1317367 0.841 27.1317367 37 0.473663294 37"></polygon>
    </defs>
    <g id="Page-1" stroke="none" stroke-width="1" fill="none" fill-rule="evenodd">
        <g id="Homepage" transform="translate(-848.000000, -2306.000000)">
            <g id="icon-no-hidden-costs" transform="translate(848.000000, 2305.000000)">
                <path d="M0,11.374 L17.249,24.066 C21.502,18.297 24.156,11.49 24.947,4.365 L3.663,2 C3.28,5.484 1.977,8.691 0,11.374" id="Fill-1" fill="#F1C54C"></path>
                <path d="M7.6592,28.753 C7.1072,28.753 6.6592,28.306 6.6592,27.753 L6.6592,6.918 C6.6592,6.365 7.1072,5.918 7.6592,5.918 C11.0522,5.918 12.8182,7.272 14.3752,8.466 C15.8692,9.612 17.1602,10.602 19.8752,10.602 C22.5902,10.602 23.8792,9.612 25.3722,8.468 C26.3672,7.703 27.3972,6.913 28.8662,6.418 C29.3882,6.24 29.9562,6.522 30.1332,7.046 C30.3102,7.568 30.0292,8.136 29.5062,8.313 C28.3512,8.702 27.4952,9.359 26.5892,10.055 C25.0332,11.248 23.2692,12.602 19.8752,12.602 C16.4822,12.602 14.7162,11.248 13.1592,10.054 C11.8612,9.058 10.7162,8.181 8.6592,7.968 L8.6592,27.753 C8.6592,28.306 8.2112,28.753 7.6592,28.753" id="Fill-3" fill="#57337E"></path>
                <path d="M44.2798,33.083 C43.7278,33.083 43.2798,32.636 43.2798,32.083 L43.2798,12.56 C40.5298,12.323 38.9658,11.123 37.5698,10.051 C37.1028,9.693 36.6618,9.354 36.1838,9.052 C35.7168,8.756 35.5788,8.139 35.8748,7.672 C36.1708,7.205 36.7888,7.066 37.2548,7.362 C37.8088,7.714 38.3058,8.096 38.7878,8.465 C40.2808,9.611 41.5718,10.602 44.2798,10.602 C44.8318,10.602 45.2798,11.049 45.2798,11.602 L45.2798,32.083 C45.2798,32.636 44.8318,33.083 44.2798,33.083" id="Fill-5" fill="#57337E"></path>
                <path d="M13.291,30.3809 C13.083,30.3809 12.874,30.3169 12.695,30.1829 C11.943,29.6229 11.121,29.0499 10.054,28.7229 C9.452,28.5269 8.789,28.4229 8.009,28.3999 C7.847,28.3849 7.758,28.3869 7.659,28.3869 C7.107,28.3869 6.659,27.9399 6.659,27.3869 C6.659,26.8339 7.107,26.3869 7.659,26.3869 C7.832,26.3869 7.987,26.3889 8.143,26.4039 C9.042,26.4299 9.888,26.5659 10.656,26.8159 C12.012,27.2319 13.037,27.9439 13.889,28.5789 C14.332,28.9089 14.424,29.5349 14.094,29.9789 C13.898,30.2419 13.596,30.3809 13.291,30.3809" id="Fill-7" fill="#57337E"></path>
                <path d="M44.2798,33.5039 C43.9308,33.5039 43.6238,33.3249 43.4448,33.0539 C40.5928,32.8519 38.9978,31.6239 37.5758,30.5289 C36.0828,29.3799 34.7928,28.3869 32.0768,28.3869 C29.3538,28.3869 28.0638,29.3859 26.5708,30.5429 L26.3628,30.7029 C24.7238,31.9579 22.9968,33.0829 19.8748,33.0829 C19.6968,33.0829 19.5368,33.0799 19.3758,33.0619 C18.8278,32.9959 18.4358,32.4979 18.5018,31.9489 C18.5678,31.3999 19.0738,31.0079 19.6128,31.0749 C19.6978,31.0849 19.7818,31.0829 19.8748,31.0829 C22.3788,31.0829 23.6898,30.2319 25.1448,29.1169 L25.3458,28.9619 C26.9038,27.7549 28.6698,26.3869 32.0768,26.3869 C35.4728,26.3869 37.2378,27.7449 38.7958,28.9439 C40.2868,30.0919 41.5738,31.0829 44.2798,31.0829 C44.8318,31.0829 45.2798,31.5299 45.2798,32.0829 L45.2798,32.5039 C45.2798,33.0569 44.8318,33.5039 44.2798,33.5039" id="Fill-9" fill="#57337E"></path>
                <path d="M30.9824,22.3574 L30.9824,21.2094 C31.7334,20.8974 32.5694,20.0894 32.5694,19.1264 C32.5694,18.9264 32.5554,18.7564 32.5274,18.5584 L31.1374,18.5584 L31.1374,17.0984 L32.2714,17.0984 C32.2014,16.7444 32.1584,16.3334 32.1584,15.9504 C32.1584,14.1644 33.4624,12.9874 35.3624,12.9874 C36.1414,12.9874 36.7224,13.1584 37.0354,13.3284 L36.6804,14.9584 C36.4114,14.8014 36.0144,14.7034 35.4904,14.7034 C34.4834,14.7034 34.1714,15.3554 34.1714,16.0354 C34.1714,16.4044 34.2134,16.7444 34.2984,17.0984 L36.2414,17.0984 L36.2414,18.5584 L34.4834,18.5584 C34.4974,18.9134 34.4684,19.2394 34.3554,19.5654 C34.2284,19.9194 34.0014,20.2734 33.6614,20.5714 L33.6614,20.5994 L37.4464,20.5994 L37.4464,22.3574 L30.9824,22.3574 Z" id="Fill-11" fill="#57337E"></path>
                <g id="Group-15" transform="translate(11.000000, 0.159200)">
                    <mask id="mask-2" fill="white">
                        <use xlink:href="#path-1"></use>
                    </mask>
                    <g id="Clip-14"></g>
                    <path d="M1.4727,37 C1.2697,37 1.0657,36.938 0.8887,36.811 C0.4407,36.487 0.3397,35.862 0.6627,35.415 L25.3207,1.256 C25.6447,0.808 26.2687,0.707 26.7167,1.03 C27.1647,1.354 27.2657,1.979 26.9427,2.426 L2.2847,36.585 C2.0887,36.856 1.7837,37 1.4727,37" id="Fill-13" fill="#57337E" mask="url(#mask-2)"></path>
                </g>
            </g>
        </g>
    </g>
</svg>