<?xml version="1.0" encoding="UTF-8"?>
<svg width="203px" height="143px" viewBox="0 0 203 143" version="1.1" xmlns="http://www.w3.org/2000/svg" xmlns:xlink="http://www.w3.org/1999/xlink">
    <!-- Generator: Sketch 57.1 (83088) - https://sketch.com -->
    <title>icon-get-money</title>
    <desc>Created with Sketch.</desc>
    <defs>
        <polygon id="path-1" points="0 0.6018 14.7282286 0.6018 14.7282286 3.6718 0 3.6718"></polygon>
    </defs>
    <g id="Page-1" stroke="none" stroke-width="1" fill="none" fill-rule="evenodd">
        <g id="Homepage" transform="translate(-1182.000000, -1607.000000)">
            <g id="icon-get-money" transform="translate(1182.000000, 1607.000000)">
                <path d="M194,87.6824454 L73.8782386,0 C46.3354446,37.0940282 29.1307707,80.855818 24,126.648328 L172.207568,143 C174.488684,122.437231 182.244014,103.511472 194,87.6824454" id="Fill-1" fill="#F7F3F2"></path>
                <path d="M15,58.211668 C25.5015565,58.211668 25.5015565,66.2719173 36.003113,66.2719173 C46.5046694,66.2719173 46.5046694,58.211668 57.0108953,58.211668 C67.503113,58.211668 67.503113,66.2719173 78,66.2719173 L78,67 L78,31.788332 L78,31.0602493 C67.503113,31.0602493 67.503113,23 57.0108953,23 C46.5046694,23 46.5046694,31.0602493 36.003113,31.0602493 C25.5015565,31.0602493 25.5015565,23 15,23 L15,23.6254044 L15,58.8370724 L15,58.211668 Z" id="Fill-3" fill="#FFFFFE"></path>
                <path d="M16.6232404,56.8578279 C21.1401463,57.3756893 23.7638352,59.38269 26.1170646,61.1825462 C28.5720052,63.0583553 30.6940726,64.6809878 35.1069556,64.6809878 C39.5198385,64.6809878 41.6395943,63.0583553 44.0968465,61.1825462 C46.8245584,59.0949892 49.9198178,56.7312395 55.9069142,56.7312395 C61.8870756,56.7312395 64.9777118,59.0949892 67.7054237,61.1802445 C69.6864822,62.6993047 71.4502484,64.048046 74.3767596,64.5106689 L74.3767596,34.4263726 C69.8621653,33.9085111 67.2384764,31.9015104 64.8875587,30.1016543 C62.432618,28.2258451 60.3151739,26.6032127 55.9069142,26.6032127 C51.4917196,26.6032127 49.3696522,28.2258451 46.9123999,30.1039559 C44.1846881,32.1892112 41.0917403,34.5552625 35.1069556,34.5552625 C29.1221709,34.5552625 26.029223,32.1892112 23.3015112,30.1016543 C21.318141,28.5871973 19.5543748,27.238456 16.6232404,26.7758331 L16.6232404,56.8578279 Z M76.6883798,70 C75.9948937,70 75.3707563,69.696188 74.9477298,69.2128506 C70.0794576,68.8054663 67.3355644,66.7064013 64.8875587,64.8305922 C62.432618,62.954783 60.3151739,61.3344522 55.9069142,61.3344522 C51.4917196,61.3344522 49.3696522,62.954783 46.9123999,64.8328938 C44.1846881,66.9204507 41.0917403,69.2842004 35.1069556,69.2842004 C29.1221709,69.2842004 26.029223,66.9204507 23.3015112,64.8328938 C21.1424579,63.1826421 19.2399945,61.7280269 15.8095501,61.4035004 C15.4073282,61.7441381 14.8825904,61.9512827 14.3116202,61.9512827 C13.0332942,61.9512827 12,60.920163 12,59.6496763 L12,24.3016063 C12,23.0311196 13.0332942,22 14.3116202,22 C20.2964049,22 23.3893527,24.3660513 26.1170646,26.4536082 C28.5720052,28.3294174 30.6940726,29.9520499 35.1069556,29.9520499 C39.5198385,29.9520499 41.6395943,28.3294174 44.0968465,26.4536082 C46.8245584,24.3660513 49.9198178,22 55.9069142,22 C61.8870756,22 64.9777118,24.3660513 67.7054237,26.4513066 C70.1580527,28.3294174 72.2778084,29.9520499 76.6883798,29.9520499 C77.9667058,29.9520499 79,30.9808679 79,32.2536562 L79,67.6983937 C79,68.971182 77.9667058,70 76.6883798,70 L76.6883798,70 Z" id="Fill-5" fill="#57337E"></path>
                <path d="M50,50 L50,48.0402957 C51.2779412,47.5068851 52.7037815,46.1269749 52.7037815,44.4826786 C52.7037815,44.1417597 52.6760504,43.8518626 52.6321429,43.5132628 L50.2657563,43.5132628 L50.2657563,41.0201478 L52.1976891,41.0201478 C52.0752101,40.4148427 52.0035714,39.7121322 52.0035714,39.0604435 C52.0035714,36.008407 54.2197479,34 57.4527311,34 C58.7792017,34 59.7682773,34.2922163 60.2997899,34.5821133 L59.6943277,37.3651254 C59.2390756,37.0984201 58.5619748,36.9291202 57.6722689,36.9291202 C55.957563,36.9291202 55.4306723,38.042325 55.4306723,39.2042325 C55.4306723,39.8350486 55.5023109,40.4148427 55.6455882,41.0201478 L58.9502101,41.0201478 L58.9502101,43.5132628 L55.957563,43.5132628 C55.9852941,44.1185679 55.9344538,44.6751703 55.7403361,45.2317727 C55.5254202,45.8370778 55.1371849,46.442383 54.5594538,46.9502826 L54.5594538,46.9989854 L61,46.9989854 L61,50 L50,50 Z" id="Fill-7" fill="#DB306B"></path>
                <path d="M200,76 C200,99.7480017 180.749804,119 156.998839,119 C133.254841,119 114,99.7480017 114,76 C114,52.2519983 133.254841,33 156.998839,33 C180.749804,33 200,52.2519983 200,76" id="Fill-9" fill="#EA8735"></path>
                <path d="M34,83.211668 C44.5015565,83.211668 44.5015565,91.2719173 55.003113,91.2719173 C65.5046694,91.2719173 65.5046694,83.211668 76.0108953,83.211668 C86.503113,83.211668 86.503113,91.2719173 97,91.2719173 L97,92 L97,56.788332 L97,56.0602493 C86.503113,56.0602493 86.503113,48 76.0108953,48 C65.5046694,48 65.5046694,56.0602493 55.003113,56.0602493 C44.5015565,56.0602493 44.5015565,48 34,48 L34,48.6254044 L34,83.8370724 L34,83.211668 Z" id="Fill-11" fill="#FFFFFE"></path>
                <path d="M36.6232404,81.8578279 C41.1401463,82.3756893 43.7638352,84.38269 46.1170646,86.1825462 C48.5720052,88.0583553 50.6940726,89.6809878 55.1069556,89.6809878 C59.5198385,89.6809878 61.6395943,88.0583553 64.0968465,86.1825462 C66.8245584,84.0949892 69.9198178,81.7312395 75.9069142,81.7312395 C81.8870756,81.7312395 84.9777118,84.0949892 87.7054237,86.1802445 C89.6864822,87.6993047 91.4502484,89.048046 94.3767596,89.5106689 L94.3767596,59.4263726 C89.8621653,58.9085111 87.2384764,56.9015104 84.8875587,55.1016543 C82.432618,53.2258451 80.3151739,51.6032127 75.9069142,51.6032127 C71.4917196,51.6032127 69.3696522,53.2258451 66.9123999,55.1039559 C64.1846881,57.1892112 61.0917403,59.5552625 55.1069556,59.5552625 C49.1221709,59.5552625 46.029223,57.1892112 43.3015112,55.1016543 C41.318141,53.5871973 39.5543748,52.238456 36.6232404,51.7758331 L36.6232404,81.8578279 Z M96.6883798,95 C95.9948937,95 95.3707563,94.696188 94.9477298,94.2128506 C90.0794576,93.8054663 87.3355644,91.7064013 84.8875587,89.8305922 C82.432618,87.954783 80.3151739,86.3344522 75.9069142,86.3344522 C71.4917196,86.3344522 69.3696522,87.954783 66.9123999,89.8328938 C64.1846881,91.9204507 61.0917403,94.2842004 55.1069556,94.2842004 C49.1221709,94.2842004 46.029223,91.9204507 43.3015112,89.8328938 C41.1424579,88.1826421 39.2399945,86.7280269 35.8095501,86.4035004 C35.4073282,86.7441381 34.8825904,86.9512827 34.3116202,86.9512827 C33.0332942,86.9512827 32,85.920163 32,84.6496763 L32,49.3016063 C32,48.0311196 33.0332942,47 34.3116202,47 C40.2964049,47 43.3893527,49.3660513 46.1170646,51.4536082 C48.5720052,53.3294174 50.6940726,54.9520499 55.1069556,54.9520499 C59.5198385,54.9520499 61.6395943,53.3294174 64.0968465,51.4536082 C66.8245584,49.3660513 69.9198178,47 75.9069142,47 C81.8870756,47 84.9777118,49.3660513 87.7054237,51.4513066 C90.1580527,53.3294174 92.2778084,54.9520499 96.6883798,54.9520499 C97.9667058,54.9520499 99,55.9808679 99,57.2536562 L99,92.6983937 C99,93.971182 97.9667058,95 96.6883798,95 L96.6883798,95 Z" id="Fill-13" fill="#57337E"></path>
                <path d="M70,75 L70,73.0402957 C71.2779412,72.5068851 72.7037815,71.1269749 72.7037815,69.4826786 C72.7037815,69.1417597 72.6760504,68.8518626 72.6321429,68.5132628 L70.2657563,68.5132628 L70.2657563,66.0201478 L72.1976891,66.0201478 C72.0752101,65.4148427 72.0035714,64.7121322 72.0035714,64.0604435 C72.0035714,61.008407 74.2197479,59 77.4527311,59 C78.7792017,59 79.7682773,59.2922163 80.2997899,59.5821133 L79.6943277,62.3651254 C79.2390756,62.0984201 78.5619748,61.9291202 77.6722689,61.9291202 C75.957563,61.9291202 75.4306723,63.042325 75.4306723,64.2042325 C75.4306723,64.8350486 75.5023109,65.4148427 75.6455882,66.0201478 L78.9502101,66.0201478 L78.9502101,68.5132628 L75.957563,68.5132628 C75.9852941,69.1185679 75.9344538,69.6751703 75.7403361,70.2317727 C75.5254202,70.8370778 75.1371849,71.442383 74.5594538,71.9502826 L74.5594538,71.9989854 L81,71.9989854 L81,75 L70,75 Z" id="Fill-15" fill="#DB306B"></path>
                <path d="M158.012682,122 C133.190105,122 113,101.594363 113,76.5116577 C113,51.4172944 133.190105,31 158.012682,31 C170.837872,31 183.088904,36.5607225 191.625195,46.2599283 C192.471446,47.2205227 192.386129,48.6963874 191.436115,49.5520625 C190.486101,50.4030746 189.026492,50.3238022 188.180241,49.3608762 C180.520176,40.6549065 169.523533,35.6630797 158.012682,35.6630797 C135.735774,35.6630797 117.611719,53.9866513 117.611719,76.5116577 C117.611719,99.0226749 135.735774,117.33692 158.012682,117.33692 C180.275755,117.33692 198.388281,99.0226749 198.388281,76.5116577 C198.388281,71.3309762 197.449796,66.2995132 195.595885,61.5618242 C195.127796,60.3634128 195.708872,59.0087881 196.891778,58.5354855 C198.063155,58.0691776 199.414389,58.6473994 199.882478,59.8458109 C201.950834,65.1337433 203,70.7410966 203,76.5116577 C203,101.594363 182.819118,122 158.012682,122" id="Fill-17" fill="#57337E"></path>
                <path d="M48,14.2122905 C48,15.1992551 47.1035831,16 45.9986971,16 C44.8964169,16 44,15.1992551 44,14.2122905 L44,2.7877095 C44,1.80074488 44.8964169,1 45.9986971,1 C47.1035831,1 48,1.80074488 48,2.7877095 L48,14.2122905 Z" id="Fill-19" fill="#EDCED5"></path>
                <path d="M40.7877095,11 C39.8007449,11 39,10.1035831 39,8.99869707 C39,7.89641694 39.8007449,7 40.7877095,7 L52.2122905,7 C53.1992551,7 54,7.89641694 54,8.99869707 C54,10.1035831 53.1992551,11 52.2122905,11 L40.7877095,11 Z" id="Fill-21" fill="#EDCED5"></path>
                <path d="M9,89.2122905 C9,90.1992551 8.10358306,91 6.99869707,91 C5.89641694,91 5,90.1992551 5,89.2122905 L5,77.7877095 C5,76.8007449 5.89641694,76 6.99869707,76 C8.10358306,76 9,76.8007449 9,77.7877095 L9,89.2122905 Z" id="Fill-23" fill="#EDCED5"></path>
                <g id="Group-27" transform="translate(0.000000, 82.000000)">
                    <mask id="mask-2" fill="white">
                        <use xlink:href="#path-1"></use>
                    </mask>
                    <g id="Clip-26"></g>
                    <path d="M1.75451429,3.6718 C0.785371429,3.6718 -0.000914285714,2.9838 -0.000914285714,2.1358 C-0.000914285714,1.2898 0.785371429,0.6018 1.75451429,0.6018 L12.9728,0.6018 C13.9419429,0.6018 14.7282286,1.2898 14.7282286,2.1358 C14.7282286,2.9838 13.9419429,3.6718 12.9728,3.6718 L1.75451429,3.6718 Z" id="Fill-25" fill="#EDCED5" mask="url(#mask-2)"></path>
                </g>
                <path d="M83.8636193,119 C80.5089489,119 79.077903,115.128959 77.693547,111.385735 C76.6383549,108.52582 75.4407586,105.282454 73.7272387,105.282454 C72.0137188,105.282454 70.8161224,108.528103 69.7585958,111.3903 C68.3789088,115.131241 66.9501974,119 63.600196,119 C60.2501945,119 58.8214831,115.131241 57.4417961,111.388017 C56.3842695,108.52582 55.1890077,105.282454 53.4778223,105.282454 C51.7713059,105.282454 50.5737095,108.52582 49.5208519,111.385735 C48.1388304,115.128959 46.7124535,119 43.3601176,119 C40.0101161,119 38.5837392,115.131241 37.2017177,111.388017 C36.1465256,108.52582 34.9489293,105.282454 33.2377439,105.282454 C31.5312275,105.282454 30.3336311,108.52582 29.2807736,111.385735 C27.8987521,115.128959 26.4723751,119 23.1200392,119 C19.7700378,119 18.3436608,115.131241 16.9616393,111.388017 C15.9064472,108.52582 14.7088509,105.282454 13,105.282454 L13,103 C16.3500014,103 17.7763784,106.871041 19.1583999,110.614265 C20.213592,113.47418 21.4111883,116.717546 23.1200392,116.717546 C24.8335591,116.717546 26.0288209,113.47418 27.084013,110.611983 C28.4660345,106.868759 29.8924114,103 33.2377439,103 C36.5900798,103 38.0164568,106.871041 39.3984783,110.614265 C40.4536703,113.47418 41.6512667,116.717546 43.3601176,116.717546 C45.0736375,116.717546 46.2688993,113.47418 47.3240914,110.611983 C48.7037784,106.868759 50.1324898,103 53.4778223,103 C56.8301582,103 58.2565351,106.871041 59.6385566,110.614265 C60.6937487,113.47418 61.8913451,116.717546 63.600196,116.717546 C65.3113814,116.717546 66.5066432,113.476462 67.5641698,110.614265 C68.9438568,106.871041 70.3749027,103 73.7272387,103 C77.0795746,103 78.508286,106.868759 79.8903075,110.6097 C80.9478341,113.47418 82.1477649,116.717546 83.8636193,116.717546 C85.5748047,116.717546 86.7747356,113.476462 87.8299277,110.614265 C89.2142837,106.871041 90.6429951,103 94,103 L94,105.282454 C92.2818111,105.282454 91.0842148,108.528103 90.0266882,111.3903 C88.6446667,115.131241 87.2159553,119 83.8636193,119" id="Fill-28" fill="#F1C54C"></path>
                <path d="M128.9469,24.1067343 C128.608377,26.0097935 126.795048,27.2802496 124.892495,26.9468861 C122.989943,26.6108977 121.719825,24.7944605 122.0531,22.8914013 C122.391623,20.9883421 124.204952,19.717886 126.107505,20.0538744 C128.010057,20.3872378 129.280175,22.2010501 128.9469,24.1067343" id="Fill-30" fill="#EDCED5"></path>
                <path d="M157.5,45 L157.5,76" id="Fill-32" fill="#FFFFFE"></path>
                <path d="M158,79 C156.894,79 156,77.9555023 156,76.6685318 L156,46.3314682 C156,45.0444977 156.894,44 158,44 C159.106,44 160,45.0444977 160,46.3314682 L160,76.6685318 C160,77.9555023 159.106,79 158,79" id="Fill-34" fill="#57337E"></path>
                <path d="M158.30643,79 C157.706957,79 157.105178,78.7625089 156.655573,78.289878 C155.765585,77.3610761 155.784031,75.8702903 156.697075,74.9650024 L172.085093,59.6668122 C172.995832,58.7615242 174.457624,58.7803354 175.345306,59.7091373 C176.232988,60.6379392 176.216848,62.128725 175.303804,63.034013 L159.915785,78.3322032 C159.468486,78.7789687 158.887458,79 158.30643,79" id="Fill-36" fill="#57337E"></path>
            </g>
        </g>
    </g>
</svg>