<?xml version="1.0" encoding="UTF-8"?>
<svg width="91px" height="51px" viewBox="0 0 91 51" version="1.1" xmlns="http://www.w3.org/2000/svg" xmlns:xlink="http://www.w3.org/1999/xlink">
    <!-- Generator: Sketch 56.3 (81716) - https://sketch.com -->
    <title>icon-lenders</title>
    <desc>Created with Sketch.</desc>
    <defs>
        <path d="M26.657,1.023 C23.157,1.474 13.327,5.454 13.327,5.454 L13.327,5.454 C9.976,7.084 -0.203,10.964 0.007,25.574 L0.007,25.574 C0.207,40.184 15.427,41.004 15.427,41.004 L15.427,41.004 C15.427,41.004 25.007,40.874 29.967,40.194 L29.967,40.194 C35.717,39.414 42.426,35.734 46.076,30.385 L46.076,30.385 L46.076,30.384 L20.766,30.384 L20.766,13.204 C22.656,12.174 24.797,11.174 26.958,10.474 L26.958,10.474 C29.137,9.774 30.477,8.893 31.267,7.974 L31.267,7.974 C32.877,6.144 32.337,4.164 32.137,3.153 L32.137,3.153 C31.876,1.869 30.657,0.915 28.199,0.915 L28.199,0.915 C27.731,0.915 27.218,0.949 26.657,1.023" id="path-1"></path>
        <linearGradient x1="28.561154%" y1="28.411529%" x2="66.8262325%" y2="87.8566795%" id="linearGradient-3">
            <stop stop-color="#F16370" offset="0%"></stop>
            <stop stop-color="#EE629A" offset="100%"></stop>
        </linearGradient>
        <path d="M26.657,1.023 C23.157,1.474 13.327,5.454 13.327,5.454 L13.327,5.454 C9.976,7.084 -0.203,10.964 0.007,25.574 L0.007,25.574 C0.207,40.184 15.427,41.004 15.427,41.004 L15.427,41.004 C15.427,41.004 25.007,40.874 29.967,40.194 L29.967,40.194 C35.717,39.414 42.426,35.734 46.076,30.385 L46.076,30.385 L46.076,30.384 L20.766,30.384 L20.766,13.204 C22.656,12.174 24.797,11.174 26.958,10.474 L26.958,10.474 C29.137,9.774 30.477,8.893 31.267,7.974 L31.267,7.974 C32.877,6.144 32.337,4.164 32.137,3.153 L32.137,3.153 C31.876,1.869 30.657,0.915 28.199,0.915 L28.199,0.915 C27.731,0.915 27.218,0.949 26.657,1.023" id="path-4"></path>
        <filter x="-70.5%" y="-101.0%" width="284.5%" height="312.0%" filterUnits="objectBoundingBox" id="filter-5">
            <feOffset dx="10" dy="2" in="SourceAlpha" result="shadowOffsetOuter1"></feOffset>
            <feGaussianBlur stdDeviation="12.5" in="shadowOffsetOuter1" result="shadowBlurOuter1"></feGaussianBlur>
            <feColorMatrix values="0 0 0 0 0   0 0 0 0 0   0 0 0 0 0  0 0 0 0.147372159 0" type="matrix" in="shadowBlurOuter1"></feColorMatrix>
        </filter>
        <polygon id="path-6" points="0 0.913692476 47.8835133 0.913692476 47.8835133 43 0 43"></polygon>
        <polygon id="path-8" points="0 51 90.717 51 90.717 0.193 0 0.193"></polygon>
    </defs>
    <g id="Page-1" stroke="none" stroke-width="1" fill="none" fill-rule="evenodd">
        <g id="Assets-Playground" transform="translate(-1446.000000, -1815.000000)">
            <g id="icon-lenders" transform="translate(1446.000000, 1814.000000)">
                <g id="Group-24">
                    <polyline id="Fill-1" fill="#FEFEFE" points="21.7668 12.4707 21.7668 7.1907 89.7168 7.1907 89.7168 40.1907 41.8168 40.1907 21.7668 40.1907 21.7668 23.0107"></polyline>
                    <path d="M89.717,41.1904 L21.767,41.1904 C21.215,41.1904 20.767,40.7434 20.767,40.1904 L20.767,23.0104 C20.767,22.4584 21.215,22.0104 21.767,22.0104 C22.319,22.0104 22.767,22.4584 22.767,23.0104 L22.767,39.1904 L88.717,39.1904 L88.717,8.1904 L22.767,8.1904 L22.767,12.4704 C22.767,13.0234 22.319,13.4704 21.767,13.4704 C21.215,13.4704 20.767,13.0234 20.767,12.4704 L20.767,7.1904 C20.767,6.6374 21.215,6.1904 21.767,6.1904 L89.717,6.1904 C90.269,6.1904 90.717,6.6374 90.717,7.1904 L90.717,40.1904 C90.717,40.7434 90.269,41.1904 89.717,41.1904" id="Fill-2" fill="#201820"></path>
                    <g id="Group-6" transform="translate(1.000000, 9.806600)">
                        <mask id="mask-2" fill="white">
                            <use xlink:href="#path-1"></use>
                        </mask>
                        <g id="Clip-5"></g>
                        <g id="Fill-4" mask="url(#mask-2)">
                            <use fill="black" fill-opacity="1" filter="url(#filter-5)" xlink:href="#path-4"></use>
                            <use fill="url(#linearGradient-3)" fill-rule="evenodd" xlink:href="#path-4"></use>
                        </g>
                    </g>
                    <g id="Group-23" transform="translate(0.000000, 0.806600)">
                        <path d="M75.0617,25.6904 C71.5287,25.6904 68.6547,22.8104 68.6547,19.2714 C68.6547,17.4834 69.4127,15.7664 70.7357,14.5594 L72.0827,16.0384 C71.1757,16.8664 70.6547,18.0444 70.6547,19.2714 C70.6547,21.7084 72.6317,23.6904 75.0617,23.6904 C77.4917,23.6904 79.4697,21.7084 79.4697,19.2714 C79.4697,18.5464 79.2887,17.8244 78.9457,17.1794 L80.7117,16.2404 C81.2077,17.1724 81.4697,18.2204 81.4697,19.2714 C81.4697,22.8104 78.5947,25.6904 75.0617,25.6904" id="Fill-7" fill="#201820"></path>
                        <path d="M66.4978,34.8398 L64.4978,34.8398 C64.4978,29.0168 69.2358,24.2788 75.0588,24.2788 L75.0588,26.2788 C70.3378,26.2788 66.4978,30.1188 66.4978,34.8398" id="Fill-9" fill="#201820"></path>
                        <path d="M85.6198,34.8398 L83.6198,34.8398 C83.6198,30.1188 79.7798,26.2788 75.0588,26.2788 L75.0588,24.2788 C80.8818,24.2788 85.6198,29.0168 85.6198,34.8398" id="Fill-11" fill="#201820"></path>
                        <path d="M70.801,14.1768 L80.522,15.8178 L80.896,13.6008 L80.819,13.6178 C80.521,13.6868 80.206,13.6148 79.967,13.4208 L79.348,12.9198 L78.132,13.0788 C77.913,13.1088 77.698,13.0658 77.51,12.9578 L76.603,12.4458 L75.33,12.7308 C75.069,12.7908 74.795,12.7398 74.57,12.5958 L73.509,11.9108 L71.999,12.0808 C71.801,12.1038 71.597,12.0648 71.42,11.9708 L71.194,11.8508 L70.801,14.1768 Z M81.342,17.9698 C81.286,17.9698 81.231,17.9648 81.175,17.9558 L69.482,15.9828 C68.938,15.8908 68.571,15.3738 68.663,14.8298 L69.452,10.1538 C69.505,9.8358 69.707,9.5648 69.995,9.4228 C70.283,9.2808 70.622,9.2848 70.905,9.4358 L72.083,10.0588 L73.639,9.8838 C73.866,9.8598 74.098,9.9118 74.292,10.0368 L75.301,10.6878 L76.542,10.4098 C76.783,10.3548 77.037,10.3938 77.253,10.5158 L78.204,11.0528 L79.514,10.8818 C79.788,10.8438 80.06,10.9238 80.273,11.0958 L80.847,11.5608 L81.908,11.3178 C82.234,11.2398 82.574,11.3358 82.818,11.5648 C83.06,11.7938 83.173,12.1288 83.117,12.4578 L82.327,17.1358 C82.283,17.3978 82.137,17.6308 81.921,17.7838 C81.751,17.9058 81.548,17.9698 81.342,17.9698 L81.342,17.9698 Z" id="Fill-13" fill="#201820"></path>
                        <g id="Group-17" transform="translate(0.000000, 8.000000)">
                            <mask id="mask-7" fill="white">
                                <use xlink:href="#path-6"></use>
                            </mask>
                            <g id="Clip-16"></g>
                            <path d="M16.4397,43 C16.2107,42.99 0.2167,41.96 0.0027,26.591 C-0.1973,12.18 9.2317,7.75 13.2567,5.858 L13.8907,5.558 C14.3587,5.365 23.9387,1.496 27.5247,1.028 C32.9607,0.321 33.9407,3.09 34.1137,3.954 L34.1527,4.143 C34.4937,5.779 35.3987,10.125 28.2657,12.427 C21.9607,14.461 15.7777,19.232 15.7157,19.281 C15.2797,19.619 14.6517,19.542 14.3127,19.104 C13.9737,18.669 14.0527,18.04 14.4887,17.701 C14.7527,17.497 21.0157,12.665 27.6507,10.523 C33.0747,8.773 32.5237,6.13 32.1947,4.551 L32.1527,4.347 C31.9207,3.185 30.2867,2.687 27.7837,3.011 C24.4497,3.446 14.8007,7.345 14.7037,7.384 L14.1077,7.669 C10.4307,9.396 1.8207,13.441 2.0027,26.563 C2.0817,32.229 4.5227,36.375 9.2587,38.884 C12.8527,40.788 16.4437,40.999 16.4797,41.001 C16.5077,40.999 25.9867,40.862 30.8327,40.202 C37.2937,39.323 42.9777,35.898 46.0377,31.041 C46.3307,30.573 46.9487,30.433 47.4167,30.729 C47.8835133,31.022 48.0237,31.64 47.7297,32.107 C44.3577,37.459 38.1427,41.227 31.1017,42.185 C26.1357,42.86 16.8337,42.994 16.4397,43" id="Fill-15" fill="#201820" mask="url(#mask-7)"></path>
                        </g>
                        <mask id="mask-9" fill="white">
                            <use xlink:href="#path-8"></use>
                        </mask>
                        <g id="Clip-19"></g>
                        <polygon id="Fill-18" fill="#FEFEFE" mask="url(#mask-9)" points="24.698 6.384 85.717 6.384 85.717 1.194 24.698 1.194"></polygon>
                        <path d="M25.698,5.384 L84.717,5.384 L84.717,2.194 L25.698,2.194 L25.698,5.384 Z M85.717,7.384 L24.698,7.384 C24.146,7.384 23.698,6.937 23.698,6.384 L23.698,1.193 C23.698,0.641 24.146,0.193 24.698,0.193 L85.717,0.193 C86.269,0.193 86.717,0.641 86.717,1.193 L86.717,6.384 C86.717,6.937 86.269,7.384 85.717,7.384 L85.717,7.384 Z" id="Fill-20" fill="#201820" mask="url(#mask-9)"></path>
                        <polyline id="Fill-21" fill="#FEFEFE" mask="url(#mask-9)" points="21.7702 22.4141 21.7702 39.3841 49.1802 39.3841"></polyline>
                        <path d="M49.1804,40.3838 L21.7704,40.3838 C21.2184,40.3838 20.7704,39.9368 20.7704,39.3838 L20.7704,22.4138 C20.7704,21.8618 21.2184,21.4138 21.7704,21.4138 C22.3224,21.4138 22.7704,21.8618 22.7704,22.4138 L22.7704,38.3838 L49.1804,38.3838 C49.7324,38.3838 50.1804,38.8308 50.1804,39.3838 C50.1804,39.9368 49.7324,40.3838 49.1804,40.3838" id="Fill-22" fill="#201820" mask="url(#mask-9)"></path>
                    </g>
                </g>
            </g>
        </g>
    </g>
</svg>