<?xml version="1.0" encoding="UTF-8"?>
<svg width="86px" height="63px" viewBox="0 0 86 63" version="1.1" xmlns="http://www.w3.org/2000/svg" xmlns:xlink="http://www.w3.org/1999/xlink">
    <!-- Generator: Sketch 56.3 (81716) - https://sketch.com -->
    <title>icon-site-owners</title>
    <desc>Created with Sketch.</desc>
    <defs>
        <polygon id="path-1" points="0 64 86.2426538 64 86.2426538 0.824140351 0 0.824140351"></polygon>
        <path d="M0.90225,0.631913043 L3.819375,19.6695652 C3.819375,19.6695652 3.8205,19.6706957 3.8205,19.6706957 L3.8205,19.6706957 L7.788375,15.1297391 L14.398875,25.0266957 L17.875125,22.6833043 L11.1825,12.6631304 L16.99875,10.8883478 C16.99875,10.8883478 16.99875,10.8872174 16.99875,10.8872174 L16.99875,10.8872174 L0.90225,0.631913043 C0.90225,0.631913043 0.90225,0.631913043 0.90225,0.631913043" id="path-3"></path>
        <linearGradient x1="15.089614%" y1="50%" x2="85.9857537%" y2="50%" id="linearGradient-5">
            <stop stop-color="#F47D52" offset="0%"></stop>
            <stop stop-color="#F2AB1F" offset="100%"></stop>
        </linearGradient>
    </defs>
    <g id="Page-1" stroke="none" stroke-width="1" fill="none" fill-rule="evenodd">
        <g id="Assets-Playground" transform="translate(-908.000000, -1958.000000)">
            <g id="icon-site-owners" transform="translate(908.000000, 1957.000000)">
                <polygon id="Fill-1" fill="#FEFEFE" points="1 63 85 63 85 2 1 2"></polygon>
                <path d="M0,64 L86,64 L86,1 L0,1 L0,64 Z M2.22446393,61.7605972 L83.7744238,61.7605972 L83.7744238,3.23828312 L2.22446393,3.23828312 L2.22446393,61.7605972 Z" id="Fill-2" fill="#201820"></path>
                <polygon id="Fill-3" fill="#201820" points="1 11 85 11 85 9 1 9"></polygon>
                <g id="Group-19">
                    <path d="M6.13461538,5.69409123 C6.13461538,6.26223158 5.67730769,6.72370526 5.11180769,6.72370526 C4.54742308,6.72370526 4.09011538,6.26223158 4.09011538,5.69409123 C4.09011538,5.12595088 4.54742308,4.66447719 5.11180769,4.66447719 C5.67730769,4.66447719 6.13461538,5.12595088 6.13461538,5.69409123" id="Fill-4" fill="#201820"></path>
                    <path d="M9.48076923,5.69409123 C9.48076923,6.26223158 9.02346154,6.72370526 8.45796154,6.72370526 C7.89357692,6.72370526 7.43626923,6.26223158 7.43626923,5.69409123 C7.43626923,5.12595088 7.89357692,4.66447719 8.45796154,4.66447719 C9.02346154,4.66447719 9.48076923,5.12595088 9.48076923,5.69409123" id="Fill-6" fill="#201820"></path>
                    <path d="M12.8269231,5.69409123 C12.8269231,6.26223158 12.3696154,6.72370526 11.8041154,6.72370526 C11.2397308,6.72370526 10.7824231,6.26223158 10.7824231,5.69409123 C10.7824231,5.12595088 11.2397308,4.66447719 11.8041154,4.66447719 C12.3696154,4.66447719 12.8269231,5.12595088 12.8269231,5.69409123" id="Fill-8" fill="#201820"></path>
                    <mask id="mask-2" fill="white">
                        <use xlink:href="#path-1"></use>
                    </mask>
                    <g id="Clip-11"></g>
                    <path d="M10.5961538,31.2892632 L23.4041154,31.2892632 L23.4041154,18.3960702 L10.5961538,18.3960702 L10.5961538,31.2892632 Z M8.36538462,33.5348772 L25.6348846,33.5348772 L25.6348846,16.1504561 L8.36538462,16.1504561 L8.36538462,33.5348772 Z" id="Fill-10" fill="#201820" mask="url(#mask-2)"></path>
                    <polygon id="Fill-12" fill="#201820" mask="url(#mask-2)" points="34.0192308 18.3960702 63.3906538 18.3960702 63.3906538 16.1504561 34.0192308 16.1504561"></polygon>
                    <polygon id="Fill-13" fill="#201820" mask="url(#mask-2)" points="34.0192308 24.0101053 63.3906538 24.0101053 63.3906538 21.7644912 34.0192308 21.7644912"></polygon>
                    <polygon id="Fill-14" fill="#201820" mask="url(#mask-2)" points="34.0192308 29.6241404 52.5446538 29.6241404 52.5446538 27.3785263 34.0192308 27.3785263"></polygon>
                    <path d="M10.5961538,53.7454035 L23.4041154,53.7454035 L23.4041154,40.8522105 L10.5961538,40.8522105 L10.5961538,53.7454035 Z M8.36538462,55.9910175 L25.6348846,55.9910175 L25.6348846,38.6065965 L8.36538462,38.6065965 L8.36538462,55.9910175 Z" id="Fill-15" fill="#201820" mask="url(#mask-2)"></path>
                    <polygon id="Fill-16" fill="#201820" mask="url(#mask-2)" points="34.0192308 40.8522105 58.7439615 40.8522105 58.7439615 38.6065965 34.0192308 38.6065965"></polygon>
                    <polygon id="Fill-17" fill="#201820" mask="url(#mask-2)" points="34.0192308 46.4662456 58.7439615 46.4662456 58.7439615 44.2206316 34.0192308 44.2206316"></polygon>
                    <polygon id="Fill-18" fill="#201820" mask="url(#mask-2)" points="34.0192308 52.0802807 52.5446538 52.0802807 52.5446538 49.8346667 34.0192308 49.8346667"></polygon>
                </g>
                <g id="Group-22" transform="translate(64.000000, 30.000000)">
                    <mask id="mask-4" fill="white">
                        <use xlink:href="#path-3"></use>
                    </mask>
                    <g id="Clip-21"></g>
                    <path d="M0.90225,0.631913043 L3.819375,19.6695652 C3.819375,19.6695652 3.8205,19.6706957 3.8205,19.6706957 L3.8205,19.6706957 L7.788375,15.1297391 L14.398875,25.0266957 L17.875125,22.6833043 L11.1825,12.6631304 L16.99875,10.8883478 C16.99875,10.8883478 16.99875,10.8872174 16.99875,10.8872174 L16.99875,10.8872174 L0.90225,0.631913043 C0.90225,0.631913043 0.90225,0.631913043 0.90225,0.631913043" id="Fill-20" fill="url(#linearGradient-5)" mask="url(#mask-4)"></path>
                </g>
                <path d="M71.3858071,43.8021767 L78.0980066,53.8910051 L79.6849908,52.8165813 L72.8606252,42.5596991 L77.7204176,41.0707426 L65.9396413,33.5340909 L68.0852352,47.5945903 L71.3858071,43.8021767 Z M77.4905325,57 L71.1492587,47.4691101 L66.6148592,52.6798976 L63,29 L83,41.7944942 L76.376645,43.8245839 L82.7667833,53.4271767 L77.4905325,57 Z" id="Fill-23" fill="#201820"></path>
            </g>
        </g>
    </g>
</svg>