<?xml version="1.0" encoding="UTF-8"?>
<svg width="92px" height="91px" viewBox="0 0 92 91" version="1.1" xmlns="http://www.w3.org/2000/svg" xmlns:xlink="http://www.w3.org/1999/xlink">
    <!-- Generator: Sketch 56.3 (81716) - https://sketch.com -->
    <title>icon-optout</title>
    <desc>Created with Sketch.</desc>
    <defs>
        <path d="M0.138444444,6.98988889 C0.138444444,10.6897071 3.1369899,13.6882525 6.83815152,13.6882525 L6.83815152,13.6882525 C10.5379697,13.6882525 13.5365152,10.6897071 13.5365152,6.98988889 L13.5365152,6.98988889 C13.5365152,3.28872727 10.5379697,0.288838384 6.83815152,0.288838384 L6.83815152,0.288838384 C3.1369899,0.288838384 0.138444444,3.28872727 0.138444444,6.98988889" id="path-1"></path>
        <linearGradient x1="28.5654527%" y1="21.4865761%" x2="66.8228586%" y2="100%" id="linearGradient-3">
            <stop stop-color="#F16370" offset="0%"></stop>
            <stop stop-color="#EE629A" offset="100%"></stop>
        </linearGradient>
        <path d="M0.138444444,6.98988889 C0.138444444,10.6897071 3.1369899,13.6882525 6.83815152,13.6882525 L6.83815152,13.6882525 C10.5379697,13.6882525 13.5365152,10.6897071 13.5365152,6.98988889 L13.5365152,6.98988889 C13.5365152,3.28872727 10.5379697,0.288838384 6.83815152,0.288838384 L6.83815152,0.288838384 C3.1369899,0.288838384 0.138444444,3.28872727 0.138444444,6.98988889" id="path-4"></path>
        <filter x="-242.6%" y="-302.3%" width="734.4%" height="734.4%" filterUnits="objectBoundingBox" id="filter-5">
            <feOffset dx="10" dy="2" in="SourceAlpha" result="shadowOffsetOuter1"></feOffset>
            <feGaussianBlur stdDeviation="12.5" in="shadowOffsetOuter1" result="shadowBlurOuter1"></feGaussianBlur>
            <feColorMatrix values="0 0 0 0 0   0 0 0 0 0   0 0 0 0 0  0 0 0 0.147372159 0" type="matrix" in="shadowBlurOuter1"></feColorMatrix>
        </filter>
        <polygon id="path-6" points="0 91 91.8997167 91 91.8997167 0.107194915 0 0.107194915"></polygon>
    </defs>
    <g id="Page-1" stroke="none" stroke-width="1" fill="none" fill-rule="evenodd">
        <g id="Assets-Playground" transform="translate(-1253.000000, -1940.000000)">
            <g id="icon-optout" transform="translate(1253.000000, 1940.000000)">
                <g id="Group-3" transform="translate(39.000000, 39.000000)">
                    <mask id="mask-2" fill="white">
                        <use xlink:href="#path-1"></use>
                    </mask>
                    <g id="Clip-2"></g>
                    <g id="Fill-1" mask="url(#mask-2)">
                        <use fill="black" fill-opacity="1" filter="url(#filter-5)" xlink:href="#path-4"></use>
                        <use fill="url(#linearGradient-3)" fill-rule="evenodd" xlink:href="#path-4"></use>
                    </g>
                </g>
                <g id="Group-15">
                    <path d="M24.376267,45.3793633 C26.9487328,48.1049675 35.7436235,56.5466057 45.9473402,56.5466057 C56.1523822,56.5466057 64.9446223,48.1062786 67.5184134,45.3806743 C64.9446223,42.6550701 56.1523822,34.2134319 45.9473402,34.2134319 C35.7237436,34.2134319 26.9447568,42.6537591 24.376267,45.3793633 M45.9473402,59.1686396 C32.5813858,59.1686396 22.0211553,46.745443 21.5784951,46.2171031 L20.8760701,45.3806743 L21.5784951,44.5442455 C22.0211553,44.0159057 32.5813858,31.5913981 45.9473402,31.5913981 C59.3132946,31.5913981 69.8748504,44.0159057 70.3175107,44.5442455 L71.0186103,45.3806743 L70.3175107,46.2171031 C69.8748504,46.745443 59.3132946,59.1686396 45.9473402,59.1686396" id="Fill-4" fill="#201820"></path>
                    <path d="M45.9477378,40.1532564 C43.0346622,40.1532564 40.6636466,42.4986658 40.6636466,45.380281 C40.6636466,48.2632073 43.0346622,50.6073056 45.9477378,50.6073056 C48.8608134,50.6073056 51.2305037,48.2632073 51.2305037,45.380281 C51.2305037,42.4986658 48.8608134,40.1532564 45.9477378,40.1532564 M45.9477378,53.2293395 C41.5714977,53.2293395 38.0129863,49.707948 38.0129863,45.380281 C38.0129863,41.0526141 41.5714977,37.5312225 45.9477378,37.5312225 C50.3226526,37.5312225 53.881164,41.0526141 53.881164,45.380281 C53.881164,49.707948 50.3226526,53.2293395 45.9477378,53.2293395" id="Fill-6" fill="#201820"></path>
                    <path d="M45.9477378,10.8321002 C26.8497306,10.8321002 11.3128855,26.2011519 11.3128855,45.0929061 C11.3128855,63.9846603 26.8497306,79.353712 45.9477378,79.353712 C65.045745,79.353712 80.5825902,63.9846603 80.5825902,45.0929061 C80.5825902,26.2011519 65.045745,10.8321002 45.9477378,10.8321002 M45.9477378,81.9757459 C25.3878915,81.9757459 8.66222521,65.430712 8.66222521,45.0929061 C8.66222521,24.7551002 25.3878915,8.21006627 45.9477378,8.21006627 C66.5075842,8.21006627 83.2332504,24.7551002 83.2332504,45.0929061 C83.2332504,65.430712 66.5075842,81.9757459 45.9477378,81.9757459" id="Fill-8" fill="#201820"></path>
                    <mask id="mask-7" fill="white">
                        <use xlink:href="#path-6"></use>
                    </mask>
                    <g id="Clip-11"></g>
                    <polygon id="Fill-10" fill="#201820" mask="url(#mask-7)" points="44.6238655 91 47.2745258 91 47.2745258 80.6691864 44.6238655 80.6691864"></polygon>
                    <polygon id="Fill-12" fill="#201820" mask="url(#mask-7)" points="44.6238655 9.52029661 47.2745258 9.52029661 47.2745258 0.107194915 44.6238655 0.107194915"></polygon>
                    <polygon id="Fill-13" fill="#201820" mask="url(#mask-7)" points="0 47.1727034 10.0208211 47.1727034 10.0208211 44.5506695 0 44.5506695"></polygon>
                    <polygon id="Fill-14" fill="#201820" mask="url(#mask-7)" points="81.8788956 47.1727034 91.8997167 47.1727034 91.8997167 44.5506695 81.8788956 44.5506695"></polygon>
                </g>
            </g>
        </g>
    </g>
</svg>