<?xml version="1.0" encoding="UTF-8"?>
<svg width="71px" height="58px" viewBox="0 0 71 58" version="1.1" xmlns="http://www.w3.org/2000/svg" xmlns:xlink="http://www.w3.org/1999/xlink">
    <!-- Generator: Sketch 56.3 (81716) - https://sketch.com -->
    <title>icon-debt-managers</title>
    <desc>Created with Sketch.</desc>
    <defs>
        <polygon id="path-1" points="0.000236065574 0.736244898 70.8361967 0.736244898 70.8361967 58 0.000236065574 58"></polygon>
        <path d="M0.282333333,10.6401429 C0.282333333,16.5027143 4.8475,15.6842857 10.4801667,15.6842857 L10.4801667,15.6842857 C16.1128333,15.6842857 20.678,16.5027143 20.678,10.6401429 L20.678,10.6401429 C20.678,4.77878571 16.1128333,0.0260714286 10.4801667,0.0260714286 L10.4801667,0.0260714286 C4.8475,0.0260714286 0.282333333,4.77878571 0.282333333,10.6401429" id="path-3"></path>
        <linearGradient x1="15.089614%" y1="50%" x2="85.9857537%" y2="50%" id="linearGradient-5">
            <stop stop-color="#F47D52" offset="0%"></stop>
            <stop stop-color="#F2AB1F" offset="100%"></stop>
        </linearGradient>
        <path d="M0.0425454545,6.21281818 C0.0425454545,9.50890909 2.71463636,12.181 6.00954545,12.181 L6.00954545,12.181 C9.30681818,12.181 11.9777273,9.50890909 11.9777273,6.21281818 L11.9777273,6.21281818 C11.9777273,2.91790909 9.30681818,0.245818182 6.00954545,0.245818182 L6.00954545,0.245818182 C2.71463636,0.245818182 0.0425454545,2.91790909 0.0425454545,6.21281818" id="path-6"></path>
        <linearGradient x1="15.089614%" y1="50%" x2="85.9857537%" y2="50%" id="linearGradient-8">
            <stop stop-color="#F47D52" offset="0%"></stop>
            <stop stop-color="#F2AB1F" offset="100%"></stop>
        </linearGradient>
        <polygon id="path-9" points="0 58 70.8361967 58 70.8361967 0.736244898 0 0.736244898"></polygon>
    </defs>
    <g id="Page-1" stroke="none" stroke-width="1" fill="none" fill-rule="evenodd">
        <g id="Assets-Playground" transform="translate(-411.000000, -1981.000000)">
            <g id="icon-debt-managers" transform="translate(411.000000, 1981.000000)">
                <polyline id="Fill-1" fill="#FEFEFE" points="10.6640524 2 11.6837887 2 69 2 69 57 1 57 1 12.3600845 1 11.3674803"></polyline>
                <g id="Group-4">
                    <mask id="mask-2" fill="white">
                        <use xlink:href="#path-1"></use>
                    </mask>
                    <g id="Clip-3"></g>
                    <path d="M69.6561049,58 L1.18056393,58 C0.529022951,58 0.000236065574,57.470898 0.000236065574,56.8163265 L0.000236065574,11.2697551 C0.000236065574,10.6163673 0.529022951,10.0860816 1.18056393,10.0860816 C1.83210492,10.0860816 2.3608918,10.6163673 2.3608918,11.2697551 L2.3608918,55.6326531 L68.475777,55.6326531 L68.475777,3.10359184 L10.9111869,3.10359184 C10.2596459,3.10359184 9.73085902,2.5744898 9.73085902,1.91991837 C9.73085902,1.26534694 10.2596459,0.736244898 10.9111869,0.736244898 L69.6561049,0.736244898 C70.3076459,0.736244898 70.8364328,1.26534694 70.8364328,1.91991837 L70.8364328,56.8163265 C70.8364328,57.470898 70.3076459,58 69.6561049,58" id="Fill-2" fill="#201820" mask="url(#mask-2)"></path>
                </g>
                <g id="Group-7" transform="translate(11.000000, 31.000000)">
                    <mask id="mask-4" fill="white">
                        <use xlink:href="#path-3"></use>
                    </mask>
                    <g id="Clip-6"></g>
                    <path d="M10.4801667,15.6842857 C16.1128333,15.6842857 20.678,16.5027143 20.678,10.6401429 C20.678,4.77878571 16.1128333,0.0260714286 10.4801667,0.0260714286 C4.8475,0.0260714286 0.282333333,4.77878571 0.282333333,10.6401429 C0.282333333,16.5027143 4.8475,15.6842857 10.4801667,15.6842857 Z" id="Fill-5" fill="url(#linearGradient-5)" mask="url(#mask-4)"></path>
                </g>
                <path d="M21.5,45.5494188 C22.1469562,45.5494188 22.7797454,45.5602706 23.3936454,45.5699166 C26.2553639,45.6181468 28.7251309,45.6579367 29.8183451,44.5570823 C30.3708551,44.0024349 30.6388461,43.0824437 30.6388461,41.7464669 C30.6388461,36.5990981 26.539883,32.4115104 21.5,32.4115104 C16.460117,32.4115104 12.3611539,36.5990981 12.3611539,41.7464669 C12.3611539,43.0824437 12.6291449,44.0024349 13.1816549,44.5570823 C14.2748691,45.656731 16.7446361,45.6145296 19.6063546,45.5699166 C20.2202546,45.5602706 20.8530438,45.5494188 21.5,45.5494188 M25.0346474,47.9995133 C24.4904014,47.9995133 23.9308079,47.9898673 23.355867,47.981427 C22.152859,47.9621349 20.847141,47.9621349 19.644133,47.981427 C16.2558772,48.0368917 13.3245047,48.0851219 11.5253054,46.2764891 C10.499384,45.2443627 10,43.7636954 10,41.7464669 C10,35.2703559 15.1591212,30 21.5,30 C27.8408788,30 33,35.2703559 33,41.7464669 C33,43.7636954 32.500616,45.2443627 31.4746946,46.2764891 C29.9800842,47.7788601 27.7051124,47.9995133 25.0346474,47.9995133" id="Fill-8" fill="#201820"></path>
                <g id="Group-12" transform="translate(15.000000, 18.000000)">
                    <mask id="mask-7" fill="white">
                        <use xlink:href="#path-6"></use>
                    </mask>
                    <g id="Clip-11"></g>
                    <path d="M6.00954545,12.181 C9.30681818,12.181 11.9777273,9.50890909 11.9777273,6.21281818 C11.9777273,2.91790909 9.30681818,0.245818182 6.00954545,0.245818182 C2.71463636,0.245818182 0.0425454545,2.91790909 0.0425454545,6.21281818 C0.0425454545,9.50890909 2.71463636,12.181 6.00954545,12.181 Z" id="Fill-10" fill="url(#linearGradient-8)" mask="url(#mask-7)"></path>
                </g>
                <g id="Group-27">
                    <path d="M21.3472918,19.1849796 C18.7116197,19.1849796 16.5681443,21.3345306 16.5681443,23.9776735 C16.5681443,26.6208163 18.7116197,28.771551 21.3472918,28.771551 C23.9829639,28.771551 26.1276197,26.6208163 26.1276197,23.9776735 C26.1276197,21.3345306 23.9829639,19.1849796 21.3472918,19.1849796 M21.3472918,31.138898 C17.4108984,31.138898 14.2074885,27.9264082 14.2074885,23.9776735 C14.2074885,20.0301224 17.4108984,16.8176327 21.3472918,16.8176327 C25.2848656,16.8176327 28.4882754,20.0301224 28.4882754,23.9776735 C28.4882754,27.9264082 25.2848656,31.138898 21.3472918,31.138898" id="Fill-13" fill="#201820"></path>
                    <path d="M11.9450361,13.4470041 L1.18634754,13.4470041 C0.534806557,13.4470041 0.00601967213,12.917902 0.00601967213,12.2633306 C0.00601967213,11.6087592 0.534806557,11.0796571 1.18634754,11.0796571 L10.7647082,11.0796571 L10.7647082,1.92394286 C10.7647082,1.26937143 11.2934951,0.740269388 11.9450361,0.740269388 C12.596577,0.740269388 13.1253639,1.26937143 13.1253639,1.92394286 L13.1253639,12.2633306 C13.1253639,12.917902 12.596577,13.4470041 11.9450361,13.4470041" id="Fill-15" fill="#201820"></path>
                    <path d="M1.18611148,12.4494041 C0.876865574,12.4494041 0.5688,12.3274857 0.33627541,12.0872 C-0.115790164,11.6172816 -0.102806557,10.8668327 0.366963934,10.4134857 L10.0940459,1.0672 C10.5638164,0.616220408 11.3121443,0.63397551 11.7618492,1.10626122 C12.2127344,1.57973061 12.1950295,2.32899592 11.7228984,2.77997551 L2.00525902,12.1179755 C1.77627541,12.3393224 1.48119344,12.4494041 1.18611148,12.4494041" id="Fill-17" fill="#201820"></path>
                    <mask id="mask-10" fill="white">
                        <use xlink:href="#path-9"></use>
                    </mask>
                    <g id="Clip-20"></g>
                    <polygon id="Fill-19" fill="#201820" mask="url(#mask-10)" points="38.0820984 47.3220816 63.7601311 47.3220816 63.7601311 44.9547347 38.0820984 44.9547347"></polygon>
                    <polygon id="Fill-21" fill="#201820" mask="url(#mask-10)" points="42.7373115 46.1384082 45.0979672 46.1384082 45.0979672 37.7520816 42.7373115 37.7520816"></polygon>
                    <polygon id="Fill-22" fill="#201820" mask="url(#mask-10)" points="49.1559344 45.8981224 51.5165902 45.8981224 51.5165902 30.3470204 49.1559344 30.3470204"></polygon>
                    <polygon id="Fill-23" fill="#201820" mask="url(#mask-10)" points="54.9194754 45.8981224 57.2801311 45.8981224 57.2801311 33.3594694 54.9194754 33.3594694"></polygon>
                    <polygon id="Fill-24" fill="#201820" mask="url(#mask-10)" points="32.1556721 13.4465306 50.9205246 13.4465306 50.9205246 11.0791837 32.1556721 11.0791837"></polygon>
                    <polygon id="Fill-25" fill="#201820" mask="url(#mask-10)" points="54.3777049 13.4465306 62.218623 13.4465306 62.218623 11.0791837 54.3777049 11.0791837"></polygon>
                    <polygon id="Fill-26" fill="#201820" mask="url(#mask-10)" points="32.1556721 18.7292653 62.218623 18.7292653 62.218623 16.3619184 32.1556721 16.3619184"></polygon>
                </g>
            </g>
        </g>
    </g>
</svg>