<?xml version="1.0" encoding="UTF-8"?>
<svg width="104px" height="74px" viewBox="0 0 104 74" version="1.1" xmlns="http://www.w3.org/2000/svg" xmlns:xlink="http://www.w3.org/1999/xlink">
    <!-- Generator: Sketch 56.3 (81716) - https://sketch.com -->
    <title>icon-comparison-sites</title>
    <desc>Created with Sketch.</desc>
    <defs>
        <path d="M7.482,0.668444444 C5.91116667,0.943407407 4.88408333,2.28503704 5.143875,3.72266667 L5.143875,3.72266667 L8.01125,19.5294815 C7.398625,19.0814815 6.84520833,18.6536296 6.34495833,18.2672593 L6.34495833,18.2672593 C5.63808333,17.7185185 5.02666667,17.2456296 4.476875,16.8948148 L4.476875,16.8948148 C3.87875,16.5131852 3.364,16.2844444 2.90966667,16.1979259 L2.90966667,16.1979259 C2.72116667,16.16 2.555625,16.1434074 2.39733333,16.1434074 L2.39733333,16.1434074 C2.0445,16.1434074 1.71583333,16.2263704 1.35575,16.4088889 L1.35575,16.4088889 C0.921958333,16.6293333 0.561875,17.1863704 0.4785,17.7611852 L0.4785,17.7611852 C0.464,17.8595556 0.45675,17.9567407 0.455541667,18.0527407 L0.455541667,18.0527407 L0.455541667,18.1025185 C0.461583333,18.6275556 0.663375,19.1111111 1.040375,19.4915556 L1.040375,19.4915556 C2.03,20.4894815 3.05104167,21.6592593 4.13129167,22.898963 L4.13129167,22.898963 C5.60545833,24.5902222 7.12916667,26.3395556 8.758,27.8542222 L8.758,27.8542222 C11.8005833,30.6832593 14.452875,32 17.1075833,32 L17.1075833,32 C17.5534583,32 18.0041667,31.9620741 18.4464167,31.8838519 L18.4464167,31.8838519 L20.622625,31.5034074 C23.123875,31.0684444 25.28075,29.7765926 26.7029583,27.8696296 L26.7029583,27.8696296 C27.792875,26.4059259 28.3740833,24.6731852 28.401875,22.8657778 L28.401875,22.8657778 L28.401875,22.6014815 C28.3934167,22.1060741 28.3450833,21.6071111 28.2544583,21.1057778 L28.2544583,21.1057778 L26.3585833,10.6583704 C26.125375,9.37125926 25.1297083,8.43851852 23.99025,8.43851852 L23.99025,8.43851852 C23.8766667,8.43851852 23.7642917,8.448 23.6495,8.46696296 L23.6495,8.46696296 C22.8713333,8.60444444 22.2562917,9.18281481 21.9795833,9.94962963 L21.9795833,9.94962963 C21.7342917,8.69925926 20.706,7.79733333 19.5218333,7.79733333 L19.5218333,7.79733333 C19.3889167,7.79733333 19.256,7.80918519 19.1255,7.8317037 L19.1255,7.8317037 C18.2542917,7.98222222 17.5800417,8.5997037 17.2985,9.39140741 L17.2985,9.39140741 C17.0085,8.22637037 15.939125,7.42755556 14.63775,7.42755556 L14.63775,7.42755556 C14.4577083,7.42755556 14.2728333,7.44177778 14.0819167,7.47496296 L14.0819167,7.47496296 C13.039125,7.6562963 12.2331667,8.31288889 11.89725,9.152 L11.89725,9.152 L10.7348333,2.74725926 C10.5064583,1.49333333 9.396,0.619851852 8.03541667,0.619851852 L8.03541667,0.619851852 C7.85658333,0.619851852 7.67170833,0.635259259 7.482,0.668444444" id="path-1"></path>
        <linearGradient x1="77.9087672%" y1="24.6805765%" x2="89.656072%" y2="91.1942189%" id="linearGradient-3">
            <stop stop-color="#58CAEA" offset="0%"></stop>
            <stop stop-color="#A7D6A4" offset="100%"></stop>
        </linearGradient>
        <polygon id="path-4" points="0.450833118 0.631448276 30.407337 0.631448276 30.407337 35 0.450833118 35"></polygon>
    </defs>
    <g id="Page-1" stroke="none" stroke-width="1" fill="none" fill-rule="evenodd">
        <g id="Assets-Playground" transform="translate(-729.000000, -1957.000000)">
            <g id="icon-comparison-sites" transform="translate(729.000000, 1957.000000)">
                <polygon id="Fill-1" fill="#FEFEFE" points="35 57 60 57 60 2 35 2"></polygon>
                <g id="Group-22">
                    <path d="M36.1817692,55.5864898 L58.8356154,55.5864898 L58.8356154,2.93432653 L36.1817692,2.93432653 L36.1817692,55.5864898 Z M60.0279231,57.9538367 L34.9894615,57.9538367 C34.3301154,57.9538367 33.7971538,57.423551 33.7971538,56.7701633 L33.7971538,1.74946939 C33.7971538,1.09608163 34.3301154,0.565795918 34.9894615,0.565795918 L60.0279231,0.565795918 C60.6860769,0.565795918 61.2202308,1.09608163 61.2202308,1.74946939 L61.2202308,56.7701633 C61.2202308,57.423551 60.6860769,57.9538367 60.0279231,57.9538367 L60.0279231,57.9538367 Z" id="Fill-2" fill="#201820"></path>
                    <polygon id="Fill-4" fill="#FEFEFE" points="65.9894615 56.7701633 91.0279231 56.7701633 91.0279231 1.75065306 65.9894615 1.75065306"></polygon>
                    <path d="M67.1817692,55.5864898 L89.8356154,55.5864898 L89.8356154,2.93432653 L67.1817692,2.93432653 L67.1817692,55.5864898 Z M91.0279231,57.9538367 L65.9894615,57.9538367 C65.3301154,57.9538367 64.7971538,57.423551 64.7971538,56.7701633 L64.7971538,1.74946939 C64.7971538,1.09608163 65.3301154,0.565795918 65.9894615,0.565795918 L91.0279231,0.565795918 C91.6860769,0.565795918 92.2202308,1.09608163 92.2202308,1.74946939 L92.2202308,56.7701633 C92.2202308,57.423551 91.6860769,57.9538367 91.0279231,57.9538367 L91.0279231,57.9538367 Z" id="Fill-5" fill="#201820"></path>
                    <path d="M45.4758077,11.2815918 L49.1683846,11.2815918 L49.1683846,7.6157551 L45.4758077,7.6157551 L45.4758077,11.2815918 Z M50.3595,13.6489388 L44.2835,13.6489388 C43.6241538,13.6489388 43.0911923,13.1198367 43.0911923,12.4652653 L43.0911923,6.43208163 C43.0911923,5.77869388 43.6241538,5.24840816 44.2835,5.24840816 L50.3595,5.24840816 C51.0188462,5.24840816 51.5518077,5.77869388 51.5518077,6.43208163 L51.5518077,12.4652653 C51.5518077,13.1198367 51.0188462,13.6489388 50.3595,13.6489388 L50.3595,13.6489388 Z" id="Fill-6" fill="#201820"></path>
                    <path d="M76.4718731,10.6331755 L80.1716038,10.6331755 L78.3223346,8.28713469 L76.4718731,10.6331755 Z M82.6182192,13.0005224 L74.0240654,13.0005224 C73.5674115,13.0005224 73.1524885,12.7424816 72.9521808,12.3341143 C72.7530654,11.9281143 72.8043346,11.4439918 73.0857192,11.0877061 L77.3839885,5.6368898 C77.6093346,5.35044082 77.9551038,5.18354286 78.3223346,5.18354286 C78.6883731,5.18354286 79.0341423,5.35044082 79.2606808,5.6368898 L83.5565654,11.0877061 C83.8391423,11.4439918 83.8904115,11.9281143 83.6912962,12.335298 C83.4909885,12.7424816 83.0748731,13.0005224 82.6182192,13.0005224 L82.6182192,13.0005224 Z" id="Fill-7" fill="#201820"></path>
                    <path d="M44.9583462,26.3688122 C44.6531154,26.3688122 44.3478846,26.2528122 44.1153846,26.0219959 C43.6491923,25.5591796 43.6491923,24.811098 44.1153846,24.3482816 L48.5865385,19.9095061 C49.0527308,19.4466898 49.8062692,19.4466898 50.2724615,19.9095061 C50.7386538,20.3723224 50.7386538,21.1204041 50.2724615,21.5832204 L45.8013077,26.0219959 C45.5688077,26.2528122 45.2635769,26.3688122 44.9583462,26.3688122" id="Fill-8" fill="#201820"></path>
                    <path d="M49.4295,38.2055469 C49.1242692,38.2055469 48.8190385,38.0895469 48.5865385,37.8587306 L44.1153846,33.4199551 C43.6491923,32.9571388 43.6491923,32.2090571 44.1153846,31.7462408 C44.5815769,31.2834245 45.3351154,31.2834245 45.8013077,31.7462408 L50.2724615,36.1850163 C50.7386538,36.6478327 50.7386538,37.3959143 50.2724615,37.8587306 C50.0399615,38.0895469 49.7347308,38.2055469 49.4295,38.2055469" id="Fill-9" fill="#201820"></path>
                    <path d="M44.9583462,38.2055469 C44.6531154,38.2055469 44.3478846,38.0895469 44.1153846,37.8587306 C43.6491923,37.3959143 43.6491923,36.6478327 44.1153846,36.1850163 L48.5865385,31.7462408 C49.0527308,31.2834245 49.8062692,31.2834245 50.2724615,31.7462408 C50.7386538,32.2090571 50.7386538,32.9571388 50.2724615,33.4199551 L45.8013077,37.8587306 C45.5688077,38.0895469 45.2635769,38.2055469 44.9583462,38.2055469" id="Fill-10" fill="#201820"></path>
                    <path d="M49.4295,50.0422816 C49.1242692,50.0422816 48.8190385,49.9262816 48.5865385,49.6954653 L44.1153846,45.2566898 C43.6491923,44.7938735 43.6491923,44.0457918 44.1153846,43.5829755 C44.5815769,43.1201592 45.3351154,43.1201592 45.8013077,43.5829755 L50.2724615,48.021751 C50.7386538,48.4845673 50.7386538,49.232649 50.2724615,49.6954653 C50.0399615,49.9262816 49.7347308,50.0422816 49.4295,50.0422816" id="Fill-11" fill="#201820"></path>
                    <path d="M44.9583462,50.0422816 C44.6531154,50.0422816 44.3478846,49.9262816 44.1153846,49.6954653 C43.6491923,49.232649 43.6491923,48.4845673 44.1153846,48.021751 L48.5865385,43.5829755 C49.0527308,43.1201592 49.8062692,43.1201592 50.2724615,43.5829755 C50.7386538,44.0457918 50.7386538,44.7938735 50.2724615,45.2566898 L45.8013077,49.6954653 C45.5688077,49.9262816 45.2635769,50.0422816 44.9583462,50.0422816" id="Fill-12" fill="#201820"></path>
                    <path d="M75.9583462,26.3688122 C75.6531154,26.3688122 75.3478846,26.2528122 75.1153846,26.0219959 C74.6491923,25.5591796 74.6491923,24.811098 75.1153846,24.3482816 L79.5865385,19.9095061 C80.0527308,19.4466898 80.8062692,19.4466898 81.2724615,19.9095061 C81.7386538,20.3723224 81.7386538,21.1204041 81.2724615,21.5832204 L76.8013077,26.0219959 C76.5688077,26.2528122 76.2635769,26.3688122 75.9583462,26.3688122" id="Fill-13" fill="#201820"></path>
                    <path d="M75.9583462,38.2055469 C75.6531154,38.2055469 75.3478846,38.0895469 75.1153846,37.8587306 C74.6491923,37.3959143 74.6491923,36.6478327 75.1153846,36.1850163 L79.5865385,31.7462408 C80.0527308,31.2834245 80.8062692,31.2834245 81.2724615,31.7462408 C81.7386538,32.2090571 81.7386538,32.9571388 81.2724615,33.4199551 L76.8013077,37.8587306 C76.5688077,38.0895469 76.2635769,38.2055469 75.9583462,38.2055469" id="Fill-14" fill="#201820"></path>
                    <path d="M75.9583462,50.0422816 C75.6531154,50.0422816 75.3478846,49.9262816 75.1153846,49.6954653 C74.6491923,49.232649 74.6491923,48.4845673 75.1153846,48.021751 L79.5865385,43.5829755 C80.0527308,43.1201592 80.8062692,43.1201592 81.2724615,43.5829755 C81.7386538,44.0457918 81.7386538,44.7938735 81.2724615,45.2566898 L76.8013077,49.6954653 C76.5688077,49.9262816 76.2635769,50.0422816 75.9583462,50.0422816" id="Fill-15" fill="#201820"></path>
                    <polygon id="Fill-16" fill="#201820" points="0 24.1493061 14.9896923 24.1493061 14.9896923 21.7819592 0 21.7819592"></polygon>
                    <polygon id="Fill-17" fill="#201820" points="17.7522692 24.1493061 24.0166538 24.1493061 24.0166538 21.7819592 17.7522692 21.7819592"></polygon>
                    <polygon id="Fill-18" fill="#201820" points="0 35.9860408 14.9896923 35.9860408 14.9896923 33.6186939 0 33.6186939"></polygon>
                    <polygon id="Fill-19" fill="#201820" points="17.7522692 35.9860408 24.0166538 35.9860408 24.0166538 33.6186939 17.7522692 33.6186939"></polygon>
                    <polygon id="Fill-20" fill="#201820" points="0 47.8227755 14.9896923 47.8227755 14.9896923 45.4554286 0 45.4554286"></polygon>
                    <polygon id="Fill-21" fill="#201820" points="17.7522692 47.8227755 24.0166538 47.8227755 24.0166538 45.4554286 17.7522692 45.4554286"></polygon>
                </g>
                <g id="Group-25" transform="translate(74.000000, 40.000000)">
                    <mask id="mask-2" fill="white">
                        <use xlink:href="#path-1"></use>
                    </mask>
                    <g id="Clip-24"></g>
                    <path d="M7.482,0.668444444 C5.91116667,0.943407407 4.88408333,2.28503704 5.143875,3.72266667 L5.143875,3.72266667 L8.01125,19.5294815 C7.398625,19.0814815 6.84520833,18.6536296 6.34495833,18.2672593 L6.34495833,18.2672593 C5.63808333,17.7185185 5.02666667,17.2456296 4.476875,16.8948148 L4.476875,16.8948148 C3.87875,16.5131852 3.364,16.2844444 2.90966667,16.1979259 L2.90966667,16.1979259 C2.72116667,16.16 2.555625,16.1434074 2.39733333,16.1434074 L2.39733333,16.1434074 C2.0445,16.1434074 1.71583333,16.2263704 1.35575,16.4088889 L1.35575,16.4088889 C0.921958333,16.6293333 0.561875,17.1863704 0.4785,17.7611852 L0.4785,17.7611852 C0.464,17.8595556 0.45675,17.9567407 0.455541667,18.0527407 L0.455541667,18.0527407 L0.455541667,18.1025185 C0.461583333,18.6275556 0.663375,19.1111111 1.040375,19.4915556 L1.040375,19.4915556 C2.03,20.4894815 3.05104167,21.6592593 4.13129167,22.898963 L4.13129167,22.898963 C5.60545833,24.5902222 7.12916667,26.3395556 8.758,27.8542222 L8.758,27.8542222 C11.8005833,30.6832593 14.452875,32 17.1075833,32 L17.1075833,32 C17.5534583,32 18.0041667,31.9620741 18.4464167,31.8838519 L18.4464167,31.8838519 L20.622625,31.5034074 C23.123875,31.0684444 25.28075,29.7765926 26.7029583,27.8696296 L26.7029583,27.8696296 C27.792875,26.4059259 28.3740833,24.6731852 28.401875,22.8657778 L28.401875,22.8657778 L28.401875,22.6014815 C28.3934167,22.1060741 28.3450833,21.6071111 28.2544583,21.1057778 L28.2544583,21.1057778 L26.3585833,10.6583704 C26.125375,9.37125926 25.1297083,8.43851852 23.99025,8.43851852 L23.99025,8.43851852 C23.8766667,8.43851852 23.7642917,8.448 23.6495,8.46696296 L23.6495,8.46696296 C22.8713333,8.60444444 22.2562917,9.18281481 21.9795833,9.94962963 L21.9795833,9.94962963 C21.7342917,8.69925926 20.706,7.79733333 19.5218333,7.79733333 L19.5218333,7.79733333 C19.3889167,7.79733333 19.256,7.80918519 19.1255,7.8317037 L19.1255,7.8317037 C18.2542917,7.98222222 17.5800417,8.5997037 17.2985,9.39140741 L17.2985,9.39140741 C17.0085,8.22637037 15.939125,7.42755556 14.63775,7.42755556 L14.63775,7.42755556 C14.4577083,7.42755556 14.2728333,7.44177778 14.0819167,7.47496296 L14.0819167,7.47496296 C13.039125,7.6562963 12.2331667,8.31288889 11.89725,9.152 L11.89725,9.152 L10.7348333,2.74725926 C10.5064583,1.49333333 9.396,0.619851852 8.03541667,0.619851852 L8.03541667,0.619851852 C7.85658333,0.619851852 7.67170833,0.635259259 7.482,0.668444444" id="Fill-23" fill="url(#linearGradient-3)" mask="url(#mask-2)"></path>
                </g>
                <g id="Group-28" transform="translate(73.000000, 39.000000)">
                    <mask id="mask-5" fill="white">
                        <use xlink:href="#path-4"></use>
                    </mask>
                    <g id="Clip-27"></g>
                    <path d="M9.12163077,0.631448276 C8.87124615,0.631448276 8.61609231,0.655586207 8.36570769,0.700241379 C7.33913077,0.884896552 6.43655385,1.428 5.8249,2.22937931 C5.17747692,3.08024138 4.9104,4.16644828 5.09401538,5.2092069 L7.38086154,18.2171379 C6.98501538,17.9081724 6.61420769,17.6342069 6.2589,17.3988621 C5.54232308,16.9281724 4.89966923,16.6397241 4.29516923,16.5166207 C4.03166923,16.4635172 3.79201538,16.4393793 3.55713077,16.4393793 C3.01820769,16.4393793 2.50313077,16.570931 1.98566923,16.8424828 C1.21424615,17.2455862 0.625246154,18.1398966 0.485746154,19.1198966 C0.339092308,20.153 0.658630769,21.1655862 1.36566923,21.8993793 C2.31593846,22.8854138 3.31032308,24.0645517 4.36432308,25.3112759 C5.83801538,27.0576552 7.36178462,28.8619655 9.01432308,30.4466207 C11.0507846,32.4017931 14.2044385,35.0002414 18.0734769,35.0002414 C18.5837846,35.0002414 19.0976692,34.9531724 19.6020154,34.8626552 L21.7505538,34.4764483 C27.5129769,33.4385172 31.2449,28.1716207 30.2457462,22.4871379 L28.3750154,11.8483448 C28.0435538,9.96196552 26.5686692,8.59334483 24.8660538,8.59334483 C24.6836308,8.59334483 24.5000154,8.60903448 24.3211692,8.64162069 C23.8704769,8.72248276 23.4555538,8.89868966 23.0919,9.14972414 C22.4182462,8.39903448 21.4775154,7.94041379 20.4545154,7.94041379 C20.2530154,7.94041379 20.0515154,7.95731034 19.8535923,7.99351724 C19.2955923,8.09368966 18.7912462,8.323 18.3655923,8.65248276 C17.6585538,7.973 16.6915923,7.56144828 15.6364,7.56144828 C15.3848231,7.56144828 15.1296692,7.58558621 14.8780923,7.63024138 C14.4584,7.70506897 14.0637462,7.84386207 13.7036692,8.03093103 L12.9584769,3.79351724 C12.6365538,1.96144828 11.0233615,0.631448276 9.12163077,0.631448276 M9.12163077,3.04524138 C9.89186154,3.04524138 10.4915923,3.53886207 10.6108231,4.21593103 L12.7939385,16.6397241 C12.8738231,17.1393793 13.3018615,17.493 13.7847462,17.493 C13.8384,17.493 13.8932462,17.4893793 13.9480923,17.4797241 C14.4965538,17.3892069 14.8673615,16.8654138 14.7779385,16.3114483 C14.7767462,16.3017931 14.7743615,16.2933448 14.7731692,16.2836897 L13.9564385,11.635931 C13.9576308,11.6093793 13.9588231,11.5816207 13.9576308,11.555069 C13.9159,10.8526552 14.4309769,10.1623103 15.2965923,10.0078276 C15.4122462,9.98610345 15.5255154,9.97524138 15.6364,9.97524138 C16.4042462,9.97524138 17.0027846,10.4652414 17.1232077,11.1471379 L17.9840538,15.9469655 C18.0639385,16.4466207 18.4895923,16.8002414 18.9736692,16.8002414 C19.0273231,16.8002414 19.0821692,16.7966207 19.1358231,16.7881724 C19.6842846,16.6976552 20.0562846,16.1738621 19.9668615,15.6198966 C19.9656692,15.6102414 19.9632846,15.6005862 19.9620923,15.5921379 L19.2908231,11.870069 C19.2908231,11.8652414 19.2896308,11.8604138 19.2884385,11.8543793 C19.2991692,11.8048966 19.3063231,11.7554138 19.3110923,11.7047241 C19.3158615,10.9902414 19.7260154,10.4676552 20.2720923,10.3698966 C20.3317077,10.3590345 20.3937077,10.3542069 20.4545154,10.3542069 C21.0208615,10.3542069 21.5788615,10.8188621 21.7159769,11.5948966 L22.3538615,15.2252414 C22.4337462,15.7236897 22.8594,16.0785172 23.3434769,16.0785172 C23.3983231,16.0785172 23.4519769,16.0736897 23.5068231,16.0652414 C24.0540923,15.9747241 24.4260923,15.450931 24.3366692,14.8969655 C24.3354769,14.8885172 24.3342846,14.8788621 24.3319,14.8692069 L23.9110154,12.4747241 C23.9169769,12.4312759 23.9193615,12.3878276 23.9193615,12.3431724 C23.9014769,11.5876552 24.2985154,11.0976552 24.7396692,11.0167931 C24.7814,11.0107586 24.8231308,11.0071379 24.8660538,11.0071379 C25.3382077,11.0071379 25.8842846,11.4524828 26.0285538,12.2719655 L27.8980923,22.9107586 C28.6814385,27.3666207 25.7817462,31.2986897 21.3320538,32.0988621 L19.1835154,32.4874828 C18.8103231,32.5538621 18.4395154,32.5864483 18.0734769,32.5864483 C15.4885538,32.5864483 13.0431308,30.9873103 10.6549385,28.6954138 C7.92813077,26.0776552 5.4219,22.6561034 3.07305385,20.2145517 C2.87036154,20.0033448 2.80716923,19.7366207 2.84532308,19.4638621 C2.88466923,19.1923103 3.05397692,19.0004138 3.0814,18.985931 C3.26382308,18.8905862 3.40451538,18.8531724 3.55713077,18.8531724 C3.64059231,18.8531724 3.72882308,18.8640345 3.82897692,18.8845517 C4.10797692,18.9412759 4.48832308,19.1126552 4.95928462,19.4228276 C5.90001538,20.0419655 7.13643846,21.1486897 8.77466923,22.3519655 C8.95232308,22.4811034 9.15859231,22.5438621 9.36247692,22.5438621 C9.67486154,22.5438621 9.98247692,22.3978276 10.1780154,22.1238621 C10.3365923,21.9017931 10.3985923,21.6266207 10.3544769,21.3574828 L7.44166923,4.7867931 C7.30693846,4.01437931 7.8554,3.24317241 8.78420769,3.07541379 C8.89866923,3.05610345 9.01193846,3.04524138 9.12163077,3.04524138" id="Fill-26" fill="#201820" mask="url(#mask-5)"></path>
                </g>
            </g>
        </g>
    </g>
</svg>