<?xml version="1.0" encoding="UTF-8"?>
<svg width="70px" height="73px" viewBox="0 0 70 73" version="1.1" xmlns="http://www.w3.org/2000/svg" xmlns:xlink="http://www.w3.org/1999/xlink">
    <!-- Generator: Sketch 56.3 (81716) - https://sketch.com -->
    <title>icon-email-creatives</title>
    <desc>Created with Sketch.</desc>
    <defs>
        <polygon id="path-1" points="0.423259649 0.220633786 57.0986982 0.220633786 57.0986982 34.9109962 0.423259649 34.9109962"></polygon>
        <polygon id="path-3" points="0.338329105 0.574151758 9.4139069 0.574151758 9.4139069 11.6045893 0.338329105 11.6045893"></polygon>
        <polygon id="path-5" points="0.00472156491 0.385661068 69.9063509 0.385661068 69.9063509 26.2243823 0.00472156491 26.2243823"></polygon>
        <polygon id="path-7" points="0.122436734 0.27579107 25.0642456 0.27579107 25.0642456 29.2145225 0.122436734 29.2145225"></polygon>
        <polygon id="path-9" points="0.282813115 0.353142857 0.282813115 7.97371429 42.4455719 7.97371429 42.5879251 7.97371429 42.5879251 0.353142857"></polygon>
        <linearGradient x1="12.0924169%" y1="50%" x2="86.2828275%" y2="50.3370629%" id="linearGradient-11">
            <stop stop-color="#5CB0E2" offset="0%"></stop>
            <stop stop-color="#6F4FA0" offset="100%"></stop>
        </linearGradient>
        <polygon id="path-12" points="0.282813115 0.353142857 0.282813115 7.97371429 42.4455719 7.97371429 42.5879251 7.97371429 42.5879251 0.353142857"></polygon>
        <filter x="-122.9%" y="-656.1%" width="345.8%" height="1464.7%" filterUnits="objectBoundingBox" id="filter-13">
            <feOffset dx="0" dy="2" in="SourceAlpha" result="shadowOffsetOuter1"></feOffset>
            <feGaussianBlur stdDeviation="17" in="shadowOffsetOuter1" result="shadowBlurOuter1"></feGaussianBlur>
            <feColorMatrix values="0 0 0 0 0   0 0 0 0 0   0 0 0 0 0  0 0 0 0.4 0" type="matrix" in="shadowBlurOuter1"></feColorMatrix>
        </filter>
    </defs>
    <g id="Page-1" stroke="none" stroke-width="1" fill="none" fill-rule="evenodd">
        <g id="Assets-Playground" transform="translate(-416.000000, -2114.000000)">
            <g id="icon-email-creatives" transform="translate(416.000000, 2114.000000)">
                <g id="Group-21">
                    <path d="M68.6583702,72.2932155 L1.2457386,72.2932155 C0.556914035,72.2932155 0.000124561404,71.7360217 0.000124561404,71.0466969 L0.000124561404,29.0527329 C0.000124561404,28.3634081 0.556914035,27.8062143 1.2457386,27.8062143 C1.93456316,27.8062143 2.49135263,28.3634081 2.49135263,29.0527329 L2.49135263,69.8001784 L67.4127561,69.8001784 L67.4127561,29.0527329 C67.4127561,28.3634081 67.9695456,27.8062143 68.6583702,27.8062143 C69.3471947,27.8062143 69.9039842,28.3634081 69.9039842,29.0527329 L69.9039842,71.0466969 C69.9039842,71.7360217 69.3471947,72.2932155 68.6583702,72.2932155" id="Fill-1" fill="#201820"></path>
                    <g id="Group-5" transform="translate(6.228070, 0.000000)">
                        <mask id="mask-2" fill="white">
                            <use xlink:href="#path-1"></use>
                        </mask>
                        <g id="Clip-4"></g>
                        <path d="M1.66887368,34.9109962 C0.980049123,34.9109962 0.423259649,34.3538024 0.423259649,33.6644777 L0.423259649,1.46690305 C0.423259649,0.777578282 0.980049123,0.220384483 1.66887368,0.220384483 L55.8530842,0.220384483 C56.5419088,0.220384483 57.0986982,0.777578282 57.0986982,1.46690305 L57.0986982,33.6009052 C57.0986982,34.29023 56.5419088,34.8474238 55.8530842,34.8474238 C55.1642596,34.8474238 54.6074702,34.29023 54.6074702,33.6009052 L54.6074702,2.71342162 L2.91448772,2.71342162 L2.91448772,33.6644777 C2.91448772,34.3538024 2.35769825,34.9109962 1.66887368,34.9109962" id="Fill-3" fill="#201820" mask="url(#mask-2)"></path>
                    </g>
                    <path d="M1.24922632,30.3023678 C0.981419298,30.3023678 0.712366667,30.2176045 0.485664912,30.0393524 C-0.057422807,29.6167826 -0.154580702,28.8327224 0.267682456,28.2904868 L6.91054211,19.7518346 C7.33280526,19.209599 8.11505088,19.1098776 8.6581386,19.5336939 C9.20122632,19.9562637 9.29838421,20.7403238 8.87612105,21.2838059 L2.2332614,29.8212116 C1.98787544,30.1365808 1.6204193,30.3023678 1.24922632,30.3023678" id="Fill-6" fill="#201820"></path>
                    <g id="Group-10" transform="translate(60.492444, 18.697779)">
                        <mask id="mask-4" fill="white">
                            <use xlink:href="#path-3"></use>
                        </mask>
                        <g id="Clip-9"></g>
                        <path d="M8.16953847,11.6045893 C7.79585426,11.6045893 7.42715251,11.4375558 7.18176655,11.1196935 L0.597450756,2.58228786 C0.177678826,2.03631273 0.278573563,1.25349907 0.822906896,0.832175796 C1.36973146,0.413345557 2.14948584,0.51556008 2.57050339,1.05779566 L9.15481918,9.59644784 C9.57459111,10.1411765 9.47369637,10.9239901 8.92936304,11.3453134 C8.70266128,11.519826 8.43485426,11.6045893 8.16953847,11.6045893" id="Fill-8" fill="#201820" mask="url(#mask-4)"></path>
                    </g>
                    <g id="Group-13" transform="translate(0.000000, 27.423408)">
                        <mask id="mask-6" fill="white">
                            <use xlink:href="#path-5"></use>
                        </mask>
                        <g id="Clip-12"></g>
                        <path d="M34.9550439,26.2243823 C34.7071667,26.2243823 34.4605351,26.1495912 34.2462895,26.002502 L0.541219298,2.65770224 C-0.0242894737,2.26504889 -0.16504386,1.48846782 0.226078947,0.922548392 C0.618447368,0.356628962 1.3932193,0.215772364 1.95997368,0.607179194 L34.9550439,23.4620971 L67.9513596,0.607179194 C68.5168684,0.215772364 69.2916404,0.356628962 69.6852544,0.922548392 C70.0763772,1.48846782 69.9356228,2.26504889 69.370114,2.65770224 L35.6637982,26.002502 C35.4495526,26.1495912 35.2029211,26.2243823 34.9550439,26.2243823" id="Fill-11" fill="#201820" mask="url(#mask-6)"></path>
                    </g>
                    <path d="M1.25047193,72.2980769 C0.937822807,72.2980769 0.62392807,72.1809042 0.382278947,71.9453122 C-0.110984211,71.4654025 -0.122194737,70.6763563 0.357366667,70.1827349 L24.7402614,45.0753579 C25.2185772,44.5842296 26.0095421,44.5705179 26.5015596,45.0516741 C26.9948228,45.5303372 27.0060333,46.3193835 26.5264719,46.8142513 L2.14357719,71.9203818 C1.89943684,72.170932 1.57557719,72.2980769 1.25047193,72.2980769" id="Fill-14" fill="#201820"></path>
                    <g id="Group-18" transform="translate(44.842105, 43.083554)">
                        <mask id="mask-8" fill="white">
                            <use xlink:href="#path-7"></use>
                        </mask>
                        <g id="Clip-17"></g>
                        <path d="M23.8187561,29.2145225 C23.4662474,29.2145225 23.1162298,29.0649403 22.8695982,28.7745015 L0.419896491,2.32961008 C-0.0272789474,1.80482576 0.0374929825,1.01827255 0.561896491,0.572018899 C1.08879123,0.125765252 1.87477368,0.191830736 2.31696667,0.715368534 L24.767914,27.1615065 C25.2138439,27.6850443 25.1490719,28.4715975 24.6246684,28.9178511 C24.390493,29.1172941 24.1040018,29.2145225 23.8187561,29.2145225" id="Fill-16" fill="#201820" mask="url(#mask-8)"></path>
                    </g>
                    <path d="M36.3964684,29.5208006 C36.1984158,29.4709399 35.9517842,29.4210791 35.6291702,29.4210791 C33.9924333,29.4210791 32.7044684,31.0340742 32.7044684,32.9424941 C32.7044684,33.8861087 33.125486,34.480698 33.9426088,34.480698 C34.8606263,34.480698 35.8272228,33.3152031 36.0501877,31.8767207 L36.3964684,29.5208006 Z M38.6024509,39.7646902 C37.1151877,40.4340707 35.8272228,40.6571975 34.0671702,40.6571975 C29.952907,40.6571975 26.3343982,37.704195 26.3343982,32.8440191 C26.3343982,27.7831537 30.0027316,23.3941619 35.6030123,23.3941619 C39.9651526,23.3941619 43.0891526,26.3945321 43.0891526,30.5616436 C43.0891526,34.1827801 41.0563105,36.4651556 38.379486,36.4651556 C37.2148368,36.4651556 36.3715561,35.8705662 36.2482404,34.5554891 L36.1984158,34.5554891 C35.4311175,35.8207055 34.3150474,36.4651556 33.0009246,36.4651556 C31.3903456,36.4651556 30.2256965,35.2747303 30.2256965,33.240412 C30.2256965,30.2151115 32.4565912,27.4627985 36.0252754,27.4627985 C37.1151877,27.4627985 38.3545737,27.7345395 38.9736439,28.0823182 L38.2312579,32.6695065 C37.9821351,34.1329193 38.1565211,34.8022998 38.8503281,34.8284767 C39.9165737,34.8521605 41.2543632,33.4897157 41.2543632,30.6376813 C41.2543632,27.4129377 39.1729421,24.9074354 35.3314684,24.9074354 C31.5398193,24.9074354 28.2190123,27.8841218 28.2190123,32.6208923 C28.2190123,36.7630735 30.8696789,39.1189936 34.5629246,39.1189936 C35.8272228,39.1189936 37.1650123,38.846006 38.1565211,38.3249613 L38.6024509,39.7646902 Z" id="Fill-19" fill="#231F20"></path>
                </g>
                <g id="Group-24" transform="translate(13.000000, 7.000000)">
                    <mask id="mask-10" fill="white">
                        <use xlink:href="#path-9"></use>
                    </mask>
                    <g id="Clip-23"></g>
                    <g id="Fill-22" mask="url(#mask-10)">
                        <use fill="black" fill-opacity="1" filter="url(#filter-13)" xlink:href="#path-12"></use>
                        <use fill="url(#linearGradient-11)" fill-rule="evenodd" xlink:href="#path-12"></use>
                    </g>
                </g>
                <path d="M14.5084311,13.4616361 L54.4915689,13.4616361 L54.4915689,7.53836391 L14.5084311,7.53836391 L14.5084311,13.4616361 Z M12,16 L57,16 L57,5 L12,5 L12,16 Z" id="Fill-25" fill="#201820"></path>
            </g>
        </g>
    </g>
</svg>