<?xml version="1.0" encoding="UTF-8"?>
<svg width="39px" height="37px" viewBox="0 0 39 37" version="1.1" xmlns="http://www.w3.org/2000/svg" xmlns:xlink="http://www.w3.org/1999/xlink">
    <!-- Generator: sketchtool 57.1 (101010) - https://sketch.com -->
    <title>844B9347-5480-4375-B49F-5987F9248955</title>
    <desc>Created with sketchtool.</desc>
    <defs>
        <polygon id="path-1" points="0.0599777651 0.0472348044 9.621 0.0472348044 9.621 25.9238 0.0599777651 25.9238"></polygon>
        <polygon id="path-3" points="0 0.2277 7.63308822 0.2277 7.63308822 4.2227 0 4.2227"></polygon>
        <polygon id="path-5" points="0.835039145 0.2277 27.621 0.2277 27.621 7.3457 0.835039145 7.3457"></polygon>
        <polygon id="path-7" points="0.813967912 0.841 27.4725367 0.841 27.4725367 37 0.813967912 37"></polygon>
    </defs>
    <g id="Page-1" stroke="none" stroke-width="1" fill="none" fill-rule="evenodd">
        <g id="Homepage" transform="translate(-317.000000, -553.000000)">
            <g id="Group-6" transform="translate(306.000000, 403.000000)">
                <g id="icon-no-credit-check" transform="translate(11.000000, 149.000000)">
                    <path d="M1,28.753 C0.447,28.753 0,28.306 0,27.753 L0,6.918 C0,6.365 0.447,5.918 1,5.918 C4.393,5.918 6.158,7.272 7.717,8.466 C9.211,9.612 10.501,10.602 13.216,10.602 C15.932,10.602 17.221,9.612 18.713,8.468 C19.709,7.703 20.738,6.913 22.207,6.418 C22.729,6.24 23.297,6.522 23.475,7.046 C23.65,7.568 23.37,8.136 22.847,8.313 C21.692,8.702 20.836,9.359 19.93,10.055 C18.374,11.248 16.609,12.602 13.216,12.602 C9.822,12.602 8.057,11.248 6.5,10.054 C5.201,9.058 4.057,8.181 2,7.968 L2,27.753 C2,28.306 1.553,28.753 1,28.753" id="Fill-1" fill="#FFFFFE"></path>
                    <g id="Group-5" transform="translate(29.000000, 7.159200)">
                        <mask id="mask-2" fill="white">
                            <use xlink:href="#path-1"></use>
                        </mask>
                        <g id="Clip-4"></g>
                        <path d="M8.6211,25.9238 C8.0681,25.9238 7.6211,25.4768 7.6211,24.9238 L7.6211,5.4008 C4.8711,5.1638 3.3071,3.9638 1.9101,2.8918 C1.4431,2.5338 1.0031,2.1948 0.5251,1.8928 C0.0581,1.5968 -0.0799,0.9798 0.2151,0.5128 C0.5121,0.0458 1.1291,-0.0932 1.5961,0.2028 C2.1491,0.5548 2.6461,0.9368 3.1291,1.3058 C4.6221,2.4518 5.9121,3.4428 8.6211,3.4428 C9.1731,3.4428 9.6211,3.8898 9.6211,4.4428 L9.6211,24.9238 C9.6211,25.4768 9.1731,25.9238 8.6211,25.9238" id="Fill-3" fill="#FFFFFE" mask="url(#mask-2)"></path>
                    </g>
                    <g id="Group-8" transform="translate(0.000000, 26.159200)">
                        <mask id="mask-4" fill="white">
                            <use xlink:href="#path-3"></use>
                        </mask>
                        <g id="Clip-7"></g>
                        <path d="M6.6318,4.2227 C6.4238,4.2227 6.2148,4.1587 6.0348,4.0237 C5.2838,3.4647 4.4608,2.8907 3.3948,2.5637 C2.7928,2.3687 2.1288,2.2637 1.3498,2.2407 C1.1878,2.2257 1.0988,2.2277 0.9998,2.2277 C0.4468,2.2277 -0.0002,1.7807 -0.0002,1.2277 C-0.0002,0.6747 0.4468,0.2277 0.9998,0.2277 C1.1728,0.2277 1.3278,0.2297 1.4838,0.2447 C2.3828,0.2707 3.2288,0.4067 3.9968,0.6567 C5.3538,1.0727 6.3768,1.7847 7.2308,2.4197 C7.6728,2.7497 7.7648,3.3767 7.4358,3.8207 C7.2378,4.0837 6.9378,4.2227 6.6318,4.2227" id="Fill-6" fill="#FFFFFE" mask="url(#mask-4)"></path>
                    </g>
                    <g id="Group-11" transform="translate(11.000000, 26.159200)">
                        <mask id="mask-6" fill="white">
                            <use xlink:href="#path-5"></use>
                        </mask>
                        <g id="Clip-10"></g>
                        <path d="M26.6211,7.3457 C26.2711,7.3457 25.9651,7.1657 25.7851,6.8947 C22.9331,6.6937 21.3391,5.4647 19.9161,4.3707 C18.4241,3.2207 17.1331,2.2277 14.4181,2.2277 C11.6941,2.2277 10.4041,3.2267 8.9111,4.3847 L8.7041,4.5447 C7.0641,5.7987 5.3381,6.9237 2.2161,6.9237 C2.0371,6.9237 1.8771,6.9217 1.7171,6.9027 C1.1681,6.8377 0.7771,6.3397 0.8421,5.7907 C0.9081,5.2417 1.4141,4.8497 1.9541,4.9157 C2.0391,4.9257 2.1231,4.9237 2.2161,4.9237 C4.7191,4.9237 6.0311,4.0727 7.4851,2.9577 L7.6861,2.8027 C9.2441,1.5957 11.0101,0.2277 14.4181,0.2277 C17.8141,0.2277 19.5791,1.5857 21.1371,2.7847 C22.6271,3.9337 23.9151,4.9237 26.6211,4.9237 C27.1731,4.9237 27.6211,5.3707 27.6211,5.9237 L27.6211,6.3457 C27.6211,6.8987 27.1731,7.3457 26.6211,7.3457" id="Fill-9" fill="#FFFFFE" mask="url(#mask-6)"></path>
                    </g>
                    <path d="M24.3232,22.3574 L24.3232,21.2094 C25.0742,20.8974 25.9102,20.0894 25.9102,19.1264 C25.9102,18.9264 25.8962,18.7564 25.8682,18.5584 L24.4782,18.5584 L24.4782,17.0984 L25.6122,17.0984 C25.5422,16.7444 25.4992,16.3334 25.4992,15.9504 C25.4992,14.1644 26.8032,12.9874 28.7032,12.9874 C29.4822,12.9874 30.0632,13.1584 30.3762,13.3284 L30.0212,14.9584 C29.7522,14.8014 29.3552,14.7034 28.8312,14.7034 C27.8242,14.7034 27.5122,15.3554 27.5122,16.0354 C27.5122,16.4044 27.5542,16.7444 27.6392,17.0984 L29.5822,17.0984 L29.5822,18.5584 L27.8242,18.5584 C27.8382,18.9134 27.8092,19.2394 27.6962,19.5654 C27.5692,19.9194 27.3422,20.2734 27.0022,20.5714 L27.0022,20.5994 L30.7872,20.5994 L30.7872,22.3574 L24.3232,22.3574 Z" id="Fill-12" fill="#FFFFFE"></path>
                    <g id="Group-16" transform="translate(4.000000, 0.159200)">
                        <mask id="mask-8" fill="white">
                            <use xlink:href="#path-7"></use>
                        </mask>
                        <g id="Clip-15"></g>
                        <path d="M1.8135,37 C1.6115,37 1.4065,36.939 1.2285,36.811 C0.7815,36.488 0.6795,35.863 1.0035,35.416 L25.6615,1.256 C25.9855,0.808 26.6095,0.707 27.0575,1.03 C27.5055,1.354 27.6065,1.979 27.2835,2.426 L2.6255,36.586 C2.4295,36.857 2.1245,37 1.8135,37" id="Fill-14" fill="#FFFFFE" mask="url(#mask-8)"></path>
                    </g>
                </g>
            </g>
        </g>
    </g>
</svg>