<?xml version="1.0" encoding="UTF-8"?>
<svg width="87px" height="76px" viewBox="0 0 87 76" version="1.1" xmlns="http://www.w3.org/2000/svg" xmlns:xlink="http://www.w3.org/1999/xlink">
    <!-- Generator: Sketch 57.1 (83088) - https://sketch.com -->
    <title>icon-uk-resident</title>
    <desc>Created with Sketch.</desc>
    <defs>
        <polygon id="path-1" points="0.97611274 0.647292117 44.358 0.647292117 44.358 76 0.97611274 76"></polygon>
        <linearGradient x1="12.0924169%" y1="50%" x2="86.2828275%" y2="54.7624648%" id="linearGradient-3">
            <stop stop-color="#5CB0E2" offset="0%"></stop>
            <stop stop-color="#6F4FA0" offset="100%"></stop>
        </linearGradient>
    </defs>
    <g id="Page-1" stroke="none" stroke-width="1" fill="none" fill-rule="evenodd">
        <g id="Assets-Playground" transform="translate(-2549.000000, -1662.000000)">
            <g id="icon-uk-resident" transform="translate(2549.000000, 1661.000000)">
                <g id="Group-3" transform="translate(42.000000, 0.352600)">
                    <mask id="mask-2" fill="white">
                        <use xlink:href="#path-1"></use>
                    </mask>
                    <g id="Clip-2"></g>
                    <path d="M12.6992,68.6592 L9.5632,73.6162 L15.2772,72.5962 L17.1532,69.8092 C17.2852,69.6132 17.4822,69.4712 17.7112,69.4062 C17.8762,69.3592 32.5752,65.2052 38.2122,63.5902 C38.1932,63.5392 38.1782,63.4912 38.1652,63.4432 C37.8422,62.2932 38.5802,61.2322 38.6652,61.1152 C38.6842,61.0882 38.7062,61.0612 38.7292,61.0362 L42.3582,56.9882 L42.3582,52.4632 C41.0892,52.5312 38.9612,52.5962 37.4002,52.3872 C35.7352,52.1652 34.9732,51.8272 34.6802,51.1802 C34.6012,51.0052 34.5682,50.8152 34.5802,50.6302 L33.8862,45.0922 L28.0952,38.0742 C28.0242,37.9872 27.9682,37.8892 27.9292,37.7842 L24.7592,29.2122 L16.3732,23.7872 C15.9492,23.5132 15.7962,22.9672 16.0152,22.5122 L20.8932,12.4192 C18.6532,12.2882 14.5382,12.0602 13.1812,12.0602 C12.1252,12.0602 11.5602,11.5852 11.2722,11.1852 C10.5382,10.1662 10.9482,8.7722 11.0382,8.5032 C11.0642,8.4242 11.1002,8.3472 11.1462,8.2762 L14.5722,2.9712 L10.2862,3.6232 L3.0222,12.8442 L4.7602,26.3392 L6.3152,25.8622 C7.5432,25.4862 8.5572,25.5622 9.3272,26.0912 C10.3272,26.7762 10.4342,27.9202 10.4432,28.0482 C10.4482,28.1082 10.4472,28.1702 10.4402,28.2302 L9.9642,32.4442 L17.0992,32.6852 C17.5682,32.7012 17.9632,33.0412 18.0492,33.5022 L20.5892,47.1802 C20.6762,47.6482 20.4202,48.1132 19.9762,48.2912 C19.9462,48.3032 17.4142,49.3182 14.7242,50.5772 C15.4382,51.5862 15.3842,52.9332 15.3742,53.0972 C15.3602,53.3342 15.2632,53.5562 15.1002,53.7282 L10.0942,58.9912 L12.7062,60.7332 C13.6072,60.4272 15.6222,59.9192 19.2762,59.8072 C21.5442,59.7462 22.9602,60.2212 23.5912,61.2842 C24.2972,62.4712 23.6122,63.7132 23.5312,63.8502 L20.8912,67.9252 C20.7152,68.1982 20.4162,68.3682 20.0912,68.3802 L12.6992,68.6592 Z M7.5052,76.0002 C7.1762,76.0002 6.8622,75.8372 6.6752,75.5572 C6.4542,75.2282 6.4482,74.8012 6.6602,74.4662 L11.2912,67.1452 C11.4672,66.8662 11.7682,66.6922 12.0972,66.6802 L19.4962,66.4012 L21.8292,62.8032 C21.8482,62.7602 21.9622,62.4532 21.8702,62.3042 C21.7422,62.0952 21.0692,61.7512 19.3372,61.8072 C14.7762,61.9452 13.0382,62.7452 13.0212,62.7532 C12.7052,62.9032 12.3222,62.8812 12.0292,62.6852 L7.9952,59.9962 C7.7492,59.8322 7.5892,59.5682 7.5552,59.2752 C7.5232,58.9812 7.6222,58.6882 7.8252,58.4742 L13.3672,52.6482 C13.3372,52.3122 13.2432,51.8802 13.0312,51.6582 C12.9572,51.5802 12.8452,51.5002 12.5842,51.5002 C12.1202,51.5002 11.7182,51.1802 11.6102,50.7292 C11.5042,50.2782 11.7212,49.8132 12.1372,49.6052 C14.5382,48.4042 17.2002,47.2732 18.4732,46.7452 L16.2282,34.6572 L8.8142,34.4062 C8.5362,34.3972 8.2742,34.2712 8.0922,34.0602 C7.9092,33.8492 7.8232,33.5722 7.8542,33.2952 L8.4372,28.1372 C8.4152,28.0412 8.3492,27.8402 8.1872,27.7332 C7.9542,27.5832 7.4862,27.5962 6.9012,27.7742 L4.2122,28.5982 C3.9302,28.6842 3.6242,28.6422 3.3772,28.4832 C3.1292,28.3232 2.9652,28.0622 2.9272,27.7702 L0.9842,12.6822 C0.9502,12.4162 1.0242,12.1462 1.1912,11.9352 L8.9602,2.0752 C9.1162,1.8762 9.3442,1.7442 9.5952,1.7062 L16.4672,0.6602 C16.8622,0.5962 17.2422,0.7742 17.4572,1.1052 C17.6712,1.4352 17.6712,1.8602 17.4572,2.1912 L12.9062,9.2382 C12.8262,9.5592 12.8272,9.9302 12.8952,10.0162 C12.9082,10.0252 12.9962,10.0602 13.1812,10.0602 C15.1312,10.0602 22.2042,10.4922 22.5052,10.5112 C22.8372,10.5312 23.1372,10.7162 23.3062,11.0042 C23.4742,11.2912 23.4882,11.6432 23.3442,11.9442 L18.2002,22.5872 L26.1242,27.7132 C26.3052,27.8302 26.4442,28.0032 26.5182,28.2062 L29.7462,36.9312 L35.6142,44.0432 C35.7342,44.1892 35.8112,44.3672 35.8352,44.5552 L36.5402,50.1852 C36.7392,50.2462 37.0862,50.3272 37.6642,50.4042 C39.7732,50.6852 43.2402,50.4022 43.2752,50.3992 C43.5572,50.3692 43.8312,50.4712 44.0352,50.6592 C44.2412,50.8482 44.3582,51.1162 44.3582,51.3952 L44.3582,57.3712 C44.3582,57.6172 44.2672,57.8552 44.1022,58.0392 L40.2622,62.3222 C40.1622,62.4812 40.0512,62.7662 40.0912,62.9052 C40.1142,62.9842 40.2542,63.0872 40.4562,63.1712 C40.8472,63.3342 41.0932,63.7252 41.0692,64.1492 C41.0462,64.5722 40.7592,64.9342 40.3512,65.0542 C37.0772,66.0092 21.1862,70.5022 18.6072,71.2302 L16.6992,74.0642 C16.5492,74.2892 16.3122,74.4422 16.0462,74.4902 L7.6802,75.9842 C7.6222,75.9952 7.5632,76.0002 7.5052,76.0002 L7.5052,76.0002 Z" id="Fill-1" fill="#201820" mask="url(#mask-2)"></path>
                </g>
                <path d="M43.0879,40.5899 L44.9979,40.5899 L46.6389,38.5899 L43.4139,33.2789 L41.9209,33.2789 L37.5829,38.7419 L37.9169,39.2709 C38.4809,38.6879 39.2969,38.0939 40.3769,37.9139 C41.2479,37.7689 41.8339,38.1049 42.1679,38.4089 C42.7869,38.9759 43.0129,39.8709 43.0879,40.5899 M45.4709,42.5899 L42.1089,42.5899 C41.8309,42.5899 41.5659,42.4739 41.3759,42.2699 C41.1869,42.0669 41.0919,41.7919 41.1119,41.5149 C41.1629,40.7879 40.9869,39.9949 40.8129,39.8809 C40.8099,39.8809 40.7759,39.8759 40.7049,39.8869 C39.4559,40.0949 38.7569,41.4629 38.7509,41.4779 C38.5919,41.8029 38.2689,42.0179 37.9059,42.0369 C37.5659,42.0499 37.1989,41.8799 37.0059,41.5729 L35.5129,39.2109 C35.2859,38.8519 35.3109,38.3879 35.5749,38.0549 L40.6539,31.6569 C40.8439,31.4189 41.1329,31.2789 41.4379,31.2789 L43.9769,31.2789 C44.3259,31.2789 44.6499,31.4619 44.8309,31.7609 L48.7159,38.1579 C48.9369,38.5209 48.9029,38.9839 48.6349,39.3119 L46.2439,42.2249 C46.0539,42.4559 45.7709,42.5899 45.4709,42.5899" id="Fill-4" fill="#201820"></path>
                <path d="M37.4727,49.5049 C37.4727,49.5049 34.2437,51.0249 27.2147,51.0249 C20.1867,51.0249 14.2977,47.9849 9.3587,47.9849 C4.4197,47.9849 0.9997,49.5049 0.9997,49.5049 L0.9997,27.8489 C0.9997,27.8489 3.2807,26.3289 9.7387,26.3289 C16.1977,26.3289 22.0857,29.3679 27.2147,29.3679 C32.3437,29.3679 37.4727,27.8489 37.4727,27.8489 L37.4727,49.5049 Z" id="Fill-6" fill="url(#linearGradient-3)"></path>
                <path d="M9.3584,46.9854 C11.7384,46.9854 14.2824,47.6414 16.9754,48.3374 C20.1924,49.1664 23.5184,50.0244 27.2144,50.0244 C32.2604,50.0244 35.2874,49.2144 36.4724,48.8154 L36.4724,29.1474 C34.5954,29.6074 30.9314,30.3684 27.2144,30.3684 C24.6704,30.3684 22.0254,29.6774 19.2254,28.9474 C16.1774,28.1514 13.0254,27.3294 9.7384,27.3294 C5.2734,27.3294 2.9144,28.0824 2.0004,28.4674 L2.0004,48.0824 C3.5034,47.6114 6.1124,46.9854 9.3584,46.9854 M27.2144,52.0244 C23.2644,52.0244 19.6584,51.0934 16.4764,50.2734 C13.9094,49.6114 11.4844,48.9854 9.3584,48.9854 C4.6864,48.9854 1.4384,50.4044 1.4064,50.4194 C1.0964,50.5554 0.7394,50.5274 0.4554,50.3434 C0.1704,50.1594 0.0004,49.8434 0.0004,49.5054 L0.0004,27.8484 C0.0004,27.5144 0.1674,27.2024 0.4454,27.0164 C0.7054,26.8434 3.1674,25.3294 9.7384,25.3294 C13.2824,25.3294 16.5604,26.1844 19.7304,27.0114 C22.4024,27.7104 24.9264,28.3684 27.2144,28.3684 C32.1414,28.3684 37.1384,26.9044 37.1884,26.8894 C37.4924,26.7994 37.8184,26.8594 38.0714,27.0484 C38.3244,27.2364 38.4724,27.5334 38.4724,27.8484 L38.4724,49.5054 C38.4724,49.8924 38.2494,50.2454 37.8984,50.4104 C37.7584,50.4754 34.3854,52.0244 27.2144,52.0244" id="Fill-8" fill="#201820"></path>
                <polygon id="Fill-10" fill="#201820" points="15.581 49.2686 17.581 49.2686 17.581 27.2486 15.581 27.2486"></polygon>
                <polygon id="Fill-12" fill="#201820" points="20.9 50.5076 22.9 50.5076 22.9 28.5936 20.9 28.5936"></polygon>
                <path d="M2.0039,49.5049 L0.0039,49.5049 L0.0039,35.4469 C0.0039,35.1129 0.1709,34.8019 0.4479,34.6159 C0.7059,34.4429 3.1619,32.9279 9.7339,32.9279 C11.8479,32.9279 14.0299,33.2199 16.8099,33.8729 L16.3529,35.8199 C13.7289,35.2029 11.6879,34.9279 9.7339,34.9279 C5.2709,34.9279 2.9149,35.6809 2.0039,36.0659 L2.0039,49.5049 Z" id="Fill-13" fill="#201820"></path>
                <path d="M38.4766,49.5049 L36.4766,49.5049 L36.4766,36.7459 C34.5986,37.2059 30.9286,37.9669 27.2106,37.9669 C25.6616,37.9669 23.9506,37.7199 21.6646,37.1639 L22.1366,35.2209 C24.2616,35.7359 25.8266,35.9669 27.2106,35.9669 C32.1276,35.9669 37.1436,34.5029 37.1936,34.4879 C37.4936,34.3999 37.8226,34.4569 38.0756,34.6469 C38.3286,34.8349 38.4766,35.1319 38.4766,35.4469 L38.4766,49.5049 Z" id="Fill-14" fill="#201820"></path>
                <path d="M2.0039,49.5049 L0.0039,49.5049 L0.0039,41.5259 C0.0039,41.1919 0.1709,40.8809 0.4479,40.6949 C0.7059,40.5229 3.1619,39.0069 9.7339,39.0069 C11.8479,39.0069 14.0299,39.2989 16.8099,39.9519 L17.1879,40.0469 L16.7029,41.9859 L16.3409,41.8969 C13.7289,41.2819 11.6879,41.0069 9.7339,41.0069 C5.2709,41.0069 2.9149,41.7599 2.0039,42.1449 L2.0039,49.5049 Z" id="Fill-15" fill="#201820"></path>
                <path d="M38.4766,49.5049 L36.4766,49.5049 L36.4766,42.8249 C34.5986,43.2849 30.9286,44.0459 27.2106,44.0459 C25.7196,44.0459 24.0806,43.8159 21.8976,43.2969 L21.7686,43.2669 L22.1036,41.2909 L22.2546,41.3269 C22.2646,41.3289 22.3486,41.3489 22.3586,41.3519 C24.3846,41.8319 25.8806,42.0459 27.2106,42.0459 C32.1276,42.0459 37.1436,40.5819 37.1936,40.5669 C37.4936,40.4779 37.8226,40.5359 38.0756,40.7259 C38.3286,40.9139 38.4766,41.2109 38.4766,41.5259 L38.4766,49.5049 Z" id="Fill-16" fill="#201820"></path>
                <path d="M22.541,36.6631 L21.26,35.1281 C23.086,33.6041 26.031,31.7881 29.688,31.7881 C32.523,31.7881 35.093,29.6941 36.749,27.9381 L38.204,29.3091 C36.278,31.3521 33.237,33.7881 29.688,33.7881 C26.63,33.7881 24.113,35.3511 22.541,36.6631" id="Fill-17" fill="#201820"></path>
                <path d="M1.7295,48.9092 L0.2785,47.5322 C3.2615,44.3902 6.1115,42.7372 8.7475,42.6172 C11.6235,42.4902 14.0695,41.7582 16.0215,40.4392 C16.1495,40.3562 16.2525,40.2852 16.3495,40.2132 L17.5415,41.8202 C17.4115,41.9162 17.2705,42.0132 17.1225,42.1082 C14.8785,43.6252 12.0845,44.4722 8.8365,44.6152 C6.2195,44.7342 3.5275,47.0152 1.7295,48.9092" id="Fill-18" fill="#201820"></path>
                <path d="M36.3379,50.8712 C32.6029,50.4752 29.2749,49.3752 25.5469,47.3012 C24.4839,46.7092 23.1509,45.1972 21.3479,42.9502 L21.1059,42.6422 L22.6949,41.4292 L22.9299,41.7262 C23.7759,42.7802 25.5839,45.0322 26.5199,45.5532 C29.9999,47.4902 33.0929,48.5172 36.5489,48.8832 L36.3379,50.8712 Z" id="Fill-19" fill="#201820"></path>
                <path d="M15.1055,35.3546 C13.1365,33.2016 11.4925,31.8026 10.0775,31.0806 C7.8655,29.9506 4.8915,29.1296 1.2375,28.6426 L1.5015,26.6606 C5.3805,27.1776 8.5735,28.0656 10.9875,29.2986 C12.6185,30.1326 14.4485,31.6716 16.5825,34.0046 L15.1055,35.3546 Z" id="Fill-20" fill="#201820"></path>
            </g>
        </g>
    </g>
</svg>