<?xml version="1.0" encoding="UTF-8"?>
<svg width="43px" height="38px" viewBox="0 0 43 38" version="1.1" xmlns="http://www.w3.org/2000/svg" xmlns:xlink="http://www.w3.org/1999/xlink">
    <!-- Generator: Sketch 57.1 (83088) - https://sketch.com -->
    <title>icon-secure</title>
    <desc>Created with Sketch.</desc>
    <defs>
        <polygon id="path-1" points="0 0.6127 22.6289 0.6127 22.6289 22.9967 0 22.9967"></polygon>
        <polygon id="path-3" points="0.0118 0.1064 34.1618 0.1064 34.1618 25 0.0118 25"></polygon>
    </defs>
    <g id="Page-1" stroke="none" stroke-width="1" fill="none" fill-rule="evenodd">
        <g id="Homepage" transform="translate(-851.000000, -2378.000000)">
            <g id="icon-secure" transform="translate(851.000000, 2378.000000)">
                <g id="Group-3" transform="translate(0.000000, 5.187500)">
                    <mask id="mask-2" fill="white">
                        <use xlink:href="#path-1"></use>
                    </mask>
                    <g id="Clip-2"></g>
                    <path d="M22.6289,14.4717 L12.2039,0.6127 C6.8409,4.6437 2.6259,10.0317 -0.0001,16.2057 L15.9609,22.9967 C17.3649,19.6907 19.6229,16.7257 22.6289,14.4717" id="Fill-1" fill="#EA8735" mask="url(#mask-2)"></path>
                </g>
                <g id="Group-6" transform="translate(8.000000, 12.187500)">
                    <mask id="mask-4" fill="white">
                        <use xlink:href="#path-3"></use>
                    </mask>
                    <g id="Clip-5"></g>
                    <path d="M5.0518,2.1064 C3.3748,2.1064 2.0118,3.4694 2.0118,5.1454 L2.0118,19.9604 C2.0118,21.6364 3.3748,23.0004 5.0518,23.0004 L29.1218,23.0004 C30.7988,23.0004 32.1618,21.6364 32.1618,19.9604 L32.1618,5.1454 C32.1618,3.4694 30.7988,2.1064 29.1218,2.1064 L5.0518,2.1064 Z M29.1218,25.0004 L5.0518,25.0004 C2.2728,25.0004 0.0118,22.7394 0.0118,19.9604 L0.0118,5.1454 C0.0118,2.3674 2.2728,0.1064 5.0518,0.1064 L29.1218,0.1064 C31.9018,0.1064 34.1618,2.3674 34.1618,5.1454 L34.1618,19.9604 C34.1618,22.7394 31.9018,25.0004 29.1218,25.0004 L29.1218,25.0004 Z" id="Fill-4" fill="#57337E" mask="url(#mask-4)"></path>
                </g>
                <path d="M36.2256,14.2939 C36.1866,14.2939 36.1466,14.2919 36.1066,14.2869 C35.5586,14.2219 35.1666,13.7249 35.2316,13.1759 C35.2696,12.8529 35.2796,12.5279 35.2796,12.2029 C35.2796,6.5769 30.7066,1.9999 25.0876,1.9999 C19.4616,1.9999 14.8846,6.5769 14.8846,12.2029 C14.8846,12.5309 14.8986,12.8599 14.9336,13.1869 C14.9936,13.7359 14.5956,14.2289 14.0466,14.2879 C13.4976,14.3529 13.0046,13.9499 12.9456,13.4009 C12.9026,13.0029 12.8846,12.6039 12.8846,12.2029 C12.8846,5.4749 18.3596,-0.0001 25.0876,-0.0001 C31.8106,-0.0001 37.2796,5.4749 37.2796,12.2029 C37.2796,12.6729 37.2596,13.0569 37.2176,13.4119 C37.1576,13.9199 36.7256,14.2939 36.2256,14.2939" id="Fill-7" fill="#57337E"></path>
                <path d="M18.5303,14.2939 C18.0593,14.2939 17.6393,13.9599 17.5493,13.4809 C17.4733,13.0859 17.4373,12.6679 17.4373,12.2029 C17.4373,7.9839 20.8693,4.5519 25.0883,4.5519 C29.3073,4.5519 32.7413,7.9839 32.7413,12.2029 C32.7413,12.6709 32.7043,13.0899 32.6283,13.4829 C32.5243,14.0249 32.0073,14.3869 31.4573,14.2749 C30.9153,14.1709 30.5593,13.6479 30.6653,13.1049 C30.7163,12.8369 30.7413,12.5419 30.7413,12.2029 C30.7413,9.0869 28.2053,6.5519 25.0883,6.5519 C21.9723,6.5519 19.4373,9.0869 19.4373,12.2029 C19.4373,12.5419 19.4633,12.8379 19.5133,13.1069 C19.6173,13.6499 19.2603,14.1729 18.7173,14.2759 C18.6553,14.2879 18.5923,14.2939 18.5303,14.2939" id="Fill-9" fill="#57337E"></path>
                <path d="M27.9404,21.7988 C27.9404,23.3778 26.6614,24.6578 25.0824,24.6578 C23.5034,24.6578 22.2244,23.3778 22.2244,21.7988 C22.2244,20.2218 23.5034,18.9428 25.0824,18.9428 C26.6614,18.9428 27.9404,20.2218 27.9404,21.7988" id="Fill-11" fill="#57337E"></path>
                <polygon id="Fill-13" fill="#57337E" points="28.7178 30.7148 21.4488 30.7148 24.5638 21.7988 25.6028 21.7988"></polygon>
            </g>
        </g>
    </g>
</svg>