<?xml version="1.0" encoding="UTF-8"?>
<svg width="41px" height="40px" viewBox="0 0 41 40" version="1.1" xmlns="http://www.w3.org/2000/svg" xmlns:xlink="http://www.w3.org/1999/xlink">
    <!-- Generator: Sketch 57.1 (83088) - https://sketch.com -->
    <title>icon-no-paperwork</title>
    <desc>Created with Sketch.</desc>
    <g id="Page-1" stroke="none" stroke-width="1" fill="none" fill-rule="evenodd">
        <g id="Homepage" transform="translate(-1182.000000, -2303.000000)">
            <g id="icon-no-paperwork" transform="translate(1182.000000, 2303.000000)">
                <path d="M28.2305,33.6485 L41.0115,16.2775 C35.6065,12.2925 29.2255,9.8015 22.5505,9.0615 L20.1675,30.4965 C23.1645,30.8275 25.9225,31.9485 28.2305,33.6485" id="Fill-1" fill="#DB306B"></path>
                <path d="M6.5,36.1602 L2,36.1602 C0.897,36.1602 0,35.2632 0,34.1602 L0,2.0002 C0,0.8972 0.897,0.0002 2,0.0002 L25,0.0002 C26.103,0.0002 27,0.8972 27,2.0002 L27,4.2702 C27,4.8232 26.552,5.2702 26,5.2702 C25.448,5.2702 25,4.8232 25,4.2702 L25,2.0002 L2,2.0002 L2,34.1602 L6.5,34.1602 C7.052,34.1602 7.5,34.6072 7.5,35.1602 C7.5,35.7132 7.052,36.1602 6.5,36.1602" id="Fill-3" fill="#57337E"></path>
                <path d="M7.5,5.2744 L7.5,37.4344 L30.501,37.4344 L30.5,5.2744 L7.5,5.2744 Z M30.5,39.4344 L7.5,39.4344 C6.397,39.4344 5.5,38.5374 5.5,37.4344 L5.5,5.2744 C5.5,4.1714 6.397,3.2744 7.5,3.2744 L30.5,3.2744 C31.603,3.2744 32.5,4.1714 32.5,5.2744 L32.5,37.4344 C32.5,38.5374 31.603,39.4344 30.5,39.4344 L30.5,39.4344 Z" id="Fill-5" fill="#57337E"></path>
                <path d="M19,13.0303 L10.333,13.0303 C9.781,13.0303 9.333,12.5833 9.333,12.0303 C9.333,11.4773 9.781,11.0303 10.333,11.0303 L19,11.0303 C19.552,11.0303 20,11.4773 20,12.0303 C20,12.5833 19.552,13.0303 19,13.0303" id="Fill-7" fill="#57337E"></path>
                <path d="M26,20.1426 L10.333,20.1426 C9.781,20.1426 9.333,19.6956 9.333,19.1426 C9.333,18.5896 9.781,18.1426 10.333,18.1426 L26,18.1426 C26.552,18.1426 27,18.5896 27,19.1426 C27,19.6956 26.552,20.1426 26,20.1426" id="Fill-9" fill="#57337E"></path>
                <path d="M26,24.1426 L10.333,24.1426 C9.781,24.1426 9.333,23.6956 9.333,23.1426 C9.333,22.5896 9.781,22.1426 10.333,22.1426 L26,22.1426 C26.552,22.1426 27,22.5896 27,23.1426 C27,23.6956 26.552,24.1426 26,24.1426" id="Fill-11" fill="#57337E"></path>
                <path d="M26,28.1426 L10.333,28.1426 C9.781,28.1426 9.333,27.6956 9.333,27.1426 C9.333,26.5896 9.781,26.1426 10.333,26.1426 L26,26.1426 C26.552,26.1426 27,26.5896 27,27.1426 C27,27.6956 26.552,28.1426 26,28.1426" id="Fill-13" fill="#57337E"></path>
            </g>
        </g>
    </g>
</svg>