<?xml version="1.0" encoding="UTF-8"?>
<svg width="45px" height="39px" viewBox="0 0 45 39" version="1.1" xmlns="http://www.w3.org/2000/svg" xmlns:xlink="http://www.w3.org/1999/xlink">
    <!-- Generator: Sketch 57.1 (83088) - https://sketch.com -->
    <title>icon-process-applications</title>
    <desc>Created with Sketch.</desc>
    <defs>
        <polygon id="path-1" points="0 0.229 44.3999 0.229 44.3999 10 0 10"></polygon>
        <polygon id="path-3" points="0 0.999453912 6.1299 0.999453912 6.1299 7 0 7"></polygon>
        <polygon id="path-5" points="0.0001 0.228 44.401 0.228 44.401 10.001 0.0001 10.001"></polygon>
        <polygon id="path-7" points="0.98745 0.708 21.3777 0.708 21.3777 21.0869 0.98745 21.0869"></polygon>
    </defs>
    <g id="Page-1" stroke="none" stroke-width="1" fill="none" fill-rule="evenodd">
        <g id="Homepage" transform="translate(-314.000000, -732.000000)">
            <g id="Group-6" transform="translate(306.000000, 403.000000)">
                <g id="icon-process-applications" transform="translate(8.000000, 328.000000)">
                    <g id="Group-3" transform="translate(0.000000, 29.292000)">
                        <mask id="mask-2" fill="white">
                            <use xlink:href="#path-1"></use>
                        </mask>
                        <g id="Clip-2"></g>
                        <path d="M3.2939,8 L34.0299,8 C34.3679,8 34.6239,7.971 34.7699,7.943 L41.1079,2.229 L39.6539,2.229 L36.2259,5.323 C35.7629,6 34.5049,6 34.0299,6 L5.5139,6 L3.2939,8 Z M34.0299,10 L2.3799,10 C1.7909,10 -0.0001,10 -0.0001,8.721 C-0.0001,8.437 0.1199,8.167 0.3309,7.978 L4.4609,4.257 C4.6449,4.092 4.8829,4 5.1299,4 L34.0299,4 C34.3679,4 34.6239,3.971 34.7699,3.943 L38.5999,0.487 C38.7829,0.321 39.0229,0.229 39.2699,0.229 L42.0299,0.229 C42.6159,0.229 44.3999,0.229 44.3999,1.51 C44.3999,1.793 44.2799,2.063 44.0699,2.253 L36.2259,9.323 C35.7619,10 34.5039,10 34.0299,10 L34.0299,10 Z" id="Fill-1" fill="#FFFFFE" mask="url(#mask-2)"></path>
                    </g>
                    <g id="Group-6" transform="translate(0.000000, 28.292000)">
                        <mask id="mask-4" fill="white">
                            <use xlink:href="#path-3"></use>
                        </mask>
                        <g id="Clip-5"></g>
                        <path d="M5.1299,7 L2.3799,7 C1.7909,7 -0.0001,7 -0.0001,5.721 C-0.0001,5.438 0.1199,5.167 0.3309,4.978 L4.4609,1.257 C4.8689,0.888 5.5019,0.918 5.8729,1.331 C6.2419,1.741 6.2099,2.373 5.7989,2.743 L3.2939,5 L5.1299,5 C5.6829,5 6.1299,5.447 6.1299,6 C6.1299,6.553 5.6829,7 5.1299,7" id="Fill-4" fill="#FFFFFE" mask="url(#mask-4)"></path>
                    </g>
                    <path d="M39.2695,31.5215 C38.9965,31.5215 38.7235,31.4105 38.5265,31.1905 C38.1575,30.7805 38.1905,30.1475 38.6005,29.7785 L41.1065,27.5215 L39.2695,27.5215 C38.7165,27.5215 38.2695,27.0745 38.2695,26.5215 C38.2695,25.9685 38.7165,25.5215 39.2695,25.5215 L42.0305,25.5215 C42.6165,25.5215 44.4005,25.5215 44.4005,26.8015 C44.4005,27.0845 44.2805,27.3555 44.0695,27.5445 L39.9385,31.2645 C39.7485,31.4365 39.5075,31.5215 39.2695,31.5215" id="Fill-7" fill="#FFFFFE"></path>
                    <g id="Group-11" transform="translate(0.000000, 21.292000)">
                        <mask id="mask-6" fill="white">
                            <use xlink:href="#path-5"></use>
                        </mask>
                        <g id="Clip-10"></g>
                        <path d="M3.2881,8.001 L34.0251,8.001 C34.3621,8.001 34.6171,7.972 34.7621,7.945 L41.1131,2.228 L10.3771,2.228 C10.0391,2.228 9.7841,2.257 9.6401,2.283 L3.2881,8.001 Z M34.0251,10.001 L2.3771,10.001 C1.7891,10.001 0.0001,10.001 0.0001,8.715 C0.0001,8.432 0.1201,8.161 0.3311,7.972 L8.1711,0.914 C8.6321,0.228 9.9001,0.228 10.3771,0.228 L42.0251,0.228 C42.6131,0.228 44.4011,0.228 44.4011,1.514 C44.4011,1.797 44.2811,2.067 44.0701,2.257 L36.2301,9.313 C35.7691,10.001 34.5021,10.001 34.0251,10.001 L34.0251,10.001 Z" id="Fill-9" fill="#FFFFFE" mask="url(#mask-6)"></path>
                    </g>
                    <g id="Group-14" transform="translate(17.000000, 0.292000)">
                        <mask id="mask-8" fill="white">
                            <use xlink:href="#path-7"></use>
                        </mask>
                        <g id="Clip-13"></g>
                        <path d="M5.3477,21.0869 C5.0817,21.0869 4.8277,20.9819 4.6407,20.7939 L1.2807,17.4339 C0.8897,17.0429 0.8897,16.4099 1.2807,16.0199 C1.6707,15.6289 2.3037,15.6289 2.6947,16.0199 L5.3477,18.6729 L18.9637,5.0569 L17.0177,3.1099 L5.7047,14.4239 C5.3147,14.8149 4.6817,14.8149 4.2907,14.4239 C3.9007,14.0329 3.9007,13.3999 4.2907,13.0099 L16.3107,0.9889 C16.6857,0.6139 17.3497,0.6139 17.7247,0.9889 L21.0847,4.3499 C21.2727,4.5369 21.3777,4.7909 21.3777,5.0569 C21.3777,5.3219 21.2727,5.5759 21.0847,5.7639 L6.0547,20.7939 C5.8677,20.9819 5.6137,21.0869 5.3477,21.0869" id="Fill-12" fill="#FFFFFE" mask="url(#mask-8)"></path>
                    </g>
                    <path d="M22.3477,21.3789 C22.0817,21.3789 21.8277,21.2739 21.6407,21.0859 L13.8607,13.3059 C13.6727,13.1179 13.5677,12.8639 13.5677,12.5989 C13.5677,12.3329 13.6727,12.0789 13.8607,11.8919 L16.8707,8.8819 C17.2617,8.4909 17.8947,8.4909 18.2857,8.8819 L22.7047,13.3019 C23.0957,13.6919 23.0957,14.3249 22.7047,14.7159 C22.3147,15.1069 21.6817,15.1069 21.2907,14.7159 L17.5777,11.0029 L15.9817,12.5989 L22.3477,18.9649 L24.6507,16.6609 C25.0407,16.2709 25.6737,16.2709 26.0647,16.6609 C26.4547,17.0519 26.4547,17.6849 26.0647,18.0749 L23.0547,21.0859 C22.8677,21.2739 22.6137,21.3789 22.3477,21.3789" id="Fill-15" fill="#FFFFFE"></path>
                </g>
            </g>
        </g>
    </g>
</svg>