<?xml version="1.0" encoding="UTF-8"?>
<svg width="39px" height="40px" viewBox="0 0 39 40" version="1.1" xmlns="http://www.w3.org/2000/svg" xmlns:xlink="http://www.w3.org/1999/xlink">
    <!-- Generator: Sketch 57.1 (83088) - https://sketch.com -->
    <title>icon-approval-rate</title>
    <desc>Created with Sketch.</desc>
    <defs>
        <polygon id="path-1" points="0.8622 0.751 25.377 0.751 25.377 23.887 0.8622 23.887"></polygon>
    </defs>
    <g id="Page-1" stroke="none" stroke-width="1" fill="none" fill-rule="evenodd">
        <g id="Homepage" transform="translate(-1184.000000, -2378.000000)">
            <g id="icon-approval-rate" transform="translate(1184.000000, 2378.000000)">
                <g id="Group-3" transform="translate(13.000000, 2.518600)">
                    <mask id="mask-2" fill="white">
                        <use xlink:href="#path-1"></use>
                    </mask>
                    <g id="Clip-2"></g>
                    <path d="M20.7422,0.751 L0.8622,3.774 C1.9782,11.131 5.0252,18.075 9.6722,23.887 L25.3772,11.324 C22.9822,8.333 21.3402,4.712 20.7422,0.751" id="Fill-1" fill="#C72A80" mask="url(#mask-2)"></path>
                </g>
                <path d="M8.333,29.6749 C7.78,29.6749 7.333,29.2279 7.333,28.6749 L7.333,15.2859 L1,15.2859 C0.596,15.2859 0.23,15.0419 0.076,14.6679 C-0.079,14.2939 0.008,13.8629 0.294,13.5779 L13.627,0.2919 C14.019,-0.0981 14.651,-0.0971 15.041,0.2939 L28.835,14.1309 C29.12,14.4169 29.205,14.8469 29.051,15.2209 C28.895,15.5939 28.531,15.8369 28.127,15.8369 L21.002,15.8369 L21.002,23.2019 C21.002,23.7549 20.555,24.2019 20.002,24.2019 C19.449,24.2019 19.002,23.7549 19.002,23.2019 L19.002,14.8369 C19.002,14.2839 19.449,13.8369 20.002,13.8369 L25.718,13.8369 L14.331,2.4139 L3.42,13.2859 L8.333,13.2859 C8.886,13.2859 9.333,13.7339 9.333,14.2859 L9.333,28.6749 C9.333,29.2279 8.886,29.6749 8.333,29.6749" id="Fill-4" fill="#57337E"></path>
                <path d="M8.252,39.5186 C7.699,39.5186 7.252,39.0716 7.252,38.5186 L7.252,32.1436 C7.252,31.5906 7.699,31.1436 8.252,31.1436 C8.805,31.1436 9.252,31.5906 9.252,32.1436 L9.252,38.5186 C9.252,39.0716 8.805,39.5186 8.252,39.5186" id="Fill-6" fill="#57337E"></path>
                <path d="M20.2842,35.7745 C20.0182,35.7745 19.7642,35.6695 19.5772,35.4815 L16.2172,32.1215 C15.8262,31.7305 15.8262,31.0975 16.2172,30.7075 C16.6072,30.3165 17.2402,30.3165 17.6312,30.7075 L20.2842,33.3605 L33.9002,19.7445 L31.9542,17.7975 L20.6412,29.1115 C20.2512,29.5025 19.6182,29.5025 19.2272,29.1115 C18.8372,28.7205 18.8372,28.0875 19.2272,27.6975 L31.2472,15.6765 C31.6222,15.3015 32.2862,15.3015 32.6612,15.6765 L36.0212,19.0375 C36.2092,19.2245 36.3142,19.4785 36.3142,19.7445 C36.3142,20.0095 36.2092,20.2635 36.0212,20.4515 L20.9912,35.4815 C20.8042,35.6695 20.5502,35.7745 20.2842,35.7745" id="Fill-8" fill="#57337E"></path>
                <path d="M20.2842,35.7745 C20.0182,35.7745 19.7642,35.6695 19.5772,35.4815 L11.7972,27.7015 C11.6092,27.5135 11.5042,27.2595 11.5042,26.9945 C11.5042,26.7285 11.6092,26.4745 11.7972,26.2875 L14.8072,23.2775 C15.1982,22.8865 15.8312,22.8865 16.2222,23.2775 L20.6412,27.6975 C21.0322,28.0875 21.0322,28.7205 20.6412,29.1115 C20.2512,29.5025 19.6182,29.5025 19.2272,29.1115 L15.5142,25.3985 L13.9182,26.9945 L20.2842,33.3605 L22.5872,31.0565 C22.9772,30.6665 23.6102,30.6665 24.0012,31.0565 C24.3912,31.4475 24.3912,32.0805 24.0012,32.4705 L20.9912,35.4815 C20.8042,35.6695 20.5502,35.7745 20.2842,35.7745" id="Fill-10" fill="#57337E"></path>
            </g>
        </g>
    </g>
</svg>