<?xml version="1.0" encoding="UTF-8"?>
<svg width="49px" height="38px" viewBox="0 0 49 38" version="1.1" xmlns="http://www.w3.org/2000/svg" xmlns:xlink="http://www.w3.org/1999/xlink">
    <!-- Generator: Sketch 57.1 (83088) - https://sketch.com -->
    <title>icon-compare</title>
    <desc>Created with Sketch.</desc>
    <defs>
        <polygon id="path-1" points="0.3082 0.7363 18.7342 0.7363 18.7342 22 0.3082 22"></polygon>
        <polygon id="path-3" points="0 0.137 30.4437 0.137 30.4437 30.5797 0 30.5797"></polygon>
        <polygon id="path-5" points="0.514098322 0.138101305 30.957 0.138101305 30.957 30.5048 0.514098322 30.5048"></polygon>
    </defs>
    <g id="Page-1" stroke="none" stroke-width="1" fill="none" fill-rule="evenodd">
        <g id="Homepage" transform="translate(-851.000000, -2463.000000)">
            <g id="icon-compare" transform="translate(851.000000, 2462.000000)">
                <g id="Group-3" transform="translate(26.000000, 16.863300)">
                    <mask id="mask-2" fill="white">
                        <use xlink:href="#path-1"></use>
                    </mask>
                    <g id="Clip-2"></g>
                    <path d="M11.2422,0.7363 L0.3082,15.5953 C5.1082,19.1313 10.7702,21.3413 16.6962,22.0003 L18.7342,3.6643 C15.9492,3.3583 13.3862,2.3163 11.2422,0.7363" id="Fill-1" fill="#7C3782" mask="url(#mask-2)"></path>
                </g>
                <g id="Group-6" transform="translate(0.000000, 0.863300)">
                    <mask id="mask-4" fill="white">
                        <use xlink:href="#path-3"></use>
                    </mask>
                    <g id="Clip-5"></g>
                    <path d="M15.2217,2.1367 C7.9317,2.1367 1.9997,8.0687 1.9997,15.3587 C1.9997,22.6487 7.9317,28.5797 15.2217,28.5797 C22.5117,28.5797 28.4437,22.6487 28.4437,15.3587 C28.4437,8.0687 22.5117,2.1367 15.2217,2.1367 M15.2217,30.5797 C6.8277,30.5797 -0.0003,23.7517 -0.0003,15.3587 C-0.0003,6.9647 6.8277,0.1367 15.2217,0.1367 C23.6157,0.1367 30.4437,6.9647 30.4437,15.3587 C30.4437,23.7517 23.6157,30.5797 15.2217,30.5797" id="Fill-4" fill="#57337E" mask="url(#mask-4)"></path>
                </g>
                <g id="Group-9" transform="translate(18.000000, 0.863300)">
                    <mask id="mask-6" fill="white">
                        <use xlink:href="#path-5"></use>
                    </mask>
                    <g id="Clip-8"></g>
                    <path d="M14.2051,2.2178 C13.7001,2.2178 13.2671,1.8368 13.2121,1.3238 C13.1531,0.7758 13.5511,0.2818 14.1001,0.2238 C15.1451,0.1128 16.2311,0.1098 17.2781,0.2138 C17.8281,0.2698 18.2281,0.7598 18.1731,1.3098 C18.1171,1.8598 17.6331,2.2548 17.0771,2.2038 C16.1671,2.1108 15.2211,2.1138 14.3121,2.2118 C14.2761,2.2158 14.2401,2.2178 14.2051,2.2178 M22.8051,4.0168 C22.6361,4.0168 22.4651,3.9738 22.3081,3.8838 C21.5081,3.4248 20.6571,3.0488 19.7811,2.7678 C19.2551,2.5988 18.9661,2.0348 19.1351,1.5098 C19.3051,0.9838 19.8691,0.6978 20.3921,0.8638 C21.4021,1.1878 22.3821,1.6198 23.3041,2.1498 C23.7821,2.4238 23.9481,3.0348 23.6731,3.5148 C23.4881,3.8358 23.1511,4.0168 22.8051,4.0168 M8.5921,4.0588 C8.2471,4.0588 7.9121,3.8808 7.7261,3.5618 C7.4491,3.0848 7.6101,2.4728 8.0881,2.1948 C9.0081,1.6578 9.9851,1.2198 10.9921,0.8908 C11.5211,0.7168 12.0821,1.0058 12.2531,1.5308 C12.4251,2.0548 12.1391,2.6198 11.6131,2.7908 C10.7411,3.0758 9.8931,3.4568 9.0941,3.9228 C8.9351,4.0148 8.7631,4.0588 8.5921,4.0588 M27.2131,7.9568 C26.9041,7.9568 26.6011,7.8158 26.4051,7.5478 C25.8621,6.8068 25.2381,6.1178 24.5491,5.5018 C24.1381,5.1338 24.1021,4.5018 24.4711,4.0898 C24.8391,3.6778 25.4711,3.6428 25.8831,4.0118 C26.6751,4.7208 27.3931,5.5128 28.0181,6.3658 C28.3451,6.8118 28.2481,7.4378 27.8031,7.7638 C27.6251,7.8948 27.4181,7.9568 27.2131,7.9568 M4.2081,8.0268 C4.0051,8.0268 3.8001,7.9648 3.6231,7.8368 C3.1761,7.5128 3.0751,6.8878 3.3981,6.4408 C4.0221,5.5788 4.7361,4.7818 5.5211,4.0718 C5.9311,3.6998 6.5631,3.7348 6.9341,4.1428 C7.3051,4.5528 7.2721,5.1848 6.8631,5.5548 C6.1811,6.1718 5.5601,6.8638 5.0191,7.6128 C4.8231,7.8828 4.5171,8.0268 4.2081,8.0268 M29.6381,13.3468 C29.1771,13.3468 28.7631,13.0268 28.6611,12.5578 C28.4671,11.6578 28.1771,10.7758 27.7981,9.9358 C27.5711,9.4318 27.7961,8.8398 28.2991,8.6128 C28.8061,8.3858 29.3941,8.6108 29.6221,9.1138 C30.0581,10.0818 30.3921,11.0998 30.6161,12.1358 C30.7321,12.6758 30.3901,13.2078 29.8501,13.3238 C29.7781,13.3398 29.7081,13.3468 29.6381,13.3468 M1.8161,13.4318 C1.7481,13.4318 1.6801,13.4248 1.6101,13.4098 C1.0701,13.2968 0.7241,12.7678 0.8371,12.2268 C1.0551,11.1848 1.3841,10.1648 1.8131,9.1968 C2.0381,8.6948 2.6301,8.4658 3.1341,8.6898 C3.6391,8.9138 3.8651,9.5048 3.6421,10.0098 C3.2681,10.8488 2.9831,11.7328 2.7941,12.6368 C2.6951,13.1088 2.2791,13.4318 1.8161,13.4318 M29.6501,19.3138 C29.5821,19.3138 29.5131,19.3068 29.4431,19.2918 C28.9021,19.1778 28.5571,18.6478 28.6711,18.1078 C28.8601,17.2078 28.9571,16.2828 28.9571,15.3588 C28.9571,14.8058 29.4041,14.3298 29.9571,14.3298 C30.5101,14.3298 30.9571,14.7478 30.9571,15.3008 L30.9571,15.3588 C30.9571,16.4218 30.8471,17.4858 30.6281,18.5198 C30.5281,18.9908 30.1131,19.3138 29.6501,19.3138 M1.8261,19.3418 C1.3641,19.3418 0.9491,19.0208 0.8491,18.5498 C0.6291,17.5158 0.5161,16.4518 0.514098322,15.3888 C0.5131,14.8358 0.9591,14.3878 1.5121,14.3868 L1.51409832,14.3868 C2.0651,14.3868 2.5131,14.8328 2.51409832,15.3848 C2.5161,16.3098 2.6131,17.2348 2.8061,18.1338 C2.9201,18.6738 2.5761,19.2048 2.0351,19.3208 C1.9651,19.3348 1.8951,19.3418 1.8261,19.3418 M27.2431,24.7138 C27.0391,24.7138 26.8331,24.6518 26.6551,24.5228 C26.2091,24.1968 26.1101,23.5718 26.4351,23.1248 C26.9791,22.3778 27.4451,21.5728 27.8191,20.7338 C28.0431,20.2298 28.6331,19.9988 29.1401,20.2278 C29.6431,20.4518 29.8711,21.0428 29.6451,21.5478 C29.2151,22.5148 28.6791,23.4418 28.0531,24.3028 C27.8571,24.5718 27.5531,24.7138 27.2431,24.7138 M4.2431,24.7368 C3.9341,24.7368 3.6301,24.5938 3.4341,24.3248 C2.8091,23.4688 2.2721,22.5438 1.8381,21.5768 C1.6111,21.0728 1.8371,20.4818 2.3401,20.2548 C2.8471,20.0278 3.4361,20.2538 3.6621,20.7568 C4.0401,21.5988 4.5071,22.4028 5.0501,23.1478 C5.3761,23.5928 5.2771,24.2188 4.8311,24.5438 C4.6531,24.6738 4.4471,24.7368 4.2431,24.7368 M22.8561,28.6728 C22.5121,28.6728 22.1761,28.4938 21.9901,28.1748 C21.7131,27.6968 21.8761,27.0848 22.3531,26.8078 C23.1511,26.3448 23.9031,25.7968 24.5871,25.1808 C24.9961,24.8098 25.6291,24.8418 25.9991,25.2528 C26.3691,25.6628 26.3371,26.2958 25.9271,26.6648 C25.1401,27.3748 24.2751,28.0048 23.3571,28.5378 C23.1991,28.6298 23.0261,28.6728 22.8561,28.6728 M8.6391,28.6868 C8.4691,28.6868 8.2971,28.6438 8.1401,28.5528 C7.2231,28.0238 6.3571,27.3958 5.5671,26.6868 C5.1561,26.3178 5.1221,25.6858 5.4911,25.2748 C5.8611,24.8638 6.4921,24.8288 6.9031,25.1978 C7.5901,25.8148 8.3431,26.3608 9.1401,26.8208 C9.6181,27.0968 9.7821,27.7078 9.5061,28.1868 C9.3201,28.5068 8.9841,28.6868 8.6391,28.6868 M17.2341,30.5008 C16.7281,30.5008 16.2941,30.1188 16.2411,29.6048 C16.1841,29.0558 16.5821,28.5638 17.1321,28.5068 C18.0471,28.4108 18.9551,28.2178 19.8321,27.9328 C20.3561,27.7618 20.9221,28.0498 21.0931,28.5738 C21.2641,29.0998 20.9761,29.6638 20.4511,29.8348 C19.4401,30.1628 18.3931,30.3858 17.3391,30.4948 C17.3041,30.4988 17.2681,30.5008 17.2341,30.5008 M14.2651,30.5048 C14.2301,30.5048 14.1961,30.5028 14.1611,30.4998 C13.1061,30.3908 12.0591,30.1698 11.0481,29.8448 C10.5211,29.6748 10.2331,29.1118 10.4021,28.5858 C10.5721,28.0608 11.1381,27.7738 11.6611,27.9408 C12.5401,28.2238 13.4501,28.4158 14.3661,28.5098 C14.9161,28.5668 15.3151,29.0578 15.2591,29.6078 C15.2051,30.1218 14.7711,30.5048 14.2651,30.5048" id="Fill-7" fill="#57337E" mask="url(#mask-6)"></path>
                </g>
                <path d="M22.127,18.6035 C21.871,18.6035 21.615,18.5055 21.42,18.3105 C21.029,17.9195 21.029,17.2875 21.42,16.8965 L25.295,13.0215 C25.686,12.6305 26.318,12.6305 26.709,13.0215 C27.1,13.4125 27.1,14.0445 26.709,14.4355 L22.834,18.3105 C22.639,18.5055 22.383,18.6035 22.127,18.6035" id="Fill-10" fill="#57337E"></path>
                <path d="M23.8369,21.4776 C23.5809,21.4776 23.3249,21.3796 23.1299,21.1846 C22.7389,20.7936 22.7389,20.1616 23.1299,19.7706 L25.2949,17.6056 C25.6859,17.2146 26.3179,17.2146 26.7089,17.6056 C27.0999,17.9966 27.0999,18.6286 26.7089,19.0196 L24.5439,21.1846 C24.3489,21.3796 24.0929,21.4776 23.8369,21.4776" id="Fill-12" fill="#57337E"></path>
                <path d="M22.668,13.9258 C22.412,13.9258 22.156,13.8278 21.961,13.6328 C21.57,13.2418 21.57,12.6098 21.961,12.2188 L23.492,10.6878 C23.883,10.2968 24.516,10.2968 24.906,10.6878 C25.297,11.0778 25.297,11.7108 24.906,12.1018 L23.375,13.6328 C23.18,13.8278 22.924,13.9258 22.668,13.9258" id="Fill-14" fill="#57337E"></path>
            </g>
        </g>
    </g>
</svg>