<?xml version="1.0" encoding="UTF-8"?>
<svg width="177px" height="172px" viewBox="0 0 177 172" version="1.1" xmlns="http://www.w3.org/2000/svg" xmlns:xlink="http://www.w3.org/1999/xlink">
    <!-- Generator: Sketch 57.1 (83088) - https://sketch.com -->
    <title>icon-check-offers</title>
    <desc>Created with Sketch.</desc>
    <defs>
        <polygon id="path-1" points="0 172 177 172 177 0 0 0"></polygon>
    </defs>
    <g id="Page-1" stroke="none" stroke-width="1" fill="none" fill-rule="evenodd">
        <g id="Homepage" transform="translate(-800.000000, -1593.000000)">
            <g id="icon-check-offers" transform="translate(800.000000, 1593.000000)">
                <path d="M74.722929,172 L161,53.0699588 C121.781252,23.7718989 75.5112921,5.4579659 27.0849268,0 L11,146.739565 C34.6879937,149.385068 56.490872,158.372722 74.722929,172" id="Fill-1" fill="#F7F3F2"></path>
                <path d="M158,124.90672 C158,128.824575 154.856368,132 150.972506,132 L51.0274935,132 C47.1483171,132 44,128.824575 44,124.90672 L44,46.0932805 C44,42.1754252 47.1483171,39 51.0274935,39 L150.972506,39 C154.856368,39 158,42.1754252 158,46.0932805 L158,124.90672 Z" id="Fill-3" fill="#FFFFFE"></path>
                <path d="M150.682985,37 L139.828662,37 C139.828662,37 137.881405,37.6759255 137.881405,39.3446165 C137.881405,41.0109606 139.828662,41.6939269 139.828662,41.6939269 L150.682985,41.6939269 C153.266127,41.6939269 155.341492,43.806194 155.341492,46.3878539 L155.341492,124.612146 C155.341492,127.217276 153.266127,129.306073 150.682985,129.306073 L51.3170154,129.306073 C48.7315436,129.306073 46.6585077,127.217276 46.6585077,124.612146 L46.6585077,46.3878539 C46.6585077,43.806194 48.7315436,41.6939269 51.3170154,41.6939269 L128.182392,41.6939269 C128.182392,41.6939269 130.115673,41.0015727 130.115673,39.3446165 C130.115673,37.6853133 128.182392,37 128.182392,37 L51.3170154,37 C46.1670351,37 42,41.2010646 42,46.3878539 L42,124.612146 C42,129.798935 46.1670351,134 51.3170154,134 L150.682985,134 C155.828306,134 160,129.798935 160,124.612146 L160,46.3878539 C160,41.2010646 155.828306,37 150.682985,37" id="Fill-5" fill="#57337E"></path>
                <mask id="mask-2" fill="white">
                    <use xlink:href="#path-1"></use>
                </mask>
                <g id="Clip-8"></g>
                <polygon id="Fill-7" fill="#EFE7EA" mask="url(#mask-2)" points="115 79 145 79 145 62 115 62"></polygon>
                <path d="M125,71 L125,68.6705348 C126.393308,68.0402371 127.948985,66.4009839 127.948985,64.44778 C127.948985,64.0451564 127.922655,63.7000505 127.8678,63.2974268 L125.287438,63.2974268 L125.287438,60.3352674 L127.39605,60.3352674 C127.262205,59.6162967 127.185409,58.7846872 127.185409,58.0081988 C127.185409,54.3869828 129.607789,52 133.129457,52 C134.577619,52 135.657159,52.345106 136.236423,52.6902119 L135.575974,55.9950807 C135.080088,55.6787336 134.342841,55.4774218 133.368623,55.4774218 C131.501371,55.4774218 130.922106,56.800328 130.922106,58.1807518 C130.922106,58.9284813 130.998903,59.6162967 131.159078,60.3352674 L134.761931,60.3352674 L134.761931,63.2974268 L131.501371,63.2974268 C131.527702,64.014001 131.475041,64.6754541 131.262205,65.3369072 C131.025233,66.0558779 130.606144,66.7748486 129.976413,67.3787841 L129.976413,67.4363017 L137,67.4363017 L137,71 L125,71 Z" id="Fill-9" fill="#DB306B" mask="url(#mask-2)"></path>
                <path d="M99.6842105,66 L60.3157895,66 C59.0351579,66 58,65.104 58,64 C58,62.896 59.0351579,62 60.3157895,62 L99.6842105,62 C100.964842,62 102,62.896 102,64 C102,65.104 100.964842,66 99.6842105,66" id="Fill-10" fill="#EFE7EA" mask="url(#mask-2)"></path>
                <path d="M99.6842105,78 L60.3157895,78 C59.0351579,78 58,77.104 58,76 C58,74.896 59.0351579,74 60.3157895,74 L99.6842105,74 C100.964842,74 102,74.896 102,76 C102,77.104 100.964842,78 99.6842105,78" id="Fill-11" fill="#EFE7EA" mask="url(#mask-2)"></path>
                <path d="M99.6842105,90 L60.3157895,90 C59.0351579,90 58,89.104 58,88 C58,86.896 59.0351579,86 60.3157895,86 L99.6842105,86 C100.964842,86 102,86.896 102,88 C102,89.104 100.964842,90 99.6842105,90" id="Fill-12" fill="#EFE7EA" mask="url(#mask-2)"></path>
                <path d="M9,76.2122905 C9,77.1992551 8.10358306,78 6.99869707,78 C5.89641694,78 5,77.1992551 5,76.2122905 L5,64.7877095 C5,63.8007449 5.89641694,63 6.99869707,63 C8.10358306,63 9,63.8007449 9,64.7877095 L9,76.2122905 Z" id="Fill-13" fill="#EDCED5" mask="url(#mask-2)"></path>
                <path d="M1.7877095,72 C0.800744879,72 0,71.1035831 0,69.9986971 C0,68.8964169 0.800744879,68 1.7877095,68 L13.2122905,68 C14.1992551,68 15,68.8964169 15,69.9986971 C15,71.1035831 14.1992551,72 13.2122905,72 L1.7877095,72 Z" id="Fill-14" fill="#EDCED5" mask="url(#mask-2)"></path>
                <path d="M44,129.46789 L37.1068359,160.802974 C36.4645183,163.709864 33.6960624,165.537051 30.952225,164.858382 C29.5847824,164.519047 28.4612862,163.62681 27.7831599,162.426086 C27.0916055,161.253839 26.8118505,159.787342 27.1318902,158.335084 L34.0295304,127" id="Fill-15" fill="#FFFFFE" mask="url(#mask-2)"></path>
                <path d="M31.8756673,168 C31.2860836,168 30.6845166,167.934719 30.0853462,167.799495 C28.0050266,167.323877 26.2602425,166.095199 25.1793392,164.337279 C24.0840557,162.630652 23.7317435,160.574306 24.2062865,158.590235 L31.5928588,127.80333 C31.892444,126.551337 33.1674786,125.763304 34.4712733,126.064062 C35.7582913,126.355494 36.5611796,127.609819 36.2591977,128.864143 L28.8726253,159.648717 C28.6904776,160.418098 28.8294851,161.22012 29.2704745,161.905568 C29.7018771,162.607337 30.3705513,163.07596 31.1758363,163.257814 C32.8463233,163.637842 34.5000335,162.62832 34.8882959,161.01262 L42.2700749,130.228046 C42.5696601,128.976053 43.842298,128.190352 45.1484894,128.488778 C46.4355074,128.780211 47.2383957,130.034535 46.9364138,131.286528 L39.5546348,162.073433 C38.7038129,165.607924 35.4539127,168 31.8756673,168" id="Fill-16" fill="#57337E" mask="url(#mask-2)"></path>
                <path d="M66.3920862,112.226007 C63.507595,124.595537 51.1424942,132.279603 38.7727334,129.392836 C26.4053026,126.506069 18.7187626,114.141199 21.6079138,101.77167 C24.4947349,89.4044701 36.8621657,81.7204038 49.2272666,84.607171 C61.5946974,87.4939382 69.2812374,99.8588077 66.3920862,112.226007" id="Fill-17" fill="#F1C54C" mask="url(#mask-2)"></path>
                <path d="M44.4814812,86.691165 C34.7746938,86.691165 26.4539202,93.303362 24.2447407,102.770133 C22.9806773,108.183737 23.8999962,113.763878 26.8338428,118.48319 C29.7653442,123.200156 34.3619384,126.4957 39.7723174,127.759969 C41.3342213,128.123534 42.9336485,128.308835 44.5236948,128.308835 C54.2257919,128.308835 62.5465655,121.696638 64.7557449,112.229867 C66.0198083,106.818608 65.1004895,101.238468 62.1666429,96.5191556 C59.2327963,91.7998436 54.6385473,88.5043002 49.2258231,87.2400313 C47.6639191,86.876466 46.0691824,86.691165 44.4814812,86.691165 M44.5236948,133 C42.5771779,133 40.618935,132.772478 38.7052509,132.326818 C32.0753673,130.778733 26.4445394,126.741986 22.8493461,120.95778 C19.2541527,115.173573 18.1284562,108.3362 19.6786341,101.702893 C22.382651,90.1039875 32.5842759,82 44.4814812,82 C46.4279981,82 48.3815507,82.2251759 50.2952348,82.6731822 C56.9251184,84.218921 62.5559463,88.2580141 66.1487944,94.0422205 C69.7439877,99.8264269 70.8720294,106.6638 69.3218515,113.294762 C66.6154894,124.898358 56.4185549,133 44.5236948,133" id="Fill-18" fill="#57337E" mask="url(#mask-2)"></path>
                <path d="M177,63 L174.61194,63 C174.61194,61.468125 173.047761,60.584625 170.468657,59.30925 C167.903881,58.043375 165,56.6065 165,53.492875 C165,50.37925 167.903881,48.942375 170.468657,47.674125 C173.047761,46.39875 174.61194,45.51525 174.61194,43.983375 C174.61194,42.461 172.971343,41.537125 170.468657,40.29975 C167.903881,39.03625 165,37.599375 165,34.4905 C165,31.381625 167.903881,29.947125 170.468657,28.68125 C172.971343,27.44625 174.61194,26.522375 174.61194,25 L177,25 C177,28.108875 174.093731,29.543375 171.531343,30.80925 C169.026269,32.04425 167.38806,32.968125 167.38806,34.4905 C167.38806,36.012875 169.026269,36.93675 171.531343,38.174125 C174.093731,39.44 177,40.8745 177,43.983375 C177,47.097 174.093731,48.533875 171.531343,49.79975 C168.952239,51.075125 167.38806,51.961 167.38806,53.492875 C167.38806,55.022375 168.952239,55.90825 171.531343,57.183625 C174.093731,58.4495 177,59.886375 177,63" id="Fill-19" fill="#F1C54C" mask="url(#mask-2)"></path>
                <path d="M123.956786,116.532895 L137.033583,116.532895 C137.399569,115.649671 137.592194,114.6875 137.592194,113.720395 C137.592194,109.721217 134.416297,106.467105 130.510835,106.467105 C126.595742,106.467105 123.407806,109.721217 123.407806,113.720395 C123.407806,114.680099 123.598023,115.637336 123.956786,116.532895 L123.956786,116.532895 Z M138.497529,119 L122.468762,119 L122.129261,118.34375 C121.392472,116.917763 121,115.319079 121,113.720395 C121,108.359375 125.266633,104 130.510835,104 C135.742998,104 140,108.359375 140,113.720395 C140,115.341283 139.597896,116.944901 138.841845,118.36102 L138.497529,119 Z" id="Fill-20" fill="#EA8735" mask="url(#mask-2)"></path>
                <path d="M124.212014,94.3771791 C123.684704,95.3518225 123.407806,96.4572108 123.407806,97.6101426 C123.407806,101.477813 126.593334,104.622821 130.508427,104.622821 C134.413889,104.622821 137.592194,101.477813 137.592194,97.6101426 C137.592194,96.4619651 137.312888,95.3565769 136.785579,94.3771791 L124.212014,94.3771791 Z M130.508427,107 C125.264225,107 121,102.787639 121,97.6101426 C121,95.7725832 121.529717,94.018225 122.526549,92.5324881 L122.882905,92 L138.117095,92 L138.473451,92.5348653 C139.47269,94.0277338 140,95.7820919 140,97.6101426 C140,102.787639 135.740591,107 130.508427,107 L130.508427,107 Z" id="Fill-21" fill="#EA8735" mask="url(#mask-2)"></path>
                <polygon id="Fill-22" fill="#EA8735" mask="url(#mask-2)" points="125 116 130.497636 111 136 116"></polygon>
                <path d="M102.946739,8.10673429 C102.608224,10.0097935 100.800185,11.2802496 98.8924281,10.9468861 C96.9899198,10.6108977 95.7198315,8.79446052 96.0530985,6.89140129 C96.3916138,4.98834206 98.204901,3.71788597 100.107409,4.05387436 C102.015166,4.38723783 103.280006,6.20105015 102.946739,8.10673429" id="Fill-23" fill="#EDCED5" mask="url(#mask-2)"></path>
                <path d="M137,158.212291 C137,159.199255 136.103583,160 134.998697,160 C133.896417,160 133,159.199255 133,158.212291 L133,146.787709 C133,145.800745 133.896417,145 134.998697,145 C136.103583,145 137,145.800745 137,146.787709 L137,158.212291 Z" id="Fill-24" fill="#EDCED5" mask="url(#mask-2)"></path>
                <path d="M128.787709,154 C127.800745,154 127,153.103583 127,151.998697 C127,150.896417 127.800745,150 128.787709,150 L140.212291,150 C141.199255,150 142,150.896417 142,151.998697 C142,153.103583 141.199255,154 140.212291,154 L128.787709,154 Z" id="Fill-25" fill="#EDCED5" mask="url(#mask-2)"></path>
            </g>
        </g>
    </g>
</svg>