<?xml version="1.0" encoding="UTF-8"?>
<svg width="69px" height="66px" viewBox="0 0 69 66" version="1.1" xmlns="http://www.w3.org/2000/svg" xmlns:xlink="http://www.w3.org/1999/xlink">
    <!-- Generator: Sketch 57.1 (83088) - https://sketch.com -->
    <title>icon-transfer-wages</title>
    <desc>Created with Sketch.</desc>
    <defs>
        <polygon id="path-1" points="20.466 9.281 0.461 9.281 0.461 22.62 20.466 22.62 20.466 29.868 35.157 15.177 20.466 0.488"></polygon>
        <linearGradient x1="15.089614%" y1="50%" x2="85.9857537%" y2="50%" id="linearGradient-3">
            <stop stop-color="#F47D52" offset="0%"></stop>
            <stop stop-color="#F2AB1F" offset="100%"></stop>
        </linearGradient>
        <polygon id="path-4" points="0.46655 0.48695 17.157 0.48695 17.157 31.8682 0.46655 31.8682"></polygon>
    </defs>
    <g id="Page-1" stroke="none" stroke-width="1" fill="none" fill-rule="evenodd">
        <g id="Assets-Playground" transform="translate(-2408.000000, -1664.000000)">
            <g id="icon-transfer-wages" transform="translate(2408.000000, 1663.000000)">
                <g id="Group-11" transform="translate(8.000000, 0.352500)" fill="#201820">
                    <path d="M32.0957,66 L1.3247,66 C0.7727,66 0.3247,65.553 0.3247,65 L0.3247,1.647 C0.3247,1.095 0.7727,0.647 1.3247,0.647 L32.0957,0.647 C32.6487,0.647 33.0957,1.095 33.0957,1.647 L33.0957,27.272 L31.0957,27.272 L31.0957,2.647 L2.3247,2.647 L2.3247,64 L31.0957,64 L31.0957,50.639 L33.0957,50.639 L33.0957,65 C33.0957,65.553 32.6487,66 32.0957,66" id="Fill-1"></path>
                    <path d="M13.626,22.9199 C11.939,22.9199 10.32,22.2039 9.184,20.9569 L10.662,19.6089 C11.421,20.4419 12.501,20.9199 13.626,20.9199 C15.86,20.9199 17.679,19.1069 17.679,16.8779 C17.679,14.6489 15.86,12.8369 13.626,12.8369 C12.962,12.8369 12.299,13.0029 11.707,13.3159 L10.77,11.5509 C11.648,11.0839 12.636,10.8369 13.626,10.8369 C16.964,10.8369 19.679,13.5469 19.679,16.8779 C19.679,20.2099 16.964,22.9199 13.626,22.9199" id="Fill-3"></path>
                    <path d="M28.1416,26.7949 C22.6746,26.7949 18.2276,22.3479 18.2276,16.8809 L20.2276,16.8809 C20.2276,21.2449 23.7776,24.7949 28.1416,24.7949 L28.1416,26.7949 Z" id="Fill-5"></path>
                    <path d="M20.2275,16.8809 L18.2275,16.8809 C18.2275,11.4139 22.6745,6.9669 28.1415,6.9669 L28.1415,8.9669 C23.7775,8.9669 20.2275,12.5169 20.2275,16.8809" id="Fill-7"></path>
                    <path d="M6.8115,20.4336 L8.8215,20.7736 L10.3285,11.8426 L8.4275,11.5226 C8.4865,11.8136 8.4125,12.1166 8.2245,12.3476 L7.7755,12.9026 L7.9195,14.0066 C7.9485,14.2216 7.9065,14.4406 7.7995,14.6286 L7.3335,15.4526 L7.5935,16.6146 C7.6525,16.8746 7.6035,17.1486 7.4585,17.3736 L6.8335,18.3426 L6.9905,19.7266 C7.0125,19.9256 6.9735,20.1276 6.8795,20.3056 L6.8115,20.4336 Z M9.6405,22.9256 C9.5845,22.9256 9.5295,22.9206 9.4735,22.9126 L5.1135,22.1756 C4.7965,22.1216 4.5255,21.9196 4.3835,21.6316 C4.2415,21.3436 4.2465,21.0046 4.3965,20.7216 L4.9675,19.6426 L4.8065,18.2116 C4.7815,17.9836 4.8345,17.7526 4.9595,17.5586 L5.5505,16.6416 L5.2985,15.5126 C5.2445,15.2716 5.2825,15.0186 5.4035,14.8026 L5.8935,13.9356 L5.7375,12.7366 C5.7015,12.4646 5.7795,12.1906 5.9515,11.9776 L6.3645,11.4676 L6.1455,10.5096 C6.0715,10.1846 6.1645,9.8436 6.3925,9.6006 C6.6235,9.3576 6.9575,9.2496 7.2875,9.3006 L11.6475,10.0376 C12.1915,10.1286 12.5585,10.6456 12.4665,11.1896 L10.6265,22.0916 C10.5825,22.3536 10.4365,22.5866 10.2195,22.7416 C10.0495,22.8626 9.8465,22.9256 9.6405,22.9256 L9.6405,22.9256 Z" id="Fill-9"></path>
                </g>
                <g id="Group-14" transform="translate(32.000000, 23.352500)">
                    <mask id="mask-2" fill="white">
                        <use xlink:href="#path-1"></use>
                    </mask>
                    <g id="Clip-13"></g>
                    <polygon id="Fill-12" fill="url(#linearGradient-3)" mask="url(#mask-2)" points="20.466 9.281 0.461 9.281 0.461 22.62 20.466 22.62 20.466 29.868 35.157 15.177 20.466 0.488"></polygon>
                </g>
                <g id="Group-32" transform="translate(0.000000, 4.352500)">
                    <path d="M52.4668,42.6201 L32.4608,42.6201 C31.9078,42.6201 31.4608,42.1731 31.4608,41.6201 L31.4608,28.2801 C31.4608,27.7271 31.9078,27.2801 32.4608,27.2801 L52.4668,27.2801 C53.0198,27.2801 53.4668,27.7271 53.4668,28.2801 C53.4668,28.8331 53.0198,29.2801 52.4668,29.2801 L33.4608,29.2801 L33.4608,40.6201 L52.4668,40.6201 C53.0198,40.6201 53.4668,41.0671 53.4668,41.6201 C53.4668,42.1731 53.0198,42.6201 52.4668,42.6201" id="Fill-15" fill="#201820"></path>
                    <g id="Group-19" transform="translate(51.000000, 18.000000)">
                        <mask id="mask-5" fill="white">
                            <use xlink:href="#path-4"></use>
                        </mask>
                        <g id="Clip-18"></g>
                        <path d="M1.4668,31.8682 C1.2108,31.8682 0.9548,31.7702 0.7598,31.5752 C0.3688,31.1842 0.3688,30.5522 0.7598,30.1612 L14.7428,16.1782 L0.7598,2.1942 C0.3688,1.8042 0.3688,1.1712 0.7598,0.7802 C1.1508,0.3892 1.7828,0.3892 2.1738,0.7802 L16.8638,15.4712 C17.2548,15.8612 17.2548,16.4942 16.8638,16.8852 L2.1738,31.5752 C1.9788,31.7702 1.7228,31.8682 1.4668,31.8682" id="Fill-17" fill="#201820" mask="url(#mask-5)"></path>
                    </g>
                    <path d="M52.4668,49.8682 C51.9138,49.8682 51.4668,49.4212 51.4668,48.8682 L51.4668,41.6202 C51.4668,41.0672 51.9138,40.6202 52.4668,40.6202 C53.0198,40.6202 53.4668,41.0672 53.4668,41.6202 L53.4668,48.8682 C53.4668,49.4212 53.0198,49.8682 52.4668,49.8682" id="Fill-20" fill="#201820"></path>
                    <path d="M52.4668,29.2803 C51.9138,29.2803 51.4668,28.8333 51.4668,28.2803 L51.4668,19.4873 C51.4668,18.9343 51.9138,18.4873 52.4668,18.4873 C53.0198,18.4873 53.4668,18.9343 53.4668,19.4873 L53.4668,28.2803 C53.4668,28.8333 53.0198,29.2803 52.4668,29.2803" id="Fill-22" fill="#201820"></path>
                    <path d="M27.9414,29.2803 L14.1224,29.2803 C13.5694,29.2803 13.1224,28.8333 13.1224,28.2803 C13.1224,27.7273 13.5694,27.2803 14.1224,27.2803 L27.9414,27.2803 C28.4944,27.2803 28.9414,27.7273 28.9414,28.2803 C28.9414,28.8333 28.4944,29.2803 27.9414,29.2803" id="Fill-24" fill="#201820"></path>
                    <path d="M27.9414,34.2451 L21.0314,34.2451 C20.4784,34.2451 20.0314,33.7981 20.0314,33.2451 C20.0314,32.6921 20.4784,32.2451 21.0314,32.2451 L27.9414,32.2451 C28.4944,32.2451 28.9414,32.6921 28.9414,33.2451 C28.9414,33.7981 28.4944,34.2451 27.9414,34.2451" id="Fill-26" fill="#201820"></path>
                    <path d="M27.9414,38.4941 L23.5944,38.4941 C23.0424,38.4941 22.5944,38.0471 22.5944,37.4941 C22.5944,36.9411 23.0424,36.4941 23.5944,36.4941 L27.9414,36.4941 C28.4944,36.4941 28.9414,36.9411 28.9414,37.4941 C28.9414,38.0471 28.4944,38.4941 27.9414,38.4941" id="Fill-28" fill="#201820"></path>
                    <path d="M9.3252,58.0205 L1.0002,58.0205 C0.4472,58.0205 0.0002,57.5735 0.0002,57.0205 L0.0002,1.6275 C0.0002,1.0755 0.4472,0.6275 1.0002,0.6275 L9.3252,0.6275 L9.3252,2.6275 L2.0002,2.6275 L2.0002,56.0205 L9.3252,56.0205 L9.3252,58.0205 Z" id="Fill-30" fill="#201820"></path>
                </g>
            </g>
        </g>
    </g>
</svg>