<?xml version="1.0" encoding="UTF-8"?>
<svg width="70px" height="57px" viewBox="0 0 70 57" version="1.1" xmlns="http://www.w3.org/2000/svg" xmlns:xlink="http://www.w3.org/1999/xlink">
    <!-- Generator: Sketch 57.1 (83088) - https://sketch.com -->
    <title>icon-contact</title>
    <desc>Created with Sketch.</desc>
    <defs>
        <path d="M3,0.655 C1.35,0.655 0,2.005 0,3.656 L0,3.656 L0,8.741 C0,10.39 1.35,11.74 3,11.74 L3,11.74 L21,11.74 C21.874,11.74 25.166,12.121 25.166,12.121 L25.166,12.121 C25.166,12.121 24,9.516 24,8.741 L24,8.741 L24,3.656 C24,2.005 22.649,0.655 21,0.655 L21,0.655 L3,0.655 Z" id="path-1"></path>
        <linearGradient x1="9.65606812%" y1="61.0481185%" x2="87.5404108%" y2="61.0481185%" id="linearGradient-3">
            <stop stop-color="#E61978" offset="0%"></stop>
            <stop stop-color="#993894" offset="100%"></stop>
        </linearGradient>
    </defs>
    <g id="Page-1" stroke="none" stroke-width="1" fill="none" fill-rule="evenodd">
        <g id="Assets-Playground" transform="translate(-2685.000000, -1676.000000)">
            <g id="icon-contact" transform="translate(2685.000000, 1675.000000)">
                <polyline id="Fill-1" fill="#FEFEFE" points="48.791 24.6396 48.791 56.2696 20.121 56.2696 20.121 1.9996 48.791 1.9996 48.791 9.5496"></polyline>
                <g id="Group-12" transform="translate(19.000000, 0.269500)">
                    <path d="M29.791,57 L1.121,57 C0.568,57 0.121,56.553 0.121,56 L0.121,1.73 C0.121,1.178 0.568,0.73 1.121,0.73 L29.791,0.73 C30.344,0.73 30.791,1.178 30.791,1.73 L30.791,9.28 C30.791,9.833 30.344,10.28 29.791,10.28 C29.238,10.28 28.791,9.833 28.791,9.28 L28.791,2.73 L2.121,2.73 L2.121,55 L28.791,55 L28.791,24.37 C28.791,23.817 29.238,23.37 29.791,23.37 C30.344,23.37 30.791,23.817 30.791,24.37 L30.791,56 C30.791,56.553 30.344,57 29.791,57" id="Fill-2" fill="#201820"></path>
                    <path d="M18.625,50.5137 C18.625,52.2627 17.207,53.6807 15.458,53.6807 C13.709,53.6807 12.291,52.2627 12.291,50.5137 C12.291,48.7647 13.709,47.3477 15.458,47.3477 C17.207,47.3477 18.625,48.7647 18.625,50.5137" id="Fill-4" fill="#FEFEFE"></path>
                    <path d="M15.458,48.3477 C14.263,48.3477 13.291,49.3197 13.291,50.5137 C13.291,51.7087 14.263,52.6807 15.458,52.6807 C16.653,52.6807 17.625,51.7087 17.625,50.5137 C17.625,49.3197 16.653,48.3477 15.458,48.3477 M15.458,54.6807 C13.16,54.6807 11.291,52.8117 11.291,50.5137 C11.291,48.2167 13.16,46.3477 15.458,46.3477 C17.756,46.3477 19.625,48.2167 19.625,50.5137 C19.625,52.8117 17.756,54.6807 15.458,54.6807" id="Fill-6" fill="#201820"></path>
                    <path d="M18.625,6.8633 L12.291,6.8633 C11.738,6.8633 11.291,6.4163 11.291,5.8633 C11.291,5.3103 11.738,4.8633 12.291,4.8633 L18.625,4.8633 C19.178,4.8633 19.625,5.3103 19.625,5.8633 C19.625,6.4163 19.178,6.8633 18.625,6.8633" id="Fill-8" fill="#201820"></path>
                    <path d="M28.291,10.2803 C27.188,10.2803 26.291,11.1773 26.291,12.2803 L26.291,21.3653 C26.291,21.8713 26.01,22.7493 25.697,23.5683 C26.675,23.4683 27.798,23.3653 28.291,23.3653 L46.291,23.3653 C47.394,23.3653 48.291,22.4683 48.291,21.3653 L48.291,12.2803 C48.291,11.1773 47.394,10.2803 46.291,10.2803 L28.291,10.2803 Z M24.125,25.7463 C23.809,25.7463 23.508,25.5953 23.318,25.3373 C23.106,25.0483 23.065,24.6663 23.212,24.3383 C23.72,23.2043 24.274,21.7363 24.291,21.3593 L24.291,12.2803 C24.291,10.0743 26.085,8.2803 28.291,8.2803 L46.291,8.2803 C48.497,8.2803 50.291,10.0743 50.291,12.2803 L50.291,21.3653 C50.291,23.5713 48.497,25.3653 46.291,25.3653 L28.291,25.3653 C27.621,25.3653 25.14,25.6353 24.24,25.7393 C24.201,25.7443 24.163,25.7463 24.125,25.7463 L24.125,25.7463 Z" id="Fill-10" fill="#201820"></path>
                </g>
                <g id="Group-15" transform="translate(1.000000, 23.269500)">
                    <mask id="mask-2" fill="white">
                        <use xlink:href="#path-1"></use>
                    </mask>
                    <g id="Clip-14"></g>
                    <path d="M3,0.655 C1.35,0.655 0,2.005 0,3.656 L0,3.656 L0,8.741 C0,10.39 1.35,11.74 3,11.74 L3,11.74 L21,11.74 C21.874,11.74 25.166,12.121 25.166,12.121 L25.166,12.121 C25.166,12.121 24,9.516 24,8.741 L24,8.741 L24,3.656 C24,2.005 22.649,0.655 21,0.655 L21,0.655 L3,0.655 Z" id="Fill-13" fill="url(#linearGradient-3)" mask="url(#mask-2)"></path>
                </g>
                <path d="M4,24.9248 C2.897,24.9248 2,25.8218 2,26.9248 L2,32.0098 C2,33.1128 2.897,34.0098 4,34.0098 L22,34.0098 C22.493,34.0098 23.616,34.1128 24.594,34.2128 C24.281,33.3938 24,32.5158 24,32.0098 L24,26.9248 C24,25.8218 23.103,24.9248 22,24.9248 L4,24.9248 Z M26.166,36.3908 C26.128,36.3908 26.09,36.3888 26.051,36.3838 C25.151,36.2798 22.67,36.0098 22,36.0098 L4,36.0098 C1.794,36.0098 0,34.2158 0,32.0098 L0,26.9248 C0,24.7188 1.794,22.9248 4,22.9248 L22,22.9248 C24.206,22.9248 26,24.7188 26,26.9248 L26,32.0098 C26.017,32.3808 26.571,33.8488 27.079,34.9828 C27.226,35.3108 27.185,35.6928 26.973,35.9818 C26.783,36.2398 26.482,36.3908 26.166,36.3908 L26.166,36.3908 Z" id="Fill-16" fill="#201820"></path>
            </g>
        </g>
    </g>
</svg>