<?xml version="1.0" encoding="UTF-8"?>
<svg width="450px" height="253px" viewBox="0 0 450 253" version="1.1" xmlns="http://www.w3.org/2000/svg" xmlns:xlink="http://www.w3.org/1999/xlink">
    <!-- Generator: Sketch 57.1 (83088) - https://sketch.com -->
    <title>bg-fan-01</title>
    <desc>Created with Sketch.</desc>
    <defs>
        <polygon id="path-1" points="0.656133333 0.133666667 145.673111 0.133666667 145.673111 164.407052 0.656133333 164.407052"></polygon>
        <polygon id="path-3" points="0 0.17666 187.732057 0.17666 187.732057 159 0 159"></polygon>
    </defs>
    <g id="Page-1" stroke="none" stroke-width="1" fill="none" fill-rule="evenodd">
        <g id="Homepage" transform="translate(-200.000000, -1995.000000)">
            <g id="bg-fan-01" transform="translate(200.000000, 1995.000000)">
                <g id="Group-3" transform="translate(304.000000, 0.000000)">
                    <mask id="mask-2" fill="white">
                        <use xlink:href="#path-1"></use>
                    </mask>
                    <g id="Clip-2"></g>
                    <path d="M62.2652444,164.407052 L145.679689,50.8201952 C107.7588,22.8353857 63.0299111,5.34590952 16.2125778,0.131195238 L0.656133333,140.277671 C23.5550222,142.806767 44.6368,151.390862 62.2652444,164.407052" id="Fill-1" fill="#F1C54C" mask="url(#mask-2)"></path>
                </g>
                <g id="Group-6" transform="translate(0.000000, 94.000000)">
                    <mask id="mask-4" fill="white">
                        <use xlink:href="#path-3"></use>
                    </mask>
                    <g id="Clip-5"></g>
                    <path d="M187.732057,97.55986 L55.0869261,0.17666 C24.6743609,41.37346 5.66753478,89.97486 -0.00246521739,140.83946 L163.663317,159.00246 C166.186057,136.16546 174.748578,115.14066 187.732057,97.55986" id="Fill-4" fill="#DB306B" mask="url(#mask-4)"></path>
                </g>
                <path d="M272,140.501471 L256.022049,36 C215.418288,42.1346021 177.071206,58.8817379 145,84.4371126 L211.316732,167 C228.480674,153.311964 249.260246,143.92143 272,140.501471" id="Fill-7" fill="#EA8735"></path>
            </g>
        </g>
    </g>
</svg>