<?xml version="1.0" encoding="UTF-8"?>
<svg width="63px" height="63px" viewBox="0 0 63 63" version="1.1" xmlns="http://www.w3.org/2000/svg" xmlns:xlink="http://www.w3.org/1999/xlink">
    <!-- Generator: Sketch 57.1 (83088) - https://sketch.com -->
    <title>icon-be18</title>
    <desc>Created with Sketch.</desc>
    <defs>
        <path d="M0.998,30.865 C0.998,47.505 14.488,60.995 31.137,60.995 L31.137,60.995 C47.778,60.995 61.268,47.505 61.268,30.865 L61.268,30.865 C61.268,14.225 47.778,0.735 31.137,0.735 L31.137,0.735 C14.488,0.735 0.998,14.225 0.998,30.865 M5.758,30.865 C5.758,16.855 17.118,5.495 31.137,5.495 L31.137,5.495 C45.148,5.495 56.507,16.855 56.507,30.865 L56.507,30.865 C56.507,44.886 45.148,56.245 31.137,56.245 L31.137,56.245 C17.118,56.245 5.758,44.886 5.758,30.865" id="path-1"></path>
        <linearGradient x1="9.65606812%" y1="61.0481185%" x2="87.5404108%" y2="61.0481185%" id="linearGradient-3">
            <stop stop-color="#E61978" offset="0%"></stop>
            <stop stop-color="#993894" offset="100%"></stop>
        </linearGradient>
        <polygon id="path-4" points="0 0.7354 62.2658 0.7354 62.2658 63 0 63"></polygon>
    </defs>
    <g id="Page-1" stroke="none" stroke-width="1" fill="none" fill-rule="evenodd">
        <g id="Assets-Playground" transform="translate(-1967.000000, -1657.000000)">
            <g id="icon-be18" transform="translate(1967.000000, 1656.000000)">
                <g id="Group-6" transform="translate(0.000000, 1.264600)">
                    <mask id="mask-2" fill="white">
                        <use xlink:href="#path-1"></use>
                    </mask>
                    <g id="Clip-5"></g>
                    <path d="M0.998,30.865 C0.998,47.505 14.488,60.995 31.137,60.995 L31.137,60.995 C47.778,60.995 61.268,47.505 61.268,30.865 L61.268,30.865 C61.268,14.225 47.778,0.735 31.137,0.735 L31.137,0.735 C14.488,0.735 0.998,14.225 0.998,30.865 M5.758,30.865 C5.758,16.855 17.118,5.495 31.137,5.495 L31.137,5.495 C45.148,5.495 56.507,16.855 56.507,30.865 L56.507,30.865 C56.507,44.886 45.148,56.245 31.137,56.245 L31.137,56.245 C17.118,56.245 5.758,44.886 5.758,30.865" id="Fill-4" fill="url(#linearGradient-3)" mask="url(#mask-2)"></path>
                </g>
                <g id="Group-18" transform="translate(0.000000, 0.264600)">
                    <path d="M31.1328,7.4922 C17.6928,7.4922 6.7578,18.4272 6.7578,31.8672 C6.7578,45.3072 17.6928,56.2422 31.1328,56.2422 C44.5728,56.2422 55.5078,45.3072 55.5078,31.8672 C55.5078,18.4272 44.5728,7.4922 31.1328,7.4922 M31.1328,58.2422 C16.5898,58.2422 4.7578,46.4102 4.7578,31.8672 C4.7578,17.3242 16.5898,5.4922 31.1328,5.4922 C45.6758,5.4922 57.5078,17.3242 57.5078,31.8672 C57.5078,46.4102 45.6758,58.2422 31.1328,58.2422" id="Fill-7" fill="#201820"></path>
                    <polygon id="Fill-9" fill="#231F20" points="16.6846 27.5723 16.6386 27.5723 13.7876 28.9293 13.2116 26.3073 17.1676 24.4683 20.0646 24.4683 20.0646 39.4153 16.6846 39.4153"></polygon>
                    <path d="M28.5527,28.3086 C28.5527,29.3206 29.4727,29.9636 30.6677,30.3316 C31.4727,30.1026 32.1857,29.3666 32.1857,28.4236 C32.1857,27.5036 31.6567,26.5836 30.3687,26.5836 C29.1737,26.5836 28.5527,27.3656 28.5527,28.3086 M32.4847,35.3906 C32.4847,34.0796 31.5187,33.2986 30.1387,32.9306 C28.9897,33.2516 28.3227,34.0796 28.3227,35.1616 C28.2997,36.2426 29.1267,37.2536 30.4387,37.2536 C31.6797,37.2536 32.4847,36.4486 32.4847,35.3906 M24.7577,35.5056 C24.7577,33.7116 25.7927,32.4706 27.4257,31.7576 L27.4257,31.6886 C25.9767,30.9536 25.2647,29.7346 25.2647,28.4236 C25.2647,25.8936 27.5407,24.2156 30.5307,24.2156 C34.0257,24.2156 35.4737,26.2396 35.4737,28.0556 C35.4737,29.3426 34.7837,30.6086 33.3127,31.3436 L33.3127,31.4126 C34.7607,31.9646 36.0487,33.2056 36.0487,35.1376 C36.0487,37.8516 33.7727,39.6676 30.2997,39.6676 C26.5057,39.6676 24.7577,37.5296 24.7577,35.5056" id="Fill-11" fill="#231F20"></path>
                    <polygon id="Fill-13" fill="#231F20" points="44.7666 27.1816 44.7666 32.1946 49.5726 32.1946 49.5726 34.3566 44.7666 34.3566 44.7666 39.4146 42.5126 39.4146 42.5126 34.3566 37.7066 34.3566 37.7066 32.1946 42.5126 32.1946 42.5126 27.1816"></polygon>
                    <g id="Group-17">
                        <mask id="mask-5" fill="white">
                            <use xlink:href="#path-4"></use>
                        </mask>
                        <g id="Clip-16"></g>
                        <path d="M31.1328,2.7354 C15.0698,2.7354 1.9998,15.8034 1.9998,31.8674 C1.9998,47.9304 15.0698,61.0004 31.1328,61.0004 C47.1958,61.0004 60.2658,47.9304 60.2658,31.8674 C60.2658,15.8034 47.1958,2.7354 31.1328,2.7354 M31.1328,63.0004 C13.9658,63.0004 -0.0002,49.0344 -0.0002,31.8674 C-0.0002,14.7014 13.9658,0.7354 31.1328,0.7354 C48.2998,0.7354 62.2658,14.7014 62.2658,31.8674 C62.2658,49.0344 48.2998,63.0004 31.1328,63.0004" id="Fill-15" fill="#201820" mask="url(#mask-5)"></path>
                    </g>
                </g>
            </g>
        </g>
    </g>
</svg>