<?xml version="1.0" encoding="UTF-8"?>
<svg width="64px" height="28px" viewBox="0 0 64 28" version="1.1" xmlns="http://www.w3.org/2000/svg" xmlns:xlink="http://www.w3.org/1999/xlink">
    <!-- Generator: Sketch 57.1 (83088) - https://sketch.com -->
    <title>icon-obligation</title>
    <desc>Created with Sketch.</desc>
    <defs>
        <polygon id="path-1" points="0.469603653 0.5441 27 0.5441 27 17.9141 0.469603653 17.9141"></polygon>
    </defs>
    <g id="Page-1" stroke="none" stroke-width="1" fill="none" fill-rule="evenodd">
        <g id="Homepage" transform="translate(-1171.000000, -2462.000000)">
            <g id="icon-obligation" transform="translate(1171.000000, 2462.000000)">
                <path d="M16.6982,21.7109 L32.0672,12.2439 C28.9032,7.0959 24.4252,2.8699 19.1082,-0.0001 L10.5302,15.8829 C13.1352,17.2849 15.2272,19.3179 16.6982,21.7109" id="Fill-1" fill="#F1C54C"></path>
                <path d="M18.3203,26.4541 L8.6793,26.4541 C3.8933,26.4541 0.0003,22.5561 0.0003,17.7641 C0.0003,15.4471 0.9033,13.2671 2.5433,11.6271 C4.1813,9.9871 6.3613,9.0841 8.6793,9.0841 L18.3203,9.0841 C21.6453,9.0841 24.6253,10.9331 26.0963,13.9101 C26.3413,14.4051 26.1383,15.0051 25.6433,15.2501 C25.1453,15.4941 24.5483,15.2911 24.3033,14.7971 C23.1723,12.5071 20.8793,11.0841 18.3203,11.0841 L8.6793,11.0841 C6.8953,11.0841 5.2183,11.7791 3.9573,13.0411 C2.6953,14.3041 2.0003,15.9811 2.0003,17.7641 C2.0003,21.4531 4.9963,24.4541 8.6793,24.4541 L18.3203,24.4541 C21.3423,24.4541 23.9923,22.4161 24.7623,19.4981 C24.9043,18.9641 25.4523,18.6491 25.9853,18.7871 C26.5183,18.9281 26.8373,19.4751 26.6963,20.0101 C25.6943,23.8041 22.2503,26.4541 18.3203,26.4541" id="Fill-3" fill="#57337E"></path>
                <g id="Group-7" transform="translate(37.000000, 7.889600)">
                    <mask id="mask-2" fill="white">
                        <use xlink:href="#path-1"></use>
                    </mask>
                    <g id="Clip-6"></g>
                    <path d="M18.3203,17.9141 L8.6793,17.9141 C5.0483,17.9141 1.7733,15.6201 0.5303,12.2061 C0.3413,11.6871 0.6083,11.1131 1.1283,10.9251 C1.6443,10.7371 2.2203,11.0031 2.4093,11.5221 C3.3663,14.1491 5.8853,15.9141 8.6793,15.9141 L18.3203,15.9141 C22.0043,15.9141 25.0003,12.9181 25.0003,9.2341 C25.0003,5.5451 22.0043,2.5441 18.3203,2.5441 L8.6793,2.5441 C6.8963,2.5441 5.2183,3.2391 3.9573,4.5011 C3.2993,5.1581 2.7763,5.9621 2.4423,6.8241 C2.2433,7.3401 1.6623,7.5961 1.1493,7.3961 C0.6333,7.1971 0.3783,6.6181 0.5773,6.1031 C1.0103,4.9821 1.6903,3.9391 2.5433,3.0871 C4.1823,1.4471 6.3623,0.5441 8.6793,0.5441 L18.3203,0.5441 C23.1063,0.5441 27.0003,4.4421 27.0003,9.2341 C27.0003,14.0201 23.1063,17.9141 18.3203,17.9141" id="Fill-5" fill="#57337E" mask="url(#mask-2)"></path>
                </g>
                <path d="M33.5996,13.6757 C33.3676,13.6757 33.1346,13.5957 32.9456,13.4327 C32.5276,13.0717 32.4826,12.4397 32.8426,12.0217 L35.9916,8.3807 C36.3546,7.9627 36.9846,7.9187 37.4026,8.2787 C37.8206,8.6397 37.8656,9.2717 37.5046,9.6897 L34.3566,13.3297 C34.1586,13.5587 33.8796,13.6757 33.5996,13.6757" id="Fill-8" fill="#57337E"></path>
                <path d="M29.042,13.4609 C28.741,13.4609 28.444,13.3259 28.247,13.0689 L25.321,9.2489 C24.985,8.8109 25.068,8.1829 25.507,7.8469 C25.946,7.5119 26.573,7.5949 26.909,8.0319 L29.835,11.8529 C30.171,12.2909 30.088,12.9189 29.649,13.2549 C29.468,13.3939 29.254,13.4609 29.042,13.4609" id="Fill-10" fill="#57337E"></path>
                <path d="M26.3477,27.4951 C26.1157,27.4951 25.8827,27.4151 25.6937,27.2521 C25.2757,26.8911 25.2307,26.2591 25.5907,25.8411 L28.7397,22.2001 C29.1027,21.7821 29.7327,21.7381 30.1507,22.0981 C30.5687,22.4591 30.6137,23.0911 30.2527,23.5091 L27.1047,27.1491 C26.9067,27.3781 26.6277,27.4951 26.3477,27.4951" id="Fill-12" fill="#57337E"></path>
                <path d="M36.9814,27.8896 C36.6804,27.8896 36.3834,27.7546 36.1864,27.4976 L33.2604,23.6766 C32.9244,23.2376 33.0074,22.6106 33.4464,22.2746 C33.8864,21.9396 34.5134,22.0226 34.8484,22.4596 L37.7744,26.2816 C38.1104,26.7206 38.0274,27.3476 37.5884,27.6836 C37.4074,27.8226 37.1934,27.8896 36.9814,27.8896" id="Fill-14" fill="#57337E"></path>
                <path d="M30.2529,18.1191 L23.2529,18.1191 C22.6999,18.1191 22.2529,17.6721 22.2529,17.1191 C22.2529,16.5661 22.6999,16.1191 23.2529,16.1191 L30.2529,16.1191 C30.8059,16.1191 31.2529,16.5661 31.2529,17.1191 C31.2529,17.6721 30.8059,18.1191 30.2529,18.1191" id="Fill-16" fill="#57337E"></path>
                <path d="M40.5859,18.1191 L33.5999,18.1191 C33.0469,18.1191 32.5999,17.6721 32.5999,17.1191 C32.5999,16.5661 33.0469,16.1191 33.5999,16.1191 L40.5859,16.1191 C41.1389,16.1191 41.5859,16.5661 41.5859,17.1191 C41.5859,17.6721 41.1389,18.1191 40.5859,18.1191" id="Fill-18" fill="#57337E"></path>
            </g>
        </g>
    </g>
</svg>