<?xml version="1.0" encoding="UTF-8"?>
<svg width="213px" height="174px" viewBox="0 0 213 174" version="1.1" xmlns="http://www.w3.org/2000/svg" xmlns:xlink="http://www.w3.org/1999/xlink">
    <!-- Generator: Sketch 57.1 (83088) - https://sketch.com -->
    <title>icon-apply-online</title>
    <desc>Created with Sketch.</desc>
    <defs>
        <polygon id="path-1" points="0 1.74696667 14.7282286 1.74696667 14.7282286 5.32863333 0 5.32863333"></polygon>
    </defs>
    <g id="Page-1" stroke="none" stroke-width="1" fill="none" fill-rule="evenodd">
        <g id="Homepage" transform="translate(-381.000000, -1591.000000)">
            <g id="icon-apply-online" transform="translate(381.000000, 1591.000000)">
                <path d="M15,70.5233007 L144.988,166 C177.041938,122.600867 197.041345,71.3985734 203,17.7956643 L42.6023901,0 C39.7160937,26.2187133 29.894313,50.3432727 15,70.5233007" id="Fill-1" fill="#F7F3F2"></path>
                <path d="M181,63 C181,74.0468571 171.868545,83 160.601677,83 L62.3983229,83 C51.1314549,83 42,74.0468571 42,63 C42,51.9531429 51.1314549,43 62.3983229,43 L160.601677,43 C171.868545,43 181,51.9531429 181,63" id="Fill-3" fill="#FFFFFE"></path>
                <path d="M61.7829615,44.7179487 C51.7981826,44.7179487 43.673428,52.9201026 43.673428,63 C43.673428,73.0798974 51.7981826,81.2820513 61.7829615,81.2820513 L160.217039,81.2820513 C170.201817,81.2820513 178.326572,73.0798974 178.326572,63 C178.326572,52.9201026 170.201817,44.7179487 160.217039,44.7179487 L61.7829615,44.7179487 Z M160.217039,86 L61.7829615,86 C49.220787,86 39,75.6818462 39,63 C39,50.3181538 49.220787,40 61.7829615,40 L160.217039,40 C172.779213,40 183,50.3181538 183,63 C183,75.6818462 172.779213,86 160.217039,86 L160.217039,86 Z" id="Fill-5" fill="#57337E"></path>
                <path d="M78,62.5 C78,71.0605926 71.0605926,78 62.5,78 C53.9394074,78 47,71.0605926 47,62.5 C47,53.9394074 53.9394074,47 62.5,47 C71.0605926,47 78,53.9394074 78,62.5" id="Fill-7" fill="#7C3782"></path>
                <path d="M175,62.5 C175,71.0605926 168.060593,78 159.5,78 C150.939407,78 144,71.0605926 144,62.5 C144,53.9394074 150.939407,47 159.5,47 C168.060593,47 175,53.9394074 175,62.5" id="Fill-9" fill="#DB306B"></path>
                <path d="M76,49.8229691 C76,53.2329569 73.2980671,56 69.9683186,56 L34.0316814,56 C30.7019329,56 28,53.2329569 28,49.8229691 L28,27.1746496 C28,23.7646619 30.7019329,21 34.0316814,21 L69.9683186,21 C73.2980671,21 76,23.7646619 76,27.1746496 L76,49.8229691 Z" id="Fill-11" fill="#FFFFFE"></path>
                <path d="M34.2536766,23.6712181 C32.2350395,23.6712181 30.593031,25.3411786 30.593031,27.3941789 L30.593031,49.6058211 C30.593031,51.6588214 32.2350395,53.3287819 34.2536766,53.3287819 L69.7463234,53.3287819 C71.7649605,53.3287819 73.406969,51.6588214 73.406969,49.6058211 L73.406969,27.3941789 C73.406969,25.3411786 71.7649605,23.6712181 69.7463234,23.6712181 L34.2536766,23.6712181 Z M69.7463234,58 L34.2536766,58 C29.7042795,58 26,54.2349982 26,49.6058211 L26,27.3941789 C26,22.7650018 29.7042795,19 34.2536766,19 L69.7463234,19 C74.298017,19 78,22.7650018 78,27.3941789 L78,49.6058211 C78,54.2349982 74.298017,58 69.7463234,58 L69.7463234,58 Z" id="Fill-13" fill="#57337E"></path>
                <path d="M68.6032483,24 C68.5150812,24 68.4269142,23.9953507 68.3387471,23.9860522 C67.0649652,23.8419244 66.1508121,22.691227 66.2946636,21.414999 C66.3457077,20.9593693 66.3596288,20.501415 66.3596288,20.0457853 C66.3596288,12.1071356 59.9234339,5.64928239 52.0092807,5.64928239 C44.0858469,5.64928239 37.6403712,12.1071356 37.6403712,20.0457853 C37.6403712,20.5037396 37.6566125,20.961694 37.7076566,21.4196483 C37.8468677,22.6935516 36.9303944,23.844249 35.6566125,23.9860522 C34.3921114,24.1208813 33.2366589,23.209622 33.0928074,21.9310693 C33.025522,21.3034162 33,20.6734384 33,20.0457853 C33,9.5430564 41.5266821,1 52.0092807,1 C62.4802784,1 71,9.5430564 71,20.0457853 C71,20.6757631 70.9767981,21.3057409 70.9048724,21.9357186 C70.7726218,23.1236103 69.7679814,24 68.6032483,24" id="Fill-15" fill="#57337E"></path>
                <path d="M61.5870246,24 C61.4458883,24 61.3024756,23.9862306 61.1567865,23.9586919 C59.9229821,23.7200229 59.1125866,22.5174986 59.3493313,21.2736661 C59.4198995,20.8973035 59.4472162,20.5048766 59.4472162,20.0963855 C59.4472162,15.9586919 56.1054728,12.5897877 51.9988618,12.5897877 C47.8922508,12.5897877 44.5527838,15.9586919 44.5527838,20.0963855 C44.5527838,20.5048766 44.5778241,20.8973035 44.6506687,21.2736661 C44.8874134,22.5174986 44.0770179,23.7200229 42.8432135,23.9586919 C41.6048563,24.195066 40.4165797,23.3803787 40.1775586,22.1365462 C40.0591862,21.5031555 40,20.8376363 40,20.0963855 C40,13.427424 45.3836669,8 51.9988618,8 C58.6163331,8 64,13.427424 64,20.0963855 C64,20.8376363 63.9408138,21.5031555 63.820165,22.1365462 C63.6130134,23.2358003 62.6569288,24 61.5870246,24" id="Fill-17" fill="#57337E"></path>
                <path d="M179,119.888361 L179,143.230294 C177.566711,146.855545 175.5786,151.83734 174.399604,154.152822 C173.498018,155.953753 171.371202,158.152292 169.336856,160 L125.436592,160 L109,145.826441 L109,120.402913 C111.080581,118.99959 112.745046,117.876932 113.646631,117.268826 C117.946499,114.368625 123.147952,113.269356 123.147952,113.269356 L124.142008,63 L137.134082,65.1470836 L136.625495,101.317725 L154.74967,106.089022 L173.983487,113.222579 L177.035007,116.917995 L178.306473,119.771418 L179,119.888361 Z" id="Fill-19" fill="#DB306B"></path>
                <path d="M172.039469,174 L125.298761,174 C124.027546,174 123,172.949217 123,171.654503 C123,170.359788 124.027546,169.309006 125.298761,169.309006 L167.441947,169.309006 L167.441947,156.962308 L168.651095,156.298533 C168.989013,156.103856 177.402478,151.054001 177.402478,133.345497 C177.402478,132.050783 178.432323,131 179.701239,131 C180.972454,131 182,132.050783 182,133.345497 C182,150.155676 174.942804,157.354006 172.039469,159.603338 L172.039469,174 Z" id="Fill-21" fill="#57337E"></path>
                <path d="M170,161 L125.505854,161 L116.126402,154.815091 C108.192115,149.589909 107.886135,145.2155 108.020295,143.859364 L108.020295,123.909091 C108.020295,118.530909 112.492305,110 124.496121,110 L124.496121,114.636364 C115.860435,114.636364 112.727674,120.181455 112.727674,123.909091 L112.685308,144.425 C112.687661,144.422682 112.687661,144.422682 112.687661,144.422682 C112.711198,144.422682 112.854773,147.081636 118.741351,150.957636 L126.936897,156.363636 L170,156.363636 L170,161 Z" id="Fill-23" fill="#57337E"></path>
                <path d="M125.29901,137 C124.030151,137 123,135.950378 123,134.657095 L123,66.6144419 C122.995755,66.3332933 123.004949,63.4327766 125.117416,61.2374745 C126.101241,60.2159678 127.912584,59 130.94911,59 C137.035956,59 139.417365,63.7279827 139.826527,66.2278625 C139.847214,66.3567223 139.856409,66.4832392 139.856409,66.6144419 L139.856409,99.0894509 C144.302013,100.317133 156.452718,103.630001 163.295822,105.02403 C175.182181,107.446594 182,114.369879 182,124.015619 C182,125.308903 180.970201,126.358525 179.701342,126.358525 C178.432483,126.358525 177.402685,125.308903 177.402685,124.015619 C177.402685,114.151988 167.998876,110.761805 162.39245,109.618467 C153.790872,107.863631 137.631308,103.327766 136.946308,103.135648 C135.95099,102.856842 135.259094,101.931395 135.259094,100.87943 L135.259094,66.8534182 C135.0775,66.0872882 134.236191,63.6858104 130.94911,63.6858104 C128.057399,63.6858104 127.606862,65.5109336 127.597667,66.6003845 L127.597667,134.657095 C127.597667,135.950378 126.567869,137 125.29901,137" id="Fill-25" fill="#57337E"></path>
                <path d="M9,30.2122905 C9,31.1992551 8.10358306,32 6.99869707,32 C5.89641694,32 5,31.1992551 5,30.2122905 L5,18.7877095 C5,17.8007449 5.89641694,17 6.99869707,17 C8.10358306,17 9,17.8007449 9,18.7877095 L9,30.2122905 Z" id="Fill-27" fill="#EDCED5"></path>
                <g id="Group-31" transform="translate(0.000000, 21.000000)">
                    <mask id="mask-2" fill="white">
                        <use xlink:href="#path-1"></use>
                    </mask>
                    <g id="Clip-30"></g>
                    <path d="M1.75451429,5.32863333 C0.785371429,5.32863333 -0.000914285714,4.52596667 -0.000914285714,3.53663333 C-0.000914285714,2.54963333 0.785371429,1.74696667 1.75451429,1.74696667 L12.9728,1.74696667 C13.9419429,1.74696667 14.7282286,2.54963333 14.7282286,3.53663333 C14.7282286,4.52596667 13.9419429,5.32863333 12.9728,5.32863333 L1.75451429,5.32863333 Z" id="Fill-29" fill="#EDCED5" mask="url(#mask-2)"></path>
                </g>
                <path d="M50.9461308,122.106734 C50.6101749,124.009794 48.7965375,125.28025 46.8936618,124.946886 C44.9907861,124.610898 43.7178279,122.794461 44.0537839,120.891401 C44.3897399,118.988342 46.2060019,117.717886 48.1088776,118.053874 C50.0117533,118.387238 51.2820868,120.20105 50.9461308,122.106734" id="Fill-32" fill="#EDCED5"></path>
                <path d="M213,78.5 C213,80.4324831 211.433071,82 209.501312,82 C207.569554,82 206,80.4324831 206,78.5 C206,76.5648912 207.569554,75 209.501312,75 C211.433071,75 213,76.5648912 213,78.5" id="Fill-34" fill="#EDCED5"></path>
                <path d="M182,29.2122905 C182,30.1992551 181.103583,31 179.998697,31 C178.896417,31 178,30.1992551 178,29.2122905 L178,17.7877095 C178,16.8007449 178.896417,16 179.998697,16 C181.103583,16 182,16.8007449 182,17.7877095 L182,29.2122905 Z" id="Fill-36" fill="#EDCED5"></path>
                <path d="M173.787709,25 C172.800745,25 172,24.1035831 172,22.9986971 C172,21.8964169 172.800745,21 173.787709,21 L185.212291,21 C186.199255,21 187,21.8964169 187,22.9986971 C187,24.1035831 186.199255,25 185.212291,25 L173.787709,25 Z" id="Fill-38" fill="#EDCED5"></path>
                <path d="M162,68.4523289 C162,69.3070456 161.328864,70 160.501059,70 C159.671136,70 159,69.3070456 159,68.4523289 L159,58.5476711 C159,57.6929544 159.671136,57 160.501059,57 C161.328864,57 162,57.6929544 162,58.5476711 L162,68.4523289 Z" id="Fill-40" fill="#FFFFFE"></path>
                <path d="M155.547671,65 C154.692954,65 154,64.3288638 154,63.5010586 C154,62.6711362 154.692954,62 155.547671,62 L165.452329,62 C166.307046,62 167,62.6711362 167,63.5010586 C167,64.3288638 166.307046,65 165.452329,65 L155.547671,65 Z" id="Fill-42" fill="#FFFFFE"></path>
                <path d="M58.5476711,65 C57.6929544,65 57,64.3288638 57,63.5010586 C57,62.6711362 57.6929544,62 58.5476711,62 L68.4523289,62 C69.3070456,62 70,62.6711362 70,63.5010586 C70,64.3288638 69.3070456,65 68.4523289,65 L58.5476711,65 Z" id="Fill-44" fill="#FFFFFE"></path>
                <path d="M91.8656617,110 C88.5108946,110 87.082142,106.131241 85.7000807,102.388017 C84.6425236,99.5258203 83.4448928,96.2824536 81.7289889,96.2824536 C80.0177542,96.2824536 78.8201234,99.5258203 77.7625663,102.388017 C76.3828395,106.128959 74.9540869,110 71.6016544,110 C68.2515564,110 66.8228038,106.128959 65.443077,102.388017 C64.3878545,99.5258203 63.1925582,96.2824536 61.4813235,96.2824536 C59.7724233,96.2824536 58.577127,99.5258203 57.5219045,102.388017 C56.1398432,106.128959 54.7134252,110 51.3633272,110 C48.0132292,110 46.5844766,106.131241 45.2047498,102.388017 C44.1495273,99.5258203 42.9518965,96.2824536 41.2406617,96.2824536 C39.5317616,96.2824536 38.3341307,99.5258203 37.2789082,102.388017 C35.8991815,106.131241 34.4727634,110 31.1203309,110 C27.7702329,110 26.3438148,106.128959 24.9617535,102.388017 C23.906531,99.5258203 22.7089002,96.2824536 21,96.2824536 L21,94 C24.350098,94 25.776516,97.8710414 27.1585774,101.611983 C28.2137999,104.47418 29.4114307,107.717546 31.1203309,107.717546 C32.8315656,107.717546 34.0291964,104.47418 35.084419,101.614265 C36.4641457,97.8710414 37.8905638,94 41.2406617,94 C44.5907597,94 46.0195123,97.8710414 47.4015737,101.614265 C48.4567962,104.47418 49.6520925,107.717546 51.3633272,107.717546 C53.0722273,107.717546 54.2698582,104.47418 55.3250807,101.611983 C56.7048075,97.8710414 58.1335601,94 61.4813235,94 C64.8314215,94 66.2578395,97.8710414 67.6399009,101.611983 C68.6951234,104.47418 69.8904196,107.717546 71.6016544,107.717546 C73.3152237,107.717546 74.5105199,104.47418 75.568077,101.611983 C76.9501383,97.8710414 78.3788909,94 81.7289889,94 C85.0837561,94 86.5125086,97.8710414 87.89457,101.611983 C88.952127,104.47418 90.1520925,107.717546 91.8656617,107.717546 C93.579231,107.717546 94.7791964,104.47418 95.8367535,101.611983 C97.2188148,97.8710414 98.6475674,94 102,94 L102,96.2824536 C100.286431,96.2824536 99.0887999,99.5258203 98.0312428,102.388017 C96.6491815,106.131241 95.2204289,110 91.8656617,110" id="Fill-46" fill="#F1C54C"></path>
                <path d="M56,35 C56,37.2081744 54.2103542,39 52,39 C49.7896458,39 48,37.2081744 48,35 C48,32.7918256 49.7896458,31 52,31 C54.2103542,31 56,32.7918256 56,35" id="Fill-48" fill="#EA8735"></path>
                <polygon id="Fill-50" fill="#EA8735" points="58 48 47 48 51.713949 35 53.286051 35"></polygon>
            </g>
        </g>
    </g>
</svg>