<?xml version="1.0" encoding="UTF-8"?>
<svg width="45px" height="79px" viewBox="0 0 45 79" version="1.1" xmlns="http://www.w3.org/2000/svg" xmlns:xlink="http://www.w3.org/1999/xlink">
    <!-- Generator: Sketch 56.3 (81716) - https://sketch.com -->
    <title>icon-pay-loans</title>
    <desc>Created with Sketch.</desc>
    <defs>
        <polygon id="path-1" points="5.422 3.223 0.249 50.403 0.249 50.411 0 52.675 12.236 54.014 16.071 54.434 13.758 50.833 14.469 46.913 17.552 47.856 25.516 55.476 26.231 48.949 26.823 43.589 27.219 39.971 31.279 2.927 5.764 0.127"></polygon>
        <linearGradient x1="61.2379508%" y1="24.6805765%" x2="65.9682075%" y2="91.1942189%" id="linearGradient-3">
            <stop stop-color="#58CAEA" offset="0%"></stop>
            <stop stop-color="#A7D6A4" offset="100%"></stop>
        </linearGradient>
        <polygon id="path-4" points="0 0.128 33.2799103 0.128 33.2799103 57.4756 0 57.4756"></polygon>
        <polygon id="path-6" points="0.8224 0.5884 17.995 0.5884 17.995 29.9834 0.8224 29.9834"></polygon>
        <polygon id="path-8" points="0 79 44.995 79 44.995 0.128 0 0.128"></polygon>
    </defs>
    <g id="Page-1" stroke="none" stroke-width="1" fill="none" fill-rule="evenodd">
        <g id="Assets-Playground" transform="translate(-883.000000, -2289.000000)">
            <g id="icon-pay-loans" transform="translate(883.000000, 2288.000000)">
                <g id="Group-3" transform="translate(1.000000, 1.871800)">
                    <mask id="mask-2" fill="white">
                        <use xlink:href="#path-1"></use>
                    </mask>
                    <g id="Clip-2"></g>
                    <polygon id="Fill-1" fill="url(#linearGradient-3)" mask="url(#mask-2)" points="5.422 3.223 0.249 50.403 0.249 50.411 0 52.675 12.236 54.014 16.071 54.434 13.758 50.833 14.469 46.913 17.552 47.856 25.516 55.476 26.231 48.949 26.823 43.589 27.219 39.971 31.279 2.927 5.764 0.127"></polygon>
                </g>
                <g id="Group-27" transform="translate(0.000000, 0.871800)">
                    <g id="Group-6">
                        <mask id="mask-5" fill="white">
                            <use xlink:href="#path-4"></use>
                        </mask>
                        <g id="Clip-5"></g>
                        <path d="M26.5159,57.4756 C26.4769,57.4756 26.4379,57.4736 26.3989,57.4686 L26.0009,57.4216 C25.4529,57.3576 25.0609,56.8606 25.1249,56.3116 C25.1629,55.9896 25.3509,55.7216 25.6099,55.5686 L31.1769,4.8126 L7.6489,2.2306 L2.2459,51.4826 C2.2449,51.4966 2.2449,51.5086 2.2439,51.5206 L2.1039,52.7896 L17.1799,54.4396 C17.7299,54.4996 18.1249,54.9936 18.0659,55.5416 C18.0049,56.0906 17.5029,56.4856 16.9629,56.4276 L0.8919,54.6686 C0.6279,54.6396 0.3859,54.5076 0.2199,54.3006 C0.0539,54.0936 -0.0231,53.8296 0.0059,53.5656 L0.2519,51.3316 C0.2529,51.3186 0.2539,51.3056 0.2549,51.2936 L5.7699,1.0176 C5.8309,0.4696 6.3199,0.0806 6.8729,0.1326 L32.3889,2.9336 C32.9379,2.9946 33.3339,3.4876 33.2739,4.0376 L27.5099,56.5846 C27.4809,56.8496 27.3469,57.0916 27.1389,57.2576 C26.9599,57.3996 26.7409,57.4756 26.5159,57.4756" id="Fill-4" fill="#201820" mask="url(#mask-5)"></path>
                    </g>
                    <path d="M15.4983,18.7637 C15.3063,18.7637 15.1123,18.7527 14.9183,18.7317 C13.4743,18.5737 12.1533,17.8077 11.2963,16.6327 L12.9113,15.4527 C13.4383,16.1757 14.2493,16.6457 15.1373,16.7427 C15.9873,16.8417 16.8273,16.5937 17.4983,16.0577 C18.1683,15.5217 18.5893,14.7577 18.6823,13.9077 C18.7753,13.0557 18.5303,12.2187 17.9923,11.5507 C17.4553,10.8817 16.6883,10.4627 15.8363,10.3687 C15.3123,10.3117 14.7743,10.3847 14.2783,10.5807 L13.5403,8.7237 C14.3393,8.4057 15.2143,8.2887 16.0543,8.3807 C17.4363,8.5327 18.6793,9.2127 19.5513,10.2967 C20.4253,11.3817 20.8223,12.7427 20.6703,14.1247 C20.5193,15.5077 19.8363,16.7487 18.7483,17.6187 C17.8133,18.3667 16.6773,18.7627 15.4983,18.7637" id="Fill-7" fill="#201820"></path>
                    <path d="M26.6047,23.2666 C21.9797,22.7586 18.6297,18.5836 19.1367,13.9576 L21.1257,14.1766 C20.7387,17.7046 23.2937,20.8916 26.8237,21.2786 L26.6047,23.2666 Z" id="Fill-9" fill="#201820"></path>
                    <path d="M21.1252,14.1768 L19.1372,13.9578 C19.3832,11.7168 20.4862,9.7058 22.2432,8.2958 C24.0002,6.8868 26.2022,6.2468 28.4442,6.4908 L28.2262,8.4798 C26.5212,8.2938 24.8362,8.7808 23.4942,9.8568 C22.1542,10.9318 21.3122,12.4658 21.1252,14.1768" id="Fill-11" fill="#201820"></path>
                    <path d="M9.7707,15.7861 L11.0317,16.1441 L13.0027,9.1941 L11.8197,8.8581 C11.7897,9.0711 11.6907,9.2701 11.5347,9.4251 L11.1627,9.7941 L11.1807,10.6511 C11.1847,10.8681 11.1197,11.0811 10.9927,11.2571 L10.5687,11.8471 L10.6707,12.7691 C10.7007,13.0351 10.6227,13.3021 10.4547,13.5101 L9.8847,14.2121 L9.8877,15.3131 C9.8877,15.4791 9.8477,15.6411 9.7707,15.7861 M11.7207,18.3801 C11.6287,18.3801 11.5377,18.3671 11.4477,18.3421 L7.8977,17.3341 C7.5887,17.2461 7.3407,17.0151 7.2317,16.7141 C7.1217,16.4121 7.1637,16.0761 7.3437,15.8101 L7.8867,15.0101 L7.8837,13.8611 C7.8827,13.6311 7.9617,13.4071 8.1067,13.2281 L8.6367,12.5751 L8.5387,11.6841 C8.5107,11.4381 8.5767,11.1911 8.7207,10.9901 L9.1737,10.3601 L9.1537,9.4071 C9.1477,9.1331 9.2547,8.8681 9.4497,8.6761 L9.7807,8.3481 L9.6957,7.6131 C9.6567,7.2821 9.7867,6.9531 10.0407,6.7361 C10.2947,6.5201 10.6387,6.4441 10.9607,6.5361 L14.5107,7.5431 C14.7667,7.6151 14.9827,7.7861 15.1117,8.0171 C15.2417,8.2491 15.2727,8.5221 15.2007,8.7771 L12.6827,17.6521 C12.6107,17.9081 12.4397,18.1241 12.2087,18.2531 C12.0577,18.3371 11.8897,18.3801 11.7207,18.3801" id="Fill-13" fill="#201820"></path>
                    <polygon id="Fill-15" fill="#FEFEFE" points="6.4241 4.2236 1.2481 51.4086 2.4101 3.7836"></polygon>
                    <path d="M3.383,4.8955 L2.822,27.8845 L5.32,5.1085 L3.383,4.8955 Z M1.249,52.4085 C1.227,52.4085 1.204,52.4075 1.182,52.4065 C0.647,52.3705 0.236,51.9185 0.248,51.3835 L1.41,3.7585 C1.417,3.4785 1.541,3.2145 1.752,3.0305 C1.962,2.8465 2.235,2.7585 2.52,2.7895 L6.533,3.2295 C7.082,3.2905 7.479,3.7845 7.418,4.3335 L2.242,51.5175 C2.187,52.0275 1.755,52.4085 1.249,52.4085 L1.249,52.4085 Z" id="Fill-17" fill="#201820"></path>
                    <g id="Group-21" transform="translate(27.000000, 43.000000)">
                        <mask id="mask-7" fill="white">
                            <use xlink:href="#path-6"></use>
                        </mask>
                        <g id="Clip-20"></g>
                        <path d="M17.9954,29.9834 L15.9954,29.9834 L15.9954,20.6254 C15.9954,17.1144 14.9204,15.8804 14.9094,15.8684 C14.7984,15.7394 7.5544,7.1874 4.8084,4.4074 C3.5404,3.1224 2.8394,2.7044 2.6104,2.5884 L0.8224,2.5884 L0.8224,0.5884 L2.7984,0.5884 C2.8634,0.5884 2.9304,0.5954 2.9944,0.6084 C3.3224,0.6734 4.2954,1.0394 6.2324,3.0034 C9.0304,5.8374 16.0984,14.1794 16.3974,14.5334 C16.5104,14.6414 17.9954,16.2534 17.9954,20.6254 L17.9954,29.9834 Z" id="Fill-19" fill="#201820" mask="url(#mask-7)"></path>
                    </g>
                    <path d="M26.7834,74.8506 C26.7134,74.7226 19.6844,61.9766 16.2054,55.9326 C15.2044,54.2056 14.5984,53.1976 14.4074,52.9386 C13.4064,51.6046 13.5924,49.0906 14.7934,47.7736 C15.7084,46.7716 17.0064,46.6346 18.2644,47.4096 C19.6094,48.2356 22.4994,51.0416 26.8524,55.7496 C27.9704,56.9626 28.8484,57.9416 29.2064,58.3396 C29.3404,58.3766 29.4714,58.3926 29.5794,58.3986 C29.5884,58.3376 29.5954,58.2356 29.5804,58.0766 C29.3354,55.3736 28.0594,51.2946 27.1404,50.9806 C27.1394,50.9796 27.0314,50.9406 27.0294,50.9406 L26.8564,50.8756 L27.6064,49.0226 L27.8264,49.1016 C30.6874,50.0806 31.5654,57.8176 31.5724,57.8946 C31.6824,59.1116 31.2084,59.7276 30.7904,60.0296 C29.8094,60.7416 28.4894,60.2256 28.2334,60.1166 C28.0994,60.0576 27.9794,59.9716 27.8834,59.8626 C27.8804,59.8596 26.8374,58.6836 25.3834,57.1066 C21.2734,52.6626 18.3734,49.8236 17.2174,49.1126 C16.6174,48.7446 16.4094,48.9716 16.2704,49.1216 C15.7224,49.7226 15.5804,51.1686 16.0124,51.7456 C16.1914,51.9886 16.5564,52.5516 17.9364,54.9316 C21.4274,60.9956 28.4644,73.7566 28.5354,73.8856 L26.7834,74.8506 Z" id="Fill-22" fill="#201820"></path>
                    <mask id="mask-9" fill="white">
                        <use xlink:href="#path-8"></use>
                    </mask>
                    <g id="Clip-25"></g>
                    <polygon id="Fill-24" fill="#FEFEFE" mask="url(#mask-9)" points="26.894 78 43.995 78 43.995 72.983 26.894 72.983"></polygon>
                    <path d="M27.895,77 L42.996,77 L42.996,73.983 L27.895,73.983 L27.895,77 Z M43.995,79 L26.895,79 C26.342,79 25.895,78.553 25.895,78 L25.895,72.983 C25.895,72.431 26.342,71.983 26.895,71.983 L43.995,71.983 C44.548,71.983 44.995,72.431 44.995,72.983 L44.995,78 C44.995,78.553 44.548,79 43.995,79 L43.995,79 Z" id="Fill-26" fill="#201820" mask="url(#mask-9)"></path>
                </g>
            </g>
        </g>
    </g>
</svg>