<?xml version="1.0" encoding="UTF-8"?>
<svg width="51px" height="58px" viewBox="0 0 51 58" version="1.1" xmlns="http://www.w3.org/2000/svg" xmlns:xlink="http://www.w3.org/1999/xlink">
    <!-- Generator: Sketch 56.3 (81716) - https://sketch.com -->
    <title>icon-short-term</title>
    <desc>Created with Sketch.</desc>
    <defs>
        <polygon id="path-1" points="0 58 50.101 58 50.101 0.078 0 0.078"></polygon>
        <polygon id="path-3" points="0.389 2.501 0.389 23.418 8.24 25 16.08 23.584 16.08 2.217 8.234 0.126"></polygon>
        <linearGradient x1="34.9153207%" y1="50%" x2="64.4381353%" y2="60.3877508%" id="linearGradient-5">
            <stop stop-color="#5CB0E2" offset="0%"></stop>
            <stop stop-color="#6F4FA0" offset="100%"></stop>
        </linearGradient>
        <polygon id="path-6" points="0.389 2.501 0.389 23.418 8.24 25 16.08 23.584 16.08 2.217 8.234 0.126"></polygon>
        <filter x="-331.4%" y="-201.0%" width="762.8%" height="518.1%" filterUnits="objectBoundingBox" id="filter-7">
            <feOffset dx="0" dy="2" in="SourceAlpha" result="shadowOffsetOuter1"></feOffset>
            <feGaussianBlur stdDeviation="17" in="shadowOffsetOuter1" result="shadowBlurOuter1"></feGaussianBlur>
            <feColorMatrix values="0 0 0 0 0   0 0 0 0 0   0 0 0 0 0  0 0 0 0.4 0" type="matrix" in="shadowBlurOuter1"></feColorMatrix>
        </filter>
        <polygon id="path-8" points="0 58 50.101 58 50.101 0.078 0 0.078"></polygon>
    </defs>
    <g id="Page-1" stroke="none" stroke-width="1" fill="none" fill-rule="evenodd">
        <g id="Assets-Playground" transform="translate(-1375.000000, -2292.000000)">
            <g id="icon-short-term" transform="translate(1375.000000, 2291.000000)">
                <g id="Group-23" transform="translate(0.000000, 0.921900)">
                    <path d="M24,6.8184 L13.75,6.8184 C13.197,6.8184 12.75,6.3714 12.75,5.8184 C12.75,5.2654 13.197,4.8184 13.75,4.8184 L24,4.8184 C24.553,4.8184 25,5.2654 25,5.8184 C25,6.3714 24.553,6.8184 24,6.8184" id="Fill-1" fill="#201820"></path>
                    <path d="M33.75,44.6387 L4,44.6387 C1.794,44.6387 0,42.8447 0,40.6387 L0,8.8187 C0,6.6127 1.794,4.8187 4,4.8187 L10,4.8187 C10.553,4.8187 11,5.2657 11,5.8187 C11,6.3707 10.553,6.8187 10,6.8187 L4,6.8187 C2.897,6.8187 2,7.7157 2,8.8187 L2,40.6387 C2,41.7417 2.897,42.6387 4,42.6387 L33.75,42.6387 C34.853,42.6387 35.75,41.7417 35.75,40.6387 L35.75,8.8187 C35.75,7.7157 34.853,6.8187 33.75,6.8187 L27.75,6.8187 C27.197,6.8187 26.75,6.3707 26.75,5.8187 C26.75,5.2657 27.197,4.8187 27.75,4.8187 L33.75,4.8187 C35.956,4.8187 37.75,6.6127 37.75,8.8187 L37.75,40.6387 C37.75,42.8447 35.956,44.6387 33.75,44.6387" id="Fill-3" fill="#201820"></path>
                    <path d="M11.875,2.0781 C11.393,2.0781 11,2.4711 11,2.9531 L11,7.4271 C11,7.9091 11.393,8.3021 11.875,8.3021 C12.357,8.3021 12.75,7.9091 12.75,7.4271 L12.75,2.9531 C12.75,2.4711 12.357,2.0781 11.875,2.0781 M11.875,10.3021 C10.29,10.3021 9,9.0121 9,7.4271 L9,2.9531 C9,1.3681 10.29,0.0781 11.875,0.0781 C13.46,0.0781 14.75,1.3681 14.75,2.9531 L14.75,7.4271 C14.75,9.0121 13.46,10.3021 11.875,10.3021" id="Fill-5" fill="#201820"></path>
                    <path d="M25.875,2.0781 C25.393,2.0781 25,2.4711 25,2.9531 L25,7.4271 C25,7.9091 25.393,8.3021 25.875,8.3021 C26.357,8.3021 26.75,7.9091 26.75,7.4271 L26.75,2.9531 C26.75,2.4711 26.357,2.0781 25.875,2.0781 M25.875,10.3021 C24.29,10.3021 23,9.0121 23,7.4271 L23,2.9531 C23,1.3681 24.29,0.0781 25.875,0.0781 C27.46,0.0781 28.75,1.3681 28.75,2.9531 L28.75,7.4271 C28.75,9.0121 27.46,10.3021 25.875,10.3021" id="Fill-7" fill="#201820"></path>
                    <mask id="mask-2" fill="white">
                        <use xlink:href="#path-1"></use>
                    </mask>
                    <g id="Clip-10"></g>
                    <path d="M20.75,16.203 L23,16.203 L23,13.953 L20.75,13.953 L20.75,16.203 Z M24,18.203 L19.75,18.203 C19.197,18.203 18.75,17.756 18.75,17.203 L18.75,12.953 C18.75,12.4 19.197,11.953 19.75,11.953 L24,11.953 C24.553,11.953 25,12.4 25,12.953 L25,17.203 C25,17.756 24.553,18.203 24,18.203 L24,18.203 Z" id="Fill-9" fill="#201820" mask="url(#mask-2)"></path>
                    <path d="M27.75,16.203 L30,16.203 L30,13.953 L27.75,13.953 L27.75,16.203 Z M31,18.203 L26.75,18.203 C26.197,18.203 25.75,17.756 25.75,17.203 L25.75,12.953 C25.75,12.4 26.197,11.953 26.75,11.953 L31,11.953 C31.553,11.953 32,12.4 32,12.953 L32,17.203 C32,17.756 31.553,18.203 31,18.203 L31,18.203 Z" id="Fill-11" fill="#201820" mask="url(#mask-2)"></path>
                    <path d="M6.75,23.203 L9,23.203 L9,20.953 L6.75,20.953 L6.75,23.203 Z M10,25.203 L5.75,25.203 C5.197,25.203 4.75,24.756 4.75,24.203 L4.75,19.953 C4.75,19.4 5.197,18.953 5.75,18.953 L10,18.953 C10.553,18.953 11,19.4 11,19.953 L11,24.203 C11,24.756 10.553,25.203 10,25.203 L10,25.203 Z" id="Fill-12" fill="#201820" mask="url(#mask-2)"></path>
                    <path d="M13.75,23.203 L16,23.203 L16,20.953 L13.75,20.953 L13.75,23.203 Z M17,25.203 L12.75,25.203 C12.197,25.203 11.75,24.756 11.75,24.203 L11.75,19.953 C11.75,19.4 12.197,18.953 12.75,18.953 L17,18.953 C17.553,18.953 18,19.4 18,19.953 L18,24.203 C18,24.756 17.553,25.203 17,25.203 L17,25.203 Z" id="Fill-13" fill="#201820" mask="url(#mask-2)"></path>
                    <path d="M20.75,23.203 L23,23.203 L23,20.953 L20.75,20.953 L20.75,23.203 Z M24,25.203 L19.75,25.203 C19.197,25.203 18.75,24.756 18.75,24.203 L18.75,19.953 C18.75,19.4 19.197,18.953 19.75,18.953 L24,18.953 C24.553,18.953 25,19.4 25,19.953 L25,24.203 C25,24.756 24.553,25.203 24,25.203 L24,25.203 Z" id="Fill-14" fill="#201820" mask="url(#mask-2)"></path>
                    <path d="M27.75,23.203 L30,23.203 L30,20.953 L27.75,20.953 L27.75,23.203 Z M31,25.203 L26.75,25.203 C26.197,25.203 25.75,24.756 25.75,24.203 L25.75,19.953 C25.75,19.4 26.197,18.953 26.75,18.953 L31,18.953 C31.553,18.953 32,19.4 32,19.953 L32,24.203 C32,24.756 31.553,25.203 31,25.203 L31,25.203 Z" id="Fill-15" fill="#201820" mask="url(#mask-2)"></path>
                    <path d="M6.75,30.203 L9,30.203 L9,27.953 L6.75,27.953 L6.75,30.203 Z M10,32.203 L5.75,32.203 C5.197,32.203 4.75,31.756 4.75,31.203 L4.75,26.953 C4.75,26.4 5.197,25.953 5.75,25.953 L10,25.953 C10.553,25.953 11,26.4 11,26.953 L11,31.203 C11,31.756 10.553,32.203 10,32.203 L10,32.203 Z" id="Fill-16" fill="#201820" mask="url(#mask-2)"></path>
                    <path d="M13.75,30.203 L16,30.203 L16,27.953 L13.75,27.953 L13.75,30.203 Z M17,32.203 L12.75,32.203 C12.197,32.203 11.75,31.756 11.75,31.203 L11.75,26.953 C11.75,26.4 12.197,25.953 12.75,25.953 L17,25.953 C17.553,25.953 18,26.4 18,26.953 L18,31.203 C18,31.756 17.553,32.203 17,32.203 L17,32.203 Z" id="Fill-17" fill="#201820" mask="url(#mask-2)"></path>
                    <path d="M20.75,30.203 L23,30.203 L23,27.953 L20.75,27.953 L20.75,30.203 Z M24,32.203 L19.75,32.203 C19.197,32.203 18.75,31.756 18.75,31.203 L18.75,26.953 C18.75,26.4 19.197,25.953 19.75,25.953 L24,25.953 C24.553,25.953 25,26.4 25,26.953 L25,31.203 C25,31.756 24.553,32.203 24,32.203 L24,32.203 Z" id="Fill-18" fill="#201820" mask="url(#mask-2)"></path>
                    <path d="M27.75,30.203 L30,30.203 L30,27.953 L27.75,27.953 L27.75,30.203 Z M31,32.203 L26.75,32.203 C26.197,32.203 25.75,31.756 25.75,31.203 L25.75,26.953 C25.75,26.4 26.197,25.953 26.75,25.953 L31,25.953 C31.553,25.953 32,26.4 32,26.953 L32,31.203 C32,31.756 31.553,32.203 31,32.203 L31,32.203 Z" id="Fill-19" fill="#201820" mask="url(#mask-2)"></path>
                    <path d="M6.75,37.203 L9,37.203 L9,34.953 L6.75,34.953 L6.75,37.203 Z M10,39.203 L5.75,39.203 C5.197,39.203 4.75,38.756 4.75,38.203 L4.75,33.953 C4.75,33.4 5.197,32.953 5.75,32.953 L10,32.953 C10.553,32.953 11,33.4 11,33.953 L11,38.203 C11,38.756 10.553,39.203 10,39.203 L10,39.203 Z" id="Fill-20" fill="#201820" mask="url(#mask-2)"></path>
                    <path d="M13.75,37.203 L16,37.203 L16,34.953 L13.75,34.953 L13.75,37.203 Z M17,39.203 L12.75,39.203 C12.197,39.203 11.75,38.756 11.75,38.203 L11.75,33.953 C11.75,33.4 12.197,32.953 12.75,32.953 L17,32.953 C17.553,32.953 18,33.4 18,33.953 L18,38.203 C18,38.756 17.553,39.203 17,39.203 L17,39.203 Z" id="Fill-21" fill="#201820" mask="url(#mask-2)"></path>
                    <path d="M20.75,37.203 L23,37.203 L23,34.953 L20.75,34.953 L20.75,37.203 Z M24,39.203 L19.75,39.203 C19.197,39.203 18.75,38.756 18.75,38.203 L18.75,33.953 C18.75,33.4 19.197,32.953 19.75,32.953 L24,32.953 C24.553,32.953 25,33.4 25,33.953 L25,38.203 C25,38.756 24.553,39.203 24,39.203 L24,39.203 Z" id="Fill-22" fill="#201820" mask="url(#mask-2)"></path>
                </g>
                <g id="Group-26" transform="translate(33.000000, 32.921900)">
                    <mask id="mask-4" fill="white">
                        <use xlink:href="#path-3"></use>
                    </mask>
                    <g id="Clip-25"></g>
                    <g id="Fill-24" mask="url(#mask-4)">
                        <use fill="black" fill-opacity="1" filter="url(#filter-7)" xlink:href="#path-6"></use>
                        <use fill="url(#linearGradient-5)" fill-rule="evenodd" xlink:href="#path-6"></use>
                    </g>
                </g>
                <g id="Group-38" transform="translate(0.000000, 0.921900)">
                    <path d="M41.2402,42 C40.3342,42 32.3902,41.91 32.3902,38.8 L34.3902,38.8 C34.3902,38.723 34.3662,38.669 34.3572,38.654 C34.6542,39.108 37.0492,40 41.2402,40 C45.4332,40 47.8332,39.109 48.1312,38.656 L48.1002,38.8 L50.0582,38.442 C50.0802,38.546 50.1002,38.661 50.1002,38.8 C50.1002,38.938 50.0802,39.054 50.0582,39.157 C49.4102,41.921 42.0742,42 41.2402,42" id="Fill-27" fill="#201820"></path>
                    <path d="M34.5078,34.8018 C35.1808,35.2938 37.6308,35.9998 41.2428,35.9998 C44.8558,35.9998 47.3058,35.2938 47.9788,34.8018 C47.3328,34.3248 45.0128,33.6038 41.2428,33.6038 C37.4738,33.6038 35.1538,34.3248 34.5078,34.8018 M41.2428,37.9998 C40.3368,37.9998 32.3888,37.9098 32.3888,34.8018 C32.3888,31.6938 40.3368,31.6038 41.2428,31.6038 C42.1498,31.6038 50.0978,31.6938 50.0978,34.8018 C50.0978,37.9098 42.1498,37.9998 41.2428,37.9998" id="Fill-29" fill="#201820"></path>
                    <mask id="mask-9" fill="white">
                        <use xlink:href="#path-8"></use>
                    </mask>
                    <g id="Clip-32"></g>
                    <polygon id="Fill-31" fill="#201820" mask="url(#mask-9)" points="32.391 54.8 34.391 54.8 34.391 34.802 32.391 34.802"></polygon>
                    <polygon id="Fill-33" fill="#201820" mask="url(#mask-9)" points="48.08 54.95 50.08 54.95 50.08 34.649 48.08 34.649"></polygon>
                    <path d="M41.2402,46 C40.3342,46 32.3902,45.91 32.3902,42.8 L34.3902,42.8 C34.3902,42.723 34.3662,42.669 34.3572,42.654 C34.6542,43.108 37.0492,44 41.2402,44 C45.4332,44 47.8332,43.109 48.1312,42.656 L48.1002,42.8 L50.0582,42.442 C50.0802,42.546 50.1002,42.661 50.1002,42.8 C50.1002,42.938 50.0802,43.054 50.0582,43.157 C49.4102,45.921 42.0742,46 41.2402,46" id="Fill-34" fill="#201820" mask="url(#mask-9)"></path>
                    <path d="M41.2402,50 C40.3342,50 32.3902,49.91 32.3902,46.8 L34.3902,46.8 C34.3902,46.723 34.3662,46.669 34.3572,46.654 C34.6542,47.108 37.0492,48 41.2402,48 C45.4332,48 47.8332,47.109 48.1312,46.656 L48.1002,46.8 L50.0582,46.442 C50.0802,46.546 50.1002,46.661 50.1002,46.8 C50.1002,46.938 50.0802,47.054 50.0582,47.157 C49.4102,49.921 42.0742,50 41.2402,50" id="Fill-35" fill="#201820" mask="url(#mask-9)"></path>
                    <path d="M41.2402,54 C40.3342,54 32.3902,53.91 32.3902,50.8 L34.3902,50.8 C34.3902,50.723 34.3662,50.669 34.3572,50.654 C34.6542,51.108 37.0492,52 41.2402,52 C45.4332,52 47.8332,51.109 48.1312,50.656 L48.1002,50.8 L50.0582,50.442 C50.0802,50.546 50.1002,50.661 50.1002,50.8 C50.1002,50.938 50.0802,51.054 50.0582,51.157 C49.4102,53.921 42.0742,54 41.2402,54" id="Fill-36" fill="#201820" mask="url(#mask-9)"></path>
                    <path d="M41.2402,58 C40.3342,58 32.3902,57.91 32.3902,54.8 L34.3902,54.8 C34.3902,54.723 34.3662,54.669 34.3572,54.654 C34.6542,55.108 37.0492,56 41.2402,56 C45.4332,56 47.8332,55.109 48.1312,54.656 L48.1002,54.8 L50.0582,54.442 C50.0802,54.546 50.1002,54.661 50.1002,54.8 C50.1002,54.938 50.0802,55.054 50.0582,55.157 C49.4102,57.921 42.0742,58 41.2402,58" id="Fill-37" fill="#201820" mask="url(#mask-9)"></path>
                </g>
            </g>
        </g>
    </g>
</svg>