<?xml version="1.0" encoding="UTF-8"?>
<svg width="79px" height="77px" viewBox="0 0 79 77" version="1.1" xmlns="http://www.w3.org/2000/svg" xmlns:xlink="http://www.w3.org/1999/xlink">
    <!-- Generator: Sketch 56.3 (81716) - https://sketch.com -->
    <title>icon-ppc</title>
    <desc>Created with Sketch.</desc>
    <defs>
        <path d="M10.0777972,3.43484882 L9.53948864,25.9862975 C8.70380245,25.0411035 7.97412587,24.1483416 7.32980769,23.3576097 L7.32980769,23.3576097 C6.5794799,22.4365062 5.93103147,21.6401059 5.33076923,21.0279263 L5.33076923,21.0279263 C4.69058129,20.3760684 4.11785402,19.9438583 3.5836757,19.7114568 L3.5836757,19.7114568 C3.31245629,19.5938389 2.94211101,19.456382 2.47401661,19.456382 L2.47401661,19.456382 C2.22069493,19.456382 1.95911276,19.4974773 1.67137238,19.5810852 L1.67137238,19.5810852 C1.12067308,19.7426326 0.564466783,20.334973 0.323535839,21.023675 L0.323535839,21.023675 C0.0440559441,21.814407 0.125284091,22.6306464 0.552076049,23.3179314 L0.552076049,23.3179314 C1.55159528,24.9305711 2.54147727,26.7798636 3.58780594,28.7411056 L3.58780594,28.7411056 C5.00998689,31.3995521 6.47760052,34.1486918 8.13933566,36.611581 L8.13933566,36.611581 C10.3930726,39.950227 13.9973995,44.405534 19.255201,44.5599959 L19.255201,44.5599959 L22.1367351,44.6450209 L22.5222247,44.6506892 C28.3761582,44.6506892 33.0667395,40.7480444 34.2149476,35.2653527 L34.2149476,35.2653527 C34.2273383,35.2072524 34.2383523,35.1477349 34.250743,35.0896345 L34.250743,35.0896345 C34.3815341,34.4151033 34.4600087,33.7164817 34.4792832,32.9994381 L34.4792832,32.9994381 L34.8812937,18.4899318 C34.9391171,16.3784791 33.5706294,15.0719291 32.1443182,15.0294167 L32.1443182,15.0294167 C30.8680726,15.0294167 29.7804414,16.0383793 29.4541521,17.4710496 L29.4541521,17.4710496 L29.4830638,16.4096549 C29.5340035,14.5150158 28.2701486,12.9930693 26.5230551,12.9434714 L26.5230551,12.9434714 C25.1366696,12.9434714 23.9430288,14.0162028 23.647028,15.4531243 L23.647028,15.4531243 L23.641521,15.4672951 L23.663549,14.5518599 C23.7144886,12.6685575 22.2207168,11.1480281 20.1514642,11.0899277 L20.1514642,11.0899277 C18.5296547,11.0899277 17.1721809,12.1329003 16.8032124,13.5599023 L16.8032124,13.5599023 L17.0799388,3.64032577 C17.1308785,1.75844039 15.6398601,0.237911025 13.567854,0.176976484 L13.567854,0.176976484 C11.6596809,0.176976484 10.1273601,1.60822967 10.0777972,3.43484882" id="path-1"></path>
        <linearGradient x1="71.4498538%" y1="24.6805765%" x2="80.4784851%" y2="91.1942189%" id="linearGradient-3">
            <stop stop-color="#58CAEA" offset="0%"></stop>
            <stop stop-color="#A7D6A4" offset="100%"></stop>
        </linearGradient>
    </defs>
    <g id="Page-1" stroke="none" stroke-width="1" fill="none" fill-rule="evenodd">
        <g id="Assets-Playground" transform="translate(-589.000000, -2107.000000)">
            <g id="icon-ppc" transform="translate(589.000000, 2107.000000)">
                <path d="M2.77714306,69.1717013 L76.2228569,69.1717013 L76.2228569,2.8282987 L2.77714306,2.8282987 L2.77714306,69.1717013 Z M77.6114285,72 L1.38857153,72 C0.620691473,72 0,71.3678752 0,70.5858507 L0,1.41414935 C0,0.632124759 0.620691473,0 1.38857153,0 L77.6114285,0 C78.37792,0 79,0.632124759 79,1.41414935 L79,70.5858507 C79,71.3678752 78.37792,72 77.6114285,72 L77.6114285,72 Z" id="Fill-1" fill="#201820"></path>
                <g id="Group-5" transform="translate(27.000000, 31.000000)">
                    <mask id="mask-2" fill="white">
                        <use xlink:href="#path-1"></use>
                    </mask>
                    <g id="Clip-4"></g>
                    <path d="M10.0777972,3.43484882 L9.53948864,25.9862975 C8.70380245,25.0411035 7.97412587,24.1483416 7.32980769,23.3576097 L7.32980769,23.3576097 C6.5794799,22.4365062 5.93103147,21.6401059 5.33076923,21.0279263 L5.33076923,21.0279263 C4.69058129,20.3760684 4.11785402,19.9438583 3.5836757,19.7114568 L3.5836757,19.7114568 C3.31245629,19.5938389 2.94211101,19.456382 2.47401661,19.456382 L2.47401661,19.456382 C2.22069493,19.456382 1.95911276,19.4974773 1.67137238,19.5810852 L1.67137238,19.5810852 C1.12067308,19.7426326 0.564466783,20.334973 0.323535839,21.023675 L0.323535839,21.023675 C0.0440559441,21.814407 0.125284091,22.6306464 0.552076049,23.3179314 L0.552076049,23.3179314 C1.55159528,24.9305711 2.54147727,26.7798636 3.58780594,28.7411056 L3.58780594,28.7411056 C5.00998689,31.3995521 6.47760052,34.1486918 8.13933566,36.611581 L8.13933566,36.611581 C10.3930726,39.950227 13.9973995,44.405534 19.255201,44.5599959 L19.255201,44.5599959 L22.1367351,44.6450209 L22.5222247,44.6506892 C28.3761582,44.6506892 33.0667395,40.7480444 34.2149476,35.2653527 L34.2149476,35.2653527 C34.2273383,35.2072524 34.2383523,35.1477349 34.250743,35.0896345 L34.250743,35.0896345 C34.3815341,34.4151033 34.4600087,33.7164817 34.4792832,32.9994381 L34.4792832,32.9994381 L34.8812937,18.4899318 C34.9391171,16.3784791 33.5706294,15.0719291 32.1443182,15.0294167 L32.1443182,15.0294167 C30.8680726,15.0294167 29.7804414,16.0383793 29.4541521,17.4710496 L29.4541521,17.4710496 L29.4830638,16.4096549 C29.5340035,14.5150158 28.2701486,12.9930693 26.5230551,12.9434714 L26.5230551,12.9434714 C25.1366696,12.9434714 23.9430288,14.0162028 23.647028,15.4531243 L23.647028,15.4531243 L23.641521,15.4672951 L23.663549,14.5518599 C23.7144886,12.6685575 22.2207168,11.1480281 20.1514642,11.0899277 L20.1514642,11.0899277 C18.5296547,11.0899277 17.1721809,12.1329003 16.8032124,13.5599023 L16.8032124,13.5599023 L17.0799388,3.64032577 C17.1308785,1.75844039 15.6398601,0.237911025 13.567854,0.176976484 L13.567854,0.176976484 C11.6596809,0.176976484 10.1273601,1.60822967 10.0777972,3.43484882" id="Fill-3" fill="url(#linearGradient-3)" mask="url(#mask-2)"></path>
                </g>
                <g id="Group-16" transform="translate(16.000000, 13.000000)" fill="#201820">
                    <path d="M23.5801162,16.5008906 L23.5801162,16.5008906 C20.8812083,16.5008906 18.7097697,18.5290751 18.6370154,21.1193887 L18.1067478,39.8560843 C17.4099846,39.0171278 16.7929715,38.2883373 16.1983443,37.6923109 C15.4190329,36.914087 14.6942873,36.3872675 13.9807346,36.08078 C13.6127654,35.9225929 13.0419232,35.7149723 12.3073838,35.7149723 C11.922625,35.7149723 11.535068,35.7728801 11.1223268,35.8886957 C10.1205548,36.172585 9.211125,37.0821607 8.80677851,38.2078314 C8.38004605,39.4012964 8.51296272,40.6865665 9.17614693,41.7359684 C10.1653268,43.302303 11.1601031,45.1256917 12.2108443,47.0564216 C13.6743268,49.7399526 15.1853794,52.5152885 16.9174934,55.0307457 C19.3813487,58.6097286 23.3464627,63.3864137 29.3221162,63.5587246 L32.2504803,63.6434677 C32.395989,63.6477049 32.5386996,63.6505296 32.6814101,63.6505296 C40.1974978,63.6505296 46.0220461,58.0673729 46.2319145,50.6636522 L46.6404583,36.2050698 C46.6754364,35.0073676 46.3270548,33.8576864 45.6624715,32.9721212 C44.8915548,31.9467299 43.765261,31.3379921 42.5662127,31.3026825 L42.5270373,31.3012701 L42.4584803,31.3012701 C41.8148838,31.3012701 41.2048662,31.4594572 40.6578092,31.7433465 C39.9470548,30.273054 38.5451338,29.2730856 36.8703838,29.2250646 L36.8312083,29.2236522 L36.7500592,29.2222398 C35.9833399,29.2222398 35.2571952,29.4312727 34.6233925,29.8055547 C33.8077039,28.3917576 32.2630724,27.431336 30.4302215,27.3790777 L30.2735197,27.376253 C29.5991425,27.376253 28.9555461,27.5033676 28.3693136,27.7364111 L28.5484013,21.4046904 C28.5847785,20.1067088 28.0740987,18.836975 27.1450811,17.9231621 C26.2524408,17.0446588 25.0435987,16.5404374 23.736818,16.502303 L23.5801162,16.5008906 Z M23.5801162,19.3256601 L23.6584671,19.3256601 C24.9232741,19.3623821 25.7809364,20.2733702 25.7515548,21.3227721 L25.2744539,38.206419 C25.2422741,38.9578076 25.821511,39.5947931 26.5644452,39.6258656 C26.5840329,39.6258656 26.6036206,39.627278 26.6232083,39.627278 C27.3409583,39.627278 27.9383838,39.0552622 27.9705636,38.3236469 C27.9705636,38.3095231 27.9705636,38.298224 27.9719627,38.2855125 L28.1496513,31.9693281 C28.1580461,31.9354308 28.1664408,31.8987088 28.1734364,31.8633992 C28.3063531,30.9495863 29.1346338,30.2010224 30.2735197,30.2010224 C30.3001031,30.2010224 30.3238882,30.2010224 30.3504715,30.2024348 C31.6138794,30.2391568 32.4715417,31.1416706 32.4435592,32.1995468 L32.2798618,38.7275889 C32.247682,39.48039 32.8255197,40.1145507 33.5712522,40.1470356 L33.6300154,40.1470356 C34.3463662,40.1470356 34.9437917,39.5764321 34.9759715,38.8434045 C34.9759715,38.8321054 34.9773706,38.8193939 34.9773706,38.8052701 L35.0976952,33.7446957 C35.0976952,33.7376337 35.0976952,33.7291594 35.0990943,33.7220975 C35.1270768,33.661365 35.1494627,33.5978076 35.1676513,33.5342503 C35.3635285,32.6147879 36.0225154,32.0470092 36.7500592,32.0470092 C36.7640504,32.0470092 36.7780417,32.0484216 36.7906338,32.0484216 C37.6440987,32.0724321 38.3898311,32.8845534 38.3576513,34.0511831 L38.217739,38.984643 C38.1855592,39.7360316 38.7647961,40.3701924 39.5077303,40.4026772 C39.527318,40.4040896 39.5469057,40.4040896 39.5664934,40.4040896 C40.2842434,40.4040896 40.8816689,39.8320738 40.9138487,39.1004585 C40.9138487,39.087747 40.9152478,39.0736232 40.9152478,39.0623241 L41.0061908,35.8081897 C41.0257785,35.7531067 41.0411689,35.6966113 41.0523618,35.6401159 C41.2300504,34.6585086 41.8666513,34.1260395 42.4584803,34.1260395 L42.4878618,34.1260395 C43.1636382,34.1472253 43.8785899,34.909913 43.8422127,36.1245639 L43.4336689,50.5845586 C43.2657741,56.5236364 38.5801118,60.8257602 32.6814101,60.8257602 C32.5652829,60.8257602 32.4477566,60.8243478 32.3302303,60.8201107 L29.4018662,60.7353676 C25.3164276,60.6181397 22.0942478,57.6026983 19.2162522,53.4206271 C16.3368575,49.2371436 13.9653443,44.0635784 11.5364671,40.2162424 C11.3251996,39.884332 11.3140066,39.517112 11.4385285,39.1710777 C11.5630504,38.8250435 11.8372785,38.6188353 11.8764539,38.6089486 C12.0415504,38.5623399 12.1800636,38.5397418 12.3073838,38.5397418 C12.5018618,38.5397418 12.6739539,38.5905876 12.8852215,38.6809802 C13.2378004,38.8321054 13.6939145,39.1626034 14.2269803,39.6978972 C15.2973092,40.7684848 16.6236776,42.5593887 18.4537303,44.5875731 C18.7195636,44.8813491 19.0833355,45.0296495 19.4499057,45.0296495 C19.7745022,45.0296495 20.1004978,44.9124216 20.3593355,44.6723162 C20.626568,44.4265613 20.7832697,44.0819394 20.797261,43.7189565 L21.4338618,21.1984822 C21.4618443,20.1702661 22.3544846,19.3256601 23.5801162,19.3256601 L23.5801162,19.3256601 Z" id="Fill-6"></path>
                    <path d="M42.2059386,23.746283 L31.250807,23.746283 L31.250807,20.9215136 L42.2059386,20.9215136 C43.7491711,20.9215136 45.0041842,19.6546045 45.0041842,18.0967441 L45.0041842,13.3370076 C45.0041842,11.7791473 43.7491711,10.5122382 42.2059386,10.5122382 L5.82874561,10.5122382 C4.28551316,10.5122382 3.0305,11.7791473 3.0305,13.3370076 L3.0305,18.0967441 C3.0305,19.6546045 4.28551316,20.9215136 5.82874561,20.9215136 L16.0843158,20.9215136 L16.0843158,23.746283 L5.82874561,23.746283 C2.7422807,23.746283 0.232254386,21.2124648 0.232254386,18.0967441 L0.232254386,13.3370076 C0.232254386,10.221287 2.7422807,7.68746877 5.82874561,7.68746877 L42.2059386,7.68746877 C45.2924035,7.68746877 47.8024298,10.221287 47.8024298,13.3370076 L47.8024298,18.0967441 C47.8024298,21.2124648 45.2924035,23.746283 42.2059386,23.746283" id="Fill-8"></path>
                    <polygon id="Fill-10" points="48.6290316 8.26386298 46.743014 6.17777075 52.1058518 1.23442424 53.9918693 3.32051647"></polygon>
                    <polygon id="Fill-12" points="44.4193509 5.43499763 41.6267018 5.24150092 41.9764825 0.062286166 44.7691316 0.255782872"></polygon>
                    <polygon id="Fill-14" points="50.4066171 13.3409623 50.3296654 10.5161929 54.5270338 10.398965 54.6039855 13.2237344"></polygon>
                </g>
            </g>
        </g>
    </g>
</svg>