<?xml version="1.0" encoding="UTF-8"?>
<svg width="88px" height="71px" viewBox="0 0 88 71" version="1.1" xmlns="http://www.w3.org/2000/svg" xmlns:xlink="http://www.w3.org/1999/xlink">
    <!-- Generator: Sketch 56.3 (81716) - https://sketch.com -->
    <title>icon-lead-generators</title>
    <desc>Created with Sketch.</desc>
    <defs>
        <polygon id="path-1" points="0 71 87.53184 71 87.53184 0.0611147541 0 0.0611147541"></polygon>
        <path d="M3.74971429,0.960818182 C1.90171429,1.00690909 0.404571429,2.58345455 0.404571429,4.50627273 L0.404571429,4.50627273 L0.404571429,47.8352727 C0.404571429,49.7840909 1.94628571,51.3807273 3.83314286,51.3807273 L3.83314286,51.3807273 L4.40457143,51.3807273 C6.29028571,51.3807273 7.83314286,49.7840909 7.83314286,47.8352727 L7.83314286,47.8352727 L7.83314286,4.50627273 C7.83314286,2.58345455 6.33485714,1.00690909 4.48685714,0.960818182 L4.48685714,0.960818182 L3.74971429,0.960818182 Z" id="path-3"></path>
        <linearGradient x1="86.2828275%" y1="18.8420001%" x2="86.2828275%" y2="84.2458517%" id="linearGradient-5">
            <stop stop-color="#5CB0E2" offset="0%"></stop>
            <stop stop-color="#6F4FA0" offset="100%"></stop>
        </linearGradient>
        <path d="M3.74971429,0.960818182 C1.90171429,1.00690909 0.404571429,2.58345455 0.404571429,4.50627273 L0.404571429,4.50627273 L0.404571429,47.8352727 C0.404571429,49.7840909 1.94628571,51.3807273 3.83314286,51.3807273 L3.83314286,51.3807273 L4.40457143,51.3807273 C6.29028571,51.3807273 7.83314286,49.7840909 7.83314286,47.8352727 L7.83314286,47.8352727 L7.83314286,4.50627273 C7.83314286,2.58345455 6.33485714,1.00690909 4.48685714,0.960818182 L4.48685714,0.960818182 L3.74971429,0.960818182 Z" id="path-6"></path>
        <filter x="-700.0%" y="-99.2%" width="1500.0%" height="306.3%" filterUnits="objectBoundingBox" id="filter-7">
            <feOffset dx="0" dy="2" in="SourceAlpha" result="shadowOffsetOuter1"></feOffset>
            <feGaussianBlur stdDeviation="17" in="shadowOffsetOuter1" result="shadowBlurOuter1"></feGaussianBlur>
            <feColorMatrix values="0 0 0 0 0   0 0 0 0 0   0 0 0 0 0  0 0 0 0.4 0" type="matrix" in="shadowBlurOuter1"></feColorMatrix>
        </filter>
        <polygon id="path-8" points="0.728916694 0.0471765848 12.4287586 0.0471765848 12.4287586 4.82874717 0.728916694 4.82874717"></polygon>
    </defs>
    <g id="Page-1" stroke="none" stroke-width="1" fill="none" fill-rule="evenodd">
        <g id="Assets-Playground" transform="translate(-582.000000, -1955.000000)">
            <g id="icon-lead-generators" transform="translate(582.000000, 1955.000000)">
                <g id="Group-12">
                    <path d="M12.3367787,69.4898885 C5.81773867,69.3364459 1.01997867,64.124118 1.17720533,57.3643803 L1.24408533,54.4713967 C1.36376533,49.2850361 5.61709867,45.6873967 8.80621867,43.4329705 C11.869792,41.2682492 13.8433387,37.0119869 14.904032,34.7268721 C15.1386987,34.2181508 15.3311253,33.8097574 15.4789653,33.534741 C16.861152,30.2192 18.9285653,29.8592 19.7569387,29.8592 C20.690912,29.8592 21.5802987,30.280577 22.1962987,31.014741 C22.9308053,31.8917246 23.2264853,33.1416918 23.0047253,34.4424131 L22.8721387,35.2320525 C22.3687787,38.2879213 21.9698453,40.7028721 18.9743253,44.3512656 C18.871072,44.478741 18.814752,44.6357246 18.8581653,44.6817574 C18.885152,44.7124459 18.9226987,44.7289705 18.9649387,44.7313311 L32.507552,45.2447738 C34.204192,45.2837246 35.5124587,46.775659 35.4702187,48.6393967 C35.4279787,50.4523803 34.0833387,51.8711344 32.4078187,51.8711344 L24.2554987,51.4851672 C24.1804053,51.4851672 24.1135253,51.5512656 24.1111787,51.6315279 C24.1076587,51.7035279 24.1850987,51.7861508 24.2554987,51.7896918 L30.5633387,51.9372328 L30.7006187,51.9750033 C32.2282987,52.1910033 33.3359253,53.5944131 33.2972053,55.3058885 C33.253792,57.1483803 31.937312,58.5376262 30.2324587,58.5376262 C30.2324587,58.5376262 23.8154987,58.4089705 23.8154987,58.4089705 C23.7087253,58.4089705 23.6430187,58.4750689 23.6394987,58.5553311 L23.672352,58.5565115 L23.848352,58.7158557 L28.9605653,58.8114623 L29.198752,58.9094295 C30.5844587,59.2009705 31.5665387,60.3447082 31.5348587,61.6784787 C31.4996587,63.198741 30.1573653,64.3908721 28.480672,64.3908721 L23.5925653,64.2763803 C23.4904853,64.2763803 23.4236053,64.3424787 23.4212587,64.4215607 C23.4177387,64.4935607 23.4940053,64.5761836 23.5644053,64.5797246 L26.9330453,64.6588066 L27.1031787,64.717823 C28.565152,64.9798557 29.5706987,66.0480525 29.5413653,67.3157246 C29.5132053,68.5456262 28.368032,69.8192 26.502432,69.8192 L12.3367787,69.4898885 Z" id="Fill-1" fill="#FEFEFE"></path>
                    <path d="M19.7571733,28.6786361 L19.7571733,28.6786361 C18.6976533,28.6786361 16.0752533,29.1047344 14.41968,33.023423 C14.2530667,33.3385705 14.0665067,33.7387016 13.8400533,34.2285377 C12.82512,36.4145049 10.9384,40.4842754 8.13296,42.4672262 C4.73498667,44.8691934 0.203573333,48.7217836 0.0709866667,54.4440131 L0.00410666667,57.3369967 C-0.164853333,64.6479475 5.23952,70.5035541 12.3100267,70.6688 L26.3782933,70.9981115 L26.50032,70.9992918 C28.8153067,70.9992918 30.6668267,69.3940459 30.71376,67.3438164 C30.7325333,66.5931279 30.5013867,65.8837508 30.0860267,65.2817836 C31.6031467,64.7081443 32.6697067,63.3401443 32.7084267,61.7053902 C32.7283733,60.8272262 32.4514667,60.009259 31.9516267,59.3400131 C33.41008,58.6613246 34.42736,57.1410623 34.4707733,55.3328 C34.4918933,54.407423 34.2454933,53.536341 33.80432,52.805718 C35.4317333,52.2131934 36.5980267,50.6055869 36.6437867,48.6674885 C36.6707733,47.4836197 36.2812267,46.3623082 35.5478933,45.5124721 C34.7781867,44.6189639 33.67408,44.0913574 32.5183467,44.0642098 L21.0032533,43.6274885 C23.1938667,40.4984393 23.58576,38.121259 24.0304533,35.4253902 L24.1606933,34.6416525 C24.44112,32.9974557 24.0515733,31.3992918 23.09296,30.2543738 C22.2528533,29.2522754 21.03728,28.6786361 19.7571733,28.6786361 M19.7571733,31.0392918 C21.1029867,31.0392918 22.1648533,32.3813246 21.8480533,34.2427016 C21.2754667,37.5960131 21.1112,39.8964721 18.06992,43.600341 C17.6041067,44.1680787 17.49968,44.9423738 17.996,45.4829639 C18.2365333,45.746177 18.5721067,45.8996197 18.9264533,45.911423 L32.4643733,46.4236852 C33.4863467,46.4484721 34.3264533,47.3620459 34.29712,48.6120131 C34.26896,49.8454557 33.4112533,50.6905705 32.40688,50.6905705 L32.3658133,50.6905705 L24.31088,50.3057836 C24.2944533,50.3046033 24.2780267,50.3046033 24.2604267,50.3046033 C23.5517333,50.3046033 22.9638933,50.8699803 22.93808,51.5876197 C22.9110933,52.3229639 23.48016,52.9414557 24.2111467,52.9686033 C24.2240533,52.9697836 24.23696,52.9697836 24.2498667,52.9697836 L30.39344,53.1137836 C30.4274667,53.1232262 30.4626667,53.1303082 30.4966933,53.1373902 C31.4048533,53.2660459 32.1510933,54.1135213 32.1241067,55.2785049 C32.0959467,56.5107672 31.2441067,57.3582426 30.2326933,57.3582426 C30.2197867,57.3582426 30.2057067,57.3570623 30.1928,57.3570623 L23.8403733,57.2284066 C23.8227733,57.2284066 23.8063467,57.2272262 23.78992,57.2272262 C23.0812267,57.2272262 22.49456,57.7926033 22.4675733,58.5102426 C22.4394133,59.2455869 23.0096533,59.865259 23.7418133,59.8912262 C23.7535467,59.8924066 23.7664533,59.8924066 23.7781867,59.8924066 L28.7026667,59.9868328 C28.7097067,59.9868328 28.7167467,59.9880131 28.7237867,59.9880131 C28.7836267,60.0151607 28.8458133,60.0364066 28.908,60.0552918 C29.81968,60.2465049 30.37936,60.9157508 30.36176,61.6510951 C30.3429867,62.4785049 29.58384,63.2091279 28.4809067,63.2091279 L28.4210667,63.2091279 L23.62096,63.0958164 C23.6045333,63.0958164 23.5881067,63.0946361 23.5705067,63.0946361 C22.8618133,63.0946361 22.2751467,63.6600131 22.24816,64.3776525 C22.2211733,65.1129967 22.7914133,65.7326689 23.5224,65.7586361 C23.5353067,65.7598164 23.54704,65.7598164 23.5599467,65.7598164 L26.7256,65.834177 C26.7795733,65.8530623 26.8335467,65.8684066 26.8898667,65.8802098 C27.8602133,66.0525377 28.3823467,66.6958164 28.3682667,67.288341 C28.3530133,67.9446033 27.6419733,68.6386361 26.50032,68.6386361 C26.4780267,68.6386361 26.45456,68.6386361 26.4322667,68.6374557 L12.364,68.3093246 C6.47152,68.1712262 2.21114667,63.3814557 2.3496,57.3912918 L2.41648,54.4994885 C2.51034667,50.4627672 5.42842667,47.2640787 9.48229333,44.3982426 C13.5349867,41.5335869 15.7525867,35.4513574 16.5375467,34.0479475 C17.4163733,31.9009311 18.6777067,31.0392918 19.7571733,31.0392918" id="Fill-3" fill="#201820"></path>
                    <mask id="mask-2" fill="white">
                        <use xlink:href="#path-1"></use>
                    </mask>
                    <g id="Clip-6"></g>
                    <polygon id="Fill-5" fill="#FEFEFE" mask="url(#mask-2)" points="18.9047467 40.176918 37.0738133 40.176918 37.0738133 21.9007213 18.9047467 21.9007213"></polygon>
                    <path d="M20.07808,38.9965902 L35.90048,38.9965902 L35.90048,23.0810492 L20.07808,23.0810492 L20.07808,38.9965902 Z M17.7314133,41.3572459 L38.2471467,41.3572459 L38.2471467,20.7203934 L17.7314133,20.7203934 L17.7314133,41.3572459 Z" id="Fill-7" fill="#201820" mask="url(#mask-2)"></path>
                    <polygon id="Fill-8" fill="#FEFEFE" mask="url(#mask-2)" points="11.7392 37.5294426 18.9035733 37.5294426 18.9035733 24.5458361 11.7392 24.5458361"></polygon>
                    <path d="M12.9125333,36.3491148 L17.73024,36.3491148 L17.73024,25.7261639 L12.9125333,25.7261639 L12.9125333,36.3491148 Z M10.56704,38.7097705 L20.07808,38.7097705 L20.07808,23.3655082 L10.56704,23.3655082 L10.56704,38.7097705 Z" id="Fill-9" fill="#201820" mask="url(#mask-2)"></path>
                    <polygon id="Fill-10" fill="#FEFEFE" mask="url(#mask-2)" points="62.6015573 49.839318 37.073344 40.5820066 37.073344 22.547777 62.6015573 12.2376131"></polygon>
                    <path d="M38.246912,39.7535344 L61.4284587,48.1586492 L61.4284587,13.9834361 L38.246912,23.3457967 L38.246912,39.7535344 Z M63.7751253,51.520223 L35.9002453,41.4107148 L35.9002453,21.7499934 L63.7751253,10.4908459 L63.7751253,51.520223 Z" id="Fill-11" fill="#201820" mask="url(#mask-2)"></path>
                </g>
                <g id="Group-15" transform="translate(62.000000, 5.000000)">
                    <mask id="mask-4" fill="white">
                        <use xlink:href="#path-3"></use>
                    </mask>
                    <g id="Clip-14"></g>
                    <g id="Fill-13" mask="url(#mask-4)">
                        <use fill="black" fill-opacity="1" filter="url(#filter-7)" xlink:href="#path-6"></use>
                        <use fill="url(#linearGradient-5)" fill-rule="evenodd" xlink:href="#path-6"></use>
                    </g>
                </g>
                <g id="Group-35" transform="translate(20.000000, 0.000000)">
                    <path d="M46.1387034,6.96922264 C44.845531,6.96922264 43.7938759,8.0185434 43.7938759,9.30884528 L43.7938759,52.1976377 C43.7938759,53.4879396 44.845531,54.5372604 46.1387034,54.5372604 L46.7249103,54.5372604 C48.0180828,54.5372604 49.0697379,53.4879396 49.0697379,52.1976377 L49.0697379,9.30884528 C49.0697379,8.0185434 48.0180828,6.96922264 46.7249103,6.96922264 L46.1387034,6.96922264 Z M46.7249103,56.876883 L46.1387034,56.876883 C43.5523586,56.876883 41.4490483,54.7782415 41.4490483,52.1976377 L41.4490483,9.30884528 C41.4490483,6.72824151 43.5523586,4.6296 46.1387034,4.6296 L46.7249103,4.6296 C49.3112552,4.6296 51.4145655,6.72824151 51.4145655,9.30884528 L51.4145655,52.1976377 C51.4145655,54.7782415 49.3112552,56.876883 46.7249103,56.876883 L46.7249103,56.876883 Z" id="Fill-16" fill="#201820"></path>
                    <polygon id="Fill-18" fill="#FEFEFE" points="55.5180138 34.3593019 50.2421517 35.5291132 50.2421517 25.976434 55.5180138 27.1462453"></polygon>
                    <path d="M51.4145655,27.4351887 L51.4145655,34.0703585 L54.3456,33.4211132 L54.3456,28.084434 L51.4145655,27.4351887 Z M49.0697379,36.9878679 L49.0697379,24.5176792 L56.6904276,26.2080566 L56.6904276,35.2974906 L49.0697379,36.9878679 Z" id="Fill-20" fill="#201820"></path>
                    <polygon id="Fill-22" fill="#FEFEFE" points="11.5524966 44.2135585 2.5636 44.2135585 3.73601379 40.3543509 12.7249103 40.3543509"></polygon>
                    <path d="M4.14483448,43.0437472 L10.6833862,43.0437472 L11.1441448,41.5241623 L4.60676552,41.5241623 L4.14483448,43.0437472 Z M12.4220759,45.3833698 L0.984006897,45.3833698 L2.86690345,39.1845396 L14.3061448,39.1845396 L12.4220759,45.3833698 Z" id="Fill-24" fill="#201820"></path>
                    <path d="M57.0065103,6.16836981 C56.5797517,6.16836981 56.1682345,5.93557736 55.9607172,5.52965283 C55.6664414,4.95410566 55.8962345,4.24870943 56.4730621,3.9562566 L63.899131,0.181275472 C64.4759586,-0.114686792 65.1817517,0.115766038 65.4760276,0.691313208 C65.7703034,1.26803019 65.5405103,1.9722566 64.9636828,2.26470943 L57.5376138,6.04086038 C57.3676138,6.12742642 57.1847172,6.16836981 57.0065103,6.16836981" id="Fill-26" fill="#201820"></path>
                    <path d="M63.2578207,59.9796906 C63.0503034,59.9796906 62.8427862,59.9247094 62.6516828,59.8100679 L56.3980276,56.0350868 C55.8446483,55.7005208 55.6664414,54.9822566 56.0029241,54.4289358 C56.3370621,53.8756151 57.0557517,53.7001434 57.6126483,54.0335396 L63.8663034,57.8096906 C64.4196828,58.1442566 64.5978897,58.8625208 64.2614069,59.4158415 C64.0421655,59.778483 63.655269,59.9796906 63.2578207,59.9796906" id="Fill-28" fill="#201820"></path>
                    <g id="Group-32" transform="translate(55.103448, 14.207547)">
                        <mask id="mask-9" fill="white">
                            <use xlink:href="#path-8"></use>
                        </mask>
                        <g id="Clip-31"></g>
                        <path d="M1.90071724,4.82874717 C1.38133793,4.82874717 0.905337931,4.4801434 0.766993103,3.95489811 C0.604027586,3.33021887 0.9792,2.69150189 1.60526897,2.52655849 L10.9599586,0.0839924528 C11.5872,-0.0751018868 12.2261655,0.295728302 12.3903034,0.920407547 C12.5544414,1.54508679 12.179269,2.18380377 11.5520276,2.34874717 L2.19851034,4.79131321 C2.09885517,4.81587925 1.9992,4.82874717 1.90071724,4.82874717" id="Fill-30" fill="#201820" mask="url(#mask-9)"></path>
                    </g>
                    <path d="M66.1362138,46.9256491 C66.0365586,46.9256491 65.9345586,46.9127811 65.833731,46.8870453 L56.7041448,44.4667057 C56.0792483,44.3017623 55.7064207,43.6607057 55.871731,43.0360264 C56.0393862,42.412517 56.6830414,42.0416868 57.3067655,42.2054604 L66.4363517,44.6246302 C67.0612483,44.7907434 67.4340759,45.4318 67.2687655,46.0564792 C67.1292483,46.5793849 66.6544207,46.9256491 66.1362138,46.9256491" id="Fill-33" fill="#201820"></path>
                </g>
            </g>
        </g>
    </g>
</svg>