<svg xmlns="http://www.w3.org/2000/svg" xmlns:xlink="http://www.w3.org/1999/xlink" preserveAspectRatio="none" viewBox="0 0 1440 378"><defs><linearGradient id="b" x1="27.613%" x2="79.782%" y1="49.028%" y2="50.602%"><stop offset="0%" stop-color="#46B8E7"/><stop offset="100%" stop-color="#6771B8"/></linearGradient><linearGradient id="f" x1="28.561%" x2="66.826%" y1="48.934%" y2="51.87%"><stop offset="0%" stop-color="#F16370"/><stop offset="100%" stop-color="#EE629A"/></linearGradient><path id="a" d="M0 0h1440v386H0z"/><path id="e" d="M-74 186.385c33.754-52.462 173.146-85.815 418.176-100.057 367.544-21.364 672.766 70.558 885.85 93.69 213.084 23.132 363.216-117.295 379.766-126.742 11.034-6.297 9.4 95.029-4.903 303.979-263.354-101.282-544.968-154.679-844.841-160.19C460.175 191.552 185.324 252.53-64.503 380L-74 186.385z"/><filter id="d" width="105%" height="126%" x="-1.9%" y="-12.4%" filterUnits="objectBoundingBox"><feOffset dx="10" dy="2" in="SourceAlpha" result="shadowOffsetOuter1"/><feGaussianBlur in="shadowOffsetOuter1" result="shadowBlurOuter1" stdDeviation="12.5"/><feColorMatrix in="shadowBlurOuter1" values="0 0 0 0 0 0 0 0 0 0 0 0 0 0 0 0 0 0 0.147372159 0"/></filter></defs><g fill="none" fill-rule="evenodd" transform="translate(0 -8)"><mask id="c" fill="#fff"><use xlink:href="#a"/></mask><path fill="url(#b)" d="M-67.28 111.344C59.35 56.238 313.094-29.347 565.73 27.588c252.638 56.936 366.104 120.099 629.15 116.264C1370.243 141.295 1493.402 92.344 1564.355-3l.645 261-333.172-33.214-558.93-75.779c-288.163 27.94-436.514 43.175-445.052 45.705-8.538 2.531-101.833 6.194-279.884 10.987-94.58-26.166-99.66-57.618-15.241-94.355z" mask="url(#c)"/><g mask="url(#c)"><use xlink:href="#e" fill="#000" filter="url(#d)"/><use xlink:href="#e" fill="url(#f)"/></g></g></svg>