<svg xmlns="http://www.w3.org/2000/svg" xmlns:xlink="http://www.w3.org/1999/xlink" preserveAspectRatio="none" viewBox="0 0 1595 285"><defs><linearGradient id="c" x1="8.535%" x2="93.772%" y1="39.558%" y2="39.558%"><stop offset="0%" stop-color="#EB198F"/><stop offset="51.238%" stop-color="#BD4C9C"/><stop offset="100%" stop-color="#EB198F"/></linearGradient><filter id="a" width="105%" height="132.7%" x="-2.5%" y="-15.5%" filterUnits="objectBoundingBox"><feOffset dy="2" in="SourceAlpha" result="shadowOffsetOuter1"/><feGaussianBlur in="shadowOffsetOuter1" result="shadowBlurOuter1" stdDeviation="12.5"/><feColorMatrix in="shadowBlurOuter1" values="0 0 0 0 0 0 0 0 0 0 0 0 0 0 0 0 0 0 0.2 0"/></filter><path id="b" d="M260 3378.452c28.55.108 50.418-2.452 65.608-7.679 76.004-26.154 162.189-59.594 258.556-62.32 187.884-5.317 242.63 48.327 441.734 48.327 199.106 0 175.107-54.253 388.125-48.328 115.11 3.202 222.542 38.14 322.295 66.81 15.543 4.468 38.436 5.531 68.682 3.19v162h-64.29c-118.358-.567-256.882-13.21-415.57-37.929-238.03-37.078-527.674 32.184-678 37.93-100.217 3.83-205.013 3.83-314.39 0H260v-162z"/></defs><g fill="none" fill-rule="evenodd" transform="translate(-235 -3285)"><use xlink:href="#b" fill="#000" filter="url(#a)"/><use xlink:href="#b" fill="url(#c)"/></g></svg>